<svg xmlns="http://www.w3.org/2000/svg" viewBox="0 0 1080 1080"><defs><style>.cls-1{isolation:isolate;}.cls-2,.cls-6{mix-blend-mode:multiply;}.cls-3,.cls-6{fill:#f2d1b9;}.cls-4{fill:#ffd2b3;}.cls-5{fill:none;}.cls-7{fill:#99594d;}.cls-8{fill:#442c26;}.cls-9{fill:#5a5d4a;}.cls-10{fill:#515443;}.cls-11{fill:#52342d;}.cls-12{fill:#ea9543;}.cls-13{fill:#3f1f08;}.cls-14{fill:#deb795;}.cls-15{fill:#282423;}</style></defs><g class="cls-1"><g id="Layer_1" data-name="Layer 1"><g class="cls-2"><path class="cls-3" d="M1038.68,1295.41c-8.59-34.23-27.5-65-47.45-93.67s-43.76-54.88-69.49-78.66c-51.85-47.94-111.36-86.33-171.11-123.53-33.49-20.85-69.74-35.73-105.44-52.28a165.32,165.32,0,0,0-23.91-8.4c-9-2.58-17.57-5.84-26.36-8.89-15.54-5.38-30.68-2.23-46.07,2.25a235.66,235.66,0,0,0-29.06,10.63c-13.34,1.84-25.19,9.26-35.73,17.43a224.69,224.69,0,0,0-33.58,31.59c-21.28,25.08-34.86,56-44.11,87.33a251.71,251.71,0,0,0-6.72,113c6.13,36.17,21.87,69.35,34.9,103.35,14,36.55,21.95,74.51,28.08,113.07,5.85,36.78,9.57,74.59,21,110.19,9.68,30,25.74,59.84,52.18,78.16,24.43,16.93,56.22,22.78,85.09,26.88,39.51,5.6,79.33,2.67,118.56-3.69a414.93,414.93,0,0,0,90.38-25.06c57-23.28,107.94-60,147.29-107.52C1021,1434.64,1056.29,1365.67,1038.68,1295.41Zm-6.93,50.19c-2.76,35.17-17.49,68.67-36.32,98.09A363.75,363.75,0,0,1,866.69,1565c-55.42,30.9-118.53,46.59-181.68,50.07a333.42,333.42,0,0,1-104.33-10.82c-28.39-7.55-51.1-22.18-67.1-47.2-18.1-28.31-25.6-61.38-31.12-94.1-6.21-36.78-10.58-73.9-18.83-110.32-8-35.21-21.61-67.86-34.69-101.35-13.14-33.66-22.07-67.88-21.54-104.26.51-35.18,9.11-69.75,23.38-101.84,12.65-28.42,31-51.53,54.63-71.56A123.13,123.13,0,0,1,504.15,960a5.24,5.24,0,0,0,5.5.19c4.22-2.27,8.55-4.34,12.92-6.32.67-.06,1.32-.2,2-.22a5.22,5.22,0,0,0,4.44-2.55,224.82,224.82,0,0,1,25.06-8.67c7.07-2,14.62-4,22-4.43,8.64-.45,16.45,3.06,24.36,6s15.89,5,23.88,7.45c9.52,2.88,18.14,7.07,27.09,11.34,16.7,8,34,14.64,50.69,22.52,32.08,15.11,61.71,35.66,91.48,54.79,28.21,18.14,55.82,37.29,82,58.2,52.18,41.63,98.54,90.36,131.17,149C1023.6,1277.57,1034.49,1310.62,1031.75,1345.6Z"/><path class="cls-3" d="M938.05,1287.64a171.25,171.25,0,0,0-23-72.08c-14.47-24.56-34.7-45.1-56.26-63.51-22.72-19.39-47.15-36.64-70.63-55.06-24.43-19.17-48.94-37.93-74.21-56-48.64-34.78-94.61-76.85-156.26-85.18-10.38-1.4-19.2.06-28.54,2.16a5.55,5.55,0,0,0-4-.74c-19.5,3.66-31.78,21.6-39.66,38.4-8.74,18.65-14.73,39.07-19.34,59.12-13,56.41-8.79,116.14-.19,172.88,8.28,54.7,20.46,109.78,44.54,159.91,22.82,47.51,58.08,94.65,108.41,114.75,47.51,19,101.35,12.54,149-2.56,46.15-14.65,91.57-37.82,124.52-74C926.49,1388.18,942.45,1338.09,938.05,1287.64ZM904.37,1391c-23.7,39.49-63.17,66.82-104.74,85-43.86,19.12-94.33,32-142.35,25a147.42,147.42,0,0,1-65.14-26c-21.48-15.55-39-37.31-53.24-59.48-28.52-44.41-44-95.55-54.35-146.91-10.75-53.4-17.83-108.43-14.27-163a328,328,0,0,1,13.2-71.65c5.35-18.17,11.53-37.89,23.89-52.65a40.4,40.4,0,0,1,12.06-10,5.83,5.83,0,0,0,2.45-.06c6.06-1.39,12-3.52,18.13-4.56,7.78-1.32,15.83,0,23.5,1.42A185.91,185.91,0,0,1,605,981.23c24.92,11.24,46.66,27.6,68.34,44,24,18.2,49,35.12,73.13,53.2,22.76,17,44.79,35.09,67.45,52.28,42.2,32,86.79,67.33,104.74,119.19C934.47,1295.53,929.24,1349.51,904.37,1391Z"/><path class="cls-3" d="M845.12,1194.14a6,6,0,0,0-1.22-2.6c-.65-.81-1.27-1.64-1.91-2.47-.8-1.23-1.58-2.48-2.43-3.7a5.9,5.9,0,0,0-1.36-1.37c-8.29-11.48-15.78-23.7-26.68-32.89-15.81-13.32-37-20.59-55.49-29.33-38-17.93-74.69-43.89-117.62-47.85-34.91-3.21-66.76,11.28-90.13,36.84-24.37,26.65-32.53,63-27.6,98.23,2.86,20.51,11.19,39,18.5,58.17,7.66,20.07,13,40.88,21.14,60.81,14.22,34.92,33.93,66.49,63.21,90.77,26.66,22.12,61.5,39.63,97,37.06,35.17-2.56,67.64-22.57,89.5-49.68,24.55-30.46,42.18-69.93,49.54-108.27C866.4,1262.37,863.33,1225.41,845.12,1194.14ZM815.5,1378.32c-17.42,28.82-42.49,53.18-75.57,62.66-32.83,9.4-66-1-93.69-19.28-28.21-18.63-50.68-45.38-65.57-75.6-8.74-17.75-15.68-36.29-21.74-55.11s-13.39-36.71-20-55.2c-11.31-31.81-12.51-68.65,4.15-98.91,15.47-28.11,45.59-49.67,77.91-51.91,45-3.11,83.38,24.48,122,43.07,9.71,4.67,19.52,9.16,29.26,13.78s20.34,8.91,29,15.48c13,9.86,21.3,24.5,31,37.5C869,1251.45,848,1324.5,815.5,1378.32Z"/></g><g class="cls-2"><rect class="cls-4" x="-253.63" y="-65" width="1522.22" height="1210"/></g><path class="cls-5" d="M320.54,180.16c5.18-21.82,12.24-45.85,29.91-56.44,9.18-5.5,19.91-6.43,30.3-6.79a354,354,0,0,1,108.6,13.2c58.35,16.49,112.5,47.65,166.07,78.56,10.34,6,20.93,12.14,28.7,21.89,7.32,9.2,11.6,20.92,15.74,32.38Q717,310.5,734.2,358c4.53,12.54,9.1,25.3,10.35,38.77,1.45,15.83-1.78,31.68-5.29,47.1a1166.11,1166.11,0,0,1-78,229.64l-182.58,27c-38.16,5.64-144.56,42.32-173,12.59-14.53-15.17-21.07-56.85-30.39-77.63-7.62-17-16.92-32.49-20.05-51.57-9.14-55.78,12.78-127.19,21.79-182.09C289.11,328.44,299.6,251.13,320.54,180.16Z"/><path class="cls-6" d="M863.53,494.85A1704.33,1704.33,0,0,1,749.62,830.41q-26.37,3.9-52.74,7.81l-72.1,10.65L576.58,856l-93.76,13.88c-20.26,3-53.7,12-90.07,20.12-63.67,14.26-136.3,25.92-162.78-1.74-21.22-22.16-30.78-83.06-44.4-113.42-11.14-24.86-24.72-47.48-29.31-75.35C142.92,618,175,513.62,188.12,433.39c17.62-107.29,32.92-220.25,63.56-324,6.13-25.77,14-53.68,30.5-71.61A58.33,58.33,0,0,1,295.38,27c13.41-8.06,29.1-9.42,44.26-9.95a519.4,519.4,0,0,1,158.7,19.3C583.6,60.4,662.74,106,741,151.13c15.09,8.71,30.57,17.75,41.91,32,10.72,13.45,16.95,30.57,23,47.31q25.11,69.5,50.18,139c6.62,18.35,13.3,37,15.12,56.66C873.4,449.15,868.67,472.33,863.53,494.85Z"/><path class="cls-7" d="M302.54,867.33a163.8,163.8,0,0,0-13.45-39C277.6,804.8,260.83,783,239.16,768a87.29,87.29,0,0,0-16.56-9.32,76.69,76.69,0,0,0-20.71-4.81c-13.4-1.46-28.07-2.07-41.14,1.72a88.9,88.9,0,0,0-9.23,3.3l-1.47.58c-11.13,3-19.32,13.18-26.54,21.54a259.89,259.89,0,0,0-25.76,36.2c-13.37,22.23-27,45.35-32.56,71-2.55,11.75-3.34,24.09-.57,35.88,3,12.64,10.11,22.48,19,31.63,11.06,11.33,23.22,21.51,34.4,32.71,10.09,10.12,19.32,21.13,30.13,30.53,10.14,8.82,21.59,16.05,34.62,19.67a85.21,85.21,0,0,0,37.12,1.57c26-4.44,48.65-20,64.84-40.52a84,84,0,0,0,10.78-17.19,108.93,108.93,0,0,0,6.62-21.21c3.48-15.37,4-31.11,4.19-46.82S305.7,882.8,302.54,867.33Zm-2,72.09a139.26,139.26,0,0,1-3.5,22.13c-1.63,6.88-3.47,13.83-6.59,20.2-5.87,12-15,22-24.86,30.82a95.19,95.19,0,0,1-31.4,18.74c-23.27,8.28-49.15,6.89-70.19-6.58-11.45-7.33-20.93-17.15-30.19-27-9.76-10.39-19.88-20.26-30.36-29.93-5.39-5-10.77-10-15.91-15.23-4.62-4.71-9.12-9.5-12.44-15.25-5.74-9.93-7.77-21.37-7.23-32.74C69,881.23,79.4,858.89,90.8,838.9c7.17-12.56,14.36-25.14,22.61-37C120.73,791.34,129,780.7,138.56,772a42.69,42.69,0,0,1,6.82-5.2,2.51,2.51,0,0,0,1.78-.58,11.83,11.83,0,0,1,2.24-1.4,21.2,21.2,0,0,1,4-1.15,2.08,2.08,0,0,0,1.44-1l1.35-.49a75.6,75.6,0,0,1,9-2.81c6.29-1.48,12.65-1.63,19.08-1.58,13.51.11,27.82.76,40.11,6.94,22.36,11.25,40.06,30.87,52.85,52A167.33,167.33,0,0,1,301,894.24,347.54,347.54,0,0,1,300.54,939.42Z"/><path class="cls-7" d="M286.56,865.37c-1.19-9.51-4.65-18.24-8.83-26.8a135.16,135.16,0,0,0-14.58-23.49,114.8,114.8,0,0,0-42.3-34.15c-15.75-7.28-34.49-7.81-51.13-3.14-2.95.83-6.05,1.94-8.27,4.14a2.19,2.19,0,0,0-.28.42c-14,6.24-24.89,19.28-33,31.81-10.65,16.45-19.74,37.29-17.95,57.29,1,10.93,4.88,21.26,9.37,31.19a235.79,235.79,0,0,0,16.31,29.64c10.37,16.26,22,34.49,41.2,41,20,6.76,41.64.38,60.15-7.8,9.25-4.08,18.92-8.47,27.17-14.34a40.44,40.44,0,0,0,16.26-23.43c2.65-10,3.72-20.62,5-30.85C287,886.44,287.86,875.83,286.56,865.37Zm-7.73,45.07c-1.44,9.6-2.48,20.24-8.39,28.33-5.46,7.47-14.05,11.83-22.09,16-17.18,8.79-36.24,17.28-56,16.38a46.59,46.59,0,0,1-26.1-9.1c-7.39-5.51-13.17-12.88-18.33-20.43-11.72-17.14-23.12-35.31-29.55-55.2-3.23-10-4.34-20-2.42-30.36a104.15,104.15,0,0,1,10-28.36c7.5-14.56,18-29.39,32.13-38.13a40.67,40.67,0,0,1,11.15-4.85A2.18,2.18,0,0,0,171,782.5c.76-.2,1.52-.37,2.23-.53a88.76,88.76,0,0,1,10.26-1.66,69.68,69.68,0,0,1,25.17,1.41c16.6,4.27,31.89,15.63,43.45,28a129.36,129.36,0,0,1,26.42,43.1C285.38,871.12,281.64,891.69,278.83,910.44Z"/><path class="cls-7" d="M234.82,807.88c-7.34-8.1-16.21-13.23-26-17.81-5.4-2.52-11.21-5-17.29-4.92a21.54,21.54,0,0,0-13.47,5.45c-4.48,3.51-9,7-12.8,11.27a44.21,44.21,0,0,0-8.94,16.18,63.14,63.14,0,0,0,.05,38.18c3.81,11.67,12,21.5,21.84,28.69,10.45,7.67,22.67,11.07,35.52,8.6,19.26-3.72,35.78-18.17,38.21-38.1C254,838.14,246.27,820.5,234.82,807.88Zm-11.94,77.6c-11.53,5.13-24.65,5.51-35.84-.7a58.42,58.42,0,0,1-23.25-23.47c-6-11.55-6.87-25.94-3.73-38.45,1.61-6.43,4.24-12.51,8.66-17.51a68.37,68.37,0,0,1,8.53-7.87,2.19,2.19,0,0,0,1.35-.68c3.72-3.91,8.12-6.85,13.7-6.73,4.91.1,9.66,2.2,14,4.25,7.86,3.67,15.27,7.51,21.6,13.54,11,10.48,19,25.39,19.4,40.8C247.78,865.42,237.94,878.77,222.88,885.48Z"/><path class="cls-7" d="M213.09,847.26c-2.62-4.82-5.71-9.22-10.14-12.56a32.52,32.52,0,0,0-15.57-6c-9.68-1.26-22.55,6.26-19.73,16.63a2.56,2.56,0,0,0,.25,1.14c2.55,5.22,3.77,11,6,16.3a28.75,28.75,0,0,0,10.91,13.47,35.16,35.16,0,0,0,17.28,6c5.59.24,12.15-1.66,15.56-6.39C223.66,867.47,217.26,855,213.09,847.26Zm1.1,24.82c-2.14,4.26-8.13,5.42-12.42,5.16-5.06-.29-10-2.41-14.19-5.11-9.11-5.84-10.46-16.34-14.28-25.6a2.57,2.57,0,0,0-.24-.76c-4.58-8.4,7.87-13.15,14.31-12.19a27.62,27.62,0,0,1,12.86,5.19,31.68,31.68,0,0,1,8.27,10.36,65,65,0,0,1,5.13,11.3C214.78,864,216,868.53,214.19,872.08Z"/><path class="cls-8" d="M1015.1,199.26c-3.74-14.94-12-28.36-20.71-40.88a211,211,0,0,0-30.32-34.33c-22.63-20.92-48.6-37.67-74.68-53.91-14.61-9.1-30.43-15.59-46-22.81a72.61,72.61,0,0,0-10.44-3.67c-3.91-1.13-7.67-2.55-11.51-3.88-6.78-2.35-13.38-1-20.1,1a104.56,104.56,0,0,0-12.68,4.64c-5.82.8-11,4-15.59,7.61A98.09,98.09,0,0,0,758.4,66.79c-9.29,10.95-15.22,24.44-19.25,38.12a109.9,109.9,0,0,0-2.94,49.3c2.68,15.79,9.55,30.27,15.24,45.11,6.11,16,9.58,32.51,12.25,49.34,2.55,16,4.18,32.56,9.18,48.09,4.23,13.1,11.24,26.12,22.78,34.11,10.66,7.39,24.53,9.95,37.13,11.73C850,345,867.41,343.76,884.53,341A181.15,181.15,0,0,0,924,330.05a163.87,163.87,0,0,0,64.28-46.93C1007.4,260,1022.79,229.93,1015.1,199.26Zm-3,21.91c-1.21,15.35-7.64,30-15.85,42.81a158.8,158.8,0,0,1-56.18,52.94c-24.19,13.49-51.74,20.33-79.29,21.85a145.39,145.39,0,0,1-45.54-4.72c-12.39-3.3-22.3-9.68-29.28-20.6-7.9-12.35-11.18-26.79-13.59-41.07-2.71-16.05-4.61-32.25-8.21-48.14-3.48-15.37-9.43-29.62-15.14-44.24s-9.63-29.62-9.4-45.5a113.66,113.66,0,0,1,10.2-44.44,86.18,86.18,0,0,1,23.84-31.23,53.33,53.33,0,0,1,8.18-5.93,2.3,2.3,0,0,0,2.4.08c1.85-1,3.73-1.9,5.64-2.76.29,0,.58-.09.87-.1A2.24,2.24,0,0,0,792.66,49a97.52,97.52,0,0,1,10.94-3.78,45.8,45.8,0,0,1,9.6-1.94c3.77-.19,7.18,1.34,10.63,2.63s6.94,2.19,10.42,3.25a82.13,82.13,0,0,1,11.83,4.95c7.28,3.47,14.82,6.38,22.12,9.82,14,6.6,26.93,15.57,39.92,23.92a430.73,430.73,0,0,1,35.81,25.4c22.77,18.16,43,39.43,57.25,65C1008.53,191.48,1013.28,205.9,1012.08,221.17Z"/><path class="cls-8" d="M971.19,195.87a74.56,74.56,0,0,0-10-31.45C954.84,153.7,946,144.73,936.6,136.7c-9.92-8.47-20.58-16-30.83-24-10.66-8.37-21.36-16.56-32.38-24.44-21.23-15.18-41.29-33.54-68.2-37.18a33.58,33.58,0,0,0-12.45,1,2.44,2.44,0,0,0-1.75-.33c-8.51,1.6-13.87,9.43-17.31,16.76a129,129,0,0,0-8.44,25.8c-5.67,24.62-3.84,50.69-.09,75.45,3.62,23.87,8.93,47.91,19.44,69.79,10,20.74,25.35,41.31,47.32,50.08,20.73,8.28,44.23,5.48,65-1.12,20.14-6.39,40-16.5,54.34-32.31A79.1,79.1,0,0,0,971.19,195.87ZM956.49,241c-10.35,17.24-27.57,29.17-45.71,37.08-19.14,8.34-41.17,14-62.13,10.9a64.26,64.26,0,0,1-28.43-11.35c-9.37-6.78-17-16.28-23.23-26-12.45-19.38-19.21-41.7-23.72-64.11-4.69-23.3-7.78-47.32-6.23-71.12a143.27,143.27,0,0,1,5.76-31.27c2.33-7.93,5-16.54,10.43-23a17.55,17.55,0,0,1,5.26-4.34,2.6,2.6,0,0,0,1.07,0c2.65-.6,5.24-1.53,7.91-2,3.4-.58,6.91,0,10.26.62a81,81,0,0,1,18.11,5.74c10.88,4.9,20.36,12,29.82,19.2,10.5,7.94,21.39,15.33,31.92,23.22,9.93,7.44,19.55,15.31,29.44,22.82,18.41,14,37.88,29.38,45.71,52C969.62,199.32,967.34,222.87,956.49,241Z"/><path class="cls-8" d="M930.63,155.07a2.68,2.68,0,0,0-.53-1.14c-.29-.35-.56-.72-.84-1.08-.35-.53-.68-1.08-1.06-1.61a2.59,2.59,0,0,0-.59-.6c-3.62-5-6.89-10.34-11.65-14.35-6.89-5.81-16.13-9-24.21-12.8-16.58-7.83-32.6-19.16-51.33-20.89-15.24-1.4-29.14,4.93-39.34,16.08-10.63,11.63-14.2,27.49-12.05,42.87,1.25,8.95,4.89,17,8.08,25.39,3.34,8.76,5.68,17.84,9.22,26.54,6.21,15.24,14.81,29,27.59,39.61,11.64,9.65,26.84,17.3,42.34,16.17s29.52-9.84,39.06-21.68a110.62,110.62,0,0,0,21.62-47.25C939.91,184.84,938.58,168.71,930.63,155.07ZM917.7,235.45c-7.6,12.57-18.54,23.21-33,27.34s-28.78-.42-40.89-8.41a83.89,83.89,0,0,1-28.61-33,175.54,175.54,0,0,1-9.49-24c-2.63-8.17-5.85-16-8.72-24.1-4.93-13.88-5.46-30,1.81-43.16,6.76-12.27,19.9-21.68,34-22.66,19.62-1.36,36.39,10.69,53.25,18.8,4.24,2,8.52,4,12.77,6s8.88,3.89,12.67,6.76c5.69,4.3,9.3,10.69,13.52,16.37C941.05,180.08,931.91,212,917.7,235.45Z"/><path class="cls-8" d="M912.29,180.44a57.15,57.15,0,0,0-27.57-23.25c-12.74-5.11-25.77-3.64-37.89,1.91a2.24,2.24,0,0,0-.7.12c-15.69,6.23-22.42,22.84-22.66,38.8A58.43,58.43,0,0,0,828,221.81c3.85,8.94,11,16.8,18.27,23.17,4.35,3.84,9.24,7.35,14.87,9,5.28,1.55,10.77,1,16-.4a51.72,51.72,0,0,0,25.9-16,63,63,0,0,0,13.63-26.93A39.58,39.58,0,0,0,912.29,180.44Zm.6,24.15a59,59,0,0,1-9.73,24.88,47.65,47.65,0,0,1-20.27,17c-4.66,2-10,3.58-15.07,3.54-5.44,0-10.31-2.52-14.6-5.69-13.33-9.87-23.3-23.92-24.64-40.67-1.16-14.37,3-31.89,16.87-38.78a2.39,2.39,0,0,0,1.21-.26c10.54-5.4,22-7.59,33.49-3.89a52.52,52.52,0,0,1,24.29,17C910.5,185.25,914.27,194.84,912.89,204.59Z"/><path class="cls-9" d="M1007.52,548.76c-64,47-107.28,114.33-150.06,181.87S772.4,866,710.66,914.48c-3,2.34-6,4.62-9.09,6.87l-.59.43-.17.71a94.72,94.72,0,0,0,1.4,49.2c6.32,20.8,19.12,38.17,34.94,52.5s34.67,25.67,53.25,34.45c4.23,2,8.81,4,13.88,4.34q.84.06,1.68.06a48.88,48.88,0,0,0,12.35-2.12l-.5-1.93-.51-1.93c-3.88,1-7.68,2-11.34,2-.47,0-.94,0-1.4,0-4.17-.29-8.31-2-12.45-4-18.33-8.66-36.86-19.82-52.28-33.8s-27.74-30.75-33.8-50.69a90.79,90.79,0,0,1-1.33-47.1l-2-.47,1.19,1.61q4.63-3.39,9.19-7c62.47-49,104.94-117.32,147.71-184.85s85.8-134.35,149-180.78l-1.19-1.61-2-.32a94,94,0,0,0-1,14.52c0,7.65.58,15.72,1.26,22.77s1.46,13.08,1.87,16.58c.91,7.76.93,15.81,1.64,23.8s2.13,15.91,6,23.35a43.38,43.38,0,0,1,2,4.3,11.48,11.48,0,0,1,.86,4,5.74,5.74,0,0,1-.47,2.33,7.2,7.2,0,0,1-1.51,2.06,19.72,19.72,0,0,1-2.37,1.91c-15,10.7-33.46,14.85-51.88,16.41-9.38.8-18.84,1-28.33,1l0,2,0-2h-.12c-.84,0-2.37-.14-4.06-.29s-3.59-.31-5.37-.31a18.14,18.14,0,0,0-2.8.18,7,7,0,0,0-2.55.85,5.46,5.46,0,0,0-1.87,2,10.33,10.33,0,0,0-1.11,3.59,25.29,25.29,0,0,0-.22,3.64c0,1.4.06,2.69.07,3.54a55.25,55.25,0,0,0,1,10.73A26.76,26.76,0,0,0,922,717.14a19.93,19.93,0,0,0,7.93,6.84,21.76,21.76,0,0,0,9.21,1.86,55,55,0,0,0,12-1.7c3.93-.91,7.75-1.94,11.22-2.48q15.95-2.53,31.58-6.64c2.5-.66,5.19-1.62,7.89-2.39a29.18,29.18,0,0,1,7.83-1.36,11,11,0,0,1,4.83,1,10.53,10.53,0,0,1,3.57,2.91,27.12,27.12,0,0,1,4.53,9.53,97.83,97.83,0,0,1,3,19.46c.46,6.56.55,12.62.79,16.66.19,3.07.3,6.16.3,9.25,0,12-1.75,23.86-7.7,33.71a54.63,54.63,0,0,1-11.82,13.42,75.13,75.13,0,0,1-28.26,14.65A119.77,119.77,0,0,1,946.14,836c-22.75,0-46.38-4.79-66.47-9.44-8.45-1.95-17.18-4.31-26.19-4.32-1.38,0-2.76.06-4.15.18a45.43,45.43,0,0,0-39.92,38.72v0a2.3,2.3,0,0,0,0,.36,3.3,3.3,0,0,0,.32,1.38,5.34,5.34,0,0,0,1.46,1.75,21.06,21.06,0,0,0,4.25,2.54A107.9,107.9,0,0,0,827,871.64c6.69,2.26,14.29,4.47,20.6,6.19,3.16.87,6,1.61,8.23,2.18s3.88,1,4.68,1.15A214.59,214.59,0,0,0,907,886.24q4.56,0,9.11-.19a211.2,211.2,0,0,0,27.14-2.92A111,111,0,0,0,954.51,880c4-1.21,8-2.23,11.16-2.22a10.48,10.48,0,0,1,2.64.3,3.48,3.48,0,0,1,1.49.78,5.35,5.35,0,0,1,1.46,2.61,17,17,0,0,1,.54,4.63,54.66,54.66,0,0,1-1.3,10.59,174.17,174.17,0,0,1-4.81,17.48c-.87,2.71-1.7,5.2-2.41,7.34s-1.29,3.9-1.65,5.2c-2.71,9.82-5.54,19.63-11.39,27.34a51.58,51.58,0,0,1-11.57,10.8,161.72,161.72,0,0,1-14,8.56c-10.64,6-21.28,11.94-32.71,15.26a59.76,59.76,0,0,1-16.86,2.42,72.12,72.12,0,0,1-26.3-5.32c-12.84-5-25.21-13.05-37-21.86s-22.91-18.36-33.43-26.32a38.31,38.31,0,0,0-6.75-4.15,18.56,18.56,0,0,0-7.72-1.95,10.91,10.91,0,0,0-3.65.6,10,10,0,0,0-3.34,2,10.43,10.43,0,0,0-2.89,4.5,15.79,15.79,0,0,0-.76,5.09,29.68,29.68,0,0,0,.69,6,85.37,85.37,0,0,0,15.8,34,100.35,100.35,0,0,0,28.09,25.12c15.93,9.6,34.1,14.89,52.43,16.79a30.28,30.28,0,0,0,3.06.13c2.11,0,4.34-.12,6.35-.12,1.05,0,2,0,2.9.12a12.35,12.35,0,0,1,1.68.29,2.84,2.84,0,0,1,1.27.61.74.74,0,0,1,.17.25,1.37,1.37,0,0,1,.07.46,6.44,6.44,0,0,1-.84,2.69,31.5,31.5,0,0,1-7.17,9.11,55.17,55.17,0,0,1-9.72,7c-9.31,5.33-20,8.18-30.72,11l.51,1.93.5,1.93c10.73-2.82,21.77-5.72,31.7-11.39a59.54,59.54,0,0,0,10.42-7.48,35.52,35.52,0,0,0,8.07-10.3,10.32,10.32,0,0,0,1.25-4.46,5.31,5.31,0,0,0-.28-1.73,4.81,4.81,0,0,0-1.73-2.32,8.65,8.65,0,0,0-3.79-1.41,28.4,28.4,0,0,0-4.29-.27c-2.16,0-4.39.12-6.35.12a26.38,26.38,0,0,1-2.65-.11c-17.85-1.85-35.45-7-50.78-16.24a96.35,96.35,0,0,1-27-24.11,81.45,81.45,0,0,1-15.08-32.4,26.12,26.12,0,0,1-.6-5.17,12,12,0,0,1,.55-3.82,6.42,6.42,0,0,1,1.78-2.8,6,6,0,0,1,2-1.21,6.83,6.83,0,0,1,2.31-.37,14.72,14.72,0,0,1,6,1.58,34,34,0,0,1,6,3.71c13.84,10.48,29.08,24,45.59,34.94a138.07,138.07,0,0,0,25.76,13.78,76.38,76.38,0,0,0,27.76,5.59,64.09,64.09,0,0,0,18-2.57c12-3.51,22.91-9.64,33.55-15.62a164.54,164.54,0,0,0,14.4-8.79,55.23,55.23,0,0,0,12.45-11.65c6.45-8.53,9.32-18.86,12.06-28.68.42-1.53,1.29-4.11,2.33-7.26,1.57-4.73,3.56-10.78,5.15-16.9s2.83-12.33,2.83-17.52a17.84,17.84,0,0,0-1.31-7.4,8.48,8.48,0,0,0-2-2.82,7.43,7.43,0,0,0-3.15-1.67,14.25,14.25,0,0,0-3.65-.43c-3.92,0-8.21,1.16-12.32,2.39a108.53,108.53,0,0,1-10.84,3.06,206.48,206.48,0,0,1-26.62,2.86q-4.47.19-8.94.19a210.48,210.48,0,0,1-45.58-5c-1.2-.26-4.93-1.19-9.79-2.48-7.3-1.95-17.19-4.77-25.19-7.57a85.4,85.4,0,0,1-10-4,14.85,14.85,0,0,1-2.67-1.63,2.43,2.43,0,0,1-.44-.43v0l-.13.08.14-.06v0l-.13.08.14-.06-.75.35h.82a.76.76,0,0,0-.07-.35l-.75.35h-.34l1.15.15v-.15h-1.16l1.15.15v0a41.44,41.44,0,0,1,36.3-35.2c1.26-.12,2.53-.17,3.8-.17,8.3,0,16.76,2.23,25.29,4.21C899,835.1,922.83,840,946.14,840A124,124,0,0,0,980,835.71a79.32,79.32,0,0,0,29.74-15.44,58.62,58.62,0,0,0,12.66-14.41c6.51-10.8,8.28-23.41,8.28-35.78,0-3.19-.12-6.36-.31-9.49-.18-3-.27-7.22-.51-12-.37-7.24-1.06-15.72-2.94-23.12a38.66,38.66,0,0,0-3.88-10.06,16.26,16.26,0,0,0-6.82-6.71,15,15,0,0,0-6.56-1.39,33.55,33.55,0,0,0-8.94,1.51c-2.85.82-5.54,1.78-7.8,2.37q-15.42,4.07-31.19,6.56c-3.76.59-7.65,1.65-11.49,2.53a50.56,50.56,0,0,1-11.1,1.6,17.69,17.69,0,0,1-7.53-1.49,15.82,15.82,0,0,1-6.34-5.51,22.87,22.87,0,0,1-3.53-8.66,51.12,51.12,0,0,1-.88-10c0-1-.08-2.23-.07-3.51a17.73,17.73,0,0,1,.34-4,5.05,5.05,0,0,1,.47-1.29,1.32,1.32,0,0,1,.46-.53,3.38,3.38,0,0,1,1.1-.32,15,15,0,0,1,2.18-.13c1.54,0,3.34.14,5,.29s3.22.31,4.42.31h.09c9.52-.07,19.08-.23,28.64-1,18.76-1.6,38-5.83,53.86-17.14a23.59,23.59,0,0,0,2.85-2.32,10.82,10.82,0,0,0,2.36-3.28,9.67,9.67,0,0,0,.82-4,15.12,15.12,0,0,0-1.12-5.38,47.08,47.08,0,0,0-2.18-4.72c-3.47-6.74-4.83-14.12-5.52-21.88s-.72-15.84-1.65-23.91c-.42-3.54-1.19-9.52-1.87-16.49s-1.24-14.94-1.24-22.39a90.71,90.71,0,0,1,.91-13.89m-151,222.07.44,2a101,101,0,0,1,22.19-2.11c15.32,0,31.62,2.14,45.86,2.78a10.46,10.46,0,0,1,1.18.1,1.79,1.79,0,0,1,.61.21.88.88,0,0,1,.28.27,3,3,0,0,1,.42,1,11.29,11.29,0,0,1,.29,1.53,53.08,53.08,0,0,1,.63,7.43,20.49,20.49,0,0,1-.9,6.45,9.77,9.77,0,0,1-3.15,4.69,18,18,0,0,1-6.73,2.85,141.51,141.51,0,0,1-56.1,3.32,16.92,16.92,0,0,1-10.73-6.11,17.19,17.19,0,0,1-4-10.71,11.32,11.32,0,0,1,2.36-7.16,13.34,13.34,0,0,1,7.84-4.51l-.44-2-.44-2a17.37,17.37,0,0,0-10.1,5.94,15.39,15.39,0,0,0-3.22,9.64,21.27,21.27,0,0,0,5,13.26,21,21,0,0,0,13.26,7.53,145.89,145.89,0,0,0,57.68-3.42,21.61,21.61,0,0,0,8.21-3.6,13.78,13.78,0,0,0,4.44-6.54,24.21,24.21,0,0,0,1.11-7.72,56.88,56.88,0,0,0-.67-8,13.06,13.06,0,0,0-.64-2.78,5.92,5.92,0,0,0-.78-1.49,5.05,5.05,0,0,0-1.37-1.31,5.46,5.46,0,0,0-2.06-.77,11.45,11.45,0,0,0-1.71-.16c-14-.63-30.36-2.79-46-2.79a105.47,105.47,0,0,0-23.07,2.2ZM818.77,911.6l0,2c8,.19,15.93,2,23.94,4s16.1,4.38,24.48,5.56a113.14,113.14,0,0,0,15.77,1c6.9,0,13.76-.46,20.55-.88,2.45-.16,5.54-.62,8.88-1a85.87,85.87,0,0,1,10.17-.78,26.69,26.69,0,0,1,6.14.6,9.3,9.3,0,0,1,4.15,2,10.23,10.23,0,0,1,2.46,3.2,7.37,7.37,0,0,1,.72,3.22,10.34,10.34,0,0,1-.77,3.74,22.85,22.85,0,0,1-4.73,7,49.31,49.31,0,0,1-11.66,8.88,41.81,41.81,0,0,1-5.9,2.72,17.49,17.49,0,0,1-4.53,1.06l-.83,0a23.1,23.1,0,0,1-7.17-1.29,70.7,70.7,0,0,1-7.24-3Q858.43,933.8,825,915.38a15.7,15.7,0,0,1-3-2,4.66,4.66,0,0,1-.87-1,2.5,2.5,0,0,1-.36-1l-2,.26,0,2,0-2-2,.25a6.51,6.51,0,0,0,.9,2.56,9.54,9.54,0,0,0,2.51,2.69,21.93,21.93,0,0,0,2.82,1.79q33.57,18.47,68.47,34.37a73.84,73.84,0,0,0,7.66,3.12,26.84,26.84,0,0,0,8.41,1.49l1,0a18.62,18.62,0,0,0,4.24-.81,43.12,43.12,0,0,0,8.56-3.82,52.29,52.29,0,0,0,12.51-9.83,28,28,0,0,0,4.33-6.14,15.14,15.14,0,0,0,1.75-6.76,11.48,11.48,0,0,0-1.1-4.92,14.1,14.1,0,0,0-3.4-4.47,13.24,13.24,0,0,0-5.9-2.89,30.56,30.56,0,0,0-7.07-.71,88.34,88.34,0,0,0-10.67.81c-3.38.43-6.47.88-8.63,1-6.8.43-13.58.88-20.3.88a108.73,108.73,0,0,1-15.21-1c-8-1.12-16-3.4-24.05-5.47s-16.29-3.94-24.83-4.15l-2.33-.06.3,2.31Z"/><path class="cls-9" d="M732.32,885l1.4,1.42c52.53-52.06,87-118.71,126.3-180.72,19.66-31,40.42-62,64.58-88.86s51.69-49.73,84.92-64.62l.48-.21.31-.43a2.59,2.59,0,0,0,.32-2.63,3.22,3.22,0,0,0-1-1.2,7.12,7.12,0,0,0-2.12-1.05,34.57,34.57,0,0,0-4.92-1.19c-2.79-.5-6-.91-8.69-1.23l-3.64-.43c-1-.12-1.84-.23-2.25-.3-4.91-.85-9.8-1.9-14.69-3-19.52-4.42-39.15-10.25-59.71-11-.52,0-1.07,0-1.63,0a15.72,15.72,0,0,0-5.26.77,12.15,12.15,0,0,0-4.34,2.64,12.56,12.56,0,0,0-3.33,5.9,25.28,25.28,0,0,0-.73,6.57c0,2.58.22,5.07.33,7.17.07,1.55.1,3.1.1,4.66,0,6.44-.54,12.93-.54,19.6a80.82,80.82,0,0,0,.67,11c.79,5.72,1.84,11.76,1.84,17.31a29.62,29.62,0,0,1-1.08,8.44,16.89,16.89,0,0,1-3.91,6.87,15.16,15.16,0,0,1-5.62,3.69,19.19,19.19,0,0,1-6.87,1.22,21.62,21.62,0,0,1-9.87-2.39,28.56,28.56,0,0,1-9.33-8,43.93,43.93,0,0,1-6.14-11.24,55.15,55.15,0,0,1-3.46-19.42,61,61,0,0,1,9.91-33.2,47.8,47.8,0,0,1,5.91-6.8,42,42,0,0,0,6.13-7.3l1.36-2.24-2.52-.72a62,62,0,0,0-14.76-2c-5-.18-10-.06-14.57-.16-1.42,0-2.87-.06-4.33-.06a69.11,69.11,0,0,0-14.4,1.26A31.32,31.32,0,0,0,814,539a48.91,48.91,0,0,0-6.44,6.53c-3.91,4.5-7.2,8.15-9.81,12.31a38.44,38.44,0,0,0-5.42,15,116.79,116.79,0,0,0-1.41,18.2,119.49,119.49,0,0,0,8.59,44.53,112.93,112.93,0,0,0,7.15,14.62,26.11,26.11,0,0,0,2.13,2.93c1.28,1.59,2.8,3.4,4,5a19.28,19.28,0,0,1,1.44,2.21,3.63,3.63,0,0,1,.48,1.2l0,.6.37.48a31.18,31.18,0,0,1,3.27,5,10.86,10.86,0,0,1,1.41,4.73,4.33,4.33,0,0,1-.26,1.52,3.88,3.88,0,0,1-.85,1.3,5.46,5.46,0,0,1-1.67,1.11,22.71,22.71,0,0,1-2.4.87c-5.29,1.67-11,3.21-16.13,3.2a17.32,17.32,0,0,1-10.11-2.82,15.56,15.56,0,0,1-4.08-4.17,27.46,27.46,0,0,1-3.6-8.68,79.34,79.34,0,0,1-1.67-10q-4-34.73-8-69.45c-.29-2.45-.36-5.36-.57-8.32a36.05,36.05,0,0,0-1.44-8.72,18.72,18.72,0,0,0-1-2.44,8,8,0,0,0-.91-1.44,5,5,0,0,0-1.91-1.52,5.49,5.49,0,0,0-2.24-.44,16.38,16.38,0,0,0-3,.4c-1.07.21-2.25.46-3.63.69q-17.24,2.79-34.48,5.55a78.49,78.49,0,0,0-15.76,3.82,31.93,31.93,0,0,0-7.17,3.79,22.76,22.76,0,0,0-5.74,5.91,35.17,35.17,0,0,0-4.8,13.39,91.33,91.33,0,0,0-1.13,15.34c0,5.27.29,10.3.53,14.43a145.73,145.73,0,0,0,9.62,44.06,148.48,148.48,0,0,0,21.72,38.24A139.63,139.63,0,0,0,734,724.11c.16.16.34.3.56.48.82.66,2.23,1.72,3.94,3,2.56,1.9,5.74,4.26,8.27,6.2,1.26,1,2.36,1.84,3.12,2.48a10.23,10.23,0,0,1,.8.73l.08.07h0l.67-.56-.75.44c.06.11.08.12.08.12l.67-.56-.75.44,1.41-.83-1.54.57a1,1,0,0,0,.13.26l1.41-.83-1.54.57,1.75-.65h-1.87a2,2,0,0,0,.12.65l1.75-.65h0l-1.91-.14v.14h1.92l-1.91-.14,1.78.13-1.78-.15v0l1.78.13-1.78-.15h0l2,.17-2-.35a13.31,13.31,0,0,1-2.32,5.52,17.21,17.21,0,0,1-7.24,5.61,25.19,25.19,0,0,1-9.9,2A23.78,23.78,0,0,1,720,746.21c-5.72-3-10.25-7.7-14.12-13.2a132.38,132.38,0,0,1-10.05-18c-8.06-16.53-16.17-33.27-22.55-50.4S662.21,630,661,611.89l-.18-2.84-2.61,1.13a163.16,163.16,0,0,0-32.83,19.16,58.81,58.81,0,0,0-6.12,5.17,25.92,25.92,0,0,0-4.93,6.63c-2.22,4.45-2.71,9.29-3.12,13.79-.58,6.42-1,12.94-1,19.47a93.24,93.24,0,0,0,3.64,27.44c3.86,12.65,10.81,23.26,19.35,32.72,12.82,14.19,29.23,25.86,44.69,38.17S707.84,798,717,814.44l1.75-1-1.66-1.11a13.79,13.79,0,0,1-6.56,5.07,25.15,25.15,0,0,1-9.13,1.54,38.63,38.63,0,0,1-7.47-.76c-11-2.19-21.17-7.08-30.5-13.58a152.54,152.54,0,0,1-25.51-23.11,257.9,257.9,0,0,1-56.43-102l-1.09-3.85-2.43,3.18q-23.57,30.91-47.14,61.81c-3.83,5-7.8,10.23-10.57,16.24-3.72,8.09-4.88,16.79-4.88,25.51a188.66,188.66,0,0,0,1.7,22.18,206.79,206.79,0,0,0,3.17,20.57,69.92,69.92,0,0,0,7.21,19.65,69.14,69.14,0,0,0,15.24,17.89,190.24,190.24,0,0,0,18.9,13.9c24,16,49.17,31.8,77.69,38.27,14.51,3.29,29.32,4,44.07,4,4.08,0,8.16-.06,12.22-.13h.66l.51-.39a368,368,0,0,0,37-31.93l-1.4-1.42-1.41-1.42a363.76,363.76,0,0,1-36.6,31.57l1.21,1.6,0-2c-4.05.07-8.11.13-12.15.13-14.62,0-29.13-.73-43.18-3.92-27.64-6.25-52.45-21.71-76.36-37.69a187.88,187.88,0,0,1-18.5-13.61A65.18,65.18,0,0,1,530.9,842.8a66.43,66.43,0,0,1-6.78-18.54c-1.46-6.56-2.29-13.38-3.1-20.17a185.46,185.46,0,0,1-1.67-21.71c0-8.38,1.12-16.46,4.51-23.84,2.52-5.48,6.28-10.45,10.12-15.48q23.58-30.9,47.14-61.81L579.53,680l-1.92.54A262,262,0,0,0,634.92,784.2a156.61,156.61,0,0,0,26.19,23.71c9.67,6.74,20.33,11.91,32,14.22a42.2,42.2,0,0,0,8.25.84A29.11,29.11,0,0,0,712,821.15a17.74,17.74,0,0,0,8.42-6.56l.68-1-.59-1.07c-6.39-11.51-15.17-21.23-24.91-30.1C681,769.1,664.15,757.66,649.69,745a137.83,137.83,0,0,1-19.38-20.19,77,77,0,0,1-12.63-24.15,89.53,89.53,0,0,1-3.46-26.27c0-6.34.44-12.75,1-19.11.4-4.46.91-8.78,2.72-12.36a21.61,21.61,0,0,1,4.18-5.59,53.71,53.71,0,0,1,5.7-4.8,158.54,158.54,0,0,1,32-18.69l-.8-1.83-2,.13c1.21,18.61,6,36.51,12.43,53.88s14.64,34.22,22.71,50.75a134.36,134.36,0,0,0,10.37,18.53c4.09,5.82,9.05,11,15.51,14.43a28.83,28.83,0,0,0,27.84-1,19.89,19.89,0,0,0,5.51-5.15,17.34,17.34,0,0,0,3-7.15l0-.09v-.27a2,2,0,0,0-.15-.79,2.43,2.43,0,0,0-.35-.62,6.12,6.12,0,0,0-.6-.64q-.6-.57-1.53-1.32c-2.16-1.76-5.64-4.36-8.76-6.69-1.56-1.16-3-2.25-4.18-3.12l-1.44-1.1c-.38-.3-.66-.53-.72-.59a136.76,136.76,0,0,1-14.5-15.74,144.42,144.42,0,0,1-21.14-37.21,141.84,141.84,0,0,1-9.36-42.85c-.24-4.12-.52-9.07-.52-14.2a86.83,86.83,0,0,1,1.07-14.65,31.47,31.47,0,0,1,4.19-11.87,18.65,18.65,0,0,1,4.75-4.87,32.44,32.44,0,0,1,9.84-4.52,94,94,0,0,1,11.39-2.39l34.48-5.55c1.5-.25,2.76-.52,3.77-.72a13.65,13.65,0,0,1,2.25-.32,1.57,1.57,0,0,1,.58.08.65.65,0,0,1,.23.14,2.82,2.82,0,0,1,.59.82,13.08,13.08,0,0,1,.84,2.06,32,32,0,0,1,1.25,7.74c.2,2.84.27,5.79.58,8.5q4,34.73,8,69.45a67.15,67.15,0,0,0,2.78,14,27.69,27.69,0,0,0,3.15,6.47,19.56,19.56,0,0,0,5.12,5.23,21.36,21.36,0,0,0,12.38,3.52c5.92,0,11.94-1.69,17.33-3.39a24.57,24.57,0,0,0,2.86-1,9.39,9.39,0,0,0,2.88-2,7.93,7.93,0,0,0,1.72-2.67,8.37,8.37,0,0,0,.52-2.94,14.72,14.72,0,0,0-1.85-6.56,36.16,36.16,0,0,0-3.68-5.6l-1.58,1.24,2-.16a5.87,5.87,0,0,0-.52-1.9,18.05,18.05,0,0,0-1.83-3.1c-1.11-1.56-2.44-3.17-3.61-4.61-.59-.73-1.14-1.4-1.59-2a14.9,14.9,0,0,1-1-1.45,109.93,109.93,0,0,1-6.89-14.09,114.41,114.41,0,0,1-7.48-29.24,115.76,115.76,0,0,1-.82-13.8,113.72,113.72,0,0,1,1.36-17.58A34.22,34.22,0,0,1,801.14,560c2.35-3.75,5.5-7.28,9.44-11.81a45.56,45.56,0,0,1,5.9-6A27.45,27.45,0,0,1,828,537a65.39,65.39,0,0,1,13.56-1.17c1.42,0,2.83,0,4.24.06,4.67.1,9.65,0,14.52.16a58.2,58.2,0,0,1,13.8,1.82l.55-1.92-1.71-1a38.76,38.76,0,0,1-5.57,6.58,51.15,51.15,0,0,0-6.39,7.41,65,65,0,0,0-10.57,35.39,58.94,58.94,0,0,0,3.72,20.83,48.25,48.25,0,0,0,6.71,12.27,32.49,32.49,0,0,0,10.65,9.14,25.53,25.53,0,0,0,11.72,2.84,23.39,23.39,0,0,0,8.3-1.48,19.13,19.13,0,0,0,7.09-4.68,20.91,20.91,0,0,0,4.84-8.47,33.36,33.36,0,0,0,1.25-9.59c0-6-1.1-12.23-1.87-17.85a76.55,76.55,0,0,1-.64-10.47c0-6.44.54-12.94.54-19.6,0-1.61,0-3.23-.11-4.86-.11-2.21-.33-4.63-.32-7a18,18,0,0,1,1.13-7.08,7.56,7.56,0,0,1,1.71-2.51,8,8,0,0,1,2.92-1.75,11.5,11.5,0,0,1,3.9-.54l1.5,0c19.88.69,39.27,6.41,59,10.88,4.93,1.12,9.88,2.18,14.89,3.05.5.09,1.16.17,2,.27,2.85.35,7.64.85,11.67,1.53a40.27,40.27,0,0,1,5,1.11,5.92,5.92,0,0,1,1.16.49l0,0h0l.22-.27-.25.24,0,0,.22-.27-.25.24.76-.73-.95.45a1,1,0,0,0,.19.28l.76-.73-.95.45,1.28-.61h-1.41a1.49,1.49,0,0,0,.13.61l1.28-.61h-.11l-1.06-.78a1.37,1.37,0,0,0-.24.78h1.3l-1.06-.78,1.61,1.19-.82-1.83C974,563.73,946,587,921.63,614.14s-45.29,58.32-65,89.4c-39.4,62.22-73.79,128.57-125.73,180Zm55-135,.74-1.86a9.34,9.34,0,0,1-2.68-1.7,30.27,30.27,0,0,1-2.56-2.61c-1.27-1.42-3.32-3.61-5.69-6.27a140,140,0,0,1-11.16-14,48.55,48.55,0,0,1-4.1-7.16,15.22,15.22,0,0,1-1.52-5.79,4.59,4.59,0,0,1,.74-2.67,3.08,3.08,0,0,1,1.5-1.1,8,8,0,0,1,2.82-.43,32.29,32.29,0,0,1,9.39,1.89,141.57,141.57,0,0,1,16.82,7.09c2.67,1.29,5.14,2.53,7.28,3.58s3.9,1.92,5.23,2.47a17.16,17.16,0,0,1,2.09,1,3.86,3.86,0,0,1,1.26,1.09,4,4,0,0,1,.53,1.3,16.21,16.21,0,0,1,.31,1.89q1,8.13,2,16.27a9.38,9.38,0,0,1,.09,1,1.29,1.29,0,0,1-.09.55,1.08,1.08,0,0,1-.47.45,6.29,6.29,0,0,1-1.31.59,53.62,53.62,0,0,1-14.81,3.08c-.61,0-1.21.06-1.79.06a10.47,10.47,0,0,1-3.88-.61l-.74,1.86-.73,1.86a14.39,14.39,0,0,0,5.35.89c.7,0,1.38,0,2-.07a57.52,57.52,0,0,0,15.93-3.3,10.15,10.15,0,0,0,2.09-1,5,5,0,0,0,2-2.15,5.24,5.24,0,0,0,.46-2.23,12.52,12.52,0,0,0-.12-1.52q-1-8.13-2-16.27a19.75,19.75,0,0,0-.4-2.36,7.71,7.71,0,0,0-1.12-2.6,8,8,0,0,0-2.5-2.27,20.1,20.1,0,0,0-2.6-1.24c-1.52-.63-4.11-1.92-7.24-3.47-4.7-2.33-10.65-5.27-16.55-7.64a79.87,79.87,0,0,0-8.67-3,30.29,30.29,0,0,0-7.8-1.24,11.85,11.85,0,0,0-4.25.69,7.1,7.1,0,0,0-3.34,2.55,8.49,8.49,0,0,0-1.47,5,15.62,15.62,0,0,0,.89,4.89,40.68,40.68,0,0,0,4.55,9,122.5,122.5,0,0,0,10,13c3.38,3.91,6.44,7.16,8,9a33.87,33.87,0,0,0,2.92,3,13.5,13.5,0,0,0,3.83,2.39ZM627.48,842.15l1.41-1.42c-5-5-9.77-10.49-15.46-15.21-2.91-2.4-5.82-4.47-7.79-7.06a18.34,18.34,0,0,1-3.44-10.85,13.15,13.15,0,0,1,1.83-7.14,6.09,6.09,0,0,1,2.05-2,5.65,5.65,0,0,1,2.87-.71,12,12,0,0,1,5.09,1.36c7.21,3.45,14.28,8.69,21.2,14.36s13.66,11.72,20.34,16.8c8.68,6.59,17.59,13.37,27.86,17.89,4.09,1.8,8.27,3.18,12.34,4.64a77.89,77.89,0,0,1,11.64,5,7.43,7.43,0,0,1,1.28.86,1.26,1.26,0,0,1,.43.61l0,.19a2.23,2.23,0,0,1-.19.78,9.66,9.66,0,0,1-.58,1.17q-3.46,6.27-7.38,12.28a17.37,17.37,0,0,1-1.63,2.21,4.86,4.86,0,0,1-1.67,1.28,4.44,4.44,0,0,1-1.66.29,14.59,14.59,0,0,1-3.42-.57,140.61,140.61,0,0,1-63.74-36.22l-1.41,1.42-1.41,1.42a144.54,144.54,0,0,0,65.57,37.25,17.86,17.86,0,0,0,4.41.7,8.34,8.34,0,0,0,3.19-.6,8.85,8.85,0,0,0,3.11-2.28,21.77,21.77,0,0,0,2-2.72q4-6.12,7.53-12.52a13.05,13.05,0,0,0,.81-1.67,6.21,6.21,0,0,0,.46-2.22,4.89,4.89,0,0,0-.15-1.18,5.28,5.28,0,0,0-1.63-2.58,11.07,11.07,0,0,0-2-1.39,80.87,80.87,0,0,0-12.24-5.28c-4.12-1.48-8.22-2.85-12.08-4.54-9.7-4.26-18.37-10.81-27-17.42-6.49-4.93-13.22-11-20.23-16.71s-14.3-11.17-22-14.87a15.92,15.92,0,0,0-6.82-1.75,9.63,9.63,0,0,0-4.83,1.23,10.84,10.84,0,0,0-4.54,5.32,18.75,18.75,0,0,0-1.38,7.27,22.29,22.29,0,0,0,4.26,13.28c2.49,3.23,5.69,5.44,8.42,7.71,5.35,4.43,10,9.84,15.19,15Zm6.8,57.06.68-1.88a35.34,35.34,0,0,1-8.66-4.86,18.62,18.62,0,0,1-3.64-3.62,7.57,7.57,0,0,1-1-1.78,4.28,4.28,0,0,1-.32-1.58,3.6,3.6,0,0,1,.44-1.72,6.93,6.93,0,0,1,1.71-2,5.79,5.79,0,0,1,2.49-1.12,18,18,0,0,1,4.07-.4,70.93,70.93,0,0,1,13,1.67c2.2.44,4.32.91,6.22,1.3s3.58.73,5,.9c3.42.43,6.82.86,10.06,1.58a34.42,34.42,0,0,1,9.13,3.25,9.91,9.91,0,0,1,2.07,1.44,3.11,3.11,0,0,1,.94,1.52,2.27,2.27,0,0,1,.07.61,10.09,10.09,0,0,1-.33,2.08,24.59,24.59,0,0,1-1.33,4.55,8.44,8.44,0,0,1-1,1.76,5.65,5.65,0,0,1-1.29,1.25,6.59,6.59,0,0,1-2.14.88,17.28,17.28,0,0,1-2.74.37c-1.19.09-2.38.13-3.58.13-9.79,0-19.63-2.78-29.16-6.19l-.68,1.88-.67,1.88c9.7,3.47,20,6.43,30.51,6.43,1.29,0,2.58,0,3.87-.14a19.76,19.76,0,0,0,3.37-.47,10.54,10.54,0,0,0,3.45-1.46,9.32,9.32,0,0,0,2.26-2.16,13.89,13.89,0,0,0,2-3.89,37,37,0,0,0,1.06-3.95,14,14,0,0,0,.42-3,7.23,7.23,0,0,0-.16-1.5,7.15,7.15,0,0,0-2.07-3.5,13.16,13.16,0,0,0-2.93-2.08,38.3,38.3,0,0,0-10.18-3.64c-3.49-.78-7-1.22-10.43-1.65-1.14-.14-2.76-.45-4.63-.84-2.81-.59-6.21-1.35-9.7-2a61.17,61.17,0,0,0-10.36-1.1,22.11,22.11,0,0,0-5,.5,9.9,9.9,0,0,0-4.16,2,11.15,11.15,0,0,0-2.67,3.22,7.73,7.73,0,0,0-.89,3.57,8.53,8.53,0,0,0,.58,3,13.79,13.79,0,0,0,3,4.46,31.11,31.11,0,0,0,6.51,5.09,36.44,36.44,0,0,0,6.2,3Z"/><path class="cls-9" d="M1007.88,548.55l.82,1.83-1.18-1.62c-64,47-107.28,114.33-150.06,181.87S772.4,866,710.66,914.48c-3,2.34-6,4.62-9.09,6.87-36.65,26.89-78.21,46.78-119.54,66.48l-133.68,63.73,1.72,3.61c9.54-4.55,17.14-11.6,24.31-19S488.29,1021,496,1014.72s16.46-10.61,25.8-14.23,19.2-6.43,28.9-9.43c52.14-16.11,102.53-39.86,146-72.73a368,368,0,0,0,37-31.93c52.53-52.06,87-118.71,126.3-180.72,19.66-31,40.42-62,64.58-88.86s51.69-49.73,84.92-64.62l-.82-1.82-1.18-1.62,1.18,1.62-.82-1.83C974,563.73,946,587,921.63,614.14s-45.29,58.32-65,89.4c-39.4,62.22-73.79,128.57-125.73,180a363.76,363.76,0,0,1-36.6,31.57c-43,32.54-93,56.11-144.77,72.11-9.65,3-19.59,5.82-29.17,9.52s-18.77,8.3-26.86,14.85-14.94,14.47-22,21.78-14.33,14-23.15,18.17l1.72,3.61,133.68-63.73c41.34-19.71,83.12-39.69,120.19-66.87q4.63-3.39,9.19-7c62.47-49,104.94-117.32,147.71-184.85s85.8-134.35,149-180.78"/><path class="cls-6" d="M804.87,515.65a1706.14,1706.14,0,0,1-108,322.57q-107,15.81-214,31.66c-55.75,8.23-211.26,61.84-252.86,18.38-21.22-22.17-30.78-83.06-44.4-113.42-11.14-24.86-24.72-47.48-29.31-75.35C142.92,618,175,513.62,188.12,433.39c17.62-107.29,32.92-220.25,63.56-324,6.13-25.77,14-53.68,30.5-71.61A517.12,517.12,0,0,1,439.65,57.14c85.3,24.09,164.4,69.65,242.7,114.78,15.09,8.72,30.57,17.76,41.92,32,10.71,13.44,17,30.57,23,47.31q25.11,69.48,50.18,138.94c6.62,18.35,13.31,37,15.13,56.66C814.71,470,810,493.13,804.87,515.65Z"/><path class="cls-9" d="M273.58,565.53c4.62-.32,9-2.17,13.16-4.15,36.92-17.45,74.76-45,87.14-85.72a92.66,92.66,0,0,0,1.37-48.15c-3.08-2.26-6.14-4.55-9.15-6.91C241.9,323.1,196.57,148.38,69.3,54.92c2.64,16.74-1.09,43.9-2.19,53.32-1.84,15.83-.09,32.29-7.38,46.47-2,3.86-4.2,8.36-2.43,12.33a12.78,12.78,0,0,0,4.54,4.79c15.44,11,34.28,15.19,52.87,16.77,9.47.81,19,1,28.48,1,3.12,0,11.21-1.46,13.82.13,2.81,1.71,2.19,8,2.17,11,0,6.88-.82,14.12-4.77,19.75-9.62,13.7-25.54,5.74-38.41,3.7q-15.85-2.52-31.39-6.6c-6.49-1.71-15.23-5.84-21.92-2.62-13,6.23-12.3,38.19-13,50.24-.91,15.14-.14,31.13,7.69,44.12a56.82,56.82,0,0,0,12.24,13.92c34.51,29,89,19,129.19,9.74,9.79-2.27,19.71-5,29.72-4.09,19.07,1.68,35.85,17.95,38.11,37,.61,5.21-44.45,16.72-49.55,17.85a212.53,212.53,0,0,1-55,4.84,208.77,208.77,0,0,1-26.87-2.88c-7.14-1.24-18.93-6.89-26-5.06-12.76,3.32,2.72,42,5.26,51.1,2.72,9.82,5.57,19.89,11.72,28,6.68,8.82,16.6,14.48,26.24,19.9,10.64,6,21.4,12,33.13,15.44C229.77,508,268.71,468,300.86,443.69c5.57-4.22,13.73-8.29,18.91-3.6,3.6,3.26,3.34,8.94,2.34,13.69-5.05,24.18-21.8,45.07-43,57.81-15.63,9.42-33.51,14.64-51.6,16.52-7.31.76-21.21-2.71-16.26,7.3,3.57,7.21,10.86,13,17.69,16.93,9.63,5.5,20.49,8.38,31.22,11.2C264.58,564.69,269.06,565.85,273.58,565.53Zm-60-255.8a144,144,0,0,1-56.89-3.37,19.74,19.74,0,0,1-7.47-3.22c-5.68-4.56-5.18-13.2-4.15-20.42.22-1.56.56-3.32,1.89-4.17a5.49,5.49,0,0,1,2.78-.62c21.3-1,47.66-5.37,68.58-.63C237.82,281.71,231,307.28,213.62,309.73Zm40.4,112Q220.51,440.12,185.68,456c-5.14,2.34-10.54,4.68-16.17,4.4-10.7-.54-39.89-20.36-25.65-33.27,6.39-5.79,23-1.76,30.81-1.26,12,.75,24,1.57,35.91-.11,16.4-2.31,32.09-9.21,48.65-9.61C258.89,418.76,256.33,420.41,254,421.68Z"/><path class="cls-9" d="M382.48,421.28c18.73.34,37.58.29,55.82-3.84,28.08-6.36,53.08-22,77-38,12.79-8.56,25.9-17.75,33.52-31.13,6.76-11.88,8.51-25.88,10.12-39.46,1.87-15.67,3.59-32.28-3-46.62-2.65-5.74-6.52-10.83-10.35-15.86q-23.58-30.9-47.14-61.81A260,260,0,0,1,441.6,287.4c-15.51,17.18-34.41,32.81-57.11,37.32-9.05,1.79-20.05.95-25.21-6.7,25-45,87.91-63,103-112.22,4.54-14.83,3.92-30.7,2.53-46.15-.41-4.47-.9-9.06-2.92-13.07-2.3-4.59-6.37-8-10.46-11.1A160.86,160.86,0,0,0,419,116.56c-2.37,36.71-18.8,70.83-34.93,103.89-6.06,12.4-12.85,25.59-25,32.07s-31.05,1.68-33.45-11.92c-.15-.81,15.46-11.9,17.09-13.41a138.12,138.12,0,0,0,14.71-16,146.31,146.31,0,0,0,21.44-37.72A144.15,144.15,0,0,0,388.27,130c.69-12,1.81-31.53-5.08-41.94-5.71-8.63-17.1-11-27.32-12.65q-17.24-2.78-34.48-5.55c-6.61-1.07-8.43-2.78-10.48,3.4C309.28,78.23,309.59,84.78,309,90q-4,34.72-8,69.45c-1.05,9-2.73,19.16-10.21,24.31-8,5.49-18.74,2.78-28-.13a11.26,11.26,0,0,1-4.9-2.49c-4-4.07-.09-10.67,3.43-15.13.24-3,6.63-9.37,8.3-12.22a112,112,0,0,0,7-14.35,117.35,117.35,0,0,0,7.06-61.67c-1.88-12-6.92-17.32-14.77-26.34a47.56,47.56,0,0,0-6.17-6.28c-8.37-6.63-20-6.92-30.64-6.68-9.2.21-20-.47-28.82,2.07,3,4.91,8.63,8.91,12,14a62.24,62.24,0,0,1,8,17.89A59.69,59.69,0,0,1,222,109c-3.15,8.34-8.51,16.23-16.41,20.34s-18.6,3.54-24.74-2.92c-8.21-8.65-5.31-22.45-3.69-34.26s-.36-23.36.23-35.11c.34-7,1.88-17.18-6.76-20.29a16.46,16.46,0,0,0-6.14-.62c-20.22.7-39.73,6.48-59.34,10.93-4.9,1.11-9.83,2.17-14.79,3-3.52.61-23,2.1-21,4.87,67.1,30.07,111,92.13,150.37,154.24s73.78,128.61,126,180.36A366.44,366.44,0,0,0,382.48,421.28ZM284.13,255.2A55.39,55.39,0,0,1,268.76,252a4.76,4.76,0,0,1-2.92-2.08,4.92,4.92,0,0,1-.17-2.67l2-16.27a8.87,8.87,0,0,1,1.18-4.07c1-1.42,2.64-2.14,4.22-2.8,8.13-3.37,39.26-21.62,45.45-12.8,6.29,9-16.21,32-21.88,38.36-1.73,1.93-3.58,3.89-6,4.84A15.31,15.31,0,0,1,284.13,255.2ZM385.86,383.43c-2.08.54-4.34,1-6.33.19s-3.11-2.55-4.21-4.25q-4-6.06-7.46-12.39a5.1,5.1,0,0,1-.93-3.61c.32-1.27,1.53-2.08,2.68-2.72,7.58-4.23,16.19-6.24,24.15-9.74,10-4.39,18.77-11.05,27.45-17.65,13.16-10,27-24.22,41.89-31.37,15.1-7.24,18.28,12.62,10.85,22.33-2.23,2.91-5.28,5-8.1,7.39-5.52,4.58-10.24,10-15.33,15.08A142.53,142.53,0,0,1,385.86,383.43Zm24.29,26.5a11.82,11.82,0,0,1-5.85-1.59c-2.79-1.88-3.73-5.49-4.46-8.78a8.32,8.32,0,0,1-.26-3.57c.45-2,2.24-3.3,4-4.27,6.05-3.3,13.07-4.21,19.9-5.06,7.06-.87,26.34-7,32.3-1.89,9.14,7.79-6.09,16.84-12.07,19C432.93,407.62,421.58,410.76,410.15,409.93Z"/><path class="cls-10" d="M69.3,54.92c67.1,30.07,111,92.13,150.37,154.24s73.78,128.61,126,180.36a366.44,366.44,0,0,0,36.8,31.76c43.26,32.7,93.43,56.36,145.39,72.42,19.35,6,39.62,11.28,55.37,24s27.19,31.44,45.55,40.2L495.11,494.18c-41.33-19.7-83-39.64-119.86-66.67-3.08-2.26-6.14-4.55-9.15-6.91C241.9,323.1,196.57,148.38,69.3,54.92Z"/><path class="cls-8" d="M679.42,642.67c.12,11,.33,22.13-2.63,32.7-5.12,18.34-24,32.55-43.42,28.14a81.8,81.8,0,0,1-7.53-3.39q2.85-3.64,5.65-7.33c13.75-18.09,26.7-36.78,39-55.89,2.86-4.46,5.95-9,9-13.64C679.33,629.73,679.36,636.19,679.42,642.67Z"/><path class="cls-8" d="M640.28,1012.39a48,48,0,0,0-2.08-7.41q-6.12-17.93-12.23-35.86c-2.63-7.72-6.36-15-9.51-22.49s-5-15.18-7.29-22.87c-5.28-17.52-10.54-35.12-17.6-52a32.29,32.29,0,0,0-5.27-7.51,53.32,53.32,0,0,0-9.72-8.2,61.18,61.18,0,0,0-8.76-4.88c-9-4.11-18.82-6.14-28.49-8.36-16.35-3.77-32.69-8-48.7-13.17l-.78-.26q-5.09-1.62-10.11-3.37c-10.31-3.6-20.43-7.66-30.56-11.7-6.25-2.5-12.58-5.44-18.94-8-2.72-1.07-5.43-2.08-8.15-2.92Q412,800.2,401.62,797.7c-4.69-1.14-9.42-2.17-14.16-3.09q-2.25-10.35-4.69-20.63c-8.31-34.78-18.58-69.05-28.85-103.3a218.33,218.33,0,0,1-5.41-22.52c-4.44-23.63-5.63-48.14-7.06-72.43-.72-12.2-1.5-24.34-2.78-36.29-1.4-13.11-5.68-25.65-8.38-38.56a27.05,27.05,0,0,0-2.8-8.54,16.35,16.35,0,0,0-6.53-5.91,23.25,23.25,0,0,0-4-1.63c-4.23-1.28-8.7-1.51-13.11-1.73a1.16,1.16,0,0,0-1,.28c-.21.28-2.27-.28-2.27-.53-.31.43-.61.86-.91,1.3-21.14,31.3-20.62,72-22.82,109.86-1.71,29.39-5.54,58.62-7.85,88-3,38.36-3.37,77.26,1.73,115.31a359.7,359.7,0,0,0,9.77,48.26c2.49,9,5.78,18.36,11.36,25.6.78,1,1.61,2,2.47,2.89a31,31,0,0,0,7.2,5.69,35.84,35.84,0,0,0,10.1,3.74c24.81,5.46,50.56,5.36,75.78,6.34,1.79.07,3.58.14,5.37.23q36.78,1.65,73.31,6.5,21.39,2.84,42.61,6.75c7.33,1.36,14.62,3,21.94,4.36,4.64.89,11.93.92,14.11,6.07,1.36,3.21,1.08,7.27,2.25,10.66,1.3,3.75,3.1,7.3,4.58,11q3.56,8.79,7.69,17.36a117.7,117.7,0,0,1,6,13.61,49.77,49.77,0,0,1-5,41.66,14.34,14.34,0,0,1-2.53,3.21c-1.48,1.32-3.37,2.08-5.06,3.15-.18.11-.36.24-.54.37-.86.37-1.72.74-2.56,1.17-3.37,1.71-6.59,4.53-7.05,8.28a3.12,3.12,0,0,1-.3,1.28,2.85,2.85,0,0,1-1.45,1c-2.57,1.2-4.84,3.4-5.39,6.18s1.12,6.06,3.91,6.6a9.24,9.24,0,0,0,3.62-.28,245.66,245.66,0,0,0,39.21-12c.14-.18.27-.36.41-.53l-5.08,7.7a8.66,8.66,0,0,1-4.59,4.06c-4.47,2.21-9,4.81-11.71,9-2.07,3.2-3,7.62-1.66,11a3.37,3.37,0,0,0,4.51,1.78,75,75,0,0,0,16.76-10.75c8.43-7.28,13.47-10.89,24-18.1,1.27-.87,2.77-1.48,3.67-2.74a9.78,9.78,0,0,0,1.42-4.14q1.77-9.63,3.53-19.23a1.07,1.07,0,0,0-.08-.74,1.18,1.18,0,0,1-.23.27c-.23.21-.25-.5.07-.4a.35.35,0,0,1,.16.13,2.84,2.84,0,0,0,.31-1l1-.39c5.58,5.54,8,13.51,9.06,21.3s1,15.72,2.57,23.42c.65,3.25,2.14,6.19,3.45,9.22,1.52,3.52,3.78,5.73,6.15,6.4a3.14,3.14,0,0,0,4-2.91c.48-12.43,0-25.44.62-37.77A47.34,47.34,0,0,0,640.28,1012.39ZM317.82,745.45C314,720,321,689.61,331.42,664.21c2.11,42.38,10.69,84.59,21.45,125.53.23.89.47,1.78.71,2.67C335.2,785,321.51,770.28,317.82,745.45Z"/><path class="cls-5" d="M613.11,1004.51a1.43,1.43,0,0,0,.23-.27.35.35,0,0,0-.16-.13C612.86,1004,612.88,1004.72,613.11,1004.51Z"/><path class="cls-11" d="M530.26,446.3l-1.69,3-1.08,1.86-1.25,2.11q-1.2,2-2.46,4c-.28.43-.55.86-.83,1.28-.15.25-.31.49-.47.73s-.28.43-.43.64l-.33.5c-.18.28-.38.55-.57.83s-.45.66-.67,1-.65.92-1,1.37c-.12.18-.25.35-.39.53l-.69.92a49.68,49.68,0,0,1-6.47,7.08c-9,7.83-19.75,14.69-31.15,18.13s-23.49,3.94-35.38,3.37c-10.91-.51-22.44-2.22-31.07-8.75.39-9.64,2.83-18.89,2.68-28.51a68.68,68.68,0,0,0-2-15.58l.62.26q12.65,5.37,25.67,9.74c5.1,1.72,10.34,3.34,15.73,3.33,6.71,0,13.12-2.52,19.36-5,11-4.4,22.66-7.55,33.19-13.18a53.84,53.84,0,0,0,16.59-13.14A78.09,78.09,0,0,0,530.26,446.3Z"/><path class="cls-8" d="M684,616.36c-1.48,2.32-3,4.62-4.52,6.9,0-.09,0-.19,0-.29.33-.51.67-1,1-1.52.93-1.43,1.86-2.86,2.77-4.28C683.52,616.9,683.75,616.63,684,616.36Z"/><path class="cls-12" d="M684.14,616.21c0,.3-.08.6-.13.89v-.74h0l0,0h0A1.27,1.27,0,0,1,684.14,616.21Z"/><path class="cls-12" d="M683.26,617.17c-.91,1.42-1.84,2.85-2.77,4.28-.32.51-.66,1-1,1.52,0-.57,0-1.16,0-1.74C680.78,619.88,682,618.53,683.26,617.17Z"/><path class="cls-11" d="M546.72,356.16c-.39,1.75-.79,3.48-1.18,5.2-.28,1.27-.58,2.54-.86,3.81-3.11,13.71-6.24,27.11-11.3,43.95a39.06,39.06,0,0,1-6.09,12.15c-.37.51-.76,1-1.16,1.49a53.84,53.84,0,0,1-16.59,13.14c-10.53,5.63-22.14,8.78-33.19,13.18-6.24,2.48-12.65,5-19.36,5-5.39,0-10.63-1.61-15.73-3.33q-13-4.38-25.67-9.74l-.62-.26-.29-.13c-1.93-.82-3.87-1.67-5.78-2.6h0c-5.4-2.59-10.54-5.7-14.49-10.1-.28-.31-.55-.63-.81-.95-11.08-13.43-7.93-33.3-13.08-49.94-1.86-6-4.83-11.63-6.33-17.73-1.9-7.68-1.38-15.73-.85-23.62.83-12.27,1.81-25,8-35.66,5.71-9.74,15.27-16.62,21.89-25.77,9.46-13.08,12.41-30.06,22.13-43a50,50,0,0,1,33.46-19,53.85,53.85,0,0,1,15.78.22,50.3,50.3,0,0,1,9.33,2.46,48,48,0,0,1,13.78,7.78,38.32,38.32,0,0,1,8,9.14c.54.82,1,1.65,1.55,2.49,3.77,6.38,6.65,13.32,11.2,19.21,4.17,5.42,10.19,8.13,13.27,14.54,2.6,5.42,3.45,11.73,4.44,17.43,1.43,8.21,7.12,15.46,7.83,23.6C545.62,327.54,551.46,335.38,546.72,356.16Z"/><path class="cls-13" d="M496.26,401.4c-4.45-3.13-9.57-9.24-14-12.37-3.95-2.78-8.39-5.7-13.37-5.41-3.57.21-6.95,2.08-10.5,1.68-1.66-.19-3.21-.86-4.85-1.16-4.64-.85-9.22,1.42-13.12,3.81a112.52,112.52,0,0,0-17.26,13c3.89,1.17,8.86-.05,12.58-1.55s7.34-3.42,11.38-3.92,8.17.46,12.28.73c3.15.2,8.5-1.17,11.67-1.14C479.55,395.17,483.57,401,496.26,401.4Z"/><path class="cls-13" d="M485.72,403.34a26,26,0,0,0-21.41-3.72c-2.11.58-4.25,1.45-6.45,1.19a17.73,17.73,0,0,1-3.49-1c-6.6-2.12-16.89-.69-22.11,3.48,3.27,8.36,15.82,15.08,24.93,15.37C482.58,419.51,485.69,403.42,485.72,403.34Z"/><path class="cls-12" d="M353.58,792.4c-18.38-7.45-32.06-22.12-35.76-46.95C314,720,321,689.61,331.42,664.21c2.11,42.38,10.69,84.59,21.46,125.53C353.11,790.63,353.34,791.52,353.58,792.4Z"/><path class="cls-12" d="M666.89,734.68a95.14,95.14,0,0,0,1,28.33c1.93,10.26,5.08,19,1,28.92-3.71,9-6.42,17.8-11.82,26.05a102.84,102.84,0,0,1-32.31,30.89L576.58,856a61.18,61.18,0,0,0-8.76-4.88c-9-4.11-18.82-6.14-28.49-8.36-16.35-3.77-32.69-8-48.7-13.17q24.39-17.15,47.12-36.47c32.61-27.71,61.8-59.26,88.08-93a80.3,80.3,0,0,0,7.54,3.38c19.45,4.41,38.3-9.8,43.42-28.14,3-10.57,2.75-21.73,2.63-32.7-.06-6.47-.09-12.94.07-19.4,1.52-2.28,3-4.59,4.52-6.91v.75c-.29,1.76-.74,3.5-.87,5a122,122,0,0,0,.3,19.49,165.39,165.39,0,0,1,.67,17.09C683.31,684.7,669.85,708.8,666.89,734.68Z"/><path class="cls-12" d="M611.27,492.8c-11.06,6.81-20.51,16.94-27.42,27.07a116.76,116.76,0,0,0-18.06,41.87,219.16,219.16,0,0,1-15.22,45,222,222,0,0,1-31.13,49c-13.38,16-28.69,29.45-41.6,45.89-8.33,10.6-15.47,22.38-25.16,31.82-.67.65-10.26,9.61-10.72,8.48-6-14.44-14.33-26.71-20.88-40.92-4.07-8.81-7.43-17.91-10.72-27-6.07-16.86-10.54-34.74-16.64-51.65,4-4.13,7.51-8.76,9.27-14.21,3.58-11.18-.85-23.49,1.39-35,2-10.42,9.24-19,13.08-28.93,2.15-5.58,3.91-10.85,4.55-16.13a31.39,31.39,0,0,0-1.85-15.44l-.3-.8c-2.71-7-5.37-14.23-6-21.68-.1-1.06-.16-2.13-.16-3.2,0-.85,0-1.71.07-2.55l.59.45c8.63,6.53,20.16,8.24,31.07,8.75,11.89.57,24,.06,35.38-3.37s22.18-10.3,31.15-18.13a49.68,49.68,0,0,0,6.47-7.08l.69-.92c.14-.18.27-.35.39-.53.34-.45.66-.91,1-1.37s.45-.64.67-1,.39-.55.57-.83l.33-.5c.15-.21.29-.43.43-.64s.32-.48.47-.73c.28-.42.55-.85.83-1.28q1.26-2,2.46-4l1.25-2.11c.37-.62.72-1.24,1.08-1.86l1.69-3h0a61.64,61.64,0,0,0,2.4,5.95c5.54,12,17.92,22.53,28.53,30.42,12.52,9.31,25.27,12.5,40.83,11.55A50.59,50.59,0,0,0,611.27,492.8Z"/><path class="cls-11" d="M695.59,534.14a92.91,92.91,0,0,0-9.54-17.66,75.62,75.62,0,0,0-13.38-14.88c-9.9-8.34-18.13-16.3-31.95-17.07a44.56,44.56,0,0,0-13.37,1.33l-.39.1q-1.07.27-2.13.6l-.29.08c-.65.21-1.3.43-1.95.67a56.53,56.53,0,0,0-8.27,3.71c-1,.57-2,1.15-3,1.78h0c-11.06,6.81-20.51,16.94-27.42,27.07a116.76,116.76,0,0,0-18.06,41.87,219.16,219.16,0,0,1-15.22,45,222,222,0,0,1-31.13,49c-13.38,16-28.69,29.45-41.6,45.89-8.33,10.6-15.47,22.38-25.16,31.82-.67.65-10.26,9.61-10.72,8.48-6-14.44-14.33-26.71-20.88-40.92-4.07-8.81-7.43-17.91-10.72-27-6.07-16.86-10.54-34.74-16.64-51.65q-.81-2.25-1.66-4.47c-6.79-17.76-13.51-34.76-15.48-53.67-1.72-16.56-5.61-35.72-4.85-54.12.41-9.88,2.17-19.55,6.33-28.47,4.29-9.21,4.4-16.51,4.92-22.13.58-6.23.08-12.5-.2-18.75a262.41,262.41,0,0,1,1-36.77c.66-6.73,1.57-13.48,1.32-20.21-.05-1-.11-2-.21-3.06a30.58,30.58,0,0,0-8.93-19.36c-.27-.27-.55-.53-.84-.79a23.35,23.35,0,0,0-8,4.67q-15.66-2.5-31.33-5l-2.67-.42a5.4,5.4,0,0,0-2.62,0,5.06,5.06,0,0,0-2.17,1.94,52.82,52.82,0,0,0-5.36,9.83c-1.44,3.27-2.74,6.61-4.24,9.85-.27.59-.55,1.17-.83,1.75-5.29,10.73-12.79,20.27-21.09,28.88-2.47,2.56-5.06,5.13-6.46,8.38a26.11,26.11,0,0,0-1.63,7.22q-1.55,12.64-1.92,25.39a29.81,29.81,0,0,0,.42,7.25,27.33,27.33,0,0,0,3.91,8.5c3,4.82,6.43,9.47,8.39,14.81.07.17.13.34.19.51,1.21,3.46,1.84,7.11,2.94,10.6,1.94,6.11,5.27,11.68,7.68,17.62.12.26.23.53.33.79,3.7,9.39,2.28,13.07,3.39,23.11,1.27,11.54,5.31,22.16,8.44,33.35a221.54,221.54,0,0,1,6.91,38.71c1.17,12.18,1.57,24.43,1.58,36.4,0,6.51.18,13,.5,19.51,2.11,42.38,10.69,84.59,21.46,125.53.23.89.46,1.78.7,2.66l1.17,4.42c3.14,11.65,6.45,23.26,10.22,34.72,1.25,3.83,2.24,7.77,3.44,11.63A56.07,56.07,0,0,0,372,852.4c4.54,9,10.23,7.49,19.4,8.81l.16,0c12.68,1.58,25.32,4.39,38.17,2.88,19.45-2.28,39.38-19.68,55.16-30.51,1.93-1.33,3.86-2.66,5.78-4q24.38-17.13,47.12-36.46c32.6-27.71,61.79-59.26,88.08-93q2.85-3.64,5.65-7.33c13.75-18.09,26.7-36.78,39-55.89,2.86-4.46,5.95-9,9-13.64,1.52-2.28,3-4.58,4.52-6.9h0l0,0h0c7.26-11.41,13.8-23.41,16.18-36.15A82.08,82.08,0,0,0,695.59,534.14ZM360.07,403.63c-.76,8.33-5.14,15.83-9.4,23,1.3-3.54-2.65-7.06-4.77-10.17s-3-6.64-3.92-10.18c-1.94-7.55-3.86-15.62-1.33-23,6.09.44,12.21.65,18.32.64C359,390.49,360.67,397.09,360.07,403.63Z"/><path class="cls-14" d="M526.24,425.25c-.69.45-1.38.89-2,1.33-5.09,3.39-9.94,7.13-15.35,10-11.54,6.13-24.2,10.62-36.35,15.39a46.56,46.56,0,0,1-18.22,3.68c-6.41-.17-12.66-1.88-18.71-3.91A133.52,133.52,0,0,1,417,444.4c-.45-.23-.9-.47-1.35-.74-.19-1-.41-2-.65-2.91-.15-.6-.31-1.2-.47-1.8,1,.61,1.95,1.21,2.94,1.73a121.3,121.3,0,0,0,17,6.76c5.79,2,11.7,3.87,17.83,4.4a42.44,42.44,0,0,0,18.84-3c5.68-2.14,11.19-4.67,16.85-6.86,5.93-2.28,11.86-4.61,17.55-7.42s10.58-6.34,15.72-9.84c1.49-1,3.23-2,4.89-3.1l0,1.13C526.16,423.58,526.19,424.42,526.24,425.25Z"/><path class="cls-15" d="M622.5,356.57a40.33,40.33,0,0,0,21.59-54.43c-5.43-12.07-22-24.81-34-19.15a21.68,21.68,0,0,0,6.88-27.48c-3.28-6.47-17-17.58-24.44-14.27,10.22-13.42-13.42-26.23-24.81-20.41.25-11.79-1.58-22-13.1-28.09a26.15,26.15,0,0,0-12.52-2.66,30.09,30.09,0,0,0-7.9-19.53c-7.5-8-23.06-14.64-33.26-7.73C495.44,142,450.62,127,440.08,150.51c-12.22-14.41-42.05-10.58-43.9,10.8-3.92-7.64-20.53-6-27.52-3.93-17,5.13-16.89,14.47-20.59,28.59-15.52-10.74-46.35,14.66-33.38,31.32-9.31-10.34-26,9.75-31.53,16.14-13,14.92-15.59,33-5.54,49.12-14.55-2-17.17,22.47-18.4,32.16-1.63,12.88,1.8,24.65,13.12,31.05-21.22,5.58-28.18,55.85-2.64,60.15-4.53,6.42-4.49,14.28,0,20.91,5.66,8.29,12.2,6.6,21.16,7.22-22.94,21.72,8.24,66.12,35.74,49.32,1.17,15.22,21.45,30.6,33.43,14.76,6.73,14,29.15,10.7,34.3-2.42,6.79,8.32,18.45,10.19,28.78,7.71a41.75,41.75,0,0,0,7-2.34,25.49,25.49,0,0,1-3.45-12.83V458.3a25.68,25.68,0,0,0-11.59-21.42c-13.08-8.64-24.71-21-34.16-35.31a12.93,12.93,0,0,0,10.52-6.83c5.07-8.86,1.57-35.86-11.73-35.78,9-3.77,12.13-12.7,10.12-20.64,4.26-2.18-7-11.52-12.52-13.44,9.2-5.56,18.05-6.18,20.39-18.75a25.14,25.14,0,0,0,.4-4.27c3.89,0-4.28-15.47-6.73-19,9.12-.39,49.61,1.37,40.22-19.36,11.09,3.58,20.29,3.58,22.91-8.85,8.82,7.81,21.79,10.4,33.45,6.77,5.79-1.81,12.74-6.73,17.75-12.89a48.71,48.71,0,0,0-1.91,10.59c-.1,10.6,8,21.91,18.42,25.29-4.62,2.38-5.11,6.14-3.6,10.05-1-.12,3.72,8.08,6.1,8.7a31.21,31.21,0,0,0,7.88,6c-10,3.92-13.05,14.14-11.64,24.42-1.82-1.46-1.24,5.24,1.47,6.45,2,6.41,5.63,12.29,10.16,16-18.35,8.21-21.44,37.14-10.59,54.85a117.73,117.73,0,0,1-27.48,26,25.66,25.66,0,0,0-11.59,21.42v29.94a25.56,25.56,0,0,1-.43,4.66,39.32,39.32,0,0,0,10.8,5.21c8.86,2.72,29.73,4.65,33.12-6.74,12.32,13.34,50.56,4.29,43.23-16.94,12.5,12.05,34-9.87,22.64-22.6,13.5,4.12,29.71-4.52,34-18,2.82-8.95,1.49-24.16-7.27-29.6,11.48-4.83,22.9-11.37,21.84-26.42C640.21,369.25,632.56,355.31,622.5,356.57Z"/></g></g></svg>