<svg xmlns="http://www.w3.org/2000/svg" viewBox="0 0 1080 1080"><defs><style>.cls-1{isolation:isolate;}.cls-2{mix-blend-mode:multiply;}.cls-3{fill:#ffd2b3;}.cls-16,.cls-4{fill:#2d130e;}.cls-4{mix-blend-mode:overlay;}.cls-5{fill:#f2d1b9;}.cls-6{fill:#efb097;opacity:0.5;}.cls-7{fill:#5a5d4a;}.cls-8{fill:#515443;}.cls-9{fill:#bf6e16;}.cls-10{fill:#5b3125;}.cls-11{fill:#71a4d3;}.cls-12{fill:#9f543f;}.cls-13{fill:#592720;}.cls-14{fill:#4681b2;}.cls-15{fill:#4e8dc8;}</style></defs><g class="cls-1"><g id="Layer_1" data-name="Layer 1"><g class="cls-2"><rect class="cls-3" x="-230.07" y="-63.25" width="1522.22" height="1210"/></g><path class="cls-4" d="M493.94,374.88a1677.65,1677.65,0,0,0-328.23,64.26q-29,102.35-58.08,204.66C92.51,697.1,20.47,841.9,57.54,888c18.91,23.51,77.07,40.57,104.93,57.71,22.82,14,43.15,30.15,69.74,38.16,77.78,23.38,183.59,5.41,263.48,2.78,106.84-3.52,218.92-4.07,323.93-20.75,25.91-2.7,54.12-6.83,73.7-20.63a508.53,508.53,0,0,0,1.18-156c-12.64-86.23-47-169.14-81-251.22C806.88,522.23,800,506,787.59,493.11,775.84,481,760,472.67,744.4,464.67q-64.56-33.32-129.09-66.6c-17-8.78-34.35-17.67-53.31-21.95C539.71,371.09,516.54,372.76,493.94,374.88Z"/><g class="cls-2"><path class="cls-5" d="M227.87-224.92c-37.89,25.5-67,62-93.15,98.94S87.19-48.59,69.55-6.82C34,77.37,13.47,166.67-5.53,255.76c-10.65,49.92-12.82,100.59-17.26,151.31-1,10.94-.42,21.86.3,32.8.79,12,.6,23.95.77,36,.28,21.28,10.78,38.32,23,55.08A305.59,305.59,0,0,0,27,561.63c8.1,15.42,22.34,26.59,36.92,35.81,16.68,10.56,34.7,20.09,53.21,27,39.88,14.87,83.48,17.8,125.68,15.28a326,326,0,0,0,140.45-41.5c41.33-23.38,74.78-57.13,110.43-87.94,38.33-33.11,81-59.48,125.26-83.9,42.19-23.3,86.58-44.45,124.85-74.07,32.26-25,61.51-57.64,72.18-97.88,9.86-37.17,3-78.43-4.71-115.37C800.71,88.51,779.63,41.32,754.65-3.62a536.31,536.31,0,0,0-70.25-99c-53.42-59.18-120.55-105-195.64-132C405.08-264.66,305.62-277.25,227.87-224.92ZM292-238.56c44-12.11,91.26-8.91,135.36,1.07A470.69,470.69,0,0,1,631.6-134.17c62,53.86,108.83,123.77,140.83,199.09a431.4,431.4,0,0,1,32.72,131.74c3.29,37.87-4.52,71.94-27.94,102.42-26.48,34.48-63.44,58.15-100.82,79.26-42,23.73-85.3,45.38-126,71.43-39.35,25.19-73.09,56.15-108.1,86.79-35.18,30.8-72.9,56.71-117.41,72.07-43,14.85-88.9,19.59-134.23,16.32-40.14-2.89-76.33-15-111.11-35-8.27-4.76-17.13-10.23-24.78-16.84a6.79,6.79,0,0,0-2.19-6.78c-4.62-4.13-9-8.49-13.37-12.94-.37-.79-.83-1.52-1.15-2.32A6.74,6.74,0,0,0,33,546.79,288.85,288.85,0,0,1,11.44,520.1c-5.51-7.75-11.36-16-15.07-24.82C-8,485-7.14,473.92-7,463s-.85-21.55-1.43-32.33c-.69-12.86.62-25.19,1.88-38,2.35-23.82,2.88-47.78,5.11-71.6C2.82,275.41,14.8,230.31,25,185.67c9.66-42.3,20.82-84.33,34.75-125.44,27.7-81.81,66.62-159.67,123.62-225.16C212.78-198.73,248.22-226.52,292-238.56Z"/><path class="cls-5" d="M262.66-99a221.62,221.62,0,0,0-77.61,59.68C161.52-10.94,145.41,22.71,132.5,57c-13.61,36.19-23.86,73.5-36,110.19C84,205.38,71.9,243.47,61,282.16c-20.94,74.5-51.93,149-34.95,227.63,2.86,13.26,8.51,23.34,15.18,33.79a7.23,7.23,0,0,0,.86,5.21c13,22.12,40.27,29.18,64.18,31.37,26.54,2.44,54,.75,80.46-2.45,74.36-9,145.21-40.38,210.48-75.8,62.93-34.14,124.61-73.18,175-124.53,47.79-48.67,89.66-112.32,92-182.42,2.2-66.16-29.31-128.85-68.63-180.15C557.5-34.91,509.33-80,450.74-104.17,390.1-129.18,322.13-126.57,262.66-99Zm140.55-4.44C461.7-92,512.33-56,552.66-13.37c42.57,45,80.48,100.72,93,162.26,6.12,30.05,5.49,61.17-3,90.71-9.47,33-28.24,63.88-49,91-41.51,54.23-96.94,95.57-154.9,130.75-60.25,36.56-124.12,69.38-192,89-30.53,8.83-61.33,13.53-93,15.45-24.46,1.48-51.18,2.63-74.59-5.92a52.4,52.4,0,0,1-17.41-10.31,7.66,7.66,0,0,0-1.15-2.95c-4.36-6.77-9.55-13.06-13.52-20.06-5-8.89-7-19.25-8.61-29.22A240.51,240.51,0,0,1,36.22,441c2.71-35.28,13.06-68.92,23.49-102.52,11.57-37.26,21.19-75.09,32.58-112.4,10.74-35.2,23-69.94,34-105.08,20.42-65.45,43.77-135.24,99-179.9C273.84-98.14,341.83-115.52,403.21-103.48Z"/><path class="cls-5" d="M189.74,55.19a7.65,7.65,0,0,0-2.63,2.62c-.69,1.15-1.44,2.27-2.17,3.41-1.15,1.52-2.33,3-3.43,4.58a7.92,7.92,0,0,0-1.07,2.27C170.11,83.2,158.53,97.69,152.14,115c-9.25,25.09-8.8,54.05-11.29,80.43-5.12,54.12-20.57,110.2-6.5,164.19,11.43,43.9,43.08,76.29,84.47,93.49,43.15,17.94,90.95,11.89,131.69-9.6C374.21,431,393,412.74,413.16,395.4c21.06-18.14,44-33.81,64.71-52.46,36.25-32.67,66-70.54,82.68-116.85,15.19-42.18,21.18-92.28,2.43-134.36-18.57-41.68-57.21-72.4-99.82-87.08C415.29-11.83,359.5-15.94,309.61-8,263.42-.72,219.78,19.27,189.74,55.19Zm237.18-45c42.73,8.53,83.4,28.33,109.49,64.42,25.88,35.82,27.84,80.69,17.74,122.5-10.26,42.52-32.94,81.64-63.18,113-17.76,18.44-37.27,35.05-57.5,50.7s-38.79,32.44-58.4,48.57c-33.74,27.75-78.05,45.42-122.2,38.46-41-6.47-80.5-33.64-97.44-72-23.57-53.35-6.88-112.25-1.25-167.45,1.41-13.88,2.56-27.79,3.9-41.67s1.9-28.67,6.08-42.14c6.27-20.19,20.45-36.7,32-54.19C249,.92,347.1-5.7,426.92,10.23Z"/><path class="cls-5" d="M279,80.76c-22.89,27.9-35.79,64.37-37,100.32-1.41,40.68,15.82,75.53,43.52,103.73a6.63,6.63,0,0,0,1,1.82c33.17,37.48,86.27,39.52,131,24.08,22.72-7.83,44.19-20.15,61.75-36.61,21.08-19.75,35.75-47.74,46.23-74.29,6.32-16,11.19-33.19,10.12-50.56-1-16.29-8.11-31-17.25-44.25a153.12,153.12,0,0,0-70.74-56.11C419.49,38,388.69,34.54,358.77,38,326.78,41.72,299.53,55.7,279,80.76Zm66.75-26a175.83,175.83,0,0,1,79.2,2.06c25.62,6.63,49.73,20,67.89,39.39,10.26,11,20,24.22,25.05,38.46,5.37,15.21,3.37,31.3-1.16,46.46-14.07,47.12-43.23,89.06-88.57,109.69-38.92,17.7-92,23.68-125.14-8a7.25,7.25,0,0,0-2-3.11c-25.7-23.95-43.35-53.71-44.59-89.48-1-29.49,7.58-59.7,22.86-84.84C294.19,80.89,317.13,60.73,345.71,54.73Z"/></g><path class="cls-6" d="M1254.18,999.71c-20.33-74.12-57.74-147-118.66-195.78-66.42-53.19-150.35-65.61-233.41-58.44-84.44,7.29-176.38,33.89-236.4,97.27-3.29,3.47-6.5,7-9.68,10.63-5.82,4.86-11.17,9.49-15.94,13.65-59.37,51.75-113.08,113.62-145.35,186-33.38,74.92-46.39,161.24-17.91,240,25.78,71.24,79.74,136.11,148.26,170,38.2,18.89,77.53,28.94,119,37.73q79,16.76,157.37,36c44.55,11,84.82,18.59,130.47,8.09,41-9.44,79.58-30.75,111.1-58.42,63.47-55.72,91-133.93,106.53-214.64,9.3-48.19,20.6-96.18,21.7-145.45C1272.19,1083.53,1265.48,1040.9,1254.18,999.71Zm-497,303.3c81.16,39.37,199,35.34,257.89-32.68,20.25-23.41,29.33-51.62,30.44-80.75a215.13,215.13,0,0,1,1.52,29.93c-1.55,50.1-33.55,90.87-78.47,113.31C896.8,1368.67,814.31,1352.61,757.22,1303Zm113.16-180c4-.82,5.93,1.15,11.46,4.42,11,6.5,26.28,20.37,38.47,34-8.61,9.92-18.77,18.1-29.58,22.48-5.31,2.14-15.66,3.32-17.58,3.14-6.71-.6-8-2.2-11-6-9.45-11.91-7.12-43.9,5.15-55.23C867.64,1125.41,871.14,1123.12,870.38,1123Zm31.08-71.19c-13.88-2.92-29.55-3.64-43.32.48-.24.07-3.33,1.31-5.78,2.29-3.68,1.47-7.51,2.72-11.06,4.49a78.65,78.65,0,0,0-16.94,11.49c-17.11,15.18-27.44,36.72-31.17,59.08a126.92,126.92,0,0,0-.26,39.64,102.17,102.17,0,0,1-4.21-17.8,99.57,99.57,0,0,1,12.14-63.61c13-22.49,37.73-50.46,65-54.44,24.25-3.54,49.67,13.27,69,30.53A138.56,138.56,0,0,0,901.46,1051.79ZM1021,1088.37c-34.23-65.88-115.72-136.25-193.4-100.32-63.29,29.27-103.72,102.36-94.88,171a169.9,169.9,0,0,0,42.6,91.82c-21-12.81-38-30.28-47.78-52.45-40.07-91.12,51.77-211.52,134.19-243.24,99.74-38.4,139.51,49.81,163.07,131,2.45,8.45,4.63,17,6.69,25.51A232.72,232.72,0,0,0,1021,1088.37Zm-394.64-17.55c-8.84,71.57,3.11,146.18,35.63,207.38a332.51,332.51,0,0,0,24.17,38.8c-35.15-41.56-57.23-93.18-68.83-146.5C609.91,1136.34,614.81,1102.77,626.37,1070.82Zm421.26,323.08c37.44-27.32,65-63.18,80-104-.41,5.83-1,11.63-1.92,17.34-8.31,50.73-41.12,91.07-88.77,110.24-23.2,9.33-47.7,13.11-72.45,13.35C994.22,1424.29,1022.63,1412.15,1047.63,1393.9Zm43.79-386.79C1065.71,953,1025.91,903.7,968.36,882.3c-61.32-22.81-130.18.23-180.5,37.51-35,26-68.35,63.74-92.37,106.33,18-57.61,54-108.22,108.75-136.61,52.91-27.46,123.9-40.08,180.47-16.37,49.11,20.59,84.32,62.75,105.25,110.67,11.8,27,19.64,55.73,25,84.93A441.22,441.22,0,0,0,1091.42,1007.11ZM554,1247.47a210.43,210.43,0,0,1-5.39-71.85c15.37,59.5,50.13,117.08,85.91,162.12,24.76,31.19,55.18,56.34,88.91,76.27-27.91-10.78-55-23.72-80.58-41.31C599.69,1343.05,566.9,1298.36,554,1247.47Zm623.71,85c-20,62-62,121.15-124,146.54-30.52,12.5-65.1,17.93-97.58,10.6-17.71-4-35.27-9.49-52.75-15.43,41.08,5.61,82.77,5.31,122.89-5,64.91-16.6,119.08-56.34,143.75-120,23.94-61.8,16.07-137.72,11.59-202.63-4.74-68.53-15.76-137.87-45.86-200.23C1210.47,1062,1219.75,1202.29,1177.74,1332.44Z"/><path class="cls-7" d="M429.22,438.4c1.13,5.28,4.07,10,7.15,14.57,27.09,40,66.61,79.51,118.14,87.67A119.35,119.35,0,0,0,613.33,535c2.26-3.89,4.56-7.76,7-11.59,98.94-158,304.37-236.67,397.91-397.64-20,5.58-53.59,5.35-65.23,5.5-19.56.26-39.31,4.76-57.73-1.52-5-1.71-10.84-3.59-15.38-.95-2.33,1.35-3.82,3.67-5.11,6-10.94,19.47-13.06,41.85-12,63.55.53,11.06,1.84,22.06,3.26,33,.47,3.61,3.56,12.72,2,16-1.63,3.49-9.44,3.74-13,4.16-8.38,1-17.31,1.18-24.79-2.54-18.2-9-11-28.61-10.6-43.78a354.09,354.09,0,0,1,3-37.22c1-7.76,4.69-18.46-.29-25.7-9.64-14.05-48.43-8.44-63.21-7.47-18.57,1.22-37.91,4.52-52.47,15.51a67.38,67.38,0,0,0-15,16.22c-29.83,44.2-9,105.66,8.65,150.59,4.31,11,9.18,22,9.7,33.69,1,22.27-16.16,44.08-38.94,49.55-6.23,1.49-27.4-48.79-29.59-54.51A237,237,0,0,1,626.85,283a229.31,229.31,0,0,1-.75-31.45c.37-8.42,5.37-22.88,2-30.73-6.06-14.24-50.63,9.45-61.36,13.76-11.51,4.62-23.32,9.43-32.22,17.75-9.67,9-15,21.34-20.06,33.28-5.6,13.18-11.24,26.51-13.53,40.56-8.65,53,46.14,91.93,80.87,125.38,6,5.8,12.27,14.6,7.38,21.29-3.39,4.65-10.34,5.2-16.28,4.77-30.23-2.19-58.31-18.39-77.18-40.89-13.95-16.63-23.14-36.48-28.29-57.08-2.08-8.32-.07-24.89-11.47-17.66-8.2,5.2-14.12,14.49-17.79,23-5.17,11.94-6.94,24.92-8.67,37.72C428.82,427.88,428.12,433.23,429.22,438.4ZM731,330.68a159.36,159.36,0,0,1-4.93-66.17c.43-3.15,1-6.39,2.74-9.11,4.65-7.24,15.24-8,24.19-7.87,1.93,0,4.13.16,5.37,1.56a6.23,6.23,0,0,1,1.2,3.12c4.55,24.44,14.1,54.2,11.65,79.06C769,354.39,736.75,350.32,731,330.68ZM601.18,394.16q-27.75-35.9-52.6-73.72c-3.66-5.57-7.37-11.45-7.92-18-1-12.43,18.45-49.12,36.42-34.62,8.06,6.5,5.79,26.29,6.43,35.37,1,13.92,1.89,27.93,5.83,41.43,5.41,18.59,16.29,35.67,19.41,54.72C605.51,399.35,603.1,396.64,601.18,394.16Z"/><path class="cls-7" d="M622.06,542.39c2.55,21.67,5.61,43.41,13.53,63.84,12.2,31.46,35.17,58,58.45,83.19,12.44,13.48,25.71,27.22,43.19,34,15.54,6,32.85,5.93,49.63,5.75,19.37-.21,39.86-.71,56.26-10.48,6.57-3.92,12.15-9.15,17.66-14.34l67.74-63.71a329.33,329.33,0,0,1-134.16-50.17C771,575.16,749,555.69,739.89,530.17c-3.62-10.18-4.35-23,4.15-30.11C802.75,522.11,834.69,592,897,602c18.76,3,38-.09,56.56-4,5.38-1.14,10.88-2.4,15.45-5.33,5.21-3.35,8.73-8.56,11.84-13.75a182.4,182.4,0,0,0,17.88-40.27c-45,2.78-89.19-11-132-24.69-16.06-5.12-33.19-11-43-24.07s-7-35.58,9.2-40.4c1-.29,16.94,16.06,19,17.72a170.64,170.64,0,0,0,21.77,14.57,187.26,187.26,0,0,0,103.71,23.47c14.77-1,38.65-2.64,50.23-12.16,9.6-7.89,10.68-21.41,11.06-33.44q.65-20.33,1.28-40.64c.26-7.79,2-10.15-5.8-11.59-6.25-1.14-14.18.21-20.57.29l-85.79,1.19c-11.14.16-23.74-.26-31.2-8.11-7.94-8.37-6.36-21.22-4.29-32.31.4-2.12.84-4.34,2.25-6,4.33-5.19,13-1.71,19,1.68,3.68-.16,12.45,6.26,16.18,7.75a142.44,142.44,0,0,0,18.58,5.94,151.54,151.54,0,0,0,76.18-1.13c14.27-4,20-10.6,29.71-21a56.76,56.76,0,0,0,6.66-8.07c6.74-10.66,5.25-24.08,3.26-36.37-1.71-10.59-2.59-23.12-7.08-33-5.51,4.18-9.48,11.3-15.19,16a78.56,78.56,0,0,1-65.17,15.86c-10.65-2.38-21.1-7.37-27.36-15.88s-7.27-20.93-.38-29c9.23-10.78,26.48-9.51,41.12-9.41s28.37-3.94,42.76-5c8.53-.65,21.21-.41,23.62-10.85a18.35,18.35,0,0,0-.22-7.19c-4.06-23.23-14.2-44.88-22.71-66.84-2.14-5.5-4.2-11-6-16.61-1.31-4-6.21-26.3-9.27-23.53-26,82-94.49,142-163.84,196.78S709.56,427.05,654.87,495.13A422.83,422.83,0,0,0,622.06,542.39ZM808.57,403.86A61,61,0,0,1,810,385.64c.32-1.4.79-2.92,2.07-3.68a6.21,6.21,0,0,1,3.21-.59l20.12-.14a11.42,11.42,0,0,1,5.15.75c1.87.9,3,2.72,4.07,4.45,5.4,8.88,32.55,42.06,22.79,50.53-9.92,8.62-41.53-13.89-50.15-19.48-2.63-1.7-5.3-3.55-6.84-6.19A16.88,16.88,0,0,1,808.57,403.86ZM668.65,540.59c-1-2.32-1.92-4.86-1.23-7.28s2.61-4,4.5-5.5q6.75-5.47,13.9-10.48c1.26-.88,2.69-1.79,4.24-1.61s2.77,1.46,3.73,2.68c6.37,8.12,10.17,17.76,15.69,26.41,6.93,10.86,16.43,20,25.84,29,14.27,13.69,33.76,27.49,44.82,43.63,11.21,16.34-12.45,23-25.45,15.88-3.9-2.13-7-5.33-10.27-8.24-6.45-5.68-13.84-10.3-20.79-15.42A167.06,167.06,0,0,1,668.65,540.59Zm-28.4,32a13.11,13.11,0,0,1,1-7c1.85-3.51,6.09-5.13,10-6.47a10.55,10.55,0,0,1,4.31-.84c2.46.22,4.37,2.09,5.83,4,5,6.48,7.19,14.45,9.31,22.21,2.19,8,12.65,29.36,7.43,37-8,11.73-21.46-4.49-25-11.07C646.69,598.56,641.07,585.94,640.25,572.62Z"/><path class="cls-8" d="M1018.2,125.74c-26,82-94.49,142-163.84,196.78S709.56,427.05,654.87,495.13a422.83,422.83,0,0,0-32.81,47.26C589.12,597.24,568.3,658.71,557,721.11c-4.21,23.23-7.45,47.42-20.44,67.52s-33.95,36.11-41.7,58.63q28.18-82,56.35-163.9c17.42-50.67,35.07-101.77,62.12-148.39,2.26-3.89,4.56-7.76,7-11.59C719.23,365.34,924.66,286.71,1018.2,125.74Z"/><path class="cls-9" d="M907.9,910.48C892.14,920.71,870.64,924,850,925.63q-4,.33-7.89.57c-30.91,3.71-62.45,5.81-94.25,7-37.89,1.36-76.16,1.37-114.16,1.08l-12.84-.12H619.5c-21.64-.21-43.15-.46-64.44-.59-14.82-.07-30.67.39-47.09,1-13.84.49-28.09,1.07-42.47,1.46-28,.75-56.58.81-83.59-1.83-2.58-.26-5.14-.53-7.68-.83-18.34-2.17-35.87-5.68-51.94-11.19a114.43,114.43,0,0,1-14-5.89c-16.7-8.32-30.83-19.81-46.39-30.21-24-16.11-74.85-33.16-90.77-54.59-31.2-42,37.4-167.5,52.57-214.1q29.19-89.46,58.31-178.9,67.63-17.69,137.38-28.91h0c3.39-.55,6.77-1.09,10.16-1.6q22.57-3.48,45.3-6.26l2.19-.27c1.56-.2,3.1-.38,4.66-.56q5.61-.68,11.24-1.28c5.18-.58,10.37-1.12,15.56-1.65q5.71-.57,11.45-1.09,27.11-2.49,54.33-4c20-1.1,40.57-1.79,60.11,3.41l1.12.3a123.1,123.1,0,0,1,14.63,5.16,228.33,228.33,0,0,1,21.72,10.77c2.9,1.6,5.79,3.23,8.67,4.86l.23.13q11.46,6.48,22.92,13l21.12,11.93L729.6,445l13,7.37q25,14.14,50,28.29c13.48,7.6,27.25,15.47,37.21,26.61,10.57,11.8,16.07,26.39,21.34,40.6C878.47,621.57,906,696,914.25,772.67A450,450,0,0,1,907.9,910.48Z"/><path class="cls-10" d="M587.41,366.26l-3.72,2.89a14.42,14.42,0,0,0-2.19-.77,15.69,15.69,0,0,0-12.4,2.29l-3.22,2-8.27-1a11.08,11.08,0,0,0-6.55-.54,10,10,0,0,0-6.46,4.44,8.91,8.91,0,0,0-1.12,3.44l.53,8.53a78.91,78.91,0,0,1-.5,12.84h0l-.82,5.81v.06a.08.08,0,0,0,0,0L539,432,528.66,453.9l3.09-12.48L531,412.68s-4.25-18-9-20.51a11.54,11.54,0,0,0-3.78-1.21,34.83,34.83,0,0,0-6.37-14.07c-5.25-6.81-14.79-15.49-27.16-13.09-15.43,3-23.74,10.23-31.7,19.9s-4.42,21.9-2.83,32.35,10.79,23.88,20.94,25.5c9.32,1.49,17.71.54,30-3l0,.13c-3.57,12.95-6.46,20.85-7.86,24.05L487.41,476A31.33,31.33,0,0,1,473.15,485a24.68,24.68,0,0,1-13.67.78c-10.59-2.67-15-12.25-15.32-12.94a23.18,23.18,0,0,1-1.82-11.54c0-2.09-.31-4.72-2-5.8-2.4-1.5-5,1.62-9.51,1.46-5.41-.19-11-5-12.42-10.54-.25-1-1.2-4.62.56-7.86s5-4.29,4.74-4.94-2.4.21-4.86.54c-1.24.16-9.78,1.15-12.71-2.8-.51-.69-1.06-1.81-.62-7.37a75.65,75.65,0,0,1,2-12.4l-2.78.35a28,28,0,0,1-8.4-.4c-1.42-.28-11.75-2.35-15.76-9-4.41-7.34,2.93-13.36,4.37-33.88.58-8.22.87-12.33-.7-17.73-3.41-11.76-11-14.16-16.38-26.94-1-2.42-2.39-6.18-3.94-18a274.6,274.6,0,0,1-2-48,41.59,41.59,0,0,0,17.7,10.47c24.7,6.83,42.88-16.34,69.14-21.43,15.21-2.94,38.87-.94,72.8,25.82a114.12,114.12,0,0,1,34.68,24.86C581,323.85,586.09,354.45,587.41,366.26Z"/><path class="cls-10" d="M543.51,400.32a78.91,78.91,0,0,0,.5-12.84l-.53-8.53a8.91,8.91,0,0,1,1.12-3.44,10,10,0,0,1,6.46-4.44,11.08,11.08,0,0,1,6.55.54l8.27,1,3.22-2a15.69,15.69,0,0,1,12.4-2.29,14.42,14.42,0,0,1,2.19.77Z"/><path class="cls-11" d="M819.69,582.75c-1.09,38.55-4.68,89.06-7.89,110.9s-44.26,164.61-46.53,181c-4.31,31.1-11.26,46.63-17.46,58.51-42.17,1.52-84.8,1.36-127,1l71.39-71.84,36.81-47c21.9-36.85,38-60.58,49.71-76.63,10.14-13.87,13.65-22.45,18.18-33.41A175.54,175.54,0,0,0,809.8,635c-16.44,37.93-44.59,63.89-72.53,62.9-17.62-.63-32.74-12.63-42.16-18.37-15.43-9.36-42-25.48-41.24-43.76q6.12-11,12.61-22.07c18.68-31.88,38-61.47,57.63-88.85a202.37,202.37,0,0,0-35.57,37c-7.41,10-10.91,16.65-18.77,29.41-7.63,12.38-19.12,30.08-34.81,51.09-19.86,20.83-30.8,40.2-37.16,54.34-9.72,21.59-19.37,54.48-19.37,54.48l-20.58-59.81q-9.36-43.56-18.72-87.14s30.12-15,49.41-22.42,39.1-22,50.5-35,38.33-42.33,38.33-42.33S704.43,480.74,728,483s47.34,9.43,61.27,23.12S820.77,544.2,819.69,582.75Z"/><path class="cls-10" d="M624.47,411.35A33.24,33.24,0,0,1,636.1,423c12.51,19.05,34.89,32.35,47.27,39.7a143.28,143.28,0,0,0,35.36,14.93s-18.53,4.48-27.06,8-38.87,34.48-38.87,34.48L630.33,545s-5.28,9.56-23.16,19.88-72.58,34.57-72.58,34.57-6.83,2.82.76-10.71c8-14.37,32.58-45.57,40.39-55.9,18.37-24.28,16.81-32.39,34.86-60.43,3.69-5.73,4.87-8.38,5.74-12.76s-.57-11.42-3.48-25.28c-1.85-8.82-3.16-13.95-4.78-19.22-1-3.12-1.85-5.73-2.53-7.64C610.31,407.2,617.54,407.45,624.47,411.35Z"/><path class="cls-10" d="M794.38,700.52q-12.24,18.45-24.47,36.9A163.55,163.55,0,0,1,724,704.85c-12.57-14.37-25-23.07-33.93-29.2-24.93-17.09-44.32-22.19-45.47-35.1-.33-3.7,1.64-4.62,10.69-19.18,7.24-11.66,7-12.44,15-26.16,15.53-26.4,23.29-39.6,34-52,15.36-17.82,25.8-29.95,43.83-33.71,14.73-3.07,38.11-3.19,47.36,12.37,5.15,8.66,10.48,26.33,13,38s1.24,75.19,1.24,75.19Z"/><path class="cls-12" d="M622,707.25c7.91,8.08,16.79,16.65,28.34,27.48,24.43,22.9,35.81,35.69,53,45.48,10.55,6,29,18.84,29,18.84.95-.8,2.44-2.11,4.14-3.84,8.43-8.56,12.07-16.7,15.25-23,11.43-22.58,19.61-25.4,17.18-31.71-1.74-4.53-6.37-4.12-20.26-11.54a117,117,0,0,1-19.31-12.35c-13.15-10.69-22.26-24.9-31.16-31.19-8.12-5.76-9.2-5.55-20.59-12.89A252.12,252.12,0,0,1,642.23,645a114.24,114.24,0,0,0-28.51,36.61l-5.2,11.49C611.93,696.79,616.51,701.64,622,707.25Z"/><path class="cls-13" d="M679,495.11s-15.91,11.33-21,15.36-22.15,21.25-22.15,21.25-9.23,12.52-13.41,15.73S599.11,566,591.47,568.53s-53.77,29.53-53.77,29.53,29.92-13.51,37.59-17.21,35.15-17.94,35.15-17.94l13.76-10.58,23.5-25.2Z"/><path class="cls-13" d="M528.13,588.61a612.13,612.13,0,0,0,9,76.6c1.32,7.19.15.07,13.82,58.94,4.41,19,7.4,32.13,15.64,48.56A159.36,159.36,0,0,0,579,793.32l-21.93-80.59Q546.81,678,536.54,643.21,532.34,615.91,528.13,588.61Z"/><path class="cls-14" d="M800,697.59l-20.76,52.89-31,50.14L662.88,910.38l-29.23,23.86-12.84-.12H619.5l4.35-2.65,51.07-51.39,46.62-54.91,22-33.42,28.35-43.17Z"/><path class="cls-15" d="M501.29,437.78c-.07.27-.14.52-.21.78-12.26,3.53-20.65,4.48-30,3-10.15-1.62-19.35-15.05-20.94-25.5S445,393.37,453,383.7s16.27-16.91,31.7-19.9a21.62,21.62,0,0,1,8.53,0,24.25,24.25,0,0,0-5,.39c-16,2.9-24.6,9.92-32.85,19.31s-4.58,21.25-2.93,31.38,11.18,23.18,21.7,24.75C482.81,441,490.66,440.37,501.29,437.78Z"/><path class="cls-13" d="M518.23,391a14,14,0,0,0-6.1.51q-1.63,5.67-3.25,11.34-.54,3.27-1.11,6.36-.81,4.41-1.65,8.46c-1.62,7.8-3.3,14.54-4.83,20.15-10.63,2.59-18.48,3.18-27.1,1.89-10.52-1.57-20.05-14.61-21.7-24.75s-5.31-22,2.93-31.38,16.86-16.41,32.85-19.31a24.25,24.25,0,0,1,5-.39c8.24,1.69,14.67,7.9,18.63,13.05A34.83,34.83,0,0,1,518.23,391Z"/><path class="cls-15" d="M516.42,376.93c-4.71-5.73-12.78-12.82-23.19-13.09a24.25,24.25,0,0,0-5,.39c-16,2.9-24.6,9.92-32.85,19.31s-4.58,21.25-2.93,31.38,11.18,23.18,21.7,24.75c8.62,1.29,16.47.7,27.1-1.89,2.35-.57,4.84-1.24,7.51-2,14.69-4.24,11.15-16.44,14.07-29S521.86,383.54,516.42,376.93Zm-10.3,40.7c-1,2.07-2.76,3.71-6.08,4.66-8.77,2.53-14.38,3.27-20.67,2.33s-12-8.72-13-14.78-3.17-13.15,1.75-18.75,10.07-9.8,19.62-11.53c7.65-1.39,13.57,3.64,16.81,7.58A20.53,20.53,0,0,1,508.45,405a38,38,0,0,0-.68,4.21C507.42,412.32,507.27,415.26,506.12,417.63Z"/><path class="cls-16" d="M350.55,210.83c0,6.61,3.72,7.75,4.62,15.24,1.06,8.76-3.68,10-2.77,17,1.52,11.75,16.62,21.23,25.9,21.45.23,0,2.8.14,8,0,2.32-.06,5.46-.09,9.94,0,2,0,10.38,0,18.8.9,11.6,1.2,17.4,1.81,21.8,4.75,7.16,4.77,4.73,9,12.16,13.89,7.92,5.24,13.65,2.45,17.72,8,2.43,3.3,1.16,5.33,2.92,11.86,2.28,8.41,5.83,8.21,9.24,17.07,6.17,16,2.93,25.42,15.83,34.85,8.62,6.3,12.19,3.66,49.23,14.32,4.78,1.38,10.64,3.13,17.9,1.79,5-.91,6.07-2.42,10.75-2.68,1.28-.07,11.48-.64,16.11,5.37,2.79,3.62,1.22,6.58,2.68,18.8.55,4.56,1.27,8.27,1.8,10.74,9.69-1.57,23.32-2.05,34.91,5.37,10.61,6.8,11.74,15.26,20.58,25.06,12.77,14.15,35.91,28.05,49.24,21.49,5.73-2.83,5.34-7.34,15.09-12.94,8.46-4.85,11-2.72,16.33-6.94,6.71-5.3,4.54-10.05,11.81-22.24s11.29-10.54,14.24-19.1c3.46-10.06-2-12.76.69-25.36,2.7-12.85,9-13.3,9-22.63,0-9.9-7.14-10.53-10.37-24.26-3-12.64,1.88-17.13-2.78-22.93s-10.09-2.2-19.79-9c-8.16-5.74-7-10.12-13.61-12.71-6-2.31-7.76.86-19.74.55-11.71-.3-12.19-3.38-19.11-2.08s-8.56,4.65-19.1,10.77A110.14,110.14,0,0,1,644.16,295c9.46-9.39,11.61-17.26,11.83-22.71.34-8.46-4-10.64-4.17-22.23-.16-10.78,3.54-11.78,2.09-20.5-1.3-7.81-4.51-8.4-6.25-17.71s1.24-9.89-.7-15.63c-3.36-10-12.55-8.82-18.41-20.5-3.28-6.53-.95-8-4.52-12.85-4.27-5.83-8.67-5.21-17.71-11.46s-6.58-8.21-13.2-11.81c-8.58-4.67-12.27-1.14-25-5.91-7.73-2.89-6.28-4.15-12.85-6.25-10.66-3.41-14.57-.12-25.36-2.78-9-2.22-7.44-4.79-16.33-7.3-8.17-2.3-9.92-.25-29.87,0-15.46.2-17.84-1-22.58,1.74-6.65,3.83-6.21,8.61-12.85,11.12-7.37,2.78-10.14-2.26-17.72,0-8.26,2.46-7.34,9.16-17.71,14.24-6.75,3.3-7.82.8-14.94,4.17-8.08,3.81-7.74,7.52-17,14.24-10.73,7.77-14,4.86-18.41,10.77-4.55,6.09-.87,8.95-5.91,21.88C353.14,204.29,350.54,205.3,350.55,210.83Z"/><path class="cls-7" d="M202.16,814.07c3.28.9,6.8.64,10.22.24,30.23-3.51,63.82-14.1,83.38-40.53a75.27,75.27,0,0,0,13.94-34.53c-1.52-2.39-3-4.8-4.45-7.26-59.56-101.28-43.74-239-106.5-338.09-2.68,12.77-12.6,31.51-15.9,38.06-5.55,11-8.78,23.36-17.64,31.82-2.42,2.31-5.17,5-5,8.32a9.34,9.34,0,0,0,1.85,4.59c7.69,11.79,19.59,19.48,32,25.22,6.33,2.92,12.86,5.38,19.41,7.78,2.15.79,8.14,1.72,9.52,3.51s-.66,6.37-1.47,8.51c-1.89,5-4.38,10-8.64,13.12-10.34,7.54-19.2-2.16-27.55-6.81a225,225,0,0,1-19.92-12.54c-4-2.84-8.95-8-14.45-7.31-10.65,1.3-18.8,24.61-22.56,33.16-4.72,10.73-8.5,22.5-6.6,33.84a42.28,42.28,0,0,0,4.71,13.1c16,29.53,56.43,35.78,86.68,39,7.38.77,15,1.27,21.65,4.38,12.74,5.93,19.94,21.85,16.37,36.18-1,3.92-35.24,1.12-39.07.68a149.29,149.29,0,0,1-39.36-10.1,145.91,145.91,0,0,1-17.8-8.73c-4.6-2.66-11.22-9.66-16.58-10.08-9.72-.75-9.45,31-10.16,38.3-.77,7.78-1.52,15.78.54,23.18,2.24,8,7.57,14.58,12.77,20.89,5.74,7,11.55,14,18.74,19.36,27.11,20.26,64.81,1,93.61-8.72,5-1.68,11.73-2.61,14,2.07,1.61,3.25-.1,7.29-2.07,10.49-10,16.25-27.24,27.24-45.31,31.24a89.53,89.53,0,0,1-40.13-.79c-5.26-1.26-13.94-7.21-13.21,1.27.52,6.1,4,12.11,7.66,16.62,5.17,6.36,11.9,11.13,18.56,15.82C196.17,811.23,199,813.18,202.16,814.07Zm27.59-200a100.35,100.35,0,0,1-38.42-16.49,13.92,13.92,0,0,1-4.29-4.18c-2.7-4.71,0-10.84,2.64-15.81.57-1.08,1.28-2.26,2.43-2.55a3.94,3.94,0,0,1,2.09.23c15,4.57,34.4,7.9,47.58,16.5C254.05,599.73,242.4,616.55,229.75,614Zm-2.29,91Q199.32,710.15,171,713c-4.18.43-8.55.79-12.37-.81-7.25-3-22.08-24.6-8.75-30.42,6-2.61,16.38,4.41,21.64,6.7,8.06,3.5,16.16,7.06,24.85,8.79,12,2.38,24.68,1.27,36.23,5.07C231.62,704.17,229.4,704.73,227.46,705.08Z"/><path class="cls-7" d="M316.39,736.53c12.85,4.88,25.9,9.5,39.62,11,21.13,2.34,42.63-2.79,63.5-8.46,11.16-3,22.7-6.45,31.57-14.25,7.89-6.94,12.87-16.64,17.66-26.07,5.51-10.89,11.19-22.49,10.5-34.5a66.42,66.42,0,0,0-2.87-14q-8-28.2-15.91-56.4a207.36,207.36,0,0,1-67.07,60.39c-15.36,8.61-32.64,15.26-49.55,12.91-6.75-.94-14.12-4.26-15.62-11.08,29.4-26.4,77.78-23.91,101.46-55.81,7.14-9.61,11-21.26,14.21-32.79.92-3.34,1.82-6.78,1.51-10.18-.36-3.89-2.24-7.37-4.24-10.62a114.86,114.86,0,0,0-17.31-21.71c-11.55,26-32.12,46.63-52.19,66.58-7.54,7.48-15.79,15.36-26,17s-21.92-6.47-19.91-16.9c.12-.62,13.91-4.79,15.45-5.49a107.58,107.58,0,0,0,14.47-7.92A117.93,117.93,0,0,0,399,527.1c3.73-8.55,9.76-22.37,7.81-31.62-1.62-7.66-8.86-12.19-15.47-15.91Q380.17,473.3,369,467c-4.29-2.41-5.08-4.09-8.17-.12-2.46,3.16-4,8-5.82,11.58q-12.15,24.15-24.29,48.3c-3.16,6.27-7.06,13.19-13.62,15.07-7,2-13.71-2.61-19.3-7a8,8,0,0,1-2.72-3c-1.64-3.93,2.82-7.75,6.45-10.12,1-2.1,7.12-5.13,9-6.79a90.21,90.21,0,0,0,8.73-8.65,95.59,95.59,0,0,0,21.53-42.91c1.93-9.14-.11-14.25-3.1-22.72a35.82,35.82,0,0,0-2.58-6.07c-4-6.87-11.93-9.94-19.37-12.4-6.42-2.13-13.68-5.28-20.49-5.63.74,4.29,3.56,8.58,4.51,13.13a49.49,49.49,0,0,1-10.1,41c-4.42,5.26-10.26,9.65-16.83,10.68s-13.82-2-16.31-8.23c-3.35-8.29,2.38-17.56,6.7-25.72s6.05-17,9.63-25.36c2.11-5,5.94-12,.8-16.36a11.45,11.45,0,0,0-4.08-2c-14.17-4.49-29.22-5.12-44-6.75-3.69-.41-7.38-.86-11-1.46-2.61-.43-16.5-4.18-15.85-1.66C237,432.25,250.64,488,261.08,542.72s16.29,111.35,38.44,161.73A266,266,0,0,0,316.39,736.53ZM293.22,592a38.56,38.56,0,0,1-9.77-6.11,3.44,3.44,0,0,1-1.45-2.23,3.94,3.94,0,0,1,.6-2l5.78-11.29a7.43,7.43,0,0,1,1.91-2.66,6.84,6.84,0,0,1,3.68-1c6.53-.43,33-6,34.87,2S309,587.89,303.36,591.08a12.67,12.67,0,0,1-5.45,2A10.68,10.68,0,0,1,293.22,592Zm35.72,118c-1.59-.13-3.28-.34-4.43-1.43a7.64,7.64,0,0,1-1.77-4.12q-1.1-5.35-1.81-10.81a4.12,4.12,0,0,1,.33-2.84,3.81,3.81,0,0,1,2.59-1.31c6.39-1.2,12.88-.52,19.33-1.09,8.08-.71,15.95-3.36,23.74-6,11.8-4,25.19-10.88,37.42-12.36,12.4-1.51,9.24,13.65,1.48,18.85-2.33,1.55-5,2.34-7.6,3.34-5.05,1.95-9.78,4.73-14.66,7.14A105.42,105.42,0,0,1,328.94,710Zm9.64,25.19a8.31,8.31,0,0,1-3.62-2.6c-1.42-2.06-1.09-4.9-.71-7.46a6.78,6.78,0,0,1,.78-2.65,5.6,5.6,0,0,1,3.93-2.1c5.07-.89,10.17.18,15.12,1.26,5.12,1.1,20.09,1.46,22.84,6.61,4.22,7.89-8.75,10.68-13.47,10.76C355,739.11,346.26,738.58,338.58,735.16Z"/><path class="cls-8" d="M198.75,393.9C237,432.25,250.64,488,261.08,542.72s16.29,111.35,38.44,161.73a266,266,0,0,0,16.87,32.08c21.07,34.37,49.37,63.89,81,88.36,11.76,9.12,24.34,18,31.8,31.07s10.31,29.48,20.64,40.36l-75.22-79.17c-23.26-24.48-46.68-49.21-64.87-77.9-1.52-2.39-3-4.8-4.45-7.26C245.69,630.71,261.51,493,198.75,393.9Z"/><path class="cls-11" d="M465.5,936c-28,.75-56.58.81-83.59-1.83q8-29.21,16-58.41-8.37-101.58-16.73-203.16A408.15,408.15,0,0,1,434.33,574L429.86,627l-1.62,110.63Z"/><path class="cls-10" d="M445.85,617.42c-1.62-8.4-4.86-30.15-3.11-40.51s18.17-62.72,23.82-72.25,25-33.54,28.43-40.28,9.3-22.15,9.3-22.15l2.31-32.57,7.32-14.57,3.82-2.3a8.57,8.57,0,0,1,5.59.83c4.18,2.41,4,8.46,5.16,23.85,1.17,16.26,1.78,15.93,1.41,21.26a74.23,74.23,0,0,1-4.38,20.46c-.08,1.1-.15,2.2-.23,3.3l12.85-20.43L541.25,432l4.46-29.11s-.89-23.61,1.85-26,12.6-6.46,16-2.17S569.45,395,569,411.88s-.07,11.4-.46,16.89,0,9.94-.86,12.08-12.59,27.07-12.59,27.07,9.93-11.44,12.24-17.53,4.92-27.24,4.92-27.24l-2.46-32.61S565,375,568,373.46s13.34-2.32,16.94,1.3,7,34.71,7,34.71,2.38,24.45,2,28.84-15.36,34.59-15.36,34.59a58.35,58.35,0,0,0,8-9.36c2.9-4.58,9.3-22.15,9.3-22.15s-4.2-34.14-1.32-33.2,11.07-.5,12.86,10.57,4.59,38.86,4.59,38.86l-37.88,62s-4.65,13.65-10.59,19.49S528.8,578.62,528.1,588.5s8.25,54.67,8.25,54.67,28.75,97.5,31.42,106.52S579,793.53,579,793.53c4.65-25.23,7.83-43.86,9.81-57.91a73.12,73.12,0,0,1,17.27-39.16c4,4.39,9.67,10.61,16.62,18,18.85,19.91,32.18,32.89,47.43,47,5.18,4.78,59.66,42.87,59.66,42.87s-24.62,30.8-31.4,40.8S628.22,916.23,613,928.94s-55.33,33-67,34.41S526.74,962,526.74,962a651.94,651.94,0,0,1-39.28-91.63c-22.17-65.15-29-119.47-34.64-166.21C448.45,667.93,446.67,637.87,445.85,617.42Z"/><path class="cls-11" d="M505.83,930.15l2.14,4.36c-43.39,1.55-90.79,3.89-133.74-1.2,1.95-4,6.62-13.12,23.75-45.73,4.11-7.81,13.77-26.21,17.78-33.86q-.28-15.08-.58-30.17l-2.28-84.18L420,663.31q-2.83-24.28-5.65-48.55a159.07,159.07,0,0,1,29.39-53.23,107.38,107.38,0,0,0-4.06,36.59c.45,7.07,1.36,10.11,2.25,17.73,2.1,17.94.44,29.91-.39,42.56-1.45,22,.06,39.14,1.41,54.54a508.31,508.31,0,0,0,11.61,69.53l17.79,64.16Z"/></g></g></svg>