<svg xmlns="http://www.w3.org/2000/svg" viewBox="0 0 1080 1080"><defs><style>.cls-1{isolation:isolate;}.cls-2{mix-blend-mode:multiply;}.cls-3{fill:#ffd2b3;}.cls-4{fill:#5a5d4a;}.cls-5{fill:#515443;}.cls-6{fill:#f2d1b9;}.cls-7{fill:#efb097;opacity:0.5;}.cls-12,.cls-8{fill:#2d130e;}.cls-8{mix-blend-mode:overlay;}.cls-9{fill:#bf6e16;}.cls-10{fill:#0b9900;}.cls-11{fill:#4e8dc8;}.cls-13{fill:#fff;}.cls-14{fill:#5b3125;}.cls-15{fill:#d5f900;}.cls-16{fill:#fff6f3;}.cls-17{fill:#3f1c13;}.cls-18{fill:#331711;}.cls-19{fill:#074c00;}</style></defs><g class="cls-1"><g id="Layer_1" data-name="Layer 1"><g class="cls-2"><rect class="cls-3" x="-212.17" y="-61.29" width="1522.22" height="1210"/></g><path class="cls-4" d="M199.53,674.29c4.38-.94,8.32-3.38,12.08-5.92,33.17-22.48,66-55.26,72.73-98a99.12,99.12,0,0,0-4.71-48.79c-3.23-1.87-6.44-3.78-9.61-5.77C138.92,433.73,73.7,263.33-59.82,185.73c4.62,16.55,4.43,44.46,4.56,54.12.21,16.22,3.95,32.6-1.26,47.88-1.42,4.16-3,9-.79,12.76a12.42,12.42,0,0,0,5,4.24c16.15,9.07,34.71,10.83,52.71,10,9.17-.43,18.29-1.52,27.4-2.7,3-.39,10.55-2.95,13.25-1.69,2.9,1.36,3.1,7.84,3.45,10.83.82,6.95,1,14.36-2.1,20.57C34.85,356.8,18.61,350.86,6,350.5A292.81,292.81,0,0,1-24.84,348c-6.44-.87-15.32-3.89-21.32.24-11.65,8-7,40.17-6.2,52.43,1,15.4,3.75,31.45,12.87,43.53A56,56,0,0,0-26,456.61c36.67,24.74,87.65,7.48,124.92-7.18,9.08-3.57,18.25-7.61,27.94-8,18.47-.82,36.56,13.4,41.1,32.3,1.24,5.17-40.47,22.72-45.21,24.54a196.22,196.22,0,0,1-52.09,12.13,192.6,192.6,0,0,1-26.09.63c-7-.32-19-4.47-25.49-1.69-11.81,5,7.84,42,11.41,50.89,3.83,9.55,7.82,19.35,14.72,26.74,7.5,8,17.7,12.43,27.61,16.63,10.94,4.64,22,9.32,33.64,11.22,44,7.18,76.26-38.27,104-67.08,4.81-5,12.11-10.18,17.66-6.12,3.85,2.82,4.31,8.58,3.95,13.51-1.82,25.07-15.25,48.36-33.91,64-13.8,11.57-30.27,19.19-47.35,23.46-6.9,1.73-20.65.06-14.65,9.51,4.31,6.81,12,11.72,19.05,14.76,9.9,4.29,20.66,5.76,31.28,7.2C190.8,674.62,195.24,675.21,199.53,674.29ZM110.18,424a132.15,132.15,0,0,1-54.89,4.09,18.28,18.28,0,0,1-7.56-2.28c-6-3.85-6.61-12.64-6.53-20.06,0-1.6.13-3.42,1.3-4.46a5.17,5.17,0,0,1,2.58-1c20.27-3.77,45-11.69,65.59-9.66C129.85,392.48,126.46,419.2,110.18,424Zm52.65,107.69q-29.78,23-61.15,43.63c-4.62,3-9.5,6.12-14.93,6.57C76.44,582.72,46,566.55,58,551.64c5.39-6.68,21.81-4.8,29.34-5.33,11.54-.81,23.17-1.57,34.37-4.83,15.41-4.49,29.58-13.52,45.38-16.1C167.14,528.06,164.89,530.06,162.83,531.65Z"/><path class="cls-4" d="M285.78,514.33c18-2.11,36-4.65,53-11.22,26.1-10.12,48.08-29.18,69-48.48,11.18-10.32,22.58-21.33,28.2-35.83,5-12.89,4.92-27.25,4.77-41.17-.17-16.07-.59-33.06-8.7-46.67-3.25-5.45-7.58-10.07-11.89-14.64q-26.42-28.11-52.85-56.2a273.14,273.14,0,0,1-41.61,111.29c-12.7,19.38-28.85,37.65-50,45.18-8.44,3-19.08,3.61-25-3.44C269,364.45,327,338,335.24,286.31c2.49-15.56-.08-31.51-3.35-46.91-.94-4.47-2-9-4.42-12.82-2.78-4.32-7.1-7.24-11.41-9.82a150.5,150.5,0,0,0-33.4-14.83c2.3,37.36-9.16,74-20.48,109.47-4.25,13.32-9.1,27.53-20,35.67s-29.52,5.78-33.52-7.63c-.24-.8,13.32-14.05,14.7-15.79a142.36,142.36,0,0,0,12.09-18,155.36,155.36,0,0,0,19.47-86c-.84-12.25-2.2-32.06-10.1-41.67-6.54-8-17.75-8.85-27.73-9.17l-33.71-1.06c-6.47-.22-8.42-1.71-9.61,4.81-.95,5.19.17,11.76.24,17.06l1,71.16c.12,9.24-.22,19.7-6.74,25.88-6.94,6.59-17.6,5.28-26.79,3.56a10.47,10.47,0,0,1-5-1.87c-4.31-3.59-1.42-10.76,1.39-15.73-.14-3.05,5.19-10.32,6.42-13.42a116.11,116.11,0,0,0,4.93-15.41,124.66,124.66,0,0,0,3.57-31,124.13,124.13,0,0,0-4.51-32.15c-3.29-11.84-8.78-16.57-17.42-24.65a46.36,46.36,0,0,0-6.7-5.52c-8.83-5.59-20-4.36-30.16-2.71-8.79,1.43-19.18,2.16-27.34,5.88,3.46,4.57,9.37,7.86,13.24,12.6a64.22,64.22,0,0,1,9.92,17,63.88,63.88,0,0,1,3.24,37.06c-2,8.83-6.12,17.5-13.17,22.69s-17.37,6-24,.31c-9-7.65-7.89-22-7.81-34.1s-3.26-23.54-4.17-35.47c-.54-7.08-.34-17.6-9-19.59a14.79,14.79,0,0,0-6,.18C9.65,157.57-8.31,166-26.53,173c-4.56,1.77-9.14,3.48-13.78,5-3.3,1.08-21.81,5.15-19.51,7.68C8.18,207.26,58,264.12,103.41,321.64s86.7,120.11,143.18,165.48A350.2,350.2,0,0,0,285.78,514.33Zm-114.9-154.7a50.94,50.94,0,0,1-15.12-1.2,4.49,4.49,0,0,1-3-1.72,5.09,5.09,0,0,1-.49-2.66l-.12-16.69a9.7,9.7,0,0,1,.62-4.27,8.83,8.83,0,0,1,3.7-3.38c7.36-4.48,34.89-27,41.91-18.91s-11.52,34.46-16.16,41.61c-1.41,2.18-2.94,4.39-5.13,5.67A14.11,14.11,0,0,1,170.88,359.63ZM284.3,475.68c-1.93.82-4,1.6-6.05,1s-3.29-2.17-4.56-3.73q-4.53-5.61-8.69-11.54a5.35,5.35,0,0,1-1.34-3.51,5,5,0,0,1,2.23-3.1c6.73-5.28,14.73-8.44,21.91-13,9-5.75,16.59-13.63,24.08-21.44,11.35-11.83,22.8-28,36.18-37.18,13.56-9.29,19.08,10.33,13.18,21.12-1.77,3.23-4.43,5.79-6.83,8.52-4.72,5.35-8.55,11.47-12.79,17.24A138.59,138.59,0,0,1,284.3,475.68Zm26.56,23.56a10.92,10.92,0,0,1-5.8-.84c-2.9-1.53-4.25-5-5.37-8.27a8.83,8.83,0,0,1-.69-3.57c.18-2,1.73-3.64,3.3-4.84,5.38-4.13,12-6,18.43-7.73,6.64-1.81,24.35-10.49,30.68-6.16,9.73,6.66-3.72,17.8-9.18,20.75C332.38,493.9,321.91,498.57,310.86,499.24Z"/><path class="cls-5" d="M-59.82,185.73C8.18,207.26,58,264.12,103.41,321.64s86.7,120.11,143.18,165.48a350.2,350.2,0,0,0,39.19,27.21c45.5,27.33,96.49,44.6,148.25,54,19.27,3.49,39.34,6.18,56,17s30,28.16,48.63,34.59L402.72,573.1c-42-14.45-84.42-29.09-123.09-51.53-3.23-1.87-6.44-3.78-9.61-5.77C138.92,433.73,73.7,263.33-59.82,185.73Z"/><g class="cls-2"><path class="cls-6" d="M374.84,426.94c-49.4,33.25-87.34,80.89-121.43,129-34.22,48.28-62,100.89-85,155.35C122.1,821,95.32,937.47,70.55,1053.61c-13.88,65.09-16.71,131.14-22.49,197.26-1.25,14.27-.56,28.5.38,42.76,1,15.71.79,31.23,1,46.93.37,27.74,14.06,50,30,71.81a399.25,399.25,0,0,0,33.53,40c10.56,20.1,29.13,34.66,48.14,46.69,21.74,13.76,45.24,26.19,69.37,35.18,52,19.38,108.83,23.2,163.85,19.92a424.86,424.86,0,0,0,183.1-54.11c53.89-30.48,97.5-74.47,144-114.64,50-43.17,105.63-77.55,163.3-109.39,55-30.36,112.87-57.94,162.77-96.55,42.06-32.55,80.19-75.15,94.1-127.61,12.85-48.47,3.92-102.25-6.14-150.42-13.76-65.89-41.25-127.4-73.82-186-25.71-46.23-56.13-89.75-91.59-129-69.64-77.15-157.16-136.84-255-172C605.87,375.13,476.21,358.72,374.84,426.94Zm83.59-17.78c57.4-15.79,119-11.61,176.47,1.39a613.73,613.73,0,0,1,266.29,134.7C982,615.47,1043.07,706.62,1084.8,804.81a562.84,562.84,0,0,1,42.65,171.75c4.29,49.37-5.89,93.79-36.42,133.52-34.54,45-82.71,75.82-131.45,103.34-54.81,30.94-111.2,59.16-164.26,93.12C744,1339.38,700,1379.74,654.4,1419.69c-45.87,40.15-95,73.93-153.07,94-56.11,19.36-115.9,25.54-175,21.28-52.34-3.77-99.52-19.56-144.86-45.64-10.78-6.2-22.34-13.32-32.31-22a8.85,8.85,0,0,0-2.86-8.83c-6-5.4-11.79-11.07-17.43-16.88-.48-1-1.07-2-1.49-3a8.78,8.78,0,0,0-6.59-5.58,376.78,376.78,0,0,1-28.12-34.8c-7.19-10.09-14.8-20.88-19.64-32.35-5.68-13.45-4.58-27.85-4.44-42.1.15-14.1-1.11-28.09-1.86-42.15-.9-16.77.8-32.84,2.45-49.49,3.06-31.06,3.75-62.29,6.66-93.34,5.59-59.57,21.21-118.37,34.5-176.57,12.61-55.15,27.16-109.94,45.31-163.54C191.78,692,242.52,590.54,316.82,505.15,355.17,461.09,401.37,424.86,458.43,409.16Z"/><path class="cls-6" d="M420.2,591.06A288.56,288.56,0,0,0,319,668.87c-30.68,37-51.68,80.91-68.51,125.67-17.75,47.17-31.11,95.81-46.88,143.65-16.41,49.75-32.12,99.39-46.3,149.84-27.3,97.13-67.7,194.19-45.57,296.77,3.73,17.28,11.11,30.43,19.8,44a9.4,9.4,0,0,0,1.12,6.79c17,28.85,52.49,38,83.67,40.91,34.61,3.17,70.44,1,104.89-3.2,96.95-11.73,189.32-52.65,274.41-98.82,82-44.51,162.46-95.41,228.19-162.35,62.3-63.46,116.88-146.44,119.92-237.82,2.86-86.26-38.21-168-89.48-234.87-49.69-64.82-112.5-123.61-188.88-155.11C586.35,551.76,497.73,555.16,420.2,591.06Zm183.24-5.8c76.25,15,142.25,61.92,194.84,117.48,55.49,58.62,104.92,131.31,121.25,211.54,8,39.18,7.16,79.75-3.9,118.26-12.36,43-36.83,83.28-63.85,118.59-54.12,70.7-126.38,124.6-201.95,170.45C571.28,1369.25,488,1412,399.45,1437.66c-39.8,11.51-79.95,17.64-121.23,20.14-31.9,1.93-66.74,3.43-97.25-7.72a67.94,67.94,0,0,1-22.69-13.44,10,10,0,0,0-1.51-3.85c-5.68-8.82-12.46-17-17.63-26.15-6.56-11.59-9.13-25.09-11.22-38.1a314,314,0,0,1-2.94-73.38c3.53-46,17-89.85,30.63-133.66,15.09-48.57,27.62-97.89,42.47-146.53,14-45.89,30-91.18,44.29-137C269,792.65,299.44,701.66,371.43,643.44,434.77,592.22,523.41,569.57,603.44,585.26Z"/><path class="cls-6" d="M325.13,792.12a10.09,10.09,0,0,0-3.43,3.42c-.9,1.5-1.88,3-2.82,4.44-1.5,2-3,3.93-4.48,6a10.16,10.16,0,0,0-1.4,2.95c-13.46,19.74-28.56,38.63-36.88,61.2-12.07,32.71-11.47,70.46-14.73,104.84-6.67,70.57-26.81,143.68-8.48,214.07,14.91,57.23,56.17,99.45,110.13,121.88,56.26,23.38,118.58,15.5,171.69-12.52,30.9-16.3,55.44-40.11,81.68-62.72,27.45-23.65,57.4-44.08,84.36-68.39,47.26-42.6,86.05-92,107.79-152.34,19.8-55,27.62-120.3,3.17-175.17-24.21-54.34-74.58-94.39-130.14-113.52C619.18,704.75,546.45,699.4,481.4,709.7,421.18,719.24,364.3,745.29,325.13,792.12Zm309.21-58.61c55.71,11.12,108.74,36.93,142.74,84,33.75,46.7,36.3,105.19,23.14,159.71-13.39,55.43-43,106.42-82.37,147.37-23.15,24-48.59,45.69-75,66.1S592.32,1233,566.75,1254c-44,36.18-101.75,59.21-159.32,50.13-53.47-8.44-104.95-43.85-127-93.86-30.72-69.56-9-146.34-1.63-218.31,1.84-18.1,3.34-36.22,5.08-54.33s2.48-37.38,7.93-54.93c8.17-26.32,26.66-47.85,41.74-70.65C402.37,721.37,530.28,712.74,634.34,733.51Z"/><path class="cls-6" d="M441.45,825.46c-29.85,36.38-46.66,83.93-48.29,130.79-1.84,53,20.62,98.48,56.73,135.24a8.85,8.85,0,0,0,1.36,2.37c43.25,48.86,112.48,51.51,170.82,31.39,29.62-10.21,57.61-26.27,80.5-47.73,27.48-25.75,46.6-62.23,60.27-96.86,8.24-20.86,14.58-43.26,13.19-65.91-1.3-21.23-10.57-40.43-22.49-57.69a199.58,199.58,0,0,0-92.22-73.15c-36.67-14.2-76.82-18.71-115.82-14.18C503.79,774.57,468.26,792.78,441.45,825.46Zm87-33.93a228.89,228.89,0,0,1,103.24,2.69c33.41,8.64,64.84,26.06,88.51,51.35,13.39,14.3,26.1,31.56,32.66,50.14,7,19.83,4.4,40.8-1.5,60.57-18.36,61.43-56.37,116.1-115.49,143-50.73,23.08-119.92,30.87-163.14-10.39a9.38,9.38,0,0,0-2.54-4.05c-33.5-31.23-56.52-70-58.14-116.66-1.33-38.44,9.89-77.83,29.81-110.61C461.3,825.63,491.21,799.34,528.48,791.53Z"/></g><path class="cls-7" d="M1254.18-260.29c-20.33-74.12-57.74-147-118.66-195.78-66.42-53.19-150.35-65.61-233.41-58.44-84.44,7.29-176.38,33.89-236.4,97.27-3.29,3.47-6.5,7-9.68,10.63-5.82,4.86-11.17,9.49-15.94,13.65-59.37,51.75-113.08,113.62-145.35,186C461.36-132,448.35-45.68,476.83,33c25.78,71.24,79.74,136.11,148.26,170,38.2,18.89,77.53,28.94,119,37.73q79,16.75,157.37,36c44.55,11,84.82,18.59,130.47,8.09,41-9.44,79.58-30.75,111.1-58.42,63.47-55.72,91-133.93,106.53-214.64,9.3-48.19,20.6-96.18,21.7-145.45C1272.19-176.47,1265.48-219.1,1254.18-260.29ZM757.22,43c81.16,39.37,199,35.34,257.89-32.68,20.25-23.41,29.33-51.62,30.44-80.75a215.13,215.13,0,0,1,1.52,29.93c-1.55,50.1-33.55,90.87-78.47,113.31C896.8,108.67,814.31,92.61,757.22,43ZM870.38-137c4-.82,5.93,1.15,11.46,4.42,11,6.5,26.28,20.37,38.47,34-8.61,9.92-18.77,18.1-29.58,22.48C885.42-74,875.07-72.82,873.15-73c-6.71-.6-8-2.2-11-6-9.45-11.91-7.12-43.9,5.15-55.23C867.64-134.59,871.14-136.88,870.38-137Zm31.08-71.19c-13.88-2.92-29.55-3.64-43.32.48-.24.07-3.33,1.31-5.78,2.29-3.68,1.47-7.51,2.72-11.06,4.49a78.65,78.65,0,0,0-16.94,11.49c-17.11,15.18-27.44,36.72-31.17,59.08a126.92,126.92,0,0,0-.26,39.64,102.17,102.17,0,0,1-4.21-17.8,99.57,99.57,0,0,1,12.14-63.61c13-22.49,37.73-50.46,65-54.44,24.25-3.54,49.67,13.27,69,30.53A138.56,138.56,0,0,0,901.46-208.21ZM1021-171.63c-34.23-65.88-115.72-136.25-193.4-100.32-63.29,29.27-103.72,102.36-94.88,171a169.9,169.9,0,0,0,42.6,91.82c-21-12.81-38-30.28-47.78-52.45-40.07-91.12,51.77-211.52,134.19-243.24,99.74-38.4,139.51,49.81,163.07,131,2.45,8.45,4.63,17,6.69,25.51A232.72,232.72,0,0,0,1021-171.63ZM626.37-189.18C617.53-117.61,629.48-43,662,18.2A332.51,332.51,0,0,0,686.17,57C651,15.44,628.94-36.18,617.34-89.5,609.91-123.66,614.81-157.23,626.37-189.18ZM1047.63,133.9c37.44-27.32,65-63.18,80-104-.41,5.83-1,11.63-1.92,17.34C1117.41,98,1084.6,138.31,1037,157.48c-23.2,9.33-47.7,13.11-72.45,13.35C994.22,164.29,1022.63,152.15,1047.63,133.9Zm43.79-386.79C1065.71-307,1025.91-356.3,968.36-377.7c-61.32-22.81-130.18.23-180.5,37.51-35,25.95-68.35,63.74-92.37,106.33,18-57.61,54-108.22,108.75-136.61,52.91-27.46,123.9-40.08,180.47-16.37,49.11,20.59,84.32,62.75,105.25,110.67,11.8,27,19.64,55.73,25,84.93A441.22,441.22,0,0,0,1091.42-252.89ZM554-12.53a210.43,210.43,0,0,1-5.39-71.85C564-24.88,598.77,32.7,634.55,77.74c24.76,31.19,55.18,56.34,88.91,76.27-27.91-10.78-55-23.72-80.58-41.31C599.69,83.05,566.9,38.36,554-12.53Zm623.71,85c-20,62-62,121.15-124,146.54-30.52,12.5-65.1,17.93-97.58,10.6-17.71-4-35.27-9.49-52.75-15.43,41.08,5.61,82.77,5.31,122.89-5,64.91-16.6,119.08-56.34,143.75-120,23.94-61.8,16.07-137.72,11.59-202.63-4.74-68.53-15.76-137.87-45.86-200.23C1210.47-198,1219.75-57.71,1177.74,72.44Z"/><path class="cls-4" d="M939.11,948.4c-38.11-35.32-86.67-54.8-135.33-73.94s-97.46-37.93-136.19-71.6c-1.87-1.63-3.71-3.3-5.54-5l-.35-.33-.48,0a62.18,62.18,0,0,0-14.46,1.05,61.16,61.16,0,0,0-17,5.92c-12.58,6.63-22.15,17-29.41,28.92s-12.21,25.43-15.56,38.45a26,26,0,0,0-1.07,9.45c0,.37.1.73.17,1.09a32.09,32.09,0,0,0,2.88,7.67l1.18-.56,1.18-.57a29.38,29.38,0,0,1-2.67-7c-.06-.31-.11-.61-.14-.91a23.39,23.39,0,0,1,1-8.49c3.3-12.84,8.18-26.11,15.26-37.74S619,813.16,631,806.8a59.31,59.31,0,0,1,30.08-6.67l.06-1.3-.89.95c1.84,1.71,3.7,3.4,5.6,5.05,39.21,34.07,88.3,52.93,137,72.07s96.88,38.53,134.51,73.42l.89-1-.05-1.31a62.52,62.52,0,0,0-9.44,1.18c-4.91.95-10,2.31-14.47,3.62s-8.22,2.55-10.41,3.25c-4.88,1.54-10.05,2.55-15.09,4s-10,3.33-14.26,6.7A27.38,27.38,0,0,1,872,968.6a7.31,7.31,0,0,1-2.44,1,3.52,3.52,0,0,1-1.55,0,4.52,4.52,0,0,1-1.51-.72,12.44,12.44,0,0,1-1.52-1.28c-8.72-8.31-13.67-19.66-17-31.3-1.67-5.92-2.94-12-4.15-18.06l-1.29.25,1.29-.22v-.07c-.11-.55-.2-1.55-.31-2.65s-.25-2.34-.47-3.49a11.74,11.74,0,0,0-.46-1.77,4.44,4.44,0,0,0-.86-1.54,3.48,3.48,0,0,0-1.49-.95,6.8,6.8,0,0,0-2.44-.28,17.61,17.61,0,0,0-2.37.31c-.9.17-1.71.37-2.26.48a35.94,35.94,0,0,0-6.78,1.95,17.59,17.59,0,0,0-6,3.93,13,13,0,0,0-3.42,5.94,14.34,14.34,0,0,0-.06,6.15,35.5,35.5,0,0,0,2.58,7.49c1.06,2.42,2.2,4.75,3,6.9q3.6,9.93,8.16,19.47c.74,1.52,1.68,3.13,2.51,4.77A19.18,19.18,0,0,1,835,969.8a7.16,7.16,0,0,1,0,3.23,6.87,6.87,0,0,1-1.44,2.65,17.36,17.36,0,0,1-5.56,4.08,63.33,63.33,0,0,1-12.12,4.33c-4.16,1.11-8,1.91-10.61,2.57-1.94.49-3.92,1-5.9,1.33-7.71,1.48-15.54,1.82-22.6-.79a35.85,35.85,0,0,1-10.08-5.93,49.41,49.41,0,0,1-12.9-16.34,78.68,78.68,0,0,1-6.68-20.51c-2.81-14.62-2.64-30.38-2.13-43.86.2-5.67.64-11.56-.47-17.36-.17-.88-.37-1.76-.62-2.64A29.71,29.71,0,0,0,714,859.7h0a1.57,1.57,0,0,0-.24,0,2,2,0,0,0-.84.38,3.64,3.64,0,0,0-1,1.14,14.17,14.17,0,0,0-1.11,3,73,73,0,0,0-1.46,8c-.63,4.58-1.11,9.73-1.44,14-.17,2.14-.29,4.05-.38,5.56s-.15,2.61-.16,3.14a140.81,140.81,0,0,0,2.46,30.46c.38,1.95.79,3.89,1.25,5.83a137.06,137.06,0,0,0,5.22,17.06,71.91,71.91,0,0,0,3.43,6.88,27.61,27.61,0,0,1,2.81,6.9,6.64,6.64,0,0,1,.13,1.73,2.31,2.31,0,0,1-.31,1,3.55,3.55,0,0,1-1.5,1.26,11.09,11.09,0,0,1-2.91.92,35.86,35.86,0,0,1-7,.47,115.91,115.91,0,0,1-11.82-.93c-1.85-.23-3.55-.46-5-.65s-2.67-.34-3.55-.41c-6.64-.53-13.29-1.14-19-3.95a33.79,33.79,0,0,1-8.36-6.09,104.15,104.15,0,0,1-7.24-8c-5.16-6.1-10.29-12.19-13.84-19.13a39.32,39.32,0,0,1-3.63-10.53,47.11,47.11,0,0,1,.17-17.55c1.63-8.86,5.27-17.8,9.48-26.44s9-17,12.78-24.72a24.73,24.73,0,0,0,1.83-4.85,12.07,12.07,0,0,0,.3-5.2,7.09,7.09,0,0,0-.84-2.27,6.35,6.35,0,0,0-1.7-1.9,7,7,0,0,0-3.24-1.3,10.58,10.58,0,0,0-3.37.15,18.74,18.74,0,0,0-3.76,1.18,55.76,55.76,0,0,0-19.88,14.34,65.56,65.56,0,0,0-12.67,21.14,83,83,0,0,0-4.32,35.75c.06.64.16,1.3.29,2,.26,1.35.62,2.77.86,4.06.13.68.23,1.32.28,1.88a7.18,7.18,0,0,1,0,1.11,1.93,1.93,0,0,1-.24.9.38.38,0,0,1-.14.14.83.83,0,0,1-.28.1,4.29,4.29,0,0,1-1.83-.21,20.75,20.75,0,0,1-6.74-3.48,35.89,35.89,0,0,1-5.67-5.38c-4.58-5.33-7.73-11.84-10.86-18.38l-1.18.57-1.18.56C590,896.61,593.17,903.34,598,909a38.57,38.57,0,0,0,6.09,5.77,23.26,23.26,0,0,0,7.61,3.92,6.73,6.73,0,0,0,3,.25,3.41,3.41,0,0,0,1.08-.39,3.16,3.16,0,0,0,1.28-1.41,5.78,5.78,0,0,0,.43-2.6,17.34,17.34,0,0,0-.36-2.79c-.26-1.39-.62-2.81-.86-4.06a16.6,16.6,0,0,1-.25-1.72,80.31,80.31,0,0,1,4.16-34.62,63.06,63.06,0,0,1,12.16-20.29,53.3,53.3,0,0,1,19-13.68,16.3,16.3,0,0,1,3.25-1,7.51,7.51,0,0,1,2.52-.12,4.21,4.21,0,0,1,2,.79,3.9,3.9,0,0,1,1,1.14,4.57,4.57,0,0,1,.53,1.44,9.64,9.64,0,0,1-.28,4.06,22.09,22.09,0,0,1-1.64,4.33c-5,10.19-11.82,21.64-16.81,33.6a90.28,90.28,0,0,0-5.67,18.25,49.88,49.88,0,0,0-.17,18.51A42,42,0,0,0,640,929.62c3.74,7.28,9,13.52,14.17,19.62a109.07,109.07,0,0,0,7.42,8.16,36.48,36.48,0,0,0,9,6.56c6.28,3.09,13.27,3.66,19.91,4.2,1,.09,2.8.33,5,.61,3.24.42,7.36,1,11.5,1.22a48.6,48.6,0,0,0,11.59-.34,11.76,11.76,0,0,0,4.6-1.76,5.58,5.58,0,0,0,1.56-1.65,4.94,4.94,0,0,0,.68-2.22,9.78,9.78,0,0,0-.17-2.4,29.59,29.59,0,0,0-3.06-7.62,71.85,71.85,0,0,1-3.3-6.58,134.12,134.12,0,0,1-5.12-16.74q-.68-2.85-1.23-5.73a138,138,0,0,1-2.42-29.88c0-.81.16-3.32.39-6.6.35-4.93.94-11.63,1.75-17.11a59.18,59.18,0,0,1,1.36-6.9,10.1,10.1,0,0,1,.72-1.91,1.92,1.92,0,0,1,.22-.34h0l-.07-.07.06.08h0l-.07-.07.06.08-.32-.44.1.53a.52.52,0,0,0,.22-.09l-.32-.44.1.53-.14-.75.05.76h.09l-.14-.75.05.76h0a27.08,27.08,0,0,1,27.09,19c.23.8.42,1.6.57,2.42,1,5.33.64,11,.42,16.76-.51,13.54-.69,29.48,2.18,44.45a80.9,80.9,0,0,0,6.92,21.19A51.79,51.79,0,0,0,765,983.3a38.44,38.44,0,0,0,10.82,6.36c7.74,2.84,16.06,2.42,24,.9,2.05-.39,4.07-.86,6.06-1.37s4.6-1.07,7.67-1.82A80.6,80.6,0,0,0,828,982.64a25.65,25.65,0,0,0,6-3.74,10.61,10.61,0,0,0,3.47-5.21,9.83,9.83,0,0,0,.08-4.38,21.78,21.78,0,0,0-2.07-5.55c-.88-1.73-1.83-3.34-2.49-4.73q-4.5-9.39-8.06-19.22c-.84-2.34-2-4.71-3-7.06a33.52,33.52,0,0,1-2.4-6.94,11.63,11.63,0,0,1,0-5,10.32,10.32,0,0,1,2.76-4.75,15,15,0,0,1,5.13-3.34,33.9,33.9,0,0,1,6.28-1.79c.64-.13,1.42-.32,2.24-.48a11.76,11.76,0,0,1,2.59-.27,3.59,3.59,0,0,1,.88.14.92.92,0,0,1,.4.24,2,2,0,0,1,.34.66,11,11,0,0,1,.36,1.39c.19,1,.31,2.16.42,3.25s.2,2.1.35,2.88v.06c1.22,6.1,2.5,12.22,4.2,18.26,3.35,11.86,8.43,23.68,17.66,32.48a16,16,0,0,0,1.84,1.55,7.14,7.14,0,0,0,2.4,1.1,6,6,0,0,0,2.64,0,9.77,9.77,0,0,0,3.32-1.38,31.15,31.15,0,0,0,2.76-2c3.91-3.06,8.48-4.85,13.37-6.25s10.09-2.41,15.15-4c2.23-.7,6-1.94,10.37-3.23s9.44-2.64,14.23-3.56a60.1,60.1,0,0,1,9-1.13M777,881.06l-1.2.52a66.39,66.39,0,0,1,4.09,14c1.89,9.85,2.53,20.58,3.87,29.8a7,7,0,0,1,.08.77,1,1,0,0,1-.06.42.8.8,0,0,1-.14.22,2.13,2.13,0,0,1-.57.38,7.65,7.65,0,0,1-.94.38,35.3,35.3,0,0,1-4.7,1.32,13.51,13.51,0,0,1-4.25.22,6.4,6.4,0,0,1-3.4-1.45,11.67,11.67,0,0,1-2.67-4,92.87,92.87,0,0,1-7.5-22.73A91.8,91.8,0,0,1,758.06,888a11.07,11.07,0,0,1,2.6-7.65,11.29,11.29,0,0,1,6.38-3.92,7.4,7.4,0,0,1,4.89.63,8.78,8.78,0,0,1,3.87,4.48l1.2-.52,1.19-.53a11.4,11.4,0,0,0-5.05-5.75,10.09,10.09,0,0,0-6.59-.88,14.09,14.09,0,0,0-11.11,14.27,95.63,95.63,0,0,0,9.32,36.62,14,14,0,0,0,3.32,4.84,9.11,9.11,0,0,0,4.75,2,15.92,15.92,0,0,0,5.1-.24A36.6,36.6,0,0,0,783,930a8.13,8.13,0,0,0,1.7-.75,3.89,3.89,0,0,0,.86-.69,3.16,3.16,0,0,0,.67-1,3.77,3.77,0,0,0,.25-1.42,10.15,10.15,0,0,0-.11-1.11c-1.33-9.07-2-19.85-3.89-29.92a68.83,68.83,0,0,0-4.27-14.55Zm-94.22-9.12-1.29.22a70.51,70.51,0,0,1,.37,15.87,148.79,148.79,0,0,0-.56,16.41,74.22,74.22,0,0,0,1.31,10.25c.85,4.43,2,8.78,3.1,13.09.4,1.55,1.08,3.48,1.75,5.57a56.58,56.58,0,0,1,1.77,6.44,17.83,17.83,0,0,1,.37,4,6.08,6.08,0,0,1-.76,2.9,6.53,6.53,0,0,1-1.75,2,4.91,4.91,0,0,1-2,.86,6.75,6.75,0,0,1-2.49,0,15,15,0,0,1-5.07-2.18,32.19,32.19,0,0,1-7.14-6.4,26.49,26.49,0,0,1-2.47-3.45,10.81,10.81,0,0,1-1.24-2.78l-.12-.53a15.45,15.45,0,0,1-.06-4.76,46.3,46.3,0,0,1,1-5q5.88-24.27,13.58-48a9.84,9.84,0,0,1,.91-2.14,3.11,3.11,0,0,1,.56-.69,1.73,1.73,0,0,1,.61-.36l-.41-1.24-1.29.22,1.29-.22-.41-1.24a4.14,4.14,0,0,0-1.53.89,6.25,6.25,0,0,0-1.42,1.95,14.18,14.18,0,0,0-.8,2Q670.9,899.41,665,923.79a48.71,48.71,0,0,0-1.06,5.3,17.73,17.73,0,0,0,.08,5.58c0,.22.09.44.15.67a11.68,11.68,0,0,0,1,2.62,28.1,28.1,0,0,0,3.51,5,34.26,34.26,0,0,0,7.86,6.83,18.59,18.59,0,0,0,4.48,2,9.79,9.79,0,0,0,4.55.29,7.41,7.41,0,0,0,3-1.31,9.23,9.23,0,0,0,2.45-2.74,8.64,8.64,0,0,0,1.13-4.14,20,20,0,0,0-.41-4.63,59.86,59.86,0,0,0-1.85-6.76c-.69-2.12-1.36-4-1.71-5.42-1.11-4.31-2.24-8.61-3.06-12.92a70.39,70.39,0,0,1-1.26-9.89,143.55,143.55,0,0,1,.55-16.12,72.63,72.63,0,0,0-.4-16.46l-.25-1.51-1.45.48Z"/><path class="cls-4" d="M689.21,813.13l-.74,1.08c39.92,27.31,87,41.23,131.65,58.82,22.35,8.8,44.79,18.31,65,30.51s38.31,27.07,52,46.57l.19.28.32.15a1.73,1.73,0,0,0,1.08.15,1.77,1.77,0,0,0,.64-.27,2.08,2.08,0,0,0,.66-.78,5,5,0,0,0,.41-1.49,22.12,22.12,0,0,0,.15-3.3c0-1.86-.15-4-.28-5.74-.06-.9-.12-1.72-.17-2.39s-.08-1.21-.09-1.48c-.06-3.26,0-6.53.12-9.81.43-13.08,1.76-26.41-.31-39.7q-.09-.51-.18-1.05a10.12,10.12,0,0,0-1.15-3.29,7.94,7.94,0,0,0-2.23-2.46,8.11,8.11,0,0,0-4.2-1.41,16.67,16.67,0,0,0-4.3.34c-1.66.32-3.24.77-4.57,1.1-1,.24-2,.45-3,.64-4.14.8-8.38,1.25-12.66,2.07a51.62,51.62,0,0,0-7,1.79,85.24,85.24,0,0,1-10.89,3.31,18.91,18.91,0,0,1-5.55.35,11,11,0,0,1-4.9-1.66,9.9,9.9,0,0,1-3.06-3.15,12.49,12.49,0,0,1-1.63-4.26,14.19,14.19,0,0,1,.31-6.64,18.67,18.67,0,0,1,4-7,29,29,0,0,1,6.47-5.32,35.79,35.79,0,0,1,12-4.62,39.88,39.88,0,0,1,10.46-.59A39.47,39.47,0,0,1,920,856.75a30.53,30.53,0,0,1,5.1,3,27.7,27.7,0,0,0,5.45,3l1.61.6.15-1.71a41.06,41.06,0,0,0-.55-9.73c-.51-3.25-1.2-6.45-1.7-9.37-.15-.92-.32-1.85-.5-2.79a44.7,44.7,0,0,0-2.58-9.1,20.66,20.66,0,0,0-5.42-7.74,32.59,32.59,0,0,0-5-3.33,66.87,66.87,0,0,0-9.12-4.78,25.11,25.11,0,0,0-10.32-1.63,77.72,77.72,0,0,0-11.87,1.34,78.38,78.38,0,0,0-27.54,11,74.38,74.38,0,0,0-8.5,6.4,17.58,17.58,0,0,0-1.62,1.73c-.87,1-1.84,2.22-2.74,3.18a11.06,11.06,0,0,1-1.24,1.19,2.35,2.35,0,0,1-.71.46l-.38.11-.26.3a20.21,20.21,0,0,1-2.77,2.7,7.14,7.14,0,0,1-2.87,1.49,2.65,2.65,0,0,1-1,0,2.39,2.39,0,0,1-.94-.38,3.59,3.59,0,0,1-.92-.94,14.22,14.22,0,0,1-.85-1.43,36.45,36.45,0,0,1-4.05-10,11.35,11.35,0,0,1,.56-6.84,10.37,10.37,0,0,1,2.18-3.13,17.82,17.82,0,0,1,5.13-3.39,54.67,54.67,0,0,1,6.24-2.31L886.54,801c1.54-.49,3.4-.89,5.28-1.39a23.75,23.75,0,0,0,5.42-2,13.39,13.39,0,0,0,1.44-.93,6,6,0,0,0,.82-.76,3.4,3.4,0,0,0,.74-1.42,3.56,3.56,0,0,0,0-1.49,10.32,10.32,0,0,0-.63-1.9c-.26-.66-.57-1.38-.89-2.25q-3.91-10.73-7.82-21.46a51.38,51.38,0,0,0-4.39-9.64,20.58,20.58,0,0,0-3.33-4.14,14.72,14.72,0,0,0-4.5-3,22.89,22.89,0,0,0-9.19-1.43,60.09,60.09,0,0,0-10,1.16c-3.39.65-6.59,1.46-9.2,2.12a95.42,95.42,0,0,0-27.12,11.62,97.24,97.24,0,0,0-21.88,18.67,90.72,90.72,0,0,0-8.56,11.59,4.81,4.81,0,0,0-.24.42c-.32.6-.83,1.64-1.44,2.9-.91,1.87-2,4.21-3,6.07-.47.93-.89,1.75-1.21,2.31-.16.28-.29.5-.37.61l0,.06h0l.44.36-.38-.42-.06.06.44.36-.38-.42.72.8-.56-.92-.16.12.72.8-.56-.92.63,1.05-.23-1.2a1.4,1.4,0,0,0-.4.15l.63,1.05-.23-1.2.24,1.23-.15-1.25-.09,0,.24,1.23-.15-1.25.14,1.17-.12-1.17h0l.14,1.17-.12-1.17h0l.13,1.3,0-1.3a8.72,8.72,0,0,1-3.83-.81,11.27,11.27,0,0,1-4.5-4,16.54,16.54,0,0,1-2.5-6.11,15.55,15.55,0,0,1,.32-7.44,26.91,26.91,0,0,1,6.74-10.69,85.1,85.1,0,0,1,10.31-8.68c9.61-7.22,19.36-14.49,29.58-20.7s20.9-11.35,32.37-14.33l1.81-.47-1.06-1.54a106,106,0,0,0-16.35-18.72,37.94,37.94,0,0,0-4.07-3.29,16.77,16.77,0,0,0-4.87-2.35c-3.14-.88-6.31-.59-9.24-.31-4.2.42-8.44.94-12.64,1.75a61.12,61.12,0,0,0-17.17,5.72c-7.65,4-13.61,9.81-18.63,16.46-7.53,10-13,22-19,33.42s-12.51,22.34-22,30.24l.84,1,.51-1.2a9,9,0,0,1-4.07-3.59,16.3,16.3,0,0,1-2.11-5.67,25.44,25.44,0,0,1-.44-4.9,53.09,53.09,0,0,1,5-21.26A99.9,99.9,0,0,1,744,739.71a168.71,168.71,0,0,1,58.56-48.83l2.34-1.18-2.34-1.16-45.52-22.65a57.73,57.73,0,0,0-11.73-4.79,39.42,39.42,0,0,0-17,0,124.31,124.31,0,0,0-14,3.82c-4.27,1.36-8.63,2.76-12.82,4.57a45.91,45.91,0,0,0-11.73,7.06,45,45,0,0,0-9.61,12,124.18,124.18,0,0,0-6.6,13.85c-7.33,17.38-14.36,35.51-15,54.63-.31,9.72,1,19.32,2.86,28.8.5,2.62,1,5.23,1.59,7.83l.09.42.32.28a240.21,240.21,0,0,0,25.07,19.83l.74-1.08.74-1.08a237.07,237.07,0,0,1-24.8-19.61l-.88,1,1.28-.27c-.54-2.59-1.08-5.19-1.58-7.79-1.8-9.39-3.12-18.8-2.81-28.22.6-18.52,7.47-36.36,14.79-53.69a121.35,121.35,0,0,1,6.45-13.56,42.56,42.56,0,0,1,9.05-11.32,43.25,43.25,0,0,1,11.07-6.64,130.83,130.83,0,0,1,12.57-4.48,123.32,123.32,0,0,1,13.74-3.76,36.89,36.89,0,0,1,15.86,0,55.76,55.76,0,0,1,11.2,4.59l45.51,22.65.59-1.17-.59-1.17a171.34,171.34,0,0,0-59.48,49.6,102.27,102.27,0,0,0-12,19.75,55.77,55.77,0,0,0-5.19,22.31,27.68,27.68,0,0,0,.49,5.4,18.77,18.77,0,0,0,2.47,6.58,11.55,11.55,0,0,0,5.25,4.59l.74.32.61-.52c6.61-5.52,11.77-12.35,16.27-19.7,6.74-11,12-23.24,18.35-34.08a89.62,89.62,0,0,1,10.58-14.94,50.54,50.54,0,0,1,14-11.09,58.56,58.56,0,0,1,16.45-5.47c4.07-.78,8.24-1.29,12.4-1.7a22.32,22.32,0,0,1,8.27.22,14.31,14.31,0,0,1,4.11,2,35.77,35.77,0,0,1,3.78,3.07,103.58,103.58,0,0,1,16,18.26l1.07-.74-.32-1.27c-11.81,3.07-22.72,8.34-33.08,14.64s-20.17,13.62-29.79,20.84a88.71,88.71,0,0,0-10.63,8.95,29.61,29.61,0,0,0-7.35,11.74,18.91,18.91,0,0,0,4.1,17.76,13.07,13.07,0,0,0,4,2.9,11.31,11.31,0,0,0,5,1h.24a1.22,1.22,0,0,0,.48-.2,1.46,1.46,0,0,0,.35-.3,3,3,0,0,0,.35-.47q.29-.45.66-1.14c.86-1.6,2.1-4.16,3.21-6.45.55-1.15,1.07-2.23,1.48-3.07l.54-1.07c.14-.27.26-.48.29-.53a89.53,89.53,0,0,1,8.32-11.25,94.2,94.2,0,0,1,21.29-18.17A92.64,92.64,0,0,1,850.94,755c2.61-.66,5.76-1.46,9-2.09a57.5,57.5,0,0,1,9.54-1.12,20.61,20.61,0,0,1,8.15,1.23,12.47,12.47,0,0,1,3.71,2.45,21.16,21.16,0,0,1,4.11,5.76,61.12,61.12,0,0,1,2.94,7q3.91,10.72,7.82,21.46c.35.94.68,1.71.93,2.33a7.72,7.72,0,0,1,.48,1.41.86.86,0,0,1,0,.38.44.44,0,0,1-.06.17,1.72,1.72,0,0,1-.45.48,8.13,8.13,0,0,1-1.22.79,20.74,20.74,0,0,1-4.81,1.76c-1.81.48-3.69.89-5.4,1.42l-43.61,13.73a44,44,0,0,0-8.67,3.52,17.28,17.28,0,0,0-3.76,2.82,12.76,12.76,0,0,0-2.73,3.93,14,14,0,0,0-.74,8.39,38.94,38.94,0,0,0,4.32,10.71,16,16,0,0,0,1,1.71,6.12,6.12,0,0,0,1.61,1.6,5.24,5.24,0,0,0,1.93.78,5.38,5.38,0,0,0,2,0,9.61,9.61,0,0,0,4-2,23.38,23.38,0,0,0,3.14-3l-1-.86.35,1.26a4,4,0,0,0,1.16-.56,12,12,0,0,0,1.76-1.57c.87-.9,1.74-2,2.52-2.88.39-.47.76-.91,1.08-1.27a11.08,11.08,0,0,1,.81-.83,71.44,71.44,0,0,1,8.2-6.17,75.58,75.58,0,0,1,26.62-10.64,73.5,73.5,0,0,1,11.46-1.29,22.36,22.36,0,0,1,9.29,1.45,65.16,65.16,0,0,1,8.75,4.6,30.49,30.49,0,0,1,4.59,3,18,18,0,0,1,4.72,6.78,43.5,43.5,0,0,1,2.43,8.57q.25,1.37.48,2.73c.51,3,1.2,6.2,1.69,9.35a37.45,37.45,0,0,1,.53,9.09l1.31.11.45-1.22a25.29,25.29,0,0,1-4.91-2.77,33.42,33.42,0,0,0-5.55-3.19,42.38,42.38,0,0,0-24-2.42,38.46,38.46,0,0,0-12.92,5,31.21,31.21,0,0,0-7.06,5.82,21.17,21.17,0,0,0-4.55,8,16.68,16.68,0,0,0-.38,7.88,15.31,15.31,0,0,0,2,5.15,12.53,12.53,0,0,0,3.87,4,13.57,13.57,0,0,0,6,2.06,21.32,21.32,0,0,0,6.31-.38,85.55,85.55,0,0,0,11.24-3.4,49.49,49.49,0,0,1,6.65-1.7c4.13-.8,8.37-1.25,12.65-2.07,1-.2,2.07-.42,3.11-.67,1.4-.35,2.93-.78,4.44-1.07a11.71,11.71,0,0,1,4.68-.15,4.88,4.88,0,0,1,3.31,2.45,7.62,7.62,0,0,1,.83,2.44c.06.31.11.64.16,1,2,12.86.73,26,.29,39.21-.11,3.3-.18,6.62-.12,9.94,0,.33,0,.77.07,1.31.13,1.87.4,5,.46,7.68a25.59,25.59,0,0,1-.1,3.36,3.61,3.61,0,0,1-.17.8v0h0l.2.11-.18-.13,0,0,.2.11-.18-.13.56.4-.41-.56a.63.63,0,0,0-.15.16l.56.4-.41-.56.55.75-.17-.91a1.12,1.12,0,0,0-.38.16l.55.75-.17-.91.16.84.37-.78a.88.88,0,0,0-.53-.06l.16.84.37-.78-.56,1.18,1.07-.75c-13.93-19.88-32.31-35-52.77-47.31s-43-21.89-65.44-30.7C776.26,853,729.4,839.06,690,812.05Zm93.5,18.68,1.28.25a6,6,0,0,1,.77-1.93,17.45,17.45,0,0,1,1.36-2c.75-1,1.91-2.58,3.32-4.43a92.76,92.76,0,0,1,7.61-8.9,32.7,32.7,0,0,1,4.09-3.51,10,10,0,0,1,3.53-1.69,2.9,2.9,0,0,1,1.81.15,1.93,1.93,0,0,1,.89.82,5.4,5.4,0,0,1,.63,1.76,21.65,21.65,0,0,1-.06,6.27,91.86,91.86,0,0,1-2.48,11.68c-.5,1.87-1,3.61-1.4,5.11s-.75,2.74-.94,3.67a9.64,9.64,0,0,1-.38,1.46,2.68,2.68,0,0,1-.54.94,2.77,2.77,0,0,1-.77.5,11,11,0,0,1-1.18.44l-10.2,3.29a6.2,6.2,0,0,1-.65.18,1,1,0,0,1-.37,0,.73.73,0,0,1-.34-.25,4.55,4.55,0,0,1-.55-.77,35.06,35.06,0,0,1-3.8-9.14c-.1-.38-.18-.76-.26-1.13a7.06,7.06,0,0,1-.09-2.57l-1.28-.25-1.29-.24a9.56,9.56,0,0,0,.09,3.55c.09.44.19.88.3,1.29a37.66,37.66,0,0,0,4.09,9.83,6.93,6.93,0,0,0,.88,1.22,3.29,3.29,0,0,0,1.62,1,3.42,3.42,0,0,0,1.49,0,8.54,8.54,0,0,0,1-.26l10.21-3.29a13.72,13.72,0,0,0,1.47-.55,5.33,5.33,0,0,0,1.53-1,5.09,5.09,0,0,0,1.14-1.89,11.49,11.49,0,0,0,.48-1.82c.22-1.06.73-2.88,1.34-5.08.91-3.3,2.07-7.49,2.86-11.57a51.15,51.15,0,0,0,.85-5.94,19.75,19.75,0,0,0-.16-5.16,7.92,7.92,0,0,0-1-2.65,4.67,4.67,0,0,0-2.05-1.83,5.58,5.58,0,0,0-3.37-.33,10.59,10.59,0,0,0-3,1.17,26.59,26.59,0,0,0-5.21,4,79.79,79.79,0,0,0-7.15,8c-2.09,2.65-3.8,5-4.75,6.27a20.49,20.49,0,0,0-1.55,2.24,8.76,8.76,0,0,0-1.07,2.75Zm-78.93-91.3,1.09.73c2.58-3.84,5.52-7.57,7.86-11.81a31.11,31.11,0,0,1,3.57-5.87,12,12,0,0,1,6.54-3.55,8.54,8.54,0,0,1,4.82.3,4,4,0,0,1,1.52,1.07,3.73,3.73,0,0,1,.8,1.76,7.71,7.71,0,0,1-.24,3.43A71.57,71.57,0,0,1,723.13,742c-2.78,5.14-5.84,10.22-8.28,15.14-3.16,6.39-6.41,12.94-8.05,20.09-.65,2.85-1,5.72-1.46,8.51a50.31,50.31,0,0,1-1.78,8.09,4.61,4.61,0,0,1-.4.93.91.91,0,0,1-.33.35l-.12,0a1.59,1.59,0,0,1-.52,0,5.9,5.9,0,0,1-.83-.23q-4.46-1.46-8.8-3.23a11.14,11.14,0,0,1-1.62-.77,3.09,3.09,0,0,1-1-.92,2.76,2.76,0,0,1-.4-1,9.86,9.86,0,0,1,0-2.27,91.86,91.86,0,0,1,15.4-45.41l-1.09-.73-1.08-.73a94.48,94.48,0,0,0-15.84,46.71,11.67,11.67,0,0,0,.1,2.92,5.36,5.36,0,0,0,.77,2,5.77,5.77,0,0,0,1.85,1.72,13.28,13.28,0,0,0,2,.95q4.42,1.82,9,3.3a9.1,9.1,0,0,0,1.18.31,4.05,4.05,0,0,0,1.48,0,3.54,3.54,0,0,0,.74-.24,3.46,3.46,0,0,0,1.46-1.36,7,7,0,0,0,.64-1.47,52.53,52.53,0,0,0,1.88-8.51c.45-2.83.82-5.63,1.43-8.32,1.54-6.76,4.68-13.13,7.85-19.52,2.36-4.78,5.41-9.85,8.24-15.06a74.5,74.5,0,0,0,6.83-16,10.4,10.4,0,0,0,.28-4.6,6.36,6.36,0,0,0-1.38-2.95,7.09,7.09,0,0,0-4-2.26,12.32,12.32,0,0,0-4.84,0,14.62,14.62,0,0,0-8,4.38,33.2,33.2,0,0,0-3.92,6.35c-2.18,4-5.08,7.66-7.73,11.61ZM668,751.92l1.29.2a22.68,22.68,0,0,1,2.06-6.16,11.93,11.93,0,0,1,1.87-2.78,4.79,4.79,0,0,1,1-.85,2.86,2.86,0,0,1,1-.4,2.34,2.34,0,0,1,1.16.07,4.78,4.78,0,0,1,1.51.84,4.07,4.07,0,0,1,1,1.47,11.15,11.15,0,0,1,.76,2.56,45.71,45.71,0,0,1,.53,8.57c0,1.47,0,2.89-.06,4.16s0,2.38,0,3.29c.15,2.24.29,4.48.23,6.65a22.76,22.76,0,0,1-1,6.27,6.12,6.12,0,0,1-.68,1.5,2,2,0,0,1-.85.8,1.82,1.82,0,0,1-.39.11,6.48,6.48,0,0,1-1.38,0A16.42,16.42,0,0,1,673,778a5.56,5.56,0,0,1-1.25-.42,3.51,3.51,0,0,1-1-.67,4.19,4.19,0,0,1-.84-1.27,10.71,10.71,0,0,1-.57-1.71c-.21-.76-.38-1.52-.53-2.28-1.21-6.29-.63-13,.38-19.5l-1.29-.2-1.29-.2c-1,6.66-1.66,13.61-.37,20.39.16.83.35,1.65.57,2.47a14.25,14.25,0,0,0,.72,2.11,6.76,6.76,0,0,0,1.36,2,5.91,5.91,0,0,0,1.67,1.18,9.28,9.28,0,0,0,2.75.8,25,25,0,0,0,2.66.19,9,9,0,0,0,2-.1,4.58,4.58,0,0,0,.94-.29,4.63,4.63,0,0,0,2-1.75,9,9,0,0,0,1-2.14,25.13,25.13,0,0,0,1.08-7c.07-2.34-.08-4.66-.23-6.91,0-.74,0-1.82,0-3.07,0-1.88.1-4.15.06-6.47a40,40,0,0,0-.57-6.79,14.13,14.13,0,0,0-.94-3.15,6.55,6.55,0,0,0-1.78-2.43,7.36,7.36,0,0,0-2.39-1.31,5.08,5.08,0,0,0-2.41-.13,5.5,5.5,0,0,0-1.86.74,9.1,9.1,0,0,0-2.5,2.45,20.86,20.86,0,0,0-2.47,4.81,24.12,24.12,0,0,0-1.18,4.36Z"/><path class="cls-4" d="M939.29,948.61l-1.07.75.89-1c-38.11-35.32-86.67-54.8-135.33-73.94s-97.46-37.93-136.19-71.6c-1.87-1.63-3.71-3.3-5.54-5-21.79-20.23-39.69-44.46-57.45-68.58l-57.42-78-2.11,1.55c4.1,5.56,9.57,9.57,15.21,13.26s11.48,7.06,16.44,11.26A61.92,61.92,0,0,1,589,692.18c3.48,5.55,6.5,11.54,9.62,17.4,16.79,31.5,38.26,60.93,64.74,84.8a240.21,240.21,0,0,0,25.07,19.83c39.92,27.31,87,41.23,131.65,58.82,22.35,8.8,44.79,18.31,65,30.51s38.31,27.07,52,46.57l1.07-.75.89-1-.89,1,1.07-.75c-13.93-19.88-32.31-35-52.77-47.31s-43-21.89-65.44-30.7C776.26,853,729.4,839.06,690,812.05a237.07,237.07,0,0,1-24.8-19.61c-26.21-23.62-47.51-52.81-64.18-84.09-3.1-5.83-6.15-11.87-9.71-17.56a64.78,64.78,0,0,0-12.85-15.42c-5.21-4.39-11.14-7.81-16.7-11.45S551,656.44,547.18,651.3l-2.11,1.55,57.43,78c17.76,24.11,35.74,48.48,57.77,68.93,1.84,1.71,3.7,3.4,5.6,5.05,39.21,34.07,88.3,52.93,137,72.07s96.88,38.53,134.51,73.42"/><path class="cls-8" d="M859.26,708c-9.19,26.71-26.37,46.74-41.51,69.39C799.23,805,779.62,863.43,755,881.73c-17.3,12.86-47,11-80.33,2.46-59.76-15.24-131.5-51.72-165.88-62.91l-54.14-17.66-49.14-16-63.64-20.72L303,754.24a1706.33,1706.33,0,0,1-52.47-336.1c-1.27-23.06-2.06-46.67,3.92-69.13,5.09-19.1,14.81-36.34,24.4-53.33q36.33-64.31,72.73-128.58c8.74-15.5,17.79-31.33,30.6-42.79a85.45,85.45,0,0,1,13.1-9.58c10.58-6.37,22.19-10.73,33.58-15,56.29-20.85,113-41.82,170.49-56.32a639.15,639.15,0,0,1,88-16.21,517.26,517.26,0,0,1,158.48,7.3C859.14,55,862.23,83.81,864,110.25c12.85,107.38,9,221.31,8.43,330C871.94,521.58,886.06,629.82,859.26,708Z"/><path class="cls-9" d="M836.57,708c-9.19,26.71-26.37,46.74-41.51,69.39-18.52,27.65-38.13,86.08-62.77,104.38-17.3,12.86-46.95,11-80.33,2.46C592.2,869,520.46,832.47,486.08,821.28l-54.14-17.66-49.14-16-63.64-20.72-38.81-12.64a1706.33,1706.33,0,0,1-52.47-336.1c-1.27-23.06-2.06-46.67,3.92-69.13,5.09-19.1,14.81-36.34,24.4-53.33q36.33-64.31,72.73-128.58c8.74-15.5,17.79-31.33,30.6-42.79a85.45,85.45,0,0,1,13.1-9.58c10.58-6.37,22.19-10.73,33.58-15C462.5,78.92,519.17,58,576.7,43.45a639.15,639.15,0,0,1,88-16.21,517.26,517.26,0,0,1,158.48,7.3c13.26,20.44,16.35,49.27,18.08,75.71,12.85,107.38,9,221.31,8.43,330C849.25,521.58,863.37,629.82,836.57,708Z"/><path class="cls-10" d="M669.64,536.43c-3.19-19.91-11.48-34-16-41.6-3.44-5.75-9.08-14.15-61.4-58.9-5.79-4.93-17.37-14.46-40.5-33.48-22-18.12-29.65-24.25-30.62-23.27-.34.34.06,1.5,2,4.25h0l.17.21c2.67,3.38,5.16,6.54,7.45,9.58h0c3.06,3.68,7,8.28,11.95,14,0,0,11.5,23.7,5.75,34.47s-7.9,10.78-19.4,9.34-58.91-39.51-76.15-48.85-30.17-13.64-45.25-14.35c-13.6-.67-45.26-4.21-51.4-4.91-8.17,10.28-15.7,19.72-21.22,26.63a.61.61,0,0,1,0,.14v.13a89.66,89.66,0,0,1,11.56-2.6s14.1-1.92,32.33,5.37c15.94,6.41,35,36.91,45.26,69,5.45,17.1,13.28,50.14,5.58,89.64a176.72,176.72,0,0,1-6.74,24.7c1.5,14,3.51,33.67,5.61,57.26,2,22,2.94,88.85,3.36,150.47l54.14,17.66C520.46,832.47,592.2,869,652,884.19c.67-84,1.95-202.86,3.28-218.15,2.46-28.51,3.7-42.75,6.39-59.21C667.51,570.94,673.22,558.85,669.64,536.43ZM600,559.73l-1.6,1.17-.88.64-1.07.75-1.87,1.32h0l-1.43,1h0l-1.56,1.07-.84.56L588.08,568l-2.91,1.88h0c-1,.65-2,1.3-3.11,2h0c-.71.45-1.44.89-2.17,1.33h0c-.73.44-1.48.89-2.24,1.33s-1.52.89-2.3,1.33L573,577.14c-1.58.87-3.19,1.73-4.8,2.56l-2.43,1.22-1.22.59c-1.22.58-2.44,1.14-3.65,1.68s-2.43,1-3.63,1.51q-1.18.48-2.37.9c-6.56,2.36-12.68,3.59-17.45,2.73-19.37-3.52-31.83-29.58-32.21-30.41.06,0,1.41.57,30.42,12.51,9.22,3.8,17.13,5.13,24.17,4.89,1,0,2.07-.1,3.08-.2a50.85,50.85,0,0,0,12.66-3c.87-.33,1.74-.67,2.6-1s1.71-.74,2.55-1.13l1.25-.59c.83-.4,1.66-.81,2.48-1.23s1.63-.85,2.44-1.28c1.22-.65,2.42-1.31,3.62-2l2.38-1.33h0l2.38-1.31c1.19-.65,2.39-1.29,3.6-1.91.39-.21.79-.41,1.19-.61Z"/><path class="cls-10" d="M355.16,382.78l1,.12c-8.17,10.28-15.7,19.73-21.23,26.64,0,.1,0,.18,0,.28l-.27.07c-3.27.89-5.48,1.42-5.94.54-.57-1.06,1.93-3.28,6.25-7.21,1.62-1.48,3.52-3.19,5.61-5.17C347.06,391.92,352,386.5,355.16,382.78Z"/><path class="cls-11" d="M530.71,393.24c-3.71-4.49-6.13-7.64-7.62-9.8l.16.21C525.92,387,528.43,390.2,530.71,393.24Z"/><path class="cls-11" d="M505.22,557.92s1.41.57,30.42,12.51c30.41,12.53,46.53-1.77,64.41-10.72-1.24.94-43.23,32.14-62.62,28.62S505.6,558.75,505.22,557.92Z"/><path class="cls-12" d="M595.1,106.71c8-9,8.83-15.26,7.9-19.39-1.37-6.08-6.28-6.27-10.06-14.37-4.46-9.55.32-13.67-4.31-20.83-3.68-5.71-6.91-3.41-15.08-11.5-6.52-6.45-6-9.42-10.78-11.49-5.86-2.53-8.33,1.18-15.8-.72-7.71-2-7.38-6.48-14.37-8.62-8.56-2.62-11.05,3.56-22.27,2.87-11.58-.71-12.93-7.54-22.27-6.46-8.47,1-8.48,6.73-18,7.9-8.47,1-11.24-3.19-18-.72-5.78,2.13-4.71,5.62-10.78,8.62-9,4.48-15.64-1.2-20.83,3.59-3.36,3.11-.91,5.78-5,10.78-4.25,5.16-8.18,3.92-10.77,8.62-2.48,4.49.35,7-2.16,10.78-3.07,4.64-8.16,2.17-12.21,6.46-4.6,4.88,0,10.14-4.31,18-3.61,6.49-7.91,4.85-11.49,11.49-3.17,5.87-.11,7.67-2.88,17.24-2.54,8.81-5.81,9.65-5.74,15.81.06,5.81,3,5.91,3.59,12.21.88,9.26-5.11,12.34-2.88,18.68,1.59,4.52,4.77,3.36,7.91,9.34,3.25,6.21.9,9.52,4.31,12.93s6.63,1,10.05,4.31c4.55,4.37.84,10.47,5,13.65,1.9,1.44,2.93.38,13.65,1.43,4.91.49,4.84.72,6.47.72,8.06,0,14.21-5.8,15.8-7.18,10-8.71,33.64-11.23,53.88-18,17.46-5.81,17.7-9.86,99.13-67.53Z"/><path class="cls-13" d="M605.15,146.22,603,126.83,588.38,97.59c-27-12.61-50-15.25-63.62-15.72-23.69-.81-34.62,4.4-38.92,6.74-7.62,4.14-12.07,9-21,18.71-14.42,15.75-23.17,25.3-26.2,39.67-3.57,16.95,2.58,32.21,0,32.93-2.24.63-4.36-11.59-14.22-15.71-7.1-3-17.09-1.27-21.08,4.46-1.61,2.32-2,6.54-1.35,14.82.87,11,1.3,16.52,2.16,18.59.75,1.79,4,9.56,11.31,13.47,9,4.82,21.64,2.33,31.61-6.11l44.54-56.75Z"/><path class="cls-14" d="M607,179.44a68.2,68.2,0,0,1-.81,11.66c-.06.26-.11.5-.18.72s-.06.25-.1.38a27.4,27.4,0,0,1-1.55,4l-.07.14a21.45,21.45,0,0,1-4.84,6.67,142.12,142.12,0,0,1,0,26.58c-1.44,12.93-12.22,31.6-15.81,40.22s-30.17,49.57-35.92,56.75-37.34-6.46-38.07-3.59A113.22,113.22,0,0,0,507,336.43c-1.3,10.63-.88,23.15,5.47,33.92,2.7,4.58,2.84,3.26,10.6,13.09l.16.21c2.67,3.38,5.18,6.55,7.46,9.59,9.34,12.31,15.35,22.31,16.26,34.59.26,3.6,1.14,15.54-5.09,19.28-2.45,1.45-6.74,2.11-22.39-5.82-16.73-8.46-24.79-15.09-24.79-15.09-9.63-7.9-36.07-29.61-62.49-38.78-34.35-11.91-71.85-3.73-73.61-7.54a.62.62,0,0,1-.07-.23,1,1,0,0,1,.22-.67c1.05-1.4,4.13-5,8.33-9.82l.14-.17c13.12-15.24,36.93-43.09,44-58.26,7.54-16.21,13.19-46.44,15.1-57.54.12-.65.21-1.22.28-1.72.28-1.61.42-2.52.42-2.52l-.07-.91L425.57,231a81.23,81.23,0,0,1-9.17-6.79c-.35-.29-.69-.59-1-.91-4.63-4.12-9.21-9.42-9.91-14.55,0-.14,0-.28-.06-.44-.05-.39-.11-.79-.15-1.23-.15-1.09-.29-2.3-.45-3.59-1.4-12.29-2.75-32.09,2.81-36.41,6.46-5,18.68-.72,24.43,5.75S445,191.47,445,191.47s14.36-40.22,27.29-49.56,52.44-24.42,60.34-24.42c7.2,0,22.74-3.57,41.72,3.92q2.82,1.09,5.71,2.55c13.24,6.61,23.7,10.76,25.14,22.26A297.48,297.48,0,0,1,607,179.44Z"/><path class="cls-15" d="M606.23,133.11c-1.08-7.54-9.7-30.17-13.47-34.48s-21.55-13.47-42-14c-20-.52-45.36-4.15-69.51,11.86-14.5,9.61-21.16,21-32.82,40.78-6.67,11.35-10.18,20.37-9,30.69A37.44,37.44,0,0,0,443,180s14-27.48,17.78-32.87,22.63-16.7,32.33-22.09S541,111.56,541,111.56l30.71,4.85Z"/><path class="cls-16" d="M413.22,227a6,6,0,0,1,2.45-3.93c1.89-1.12,4-.3,7.86.85,9.36,2.8,9.47,1.71,11,3.08,4.66,4.21,3,14.09-.69,20.18-4.12,6.73-8.93,6.12-8.93,6.12s-9.61-1.84-11-9.18S413.22,227,413.22,227Z"/><path class="cls-15" d="M433.82,225.24c-8.45-8.45-19.39-4.31-19.39,5s8.62,20.84,13.64,17.24S439.57,231,433.82,225.24Z"/><path class="cls-17" d="M522.06,281.88c6.94-4.7,17.79-15.26,23.9-13.31a20.65,20.65,0,0,1,3.84,1.87c1.76,1,2.64,1.76,4.17,1.86a9.91,9.91,0,0,0,2.33-.36c3.87-.76,4.72-1,5.88-.67a4.51,4.51,0,0,1,2,1.16c3.18,3.17,9.39,13.88,9.39,13.88s-5.86,8.79-12,10.41-23.41-3.31-23.41-3.31Z"/><path class="cls-12" d="M534.13,280.77a108.8,108.8,0,0,1,36.93,5.92L566.48,288a27.49,27.49,0,0,1-7.38-.57c-2.56-.55-3.22-1.1-6.06-1.6s-3.62-.21-6.1-.52a27.2,27.2,0,0,1-7.66-2.19Z"/><path class="cls-18" d="M505.48,319c-34.31-14.89-48.58-29.82-55.14-41.13L436.7,253.44h0s.17,3.23.8,7.54A88.9,88.9,0,0,0,441,275c5.76,16.1,35.23,31.2,40.22,33.77A179.33,179.33,0,0,0,505.48,319Z"/><path class="cls-19" d="M600.05,559.71c-1.24.94-43.23,32.14-62.62,28.62s-31.83-29.58-32.21-30.41c0,0,1.41.57,30.42,12.51C566.05,583,582.17,568.66,600.05,559.71Z"/><path class="cls-14" d="M427.84,519.73c-.22-3.06-.55-6.21-1-9.74-2.67-19.91-4.68-35-13.47-52.3-6.52-12.82-17.47-34.37-42-44.09-6.24-2.48-24.06-7.18-40.94-2.05s-21.2,36.57-23.35,61.87,4.31,63.58,4.31,80-4.31,38.28-5,51.27c-.67,12.09,14.49,180.69,14.49,180.69s11,119.3,12.48,133.26-6.61,69.16-6.61,69.16,0,33.52,1.47,42.6,9.54,6.29,9.54,6.29,11.74,13.27,20.55,19.56,41.84,7.68,48.44,7.68c3.93,0,4.74-5.19,4.6-11a14,14,0,0,0,7.88-.87c8.07-3.49,0-11.17-1.47-21.65s0-65,0-76.13S403.74,922.83,397.86,911s-11.74-20.25-11.74-31.78-2.2-73.2-3.3-91c-.54-8.68,11.86-200.92,12.94-216.39a124.36,124.36,0,0,1,13.6,7.2,33.11,33.11,0,0,1,6.94,5.33,29.8,29.8,0,0,1,3.46,4.27,44.41,44.41,0,0,0,5.07-10.14,48.58,48.58,0,0,0,2.4-12c.65-6.52.82-11.71.94-21.06C428.39,528,428.1,523.31,427.84,519.73ZM384.65,989.18c2.2-4.19,8.81-.7,9.54,7,.5,5.24,2,22.51,3.42,34.95-6.7-3.5-13.67-6.91-14.43-10.51C381.72,1013.63,382.45,993.37,384.65,989.18Z"/><path class="cls-18" d="M397.92,507.43c-.54,0-1.15,17.79-1.79,37.09-.38,11.34-.68,20.85-.9,27.7a77.25,77.25,0,0,1,7.18,3.23c1.54.79,3,1.59,4.29,2.38-1.22-4.5-2.83-11-4.29-18.77C397,529.79,398.48,507.43,397.92,507.43Z"/></g></g></svg>