<svg xmlns="http://www.w3.org/2000/svg" viewBox="0 0 1080 1080"><defs><style>.cls-1{isolation:isolate;}.cls-2{mix-blend-mode:multiply;}.cls-3{fill:#ffd2b3;}.cls-4{fill:#5a5d4a;}.cls-5{fill:#515443;}.cls-6,.cls-8{mix-blend-mode:overlay;}.cls-7{fill:#f2d1b9;}.cls-10,.cls-8{fill:#2d130e;}.cls-9{fill:#bf6e16;}.cls-11{fill:#5b3125;}.cls-12{fill:#5d819d;}.cls-13{fill:#fee;}.cls-14{fill:#3f1c13;}.cls-15{fill:#fdf1e4;}.cls-16{fill:#b5cde0;}.cls-17{fill:#9f543f;}.cls-18{fill:#f9977d;}.cls-19{fill:none;}</style></defs><g class="cls-1"><g id="Layer_1" data-name="Layer 1"><g class="cls-2"><rect class="cls-3" x="-206.94" y="-43.62" width="1522.22" height="1210"/></g><path class="cls-4" d="M132.44,710.78a15.64,15.64,0,0,0,5.31-2.6c14.56-9.87,28.95-24.26,31.92-43a43.54,43.54,0,0,0-2.06-21.42q-2.13-1.23-4.23-2.53c-57.54-36-86.17-110.82-144.78-144.88,2,7.26,1.95,19.51,2,23.75.09,7.12,1.73,14.31-.56,21-.62,1.82-1.31,3.95-.34,5.6a5.37,5.37,0,0,0,2.17,1.86c7.09,4,15.24,4.75,23.14,4.38,4-.19,8-.67,12-1.19,1.32-.17,4.63-1.29,5.82-.74s1.36,3.44,1.51,4.75c.36,3.06.43,6.31-.92,9-3.29,6.63-10.42,4-15.94,3.86A128,128,0,0,1,34,567.54c-2.83-.38-6.72-1.71-9.36.1-5.12,3.52-3.07,17.64-2.72,23,.44,6.76,1.65,13.8,5.65,19.11a24.49,24.49,0,0,0,5.9,5.46c16.1,10.86,38.47,3.28,54.83-3.15,4-1.57,8-3.34,12.27-3.53,8.11-.36,16,5.88,18,14.17.55,2.27-17.76,10-19.84,10.78a86.47,86.47,0,0,1-22.87,5.32,84.21,84.21,0,0,1-11.45.28c-3.07-.14-8.33-2-11.19-.75-5.19,2.21,3.44,18.44,5,22.34,1.68,4.2,3.43,8.5,6.46,11.74,3.29,3.52,7.77,5.45,12.12,7.3,4.8,2,9.65,4.09,14.77,4.93,19.3,3.15,33.47-16.8,45.65-29.45,2.11-2.19,5.31-4.47,7.75-2.69,1.69,1.24,1.89,3.77,1.74,5.93-.8,11-6.7,21.23-14.89,28.11a51.83,51.83,0,0,1-20.78,10.29c-3,.76-9.07,0-6.44,4.18,1.9,3,5.28,5.14,8.37,6.48,4.34,1.88,9.07,2.53,13.73,3.16A17,17,0,0,0,132.44,710.78ZM93.22,600.89a57.89,57.89,0,0,1-24.09,1.8,8,8,0,0,1-3.32-1c-2.64-1.69-2.9-5.55-2.86-8.8a2.57,2.57,0,0,1,.57-2,2.28,2.28,0,0,1,1.13-.44c8.9-1.65,19.74-5.13,28.79-4.24C101.86,587.08,100.37,598.81,93.22,600.89Zm23.12,47.28q-13.08,10.1-26.84,19.15c-2,1.33-4.17,2.68-6.56,2.88-4.52.38-17.88-6.72-12.6-13.26,2.37-2.93,9.57-2.1,12.88-2.34,5.06-.36,10.17-.69,15.08-2.12,6.77-2,13-5.93,19.92-7.07C118.23,646.59,117.24,647.47,116.34,648.17Z"/><path class="cls-4" d="M170.31,640.56c7.89-.92,15.8-2,23.24-4.92,11.46-4.44,21.11-12.81,30.29-21.28,4.91-4.53,9.91-9.36,12.38-15.73,2.19-5.66,2.16-12,2.09-18.07-.07-7-.26-14.51-3.81-20.48a37.64,37.64,0,0,0-5.22-6.43L206.08,529a119.93,119.93,0,0,1-18.27,48.85c-5.57,8.51-12.66,16.52-21.95,19.83-3.71,1.32-8.38,1.59-11-1.51,8-21.38,33.49-33,37.11-55.67,1.1-6.84,0-13.83-1.46-20.6a16.69,16.69,0,0,0-2-5.62,14.42,14.42,0,0,0-5-4.31,65.8,65.8,0,0,0-14.67-6.51c1,16.4-4,32.47-9,48.05-1.86,5.84-4,12.08-8.76,15.66s-13,2.53-14.71-3.35c-.1-.35,5.85-6.17,6.45-6.93a62.64,62.64,0,0,0,5.31-7.93,68.07,68.07,0,0,0,8.54-37.76c-.36-5.38-1-14.07-4.43-18.29-2.87-3.49-7.79-3.89-12.17-4l-14.8-.46c-2.83-.1-3.69-.75-4.22,2.11-.41,2.28.08,5.16.11,7.49q.21,15.62.43,31.24c.06,4-.09,8.64-3,11.36-3,2.89-7.73,2.31-11.76,1.56a4.71,4.71,0,0,1-2.2-.82c-1.89-1.58-.63-4.73.61-6.91-.06-1.34,2.28-4.53,2.82-5.89a52.65,52.65,0,0,0,2.16-6.76A55.18,55.18,0,0,0,110,494c-1.45-5.2-3.86-7.27-7.65-10.82a19.9,19.9,0,0,0-2.94-2.42c-3.88-2.46-8.77-1.92-13.24-1.19-3.86.62-8.42.94-12,2.58,1.52,2,4.11,3.45,5.81,5.53a28.56,28.56,0,0,1,5.78,23.73c-.87,3.87-2.69,7.68-5.78,10s-7.63,2.64-10.56.13c-3.92-3.35-3.46-9.64-3.43-15S64.52,496.24,64.12,491c-.23-3.11-.15-7.73-4-8.6a6.38,6.38,0,0,0-2.61.08c-8.46,1.47-16.35,5.16-24.34,8.27-2,.77-4,1.52-6,2.19-1.45.48-9.57,2.27-8.57,3.38,29.85,9.45,51.71,34.4,71.65,59.65s38.06,52.73,62.85,72.64A153.63,153.63,0,0,0,170.31,640.56Zm-50.44-67.9a22.17,22.17,0,0,1-6.64-.53,2,2,0,0,1-1.34-.75,2.31,2.31,0,0,1-.21-1.17c0-2.44,0-4.89-.05-7.33a4.06,4.06,0,0,1,.27-1.87,3.87,3.87,0,0,1,1.62-1.48c3.23-2,15.32-11.85,18.4-8.3s-5.06,15.12-7.09,18.26a7.34,7.34,0,0,1-2.26,2.49A6.13,6.13,0,0,1,119.87,572.66Zm49.78,50.94a4.07,4.07,0,0,1-2.65.45,4.34,4.34,0,0,1-2-1.64q-2-2.46-3.82-5.06a2.39,2.39,0,0,1-.59-1.54,2.21,2.21,0,0,1,1-1.36c3-2.32,6.47-3.71,9.62-5.72,3.95-2.52,7.28-6,10.57-9.4,5-5.2,10-12.3,15.88-16.32s8.38,4.53,5.79,9.26a21.68,21.68,0,0,1-3,3.74c-2.07,2.35-3.76,5-5.62,7.57A60.8,60.8,0,0,1,169.65,623.6Zm11.66,10.34a4.78,4.78,0,0,1-2.54-.37c-1.28-.67-1.87-2.22-2.36-3.63a3.88,3.88,0,0,1-.3-1.57,3.24,3.24,0,0,1,1.45-2.12c2.36-1.81,5.26-2.62,8.08-3.39s10.69-4.61,13.47-2.71c4.27,2.92-1.63,7.82-4,9.11C190.76,631.6,186.16,633.64,181.31,633.94Z"/><path class="cls-5" d="M18.6,496.33c29.85,9.45,51.71,34.4,71.65,59.65s38.06,52.73,62.85,72.64a153.63,153.63,0,0,0,17.21,11.94c20,12,42.35,19.58,65.07,23.69,8.46,1.54,17.27,2.71,24.58,7.44s13.15,12.36,21.35,15.19l-59.68-20.52c-18.45-6.34-37-12.77-54-22.62q-2.13-1.23-4.23-2.53C105.84,605.19,77.21,530.39,18.6,496.33Z"/><path class="cls-4" d="M275.16,419.51a5.49,5.49,0,0,0,2,.67c6.05,1.16,13.18,1.16,18.57-2.75a15.28,15.28,0,0,0,4.79-5.82c-.15-.55-.29-1.11-.42-1.67-5.33-23.19,6.11-48.82,0-71.78-1.3,2.3-4.36,5.32-5.39,6.38-1.74,1.79-3.12,4-5.35,5.07-.6.3-1.3.66-1.47,1.31a1.9,1.9,0,0,0,.08,1,14.86,14.86,0,0,0,4.64,6.81c1,.95,2.16,1.83,3.28,2.69.37.28,1.47.83,1.62,1.26s-.51,1.19-.8,1.55a5.65,5.65,0,0,1-2.47,2c-2.45.83-3.57-1.59-4.9-3a42.77,42.77,0,0,1-3.08-3.63c-.61-.79-1.25-2.09-2.35-2.29-2.14-.4-5.13,3.61-6.38,5a12.37,12.37,0,0,0-3.33,6.13,8.6,8.6,0,0,0,.11,2.82c1.3,6.68,8.72,10.35,14.37,12.8a13.71,13.71,0,0,1,3.91,2.17,6.5,6.5,0,0,1,1,8c-.43.7-6.88-1.93-7.59-2.25a30.11,30.11,0,0,1-7-4.34,29.31,29.31,0,0,1-2.91-2.77c-.73-.8-1.58-2.55-2.59-3-1.83-.74-3.71,5.42-4.29,6.78a12.89,12.89,0,0,0-1.31,4.51,11.85,11.85,0,0,0,1.19,4.81,23,23,0,0,0,2.44,4.88c4,5.56,12.46,4.13,18.61,4,1.07,0,2.43.21,2.59,1.25a2.34,2.34,0,0,1-1,1.9A14.54,14.54,0,0,1,281,413.36a18.35,18.35,0,0,1-7.71-2.6c-.93-.57-2.25-2.24-2.62-.56a6.61,6.61,0,0,0,.46,3.68,18,18,0,0,0,2.62,4.18A5.85,5.85,0,0,0,275.16,419.51Zm17.51-36.95a20.41,20.41,0,0,1-6.42-5.52,2.85,2.85,0,0,1-.57-1.07c-.24-1.07.65-2.1,1.47-2.89a.92.92,0,0,1,.62-.35.7.7,0,0,1,.39.18c2.62,1.79,6.17,3.61,8.19,6.08C298.23,381.28,295,383.82,292.67,382.56Zm-6,17.44q-5.74-.74-11.4-1.9a5.2,5.2,0,0,1-2.34-.91c-1.21-1-2.76-6.1.17-6.41,1.31-.14,2.89,1.85,3.77,2.61a24.64,24.64,0,0,0,4.26,3.21c2.17,1.19,4.69,1.75,6.69,3.19A1.35,1.35,0,0,1,286.68,400Z"/><path class="cls-4" d="M301.94,411.49a32.68,32.68,0,0,0,7,4.54c3.94,1.74,8.4,2.06,12.78,2.24a15.64,15.64,0,0,0,7-.83,17,17,0,0,0,5-4c1.73-1.77,3.53-3.66,4.13-6a13.29,13.29,0,0,0,.3-2.88l.36-11.86a42.13,42.13,0,0,1-16.63,7.58c-3.49.72-7.23.95-10.35-.53-1.25-.59-2.47-1.68-2.35-3.09,7.29-3.31,16.48.12,23-4.6a19.79,19.79,0,0,0,4.74-5.47,5.8,5.8,0,0,0,.91-1.87,5,5,0,0,0-.17-2.31,23.18,23.18,0,0,0-2-5.25c-3.82,4.32-9.05,7.05-14.14,9.68-1.91,1-4,2-6.05,1.71s-3.84-2.58-2.81-4.47c.06-.12,3-.08,3.31-.12a21.87,21.87,0,0,0,3.28-.65,23.84,23.84,0,0,0,11.47-7.24c1.25-1.42,3.25-3.73,3.44-5.63.15-1.58-1-2.89-2-4s-2.37-2.52-3.55-3.79c-.68-.72-.73-1.1-1.57-.52a14.8,14.8,0,0,0-1.83,1.88l-7.63,7.85c-1,1-2.17,2.12-3.55,2.08s-2.49-1.34-3.3-2.52a1.55,1.55,0,0,1-.34-.75c-.08-.86,1-1.33,1.86-1.56.32-.35,1.69-.56,2.16-.76a18.46,18.46,0,0,0,2.21-1.14,19.45,19.45,0,0,0,6.77-7c.93-1.64.85-2.76.79-4.57a7.31,7.31,0,0,0-.13-1.33c-.35-1.57-1.7-2.65-3-3.58a16.86,16.86,0,0,0-3.61-2.33c-.12.87.16,1.87.07,2.81a10,10,0,0,1-4.45,7.31,5.83,5.83,0,0,1-3.9,1,3,3,0,0,1-2.65-2.58c-.14-1.8,1.53-3.24,2.86-4.56s2.21-2.91,3.41-4.31c.71-.83,1.87-1.95,1.15-3.11a2.51,2.51,0,0,0-.67-.63,45.59,45.59,0,0,0-8.08-4c-.69-.3-1.37-.61-2-.95-.48-.24-2.94-1.81-3-1.29,5.05,9.74,4.28,21.34,3,32.54s-3.63,22.49-2.43,33.57A54.3,54.3,0,0,0,301.94,411.49Zm4.33-29.32a7.88,7.88,0,0,1-1.52-1.78.69.69,0,0,1-.14-.52.76.76,0,0,1,.23-.34l1.81-1.83a1.08,1.08,0,0,1,1.3-.36c1.28.32,6.73.86,6.61,2.5s-5,2.5-6.28,2.77a2.49,2.49,0,0,1-1.18.06A2.08,2.08,0,0,1,306.27,382.17Zm-.29,25a1.45,1.45,0,0,1-.77-.55,1.51,1.51,0,0,1-.09-.9c.08-.74.18-1.47.31-2.2a.81.81,0,0,1,.24-.53.71.71,0,0,1,.57-.09c1.31.16,2.52.68,3.8,1a20.45,20.45,0,0,0,4.95.29c2.53-.05,5.53-.56,8-.11s1,3.2-.86,3.73a7.77,7.77,0,0,1-1.67.19c-1.09.07-2.18.32-3.27.48A21.26,21.26,0,0,1,306,407.13Zm.33,5.45a1.66,1.66,0,0,1-.54-.72,2.12,2.12,0,0,1,.31-1.49,1.32,1.32,0,0,1,.32-.46,1.13,1.13,0,0,1,.88-.17,8.15,8.15,0,0,1,2.85,1.17c.92.52,3.79,1.5,4,2.66.34,1.79-2.34,1.53-3.25,1.26A11.79,11.79,0,0,1,306.31,412.58Z"/><path class="cls-5" d="M300.09,338.16c5.05,9.74,4.28,21.34,3,32.54s-3.63,22.49-2.43,33.57a54.3,54.3,0,0,0,1.31,7.22,67.58,67.58,0,0,0,10.25,22c1.72,2.47,3.61,4.95,4.25,7.93s.2,6.32,1.53,9.06l-9.71-19.88c-3-6.14-6-12.34-7.78-19-.15-.55-.29-1.11-.42-1.67C294.73,386.75,306.17,361.12,300.09,338.16Z"/><path class="cls-4" d="M866.45,665.11a10.57,10.57,0,0,0,1.77,3.61c6.72,9.92,16.52,19.72,29.31,21.75a29.65,29.65,0,0,0,14.59-1.41c.56-1,1.13-1.93,1.72-2.88,24.54-39.2,75.5-58.7,98.7-98.62-4.95,1.38-13.29,1.32-16.18,1.36-4.85.06-9.75,1.18-14.32-.38-1.24-.42-2.69-.89-3.82-.23a3.7,3.7,0,0,0-1.26,1.48c-2.72,4.83-3.24,10.38-3,15.76.13,2.74.46,5.47.81,8.19.12.9.88,3.16.51,4s-2.35.93-3.24,1a11,11,0,0,1-6.15-.63c-4.51-2.24-2.74-7.1-2.63-10.86A86.35,86.35,0,0,1,964,598c.26-1.93,1.16-4.58-.07-6.38-2.4-3.48-12-2.09-15.68-1.85-4.61.3-9.41,1.12-13,3.84a16.75,16.75,0,0,0-3.72,4c-7.4,11-2.24,26.21,2.15,37.35,1.07,2.72,2.27,5.46,2.4,8.36.25,5.52-4,10.93-9.65,12.29-1.55.37-6.8-12.1-7.34-13.52a58.76,58.76,0,0,1-3.63-15.58,58,58,0,0,1-.19-7.8c.1-2.09,1.34-5.68.51-7.62-1.51-3.54-12.56,2.34-15.22,3.41-2.86,1.15-5.79,2.34-8,4.4-2.39,2.24-3.71,5.29-5,8.26a44.41,44.41,0,0,0-3.36,10.06c-2.14,13.15,11.45,22.8,20.06,31.1,1.5,1.44,3.05,3.62,1.83,5.28-.84,1.15-2.56,1.29-4,1.18A28.19,28.19,0,0,1,883,664.69a35.31,35.31,0,0,1-7-14.16c-.51-2.06,0-6.17-2.84-4.38a12.67,12.67,0,0,0-4.41,5.7,34.74,34.74,0,0,0-2.15,9.35A11.42,11.42,0,0,0,866.45,665.11Zm74.85-26.72A39.59,39.59,0,0,1,940.08,622a5.51,5.51,0,0,1,.68-2.26c1.15-1.8,3.78-2,6-2a1.72,1.72,0,0,1,1.33.38,1.52,1.52,0,0,1,.3.77c1.13,6.07,3.5,13.45,2.89,19.62C950.72,644.27,942.73,643.26,941.3,638.39Zm-32.2,15.74q-6.89-8.89-13-18.28a10,10,0,0,1-2-4.46c-.26-3.09,4.58-12.19,9-8.59,2,1.61,1.44,6.52,1.6,8.77a48.88,48.88,0,0,0,1.44,10.28c1.35,4.61,4.05,8.85,4.82,13.57A2.63,2.63,0,0,1,909.1,654.13Z"/><path class="cls-4" d="M914.28,690.9c.63,5.37,1.39,10.77,3.36,15.84,3,7.8,8.72,14.37,14.49,20.63,3.09,3.34,6.38,6.75,10.72,8.43,3.85,1.5,8.15,1.47,12.31,1.43,4.8-.05,9.88-.18,14-2.6a25.83,25.83,0,0,0,4.38-3.56l16.8-15.8A81.81,81.81,0,0,1,957,702.83c-5.8-3.8-11.26-8.63-13.51-15-.9-2.52-1.08-5.71,1-7.47,14.56,5.47,22.48,22.82,37.92,25.29,4.66.74,9.43,0,14-1a11.4,11.4,0,0,0,3.83-1.33,9.76,9.76,0,0,0,2.94-3.41,45.26,45.26,0,0,0,4.44-10c-11.18.69-22.12-2.73-32.74-6.12-4-1.27-8.23-2.72-10.66-6s-1.73-8.83,2.28-10c.24-.07,4.2,4,4.72,4.39a41.35,41.35,0,0,0,5.4,3.62,46.36,46.36,0,0,0,25.72,5.82c3.66-.25,9.59-.65,12.46-3,2.38-1.95,2.65-5.3,2.74-8.29.11-3.36.21-6.72.32-10.08.07-1.93.51-2.52-1.44-2.87a28.08,28.08,0,0,0-5.1.07l-21.28.29c-2.76,0-5.89-.06-7.74-2s-1.57-5.26-1.06-8a3.18,3.18,0,0,1,.56-1.5c1.07-1.29,3.22-.42,4.7.42.91,0,3.09,1.55,4,1.92a37.38,37.38,0,0,0,23.51,1.19c3.54-1,4.95-2.63,7.37-5.21a13.7,13.7,0,0,0,1.65-2c1.67-2.65,1.3-6,.81-9-.43-2.63-.64-5.74-1.76-8.18-1.36,1-2.35,2.81-3.77,4a19.45,19.45,0,0,1-16.16,3.94,11.41,11.41,0,0,1-6.79-3.94,5.9,5.9,0,0,1-.09-7.19c2.29-2.68,6.57-2.36,10.2-2.34s7-1,10.6-1.24c2.12-.17,5.27-.11,5.86-2.7a4.46,4.46,0,0,0,0-1.78c-1-5.76-3.52-11.13-5.63-16.58-.53-1.36-1.05-2.73-1.5-4.12-.33-1-1.54-6.52-2.3-5.83-6.44,20.33-23.44,35.22-40.64,48.81S936,662.29,922.42,679.18A104.83,104.83,0,0,0,914.28,690.9Zm46.26-34.36a15,15,0,0,1,.36-4.52,1.35,1.35,0,0,1,.51-.91,1.57,1.57,0,0,1,.8-.15l5,0a2.75,2.75,0,0,1,1.28.18,2.71,2.71,0,0,1,1,1.11c1.34,2.2,8.07,10.43,5.65,12.53s-10.3-3.45-12.44-4.83a5,5,0,0,1-1.7-1.54A4.28,4.28,0,0,1,960.54,656.54Zm-34.7,33.91a2.73,2.73,0,0,1-.31-1.8,3,3,0,0,1,1.12-1.37c1.11-.9,2.26-1.77,3.45-2.59a1.61,1.61,0,0,1,1-.41,1.51,1.51,0,0,1,.92.67c1.58,2,2.53,4.4,3.9,6.55a40.37,40.37,0,0,0,6.4,7.2c3.54,3.4,8.38,6.82,11.12,10.82s-3.09,5.71-6.31,3.94a14.73,14.73,0,0,1-2.55-2c-1.6-1.41-3.43-2.56-5.16-3.83A41.43,41.43,0,0,1,925.84,690.45Zm-7.05,7.95a3.33,3.33,0,0,1,.26-1.74,4.13,4.13,0,0,1,2.47-1.6,2.62,2.62,0,0,1,1.07-.21,2.21,2.21,0,0,1,1.44,1,15.25,15.25,0,0,1,2.31,5.51c.55,2,3.14,7.28,1.85,9.17-2,2.91-5.33-1.11-6.21-2.74A23.32,23.32,0,0,1,918.79,698.4Z"/><path class="cls-5" d="M1012.54,587.56c-6.44,20.33-23.44,35.22-40.64,48.81S936,662.29,922.42,679.18a104.83,104.83,0,0,0-8.14,11.72c-8.17,13.6-13.33,28.85-16.14,44.33-1,5.76-1.84,11.76-5.07,16.75s-8.42,8.95-10.34,14.54l14-40.65c4.32-12.57,8.7-25.25,15.41-36.81.56-1,1.13-1.93,1.72-2.88C938.38,647,989.34,627.48,1012.54,587.56Z"/><path class="cls-4" d="M361.43,402.33a10.38,10.38,0,0,0,3.81,1.3c11.76,2.26,25.62,2.27,36.09-5.34A29.65,29.65,0,0,0,410.66,387c-.29-1.08-.57-2.16-.82-3.26-10.36-45.07,11.88-94.89.05-139.53-2.52,4.48-8.46,10.34-10.47,12.41-3.39,3.47-6.07,7.73-10.4,9.86-1.18.58-2.53,1.27-2.86,2.53a3.67,3.67,0,0,0,.15,1.94c1.49,5.33,5.05,9.63,9,13.26,2,1.84,4.19,3.54,6.36,5.22.71.55,2.85,1.6,3.16,2.44s-1,2.31-1.56,3a11,11,0,0,1-4.8,3.9c-4.77,1.61-6.95-3.08-9.53-5.82a88,88,0,0,1-6-7.06c-1.17-1.54-2.41-4.06-4.55-4.46-4.16-.77-10,7-12.4,9.78-3,3.47-5.86,7.44-6.48,11.92a16.78,16.78,0,0,0,.21,5.48c2.52,13,16.95,20.11,27.93,24.89,2.68,1.17,5.47,2.25,7.61,4.21,4.08,3.74,4.9,10.57,1.86,15.52-.83,1.36-13.36-3.75-14.75-4.37a58.74,58.74,0,0,1-13.58-8.45,57.41,57.41,0,0,1-5.65-5.38c-1.41-1.55-3.07-5-5-5.75-3.56-1.43-7.22,10.54-8.35,13.18-1.21,2.83-2.43,5.74-2.54,8.76-.11,3.28,1.12,6.37,2.32,9.36a44.46,44.46,0,0,0,4.74,9.48c7.78,10.82,24.22,8,36.18,7.81,2.07,0,4.71.41,5,2.44.22,1.41-.91,2.72-2,3.69a28.22,28.22,0,0,1-20.71,6.37,35.2,35.2,0,0,1-15-5.05c-1.83-1.1-4.38-4.36-5.11-1.09a12.66,12.66,0,0,0,.91,7.15,34.69,34.69,0,0,0,5.09,8.13A11.19,11.19,0,0,0,361.43,402.33Zm34-71.82A39.53,39.53,0,0,1,383,319.77a5.47,5.47,0,0,1-1.12-2.08c-.46-2.09,1.27-4.07,2.86-5.62a1.74,1.74,0,0,1,1.22-.67,1.54,1.54,0,0,1,.75.33c5.09,3.49,12,7,15.91,11.83C406.28,328,399.92,332.94,395.47,330.51Zm-11.64,33.9q-11.16-1.43-22.16-3.7a10,10,0,0,1-4.54-1.77c-2.37-2-5.38-11.85.31-12.46,2.56-.27,5.63,3.6,7.34,5.08a48.82,48.82,0,0,0,8.28,6.24c4.21,2.31,9.12,3.4,13,6.19A2.59,2.59,0,0,1,383.83,364.41Z"/><path class="cls-4" d="M413.49,386.75c4.25,3.35,8.6,6.63,13.57,8.82,7.66,3.38,16.33,4,24.84,4.34,4.55.18,9.28.27,13.54-1.61,3.78-1.67,6.8-4.72,9.71-7.7,3.36-3.43,6.87-7.11,8-11.7a25.27,25.27,0,0,0,.58-5.61q.36-11.54.71-23.06A81.71,81.71,0,0,1,452.14,365c-6.78,1.41-14.06,1.86-20.13-1-2.42-1.15-4.8-3.27-4.55-6,14.16-6.43,32,.23,44.7-8.94,3.81-2.76,6.64-6.68,9.21-10.63a11.28,11.28,0,0,0,1.77-3.64,9.77,9.77,0,0,0-.33-4.49,45.34,45.34,0,0,0-3.93-10.2c-7.41,8.39-17.58,13.71-27.48,18.82-3.71,1.92-7.74,3.89-11.76,3.32s-7.46-5-5.47-8.7c.12-.22,5.79-.15,6.44-.23A42.34,42.34,0,0,0,447,332a46.43,46.43,0,0,0,22.3-14.08c2.42-2.76,6.32-7.24,6.68-10.94.3-3.07-1.88-5.63-3.93-7.8l-6.9-7.36c-1.32-1.41-1.42-2.14-3.05-1a28.61,28.61,0,0,0-3.55,3.66L443.7,309.7c-1.93,2-4.21,4.12-6.9,4.05-2.86-.07-4.83-2.6-6.41-4.91a3.1,3.1,0,0,1-.67-1.46c-.15-1.67,2-2.57,3.62-3,.62-.67,3.28-1.08,4.2-1.48a35.61,35.61,0,0,0,4.3-2.21,38,38,0,0,0,7.32-5.81A37.35,37.35,0,0,0,455,287.1c1.81-3.2,1.65-5.36,1.53-8.9a13.84,13.84,0,0,0-.25-2.58c-.69-3.05-3.3-5.15-5.81-6.95-2.16-1.56-4.51-3.6-7-4.54-.23,1.7.32,3.64.14,5.46a19.5,19.5,0,0,1-8.65,14.22,11.48,11.48,0,0,1-7.59,2,5.9,5.9,0,0,1-5.15-5c-.27-3.51,3-6.31,5.56-8.86s4.29-5.67,6.62-8.38c1.38-1.61,3.65-3.8,2.24-6.05a4.45,4.45,0,0,0-1.3-1.22c-4.78-3.36-10.36-5.38-15.7-7.74-1.34-.59-2.67-1.2-4-1.86-.92-.47-5.7-3.52-5.75-2.5,9.83,18.93,8.33,41.48,5.78,63.25s-7.07,43.73-4.72,65.27A105.06,105.06,0,0,0,413.49,386.75Zm8.41-57a15.19,15.19,0,0,1-2.94-3.45,1.33,1.33,0,0,1-.28-1,1.5,1.5,0,0,1,.46-.67l3.5-3.55a2.88,2.88,0,0,1,1-.77,2.62,2.62,0,0,1,1.49.07c2.5.61,13.09,1.67,12.86,4.86s-9.72,4.85-12.21,5.38a5.09,5.09,0,0,1-2.29.12A4.26,4.26,0,0,1,421.9,329.74Zm-.55,48.52a2.84,2.84,0,0,1-1.5-1.06,3,3,0,0,1-.17-1.75c.14-1.43.35-2.86.6-4.28a1.56,1.56,0,0,1,.46-1,1.5,1.5,0,0,1,1.12-.18c2.54.31,4.9,1.33,7.39,1.88a40.6,40.6,0,0,0,9.62.56c4.9-.1,10.74-1.1,15.51-.21s1.85,6.22-1.68,7.25a14.69,14.69,0,0,1-3.24.36c-2.13.13-4.24.61-6.35.94A41.43,41.43,0,0,1,421.35,378.26Zm.63,10.6a3.32,3.32,0,0,1-1.05-1.41,4.12,4.12,0,0,1,.62-2.88,2.44,2.44,0,0,1,.61-.9,2.24,2.24,0,0,1,1.72-.33,15.64,15.64,0,0,1,5.53,2.27c1.78,1,7.36,2.93,7.79,5.18.65,3.46-4.55,3-6.33,2.45A23.22,23.22,0,0,1,422,388.86Z"/><path class="cls-5" d="M409.89,244.19c9.83,18.93,8.33,41.48,5.78,63.25s-7.07,43.73-4.72,65.27a105.06,105.06,0,0,0,2.54,14c3.84,15.39,11,29.83,19.93,42.75,3.34,4.82,7,9.63,8.26,15.43s.38,12.29,3,17.6L425.79,423.9C420,412,414.09,399.9,410.66,387c-.29-1.08-.57-2.16-.82-3.26C399.48,338.65,421.72,288.83,409.89,244.19Z"/><path class="cls-4" d="M191,1091.59c-2.62-22.27-5.77-44.62-13.91-65.62-12.53-32.33-36.14-59.56-60.06-85.49-12.79-13.85-26.42-28-44.4-34.94-16-6.19-33.75-6.1-51-5.91-19.9.21-41,.73-57.81,10.78-6.76,4-12.49,9.4-18.15,14.73L-124,990.62a338.35,338.35,0,0,1,137.87,51.55c24,15.74,46.65,35.74,56,62,3.72,10.46,4.46,23.64-4.27,30.94-60.34-22.65-93.16-94.52-157.14-104.76-19.28-3.09-39,.1-58.13,4.14-5.53,1.17-11.18,2.47-15.87,5.48-5.36,3.44-9,8.79-12.17,14.13a186.79,186.79,0,0,0-18.38,41.39c46.29-2.86,91.65,11.35,135.63,25.37,16.5,5.26,34.1,11.28,44.19,24.73s7.16,36.58-9.45,41.53c-1,.29-17.41-16.51-19.56-18.21a176.58,176.58,0,0,0-22.37-15,190.64,190.64,0,0,0-50.68-19.59,191.26,191.26,0,0,0-55.9-4.53c-15.18,1-39.73,2.72-51.63,12.5-9.86,8.11-11,22-11.36,34.37q-.66,20.88-1.32,41.76c-.26,8-2.11,10.43,6,11.91,6.42,1.17,14.57-.21,21.13-.3l88.17-1.22c11.45-.16,24.4.27,32.06,8.34,8.17,8.6,6.54,21.8,4.41,33.2-.41,2.18-.86,4.46-2.31,6.2-4.45,5.34-13.33,1.76-19.49-1.72-3.78.17-12.8-6.43-16.63-8a145.39,145.39,0,0,0-19.1-6.11,154.86,154.86,0,0,0-38.45-4.42,154.22,154.22,0,0,0-39.83,5.59c-14.67,4.08-20.53,10.88-30.54,21.58a57.46,57.46,0,0,0-6.84,8.3c-6.93,11-5.4,24.75-3.35,37.37,1.76,10.89,2.66,23.77,7.28,33.88,5.66-4.3,9.74-11.62,15.6-16.42a79.63,79.63,0,0,1,21.07-12.28,79.09,79.09,0,0,1,45.91-4c10.94,2.45,21.68,7.58,28.12,16.32s7.46,21.52.38,29.8c-9.48,11.08-27.21,9.77-42.25,9.67s-29.16,4.05-43.95,5.17c-8.76.66-21.8.42-24.27,11.15a18.62,18.62,0,0,0,.23,7.39c4.17,23.87,14.58,46.12,23.34,68.69,2.19,5.65,4.32,11.32,6.2,17.07,1.34,4.09,6.39,27,9.53,24.18,26.66-84.25,97.11-145.94,168.37-202.23s148.82-107.42,205-177.39A434.49,434.49,0,0,0,191,1091.59ZM-.7,1234a62.73,62.73,0,0,1-1.48,18.72c-.34,1.44-.82,3-2.13,3.79a6.58,6.58,0,0,1-3.31.61l-20.67.14a11.88,11.88,0,0,1-5.29-.77c-1.93-.93-3.11-2.8-4.19-4.58-5.54-9.12-33.44-43.22-23.42-51.93,10.2-8.85,42.69,14.28,51.55,20,2.7,1.75,5.44,3.65,7,6.36A17.42,17.42,0,0,1-.7,1234Zm143.78-140.52c1,2.39,2,5,1.27,7.49-.67,2.34-2.68,4.08-4.62,5.65q-6.94,5.63-14.29,10.77c-1.29.9-2.76,1.84-4.36,1.65s-2.85-1.49-3.83-2.75c-6.54-8.34-10.45-18.25-16.13-27.15-7.11-11.16-16.88-20.55-26.55-29.83-14.66-14.06-34.69-28.25-46.06-44.83C17,997.64,41.3,990.79,54.67,998.1c4,2.19,7.17,5.49,10.55,8.47,6.63,5.84,14.22,10.59,21.37,15.85A171.72,171.72,0,0,1,143.08,1093.43Zm29.19-32.91a13.5,13.5,0,0,1-1,7.18c-1.9,3.6-6.26,5.28-10.25,6.65a10.78,10.78,0,0,1-4.42.86c-2.53-.22-4.5-2.14-6-4.09-5.11-6.66-7.39-14.85-9.57-22.82-2.25-8.24-13-30.17-7.63-38,8.24-12,22,4.61,25.7,11.38C165.66,1033.86,171.44,1046.83,172.27,1060.52Z"/><path class="cls-5" d="M-216.14,1519.77c26.66-84.25,97.11-145.94,168.37-202.23s148.82-107.42,205-177.39A434.49,434.49,0,0,0,191,1091.59c33.85-56.37,55.25-119.55,66.86-183.67,4.33-23.88,7.65-48.74,21-69.39s34.89-37.12,42.86-60.25q-29,84.21-57.91,168.43c-17.9,52.08-36,104.59-63.84,152.5-2.32,4-4.69,8-7.15,11.91C91.11,1273.54-120,1354.34-216.14,1519.77Z"/><g class="cls-6"><path class="cls-4" d="M540.8,1067.67c-4.23-3.58-9.62-5.59-15-7.34-47.17-15.46-104.15-22.73-151.17,3.06a122.7,122.7,0,0,0-44.24,41.6c.61,4.58,1.18,9.18,1.64,13.8,19,190.67-98.51,383.79-73.3,573.45,12.71-17.08,40.2-38.06,49.56-45.51,15.74-12.5,29-28.58,47.88-35.06,5.15-1.77,11.07-3.9,13.1-8.91,1-2.56.79-5.39.4-8.06-3.35-22.7-15.71-42.22-30.2-59.21-7.38-8.65-15.36-16.77-23.42-24.8-2.65-2.63-10.89-8.1-11.7-11.7-.87-3.87,5.32-9,8-11.59,6.19-6.07,13.33-11.85,21.75-13.54,20.47-4.1,27,16.32,36.15,28.92A364.54,364.54,0,0,1,391.21,1535c4,7,7.8,18,16.4,20.71,16.67,5.35,44.67-23.61,56.07-33.69,14.33-12.67,28-27.52,32.89-45.61a69.16,69.16,0,0,0,2-22.62c-3.55-54.69-59.12-91.55-101.74-117-10.39-6.19-21.3-12.11-29.07-21.28-14.81-17.48-14.6-46,.48-64.76,4.13-5.14,52.95,22.42,58.33,25.69a243.65,243.65,0,0,1,51.39,41.84,238.12,238.12,0,0,1,20.39,25.09c5,7.08,10,22,17.67,26.26,13.89,7.76,35.21-39.53,41.22-49.78,6.45-11,13-22.33,15-34.69,2.17-13.43-1.25-26.77-4.64-39.67-3.74-14.23-7.54-28.61-14.51-41.47-26.31-48.53-95.33-45.7-144.59-51-8.54-.93-19.16-4.15-19.39-12.66-.16-5.91,5.14-10.73,10.24-14.11,25.94-17.24,58.95-21.74,88.44-15.32,21.8,4.74,41.75,15.1,58.89,28.6,6.93,5.45,15.71,20.19,20.43,7.14,3.4-9.39,2.37-20.66,0-29.85-3.31-13-10-24.62-16.67-36.11C547.75,1076,545,1071.18,540.8,1067.67ZM363.28,1345a163.67,163.67,0,0,1,45.63,50.68c1.63,2.84,3.21,5.82,3.5,9.13.78,8.81-7.38,16.06-14.7,21.6-1.59,1.2-3.46,2.48-5.36,2.12a6.52,6.52,0,0,1-2.93-1.78c-19.06-17-45.55-35.19-59.2-56.94C317.53,1349.63,346.27,1332.69,363.28,1345Zm65.59-133.25Q474,1223.5,518,1238.62c6.48,2.22,13.19,4.67,17.76,9.64,8.66,9.45,15.89,51.52-7.83,51-10.64-.21-21.24-17.73-27.47-24.7-9.55-10.69-19.11-21.51-30.8-30-16.08-11.7-35.67-18.73-50.19-32.26C422.09,1210.29,425.76,1211,428.87,1211.79Z"/><path class="cls-4" d="M318.67,1104.45c-15.7-16-31.86-31.76-51.15-43.38-29.7-17.89-65-25-99.82-30.84-18.59-3.14-38-6-56.5-.47-16.41,4.88-30.42,15.84-43.95,26.54-15.61,12.35-31.94,25.65-39.13,43.91-2.88,7.32-4.11,15.07-5.33,22.76q-7.5,47.19-15,94.39a338.27,338.27,0,0,1,140.58-43.61c28.63-2.26,58.77-.29,82.2,14.74,9.35,6,18,16,15.57,27.08-61.58,19-131.53-17.74-188.39,13.33-17.14,9.36-30.82,24-43.44,38.85-3.65,4.31-7.33,8.8-9.2,14-2.13,6-1.72,12.45-1,18.62a187,187,0,0,0,10.79,44c34.87-30.59,79.43-47.12,122.79-62.94,16.27-5.94,33.87-12,50.09-7.49s28,24.54,17.94,38.62c-.6.84-23.87-2.4-26.62-2.43a175.59,175.59,0,0,0-26.86,1.85,192.61,192.61,0,0,0-99,46.15c-11.36,10.11-29.75,26.46-33.17,41.49-2.84,12.44,4.78,24.11,12,34.13q12.26,16.92,24.51,33.83c4.7,6.5,4.72,9.54,12,5.77,5.8-3,11.39-9.08,16.53-13.17l69-54.93c8.95-7.13,19.46-14.72,30.46-13,11.72,1.81,18.51,13.24,23.8,23.56,1,2,2.06,4.06,2,6.32-.25,6.95-9.47,9.55-16.47,10.57-2.88,2.45-14,2.74-18,3.88a145.4,145.4,0,0,0-18.84,6.86,155.9,155.9,0,0,0-61.2,48.83c-9.1,12.21-9.57,21.17-10.93,35.76a57.81,57.81,0,0,0-.34,10.75c1.22,12.9,10.88,22.88,20.22,31.61,8.06,7.53,16.66,17.16,26.49,22.33,1.85-6.86.6-15.14,2.3-22.53a80.77,80.77,0,0,1,43-53.88c10.15-4.76,21.79-7.28,32.23-4.31s19.07,12.45,18.54,23.33c-.72,14.57-15.54,24.38-27.5,33.52s-20.58,21-31.59,31c-6.52,5.89-17,13.68-12.37,23.68a18.66,18.66,0,0,0,4.7,5.7c17.91,16.33,39.77,27.55,60.5,40,5.19,3.13,10.35,6.32,15.36,9.71,3.56,2.41,21.58,17.46,22.32,13.29-30.47-83-12.51-174.85,9.39-263s51.95-176,53.58-265.77A436.35,436.35,0,0,0,318.67,1104.45Zm-64.45,229.89a62.66,62.66,0,0,1,10.29,15.72c.62,1.34,1.19,2.87.64,4.3a6.54,6.54,0,0,1-2.24,2.5q-8.15,6.38-16.27,12.77a12,12,0,0,1-4.65,2.63c-2.1.44-4.17-.32-6.11-1.06-10-3.83-52.91-13.72-50.31-26.74,2.65-13.24,42.49-14.83,53-15.71,3.2-.27,6.54-.45,9.45.73A17.49,17.49,0,0,1,254.22,1334.34Zm27.71-199.12c2.26,1.27,4.63,2.74,5.59,5.14s.38,4.87-.2,7.3q-2,8.7-4.71,17.26c-.46,1.5-1.05,3.15-2.43,4s-3.17.56-4.72.17c-10.28-2.6-19.43-8-29.36-11.6-12.46-4.47-25.93-5.93-39.26-7.34-20.2-2.16-44.73-1.11-63.87-7.27-19.38-6.23-4.35-26.53,10.7-28.92,4.5-.72,9,0,13.53.24,8.81.56,17.72-.33,26.59-.55A171.7,171.7,0,0,1,281.93,1135.22Zm2.94-43.89c1.61,1.84,3.15,3.88,3.58,6.31.7,4-1.72,8-4,11.54a10.86,10.86,0,0,1-3,3.38c-2.14,1.37-4.87,1.06-7.25.44-8.12-2.14-14.93-7.22-21.54-12.2-6.82-5.13-28.74-15.9-29.3-25.39-.85-14.57,20.26-9.85,27.3-6.74C263.33,1074.29,275.84,1081,284.87,1091.33Z"/><path class="cls-5" d="M258.77,1692.24c-30.47-83-12.51-174.85,9.39-263s51.95-176,53.58-265.77a436.35,436.35,0,0,0-3.07-59c-7.72-65.29-29.46-128.35-59.53-186.17-11.19-21.53-23.78-43.23-25.86-67.73s4.88-50.71-3-73.88Q258.93,861,287.59,945.32c17.71,52.14,35.51,104.77,42.84,159.67.61,4.58,1.18,9.18,1.64,13.8C351.06,1309.46,233.56,1502.58,258.77,1692.24Z"/></g><g class="cls-2"><path class="cls-7" d="M374.84-833.06c-49.4,33.25-87.34,80.89-121.43,129-34.22,48.28-62,100.89-85,155.35C122.1-439,95.32-322.53,70.55-206.39,56.67-141.3,53.84-75.25,48.06-9.13c-1.25,14.27-.56,28.5.38,42.76,1,15.71.79,31.23,1,46.93.37,27.74,14.06,50,30,71.81a399.25,399.25,0,0,0,33.53,40c10.56,20.1,29.13,34.66,48.14,46.69,21.74,13.76,45.24,26.19,69.37,35.18,52,19.38,108.83,23.2,163.85,19.92a424.86,424.86,0,0,0,183.1-54.11c53.89-30.48,97.5-74.47,144-114.64C771.36,82.25,827,47.87,884.7,16c55-30.36,112.87-57.94,162.77-96.55,42.06-32.55,80.19-75.15,94.1-127.61,12.85-48.47,3.92-102.25-6.14-150.42-13.76-65.89-41.25-127.4-73.82-186-25.71-46.23-56.13-89.75-91.59-129-69.64-77.15-157.16-136.84-255-172C605.87-884.87,476.21-901.28,374.84-833.06Zm83.59-17.78c57.4-15.79,119-11.61,176.47,1.39a613.73,613.73,0,0,1,266.29,134.7C982-644.53,1043.07-553.38,1084.8-455.19a562.84,562.84,0,0,1,42.65,171.75c4.29,49.37-5.89,93.79-36.42,133.52C1056.49-105,1008.32-74.1,959.58-46.58c-54.81,30.94-111.2,59.16-164.26,93.12C744,79.38,700,119.74,654.4,159.69c-45.87,40.15-95,73.93-153.07,94-56.11,19.36-115.9,25.54-175,21.28-52.34-3.77-99.52-19.56-144.86-45.64-10.78-6.2-22.34-13.32-32.31-21.95a8.85,8.85,0,0,0-2.86-8.83c-6-5.4-11.79-11.07-17.43-16.88-.48-1-1.07-2-1.49-3A8.78,8.78,0,0,0,120.8,173a376.78,376.78,0,0,1-28.12-34.8c-7.19-10.09-14.8-20.88-19.64-32.35C67.36,92.43,68.46,78,68.6,63.78s-1.11-28.09-1.86-42.15c-.9-16.77.8-32.84,2.45-49.49,3.06-31.06,3.75-62.29,6.66-93.34,5.59-59.57,21.21-118.37,34.5-176.57,12.61-55.15,27.16-109.94,45.31-163.54C191.78-568,242.52-669.46,316.82-754.85,355.17-798.91,401.37-835.14,458.43-850.84Z"/><path class="cls-7" d="M420.2-668.94A288.56,288.56,0,0,0,319-591.13c-30.68,37-51.68,80.91-68.51,125.67-17.75,47.17-31.11,95.81-46.88,143.65-16.41,49.75-32.12,99.39-46.3,149.84C130-74.84,89.63,22.22,111.76,124.8c3.73,17.28,11.11,30.43,19.8,44a9.4,9.4,0,0,0,1.12,6.79c17,28.85,52.49,38.05,83.67,40.91,34.61,3.17,70.44,1,104.89-3.2,96.95-11.73,189.32-52.65,274.41-98.82C677.69,70,758.11,19.11,823.84-47.83c62.3-63.46,116.88-146.44,119.92-237.82,2.86-86.26-38.21-168-89.48-234.87-49.69-64.82-112.5-123.61-188.88-155.11C586.35-708.24,497.73-704.84,420.2-668.94Zm183.24-5.8c76.25,15,142.25,61.92,194.84,117.48,55.49,58.62,104.92,131.31,121.25,211.54,8,39.18,7.16,79.75-3.9,118.26-12.36,43-36.83,83.28-63.85,118.59C797.66-38.17,725.4,15.73,649.83,61.58,571.28,109.25,488,152,399.45,177.66c-39.8,11.51-79.95,17.64-121.23,20.14-31.9,1.93-66.74,3.43-97.25-7.72a67.94,67.94,0,0,1-22.69-13.44,10,10,0,0,0-1.51-3.85c-5.68-8.82-12.46-17-17.63-26.15-6.56-11.59-9.13-25.09-11.22-38.1A314,314,0,0,1,125,35.16c3.53-46,17-89.85,30.63-133.66,15.09-48.57,27.62-97.89,42.47-146.53,14-45.89,30-91.18,44.29-137C269-467.35,299.44-558.34,371.43-616.56,434.77-667.78,523.41-690.43,603.44-674.74Z"/><path class="cls-7" d="M325.13-467.88a10.09,10.09,0,0,0-3.43,3.42c-.9,1.5-1.88,3-2.82,4.44-1.5,2-3,3.93-4.48,6a10.16,10.16,0,0,0-1.4,3c-13.46,19.74-28.56,38.63-36.88,61.2-12.07,32.71-11.47,70.46-14.73,104.84-6.67,70.57-26.81,143.68-8.48,214.07C267.82-13.75,309.08,28.47,363,50.9,419.3,74.28,481.62,66.4,534.73,38.38c30.9-16.3,55.44-40.11,81.68-62.72,27.45-23.65,57.4-44.08,84.36-68.39,47.26-42.6,86.05-92,107.79-152.34,19.8-55,27.62-120.3,3.17-175.17-24.21-54.34-74.58-94.39-130.14-113.52C619.18-555.25,546.45-560.6,481.4-550.3,421.18-540.76,364.3-514.71,325.13-467.88Zm309.21-58.61c55.71,11.12,108.74,36.93,142.74,84,33.75,46.7,36.3,105.19,23.14,159.71-13.39,55.43-43,106.42-82.37,147.37-23.15,24-48.59,45.69-75,66.1S592.32-27,566.75-6C522.76,30.19,465,53.22,407.43,44.14,354,35.7,302.48.29,280.4-49.72c-30.72-69.56-9-146.34-1.63-218.31,1.84-18.1,3.34-36.22,5.08-54.33s2.48-37.38,7.93-54.93c8.17-26.32,26.66-47.85,41.74-70.65C402.37-538.63,530.28-547.26,634.34-526.49Z"/></g><path class="cls-4" d="M949.34,200.57c-16.44,49.29-14.14,101.55-11.48,153.78s5.68,104.42-9,153.6c-.71,2.38-1.48,4.74-2.27,7.1l-.15.46.18.44a61.69,61.69,0,0,0,6.93,12.74,61,61,0,0,0,12.39,13c11.23,8.72,24.62,13.16,38.48,14.85s28.2.62,41.45-1.71a25.61,25.61,0,0,0,9-2.92q.48-.28.93-.6a31.73,31.73,0,0,0,5.79-5.79l-1-.85-1-.84a29.15,29.15,0,0,1-5.3,5.34c-.25.18-.51.35-.77.51a23.55,23.55,0,0,1-8.15,2.58c-13.06,2.29-27.16,3.32-40.68,1.68s-26.42-6-37.18-14.32a58.16,58.16,0,0,1-11.86-12.45,58.93,58.93,0,0,1-6.64-12.2l-1.22.49,1.24.41c.8-2.38,1.57-4.77,2.29-7.18,14.85-49.78,11.76-102.28,9.11-154.49s-4.9-104.14,11.35-152.81l-1.24-.42-1.17.58a61.84,61.84,0,0,0,5,8.11c2.89,4.09,6.24,8.18,9.27,11.69s5.72,6.43,7.25,8.15c3.42,3.8,6.47,8.09,9.87,12.09s7.14,7.7,12,10.22a27.82,27.82,0,0,1,2.69,1.55,7.47,7.47,0,0,1,2,1.79,3.67,3.67,0,0,1,.62,1.42,4.49,4.49,0,0,1,0,1.67,13,13,0,0,1-.54,1.92c-4,11.37-12.26,20.56-21.51,28.35-4.71,4-9.7,7.62-14.74,11.24l.76,1.06-.73-1.08-.06.05c-.45.32-1.32.82-2.28,1.37s-2,1.19-3,1.86a11.9,11.9,0,0,0-1.42,1.16,4.49,4.49,0,0,0-1,1.41,3.53,3.53,0,0,0-.25,1.76,6.78,6.78,0,0,0,.76,2.34,18.16,18.16,0,0,0,1.25,2c.53.75,1,1.41,1.37,1.86a35.6,35.6,0,0,0,4.57,5.37,17.46,17.46,0,0,0,6.07,3.85,12.92,12.92,0,0,0,6.82.66,14.25,14.25,0,0,0,5.62-2.48,35.69,35.69,0,0,0,5.76-5.44c1.76-2,3.42-4,5.06-5.56a210,210,0,0,0,14.36-15.47c1.09-1.3,2.16-2.82,3.31-4.25a19.15,19.15,0,0,1,3.67-3.69,7.35,7.35,0,0,1,3-1.29,7,7,0,0,1,3,.21,17.75,17.75,0,0,1,6,3.38,64.12,64.12,0,0,1,9,9.26c2.72,3.33,5.06,6.54,6.71,8.6,1.26,1.57,2.49,3.18,3.65,4.83,4.54,6.41,8.07,13.4,8.61,20.91a35.67,35.67,0,0,1-1.24,11.63,49.24,49.24,0,0,1-9.56,18.49A78.45,78.45,0,0,1,1025,377.13c-12.16,8.59-26.58,14.95-39.07,20.05-5.25,2.15-10.8,4.19-15.62,7.59-.73.52-1.45,1.07-2.15,1.66a29.71,29.71,0,0,0-6.7,35.75v0a2,2,0,0,0,.12.21,2.3,2.3,0,0,0,.69.61,3.47,3.47,0,0,0,1.44.38,13.68,13.68,0,0,0,3.23-.24,71.11,71.11,0,0,0,7.89-2c4.42-1.31,9.31-3,13.34-4.47,2-.73,3.81-1.4,5.22-1.94s2.43-.94,2.93-1.15A140.57,140.57,0,0,0,1023,418.77q2.43-1.72,4.79-3.54a139,139,0,0,0,13.39-11.8,72,72,0,0,0,4.85-6,27.45,27.45,0,0,1,5.12-5.41,7.54,7.54,0,0,1,1.52-.84,2.36,2.36,0,0,1,1.09-.14,3.57,3.57,0,0,1,1.77.84,11.39,11.39,0,0,1,2,2.27,35.21,35.21,0,0,1,3.3,6.15,115.18,115.18,0,0,1,4,11.15c.56,1.77,1,3.42,1.48,4.83s.79,2.57,1.09,3.4c2.25,6.27,4.45,12.58,4.23,18.9a33.54,33.54,0,0,1-2.1,10.13,106.49,106.49,0,0,1-4.27,9.89c-3.42,7.21-6.86,14.4-11.71,20.49a39.16,39.16,0,0,1-8.09,7.66,47.3,47.3,0,0,1-16.06,7.09c-8.74,2.18-18.39,2.54-28,2.28s-19.17-1.16-27.79-1.44a24.87,24.87,0,0,0-5.18.34,12.08,12.08,0,0,0-4.85,1.86,7.2,7.2,0,0,0-1.73,1.71,6.46,6.46,0,0,0-1,2.33,6.84,6.84,0,0,0,.15,3.49,10.79,10.79,0,0,0,1.52,3,19.67,19.67,0,0,0,2.63,2.94,55.84,55.84,0,0,0,21.27,12.19A65.72,65.72,0,0,0,1011,525.4a82.91,82.91,0,0,0,34.34-10.82,19.93,19.93,0,0,0,1.68-1.09c1.13-.79,2.27-1.7,3.35-2.46.56-.39,1.1-.75,1.59-1a6.89,6.89,0,0,1,1-.48,1.92,1.92,0,0,1,.91-.15.36.36,0,0,1,.18.07.73.73,0,0,1,.21.22,4.08,4.08,0,0,1,.57,1.75,20.57,20.57,0,0,1-.39,7.57,36.62,36.62,0,0,1-2.56,7.39c-3,6.36-7.59,11.92-12.26,17.47l1,.84,1,.85c4.66-5.56,9.47-11.28,12.63-18.06a38.58,38.58,0,0,0,2.74-7.93,23.44,23.44,0,0,0,.43-8.54,6.81,6.81,0,0,0-1-2.85,3.5,3.5,0,0,0-.8-.83,3.21,3.21,0,0,0-1.81-.58,5.67,5.67,0,0,0-2.55.68,18.66,18.66,0,0,0-2.39,1.48c-1.16.81-2.3,1.72-3.35,2.46-.52.37-1,.69-1.46.94a80.43,80.43,0,0,1-33.25,10.5,63.14,63.14,0,0,1-23.5-2.71A53.17,53.17,0,0,1,967,508.48a16.38,16.38,0,0,1-2.27-2.53,7.88,7.88,0,0,1-1.15-2.25,4.23,4.23,0,0,1-.11-2.17,4,4,0,0,1,.61-1.4,4.49,4.49,0,0,1,1.1-1.07,9.63,9.63,0,0,1,3.81-1.43,22.47,22.47,0,0,1,4.62-.29c11.35.36,24.59,1.83,37.54,1.44a89.69,89.69,0,0,0,19-2.36,49.88,49.88,0,0,0,16.94-7.49,42,42,0,0,0,8.63-8.17c5.1-6.41,8.6-13.79,12-21a109.25,109.25,0,0,0,4.38-10.13,36.69,36.69,0,0,0,2.25-10.92c.22-7-2.15-13.6-4.39-19.87-.35-1-.87-2.69-1.49-4.76-1-3.12-2.18-7.1-3.63-11a48.86,48.86,0,0,0-5.11-10.42,11.7,11.7,0,0,0-3.49-3.46,5.62,5.62,0,0,0-2.15-.74,4.87,4.87,0,0,0-2.31.3,9.24,9.24,0,0,0-2.11,1.15,29.47,29.47,0,0,0-5.67,5.93,73.56,73.56,0,0,1-4.64,5.72,135.16,135.16,0,0,1-13.14,11.58q-2.31,1.79-4.7,3.47a138.48,138.48,0,0,1-26.22,14.55c-.75.31-3.09,1.23-6.18,2.37-4.63,1.71-11,3.94-16.3,5.46a56.13,56.13,0,0,1-6.84,1.61,10.5,10.5,0,0,1-2,.14,1.49,1.49,0,0,1-.4-.07h0l0,.09,0-.09h0l0,.09,0-.09-.27.48.44-.31a.84.84,0,0,0-.17-.17l-.27.48.44-.31-.62.43.67-.35,0-.08-.62.43.67-.35h0a27.08,27.08,0,0,1,6.1-32.51c.63-.53,1.29-1,2-1.52,4.44-3.14,9.8-5.13,15.1-7.3,12.54-5.12,27.14-11.53,39.59-20.33a81.24,81.24,0,0,0,16.44-15A51.68,51.68,0,0,0,1053,344.75a38.21,38.21,0,0,0,1.32-12.48c-.6-8.22-4.41-15.63-9.08-22.23-1.2-1.71-2.47-3.36-3.75-5s-2.87-3.75-4.82-6.23a80.93,80.93,0,0,0-10.29-11.24,25.8,25.8,0,0,0-5.88-3.91,10.7,10.7,0,0,0-6.17-1,9.81,9.81,0,0,0-4,1.74,21.6,21.6,0,0,0-4.2,4.18c-1.21,1.51-2.29,3-3.28,4.21q-6.69,8-14.18,15.28c-1.78,1.73-3.46,3.76-5.18,5.68a32.51,32.51,0,0,1-5.32,5.05,11.58,11.58,0,0,1-4.59,2.05,10.37,10.37,0,0,1-5.46-.55,14.85,14.85,0,0,1-5.16-3.3,33.49,33.49,0,0,1-4.23-5c-.38-.53-.88-1.16-1.36-1.85A11.28,11.28,0,0,1,956,308a3.16,3.16,0,0,1-.24-.86.93.93,0,0,1,.05-.46,2.11,2.11,0,0,1,.47-.58,9.92,9.92,0,0,1,1.11-.9c.82-.58,1.84-1.18,2.79-1.74s1.83-1,2.48-1.5h0c5-3.63,10.1-7.33,14.9-11.37,9.42-7.94,18.08-17.45,22.29-29.49a14.92,14.92,0,0,0,.65-2.31,7.08,7.08,0,0,0,0-2.64,6.21,6.21,0,0,0-1.06-2.43,9.87,9.87,0,0,0-2.63-2.45,29,29,0,0,0-2.94-1.69c-4.4-2.3-7.91-5.73-11.21-9.61s-6.36-8.19-9.91-12.14c-1.56-1.74-4.23-4.64-7.22-8.11s-6.3-7.51-9.11-11.49a60,60,0,0,1-4.77-7.76M954.92,376l1,.88A66.22,66.22,0,0,1,967,367.39c8.18-5.78,17.69-10.79,25.54-15.82a5.28,5.28,0,0,1,.67-.39,1,1,0,0,1,.4-.12.5.5,0,0,1,.26,0,2,2,0,0,1,.59.36,6.66,6.66,0,0,1,.73.7,35.83,35.83,0,0,1,3.14,3.73,13.37,13.37,0,0,1,2,3.78,6.4,6.4,0,0,1,.09,3.7,11.68,11.68,0,0,1-2.52,4.07,92.68,92.68,0,0,1-28.7,22.95,11.11,11.11,0,0,1-8,.78,11.23,11.23,0,0,1-6.21-4.19,7.44,7.44,0,0,1-1.44-4.71,8.72,8.72,0,0,1,2.48-5.37l-1-.88-1-.87a11.29,11.29,0,0,0-3.15,7,10,10,0,0,0,1.92,6.36,13.82,13.82,0,0,0,7.65,5.21,13.68,13.68,0,0,0,9.92-1,94.81,94.81,0,0,0,11.42-6.92,95.77,95.77,0,0,0,18.1-16.67,14.24,14.24,0,0,0,3-5,9.08,9.08,0,0,0-.1-5.17,15.89,15.89,0,0,0-2.33-4.54,37.3,37.3,0,0,0-3.37-4,8.68,8.68,0,0,0-1.39-1.24,4.51,4.51,0,0,0-1-.5,3.49,3.49,0,0,0-1.23-.18,3.78,3.78,0,0,0-1.39.37,7.58,7.58,0,0,0-1,.56c-7.71,4.94-17.27,10-25.64,15.89A68.06,68.06,0,0,0,954,375.15Zm30.59,89.58.73,1.09a69.93,69.93,0,0,1,14.3-6.89,149.87,149.87,0,0,0,15.18-6.27,73.63,73.63,0,0,0,8.8-5.42c3.68-2.6,7.17-5.43,10.64-8.22,1.25-1,2.72-2.43,4.35-3.91a55.53,55.53,0,0,1,5.14-4.26,18.2,18.2,0,0,1,3.5-2,6.09,6.09,0,0,1,3-.51,6.63,6.63,0,0,1,2.52.78,4.86,4.86,0,0,1,1.6,1.45,6.66,6.66,0,0,1,1,2.29,14.7,14.7,0,0,1,.11,5.5,32.08,32.08,0,0,1-2.88,9.15,26.93,26.93,0,0,1-2.12,3.68,10.82,10.82,0,0,1-2,2.27c-.14.12-.29.22-.44.33a15.13,15.13,0,0,1-4.31,2,45.23,45.23,0,0,1-5,1.15q-24.52,4.67-49.36,7.46a10.2,10.2,0,0,1-2.32.06,3.06,3.06,0,0,1-.86-.23,1.62,1.62,0,0,1-.58-.4l-1,.88.73,1.09-.73-1.09-1,.89a4.27,4.27,0,0,0,1.45,1,6.09,6.09,0,0,0,2.36.49,15.14,15.14,0,0,0,2.18-.11q24.9-2.81,49.55-7.49a49.17,49.17,0,0,0,5.26-1.22,17.69,17.69,0,0,0,5.05-2.39,5.39,5.39,0,0,0,.54-.4,11.9,11.9,0,0,0,2-2,28,28,0,0,0,3.13-5.28,34.39,34.39,0,0,0,3-10,18.75,18.75,0,0,0,0-4.91,9.9,9.9,0,0,0-1.62-4.27,7.46,7.46,0,0,0-2.44-2.22,9.46,9.46,0,0,0-3.51-1.1,8.68,8.68,0,0,0-4.24.68,20.23,20.23,0,0,0-4,2.29,56.58,56.58,0,0,0-5.39,4.47c-1.65,1.5-3.13,2.91-4.23,3.8-3.47,2.79-6.92,5.59-10.51,8.12a71.45,71.45,0,0,1-8.49,5.23,146.51,146.51,0,0,1-14.91,6.16,72.3,72.3,0,0,0-14.83,7.15l-1.27.85,1,1.13Z"/><path class="cls-4" d="M929.28,484l1.29.23c8.4-47.63,1.65-96.24-.76-144.2-1.22-24-1.81-48.35.94-71.84s8.83-46.07,21-66.56l.17-.3V201a1.72,1.72,0,0,0-.31-1,1.77,1.77,0,0,0-.51-.48,2,2,0,0,0-1-.27,4.71,4.71,0,0,0-1.53.24,22.11,22.11,0,0,0-3.07,1.22c-1.69.79-3.53,1.77-5.11,2.62l-2.11,1.15-1.31.69c-3,1.4-6,2.68-9,3.94-12.09,5-24.77,9.3-36,16.68-.29.18-.59.38-.89.59a10.17,10.17,0,0,0-2.52,2.4,8,8,0,0,0-1.32,3,8.11,8.11,0,0,0,.45,4.41,16.93,16.93,0,0,0,2.08,3.78c1,1.38,2,2.63,2.89,3.7.62.8,1.23,1.62,1.82,2.46,2.43,3.43,4.59,7.11,7.1,10.67a52.71,52.71,0,0,0,4.52,5.62,85.37,85.37,0,0,1,7.51,8.56,19,19,0,0,1,2.61,4.91,10.94,10.94,0,0,1,.51,5.15,9.86,9.86,0,0,1-1.61,4.09,12.63,12.63,0,0,1-3.2,3.24,14.2,14.2,0,0,1-6.18,2.46,18.75,18.75,0,0,1-8-.77,29.19,29.19,0,0,1-7.52-3.69,35.93,35.93,0,0,1-9.17-9.07,39.78,39.78,0,0,1-7.25-21.46,31.65,31.65,0,0,1,.59-5.87,27.53,27.53,0,0,0,.52-6.21l-.12-1.71-1.62.56a41.39,41.39,0,0,0-8.63,4.52c-2.75,1.8-5.38,3.76-7.84,5.41-.77.52-1.55,1.06-2.33,1.61a45.12,45.12,0,0,0-7.22,6.1,20.51,20.51,0,0,0-4.81,8.14,32.49,32.49,0,0,0-1,5.92,66.52,66.52,0,0,0-.59,10.28,25,25,0,0,0,2.78,10.07,77.6,77.6,0,0,0,6.12,10.26,80.13,80.13,0,0,0,5.84,7.3A77.89,77.89,0,0,0,871,325.47a73.31,73.31,0,0,0,9.33,5.1,17.27,17.27,0,0,0,2.25.76c1.28.37,2.77.76,4,1.18a13.25,13.25,0,0,1,1.6.64,2.27,2.27,0,0,1,.71.46l.26.3.37.11a21.54,21.54,0,0,1,3.62,1.41,7.07,7.07,0,0,1,2.53,2,2.63,2.63,0,0,1,.44.91,2.45,2.45,0,0,1,0,1,3.43,3.43,0,0,1-.48,1.22,13.69,13.69,0,0,1-1,1.37,36.53,36.53,0,0,1-7.4,7.8,11.41,11.41,0,0,1-6.47,2.31,10.22,10.22,0,0,1-3.75-.69,18,18,0,0,1-5.2-3.27,51.11,51.11,0,0,1-4.68-4.74q-15.25-17-30.5-34.06c-1.08-1.2-2.22-2.73-3.45-4.23a23.59,23.59,0,0,0-4.06-4.11,11.71,11.71,0,0,0-1.45-.94,6.34,6.34,0,0,0-1-.43,3.34,3.34,0,0,0-1.6-.08,3.59,3.59,0,0,0-1.36.61,10.27,10.27,0,0,0-1.47,1.35c-.49.52-1,1.1-1.68,1.74q-8.14,8-16.32,16a51.61,51.61,0,0,0-7,8,20.92,20.92,0,0,0-2.4,4.74,14.92,14.92,0,0,0-.84,5.32,23,23,0,0,0,2.5,9,59.5,59.5,0,0,0,5.18,8.62c2,2.82,4,5.39,5.73,7.51a95.84,95.84,0,0,0,21.77,19.9,97.08,97.08,0,0,0,26,12.22,91.19,91.19,0,0,0,14.08,3l.48,0c.69,0,1.84.08,3.24.11,2.08.06,4.67.11,6.76.2,1,0,1.95.09,2.6.14a7,7,0,0,1,.7.09h.08l.14-.55-.23.52.09,0,.14-.55-.23.52.44-1-.61.88a.88.88,0,0,0,.17.1l.44-1-.61.88.69-1-1,.71a1.34,1.34,0,0,0,.31.3l.69-1-1,.71,1-.72-1.07.65,0,.07,1-.72-1.07.65,1-.61-1,.59v0l1-.61-1,.59h0l1.13-.66-1.19.56a8.59,8.59,0,0,1,.85,3.82,11.2,11.2,0,0,1-1.75,5.73,16.3,16.3,0,0,1-4.54,4.8,15.62,15.62,0,0,1-6.9,2.79,27.15,27.15,0,0,1-12.53-1.72,87.72,87.72,0,0,1-12.16-5.81c-10.54-5.78-21.19-11.66-31.06-18.41s-19-14.34-26.42-23.56L787,363.63l-1,1.59a106.6,106.6,0,0,0-10.3,22.62,39.23,39.23,0,0,0-1.32,5.07,16.89,16.89,0,0,0-.13,5.41c.5,3.22,2.07,6,3.54,8.54,2.11,3.65,4.34,7.3,6.8,10.79a61,61,0,0,0,12.3,13.28c6.84,5.3,14.56,8.34,22.69,10.17,12.2,2.74,25.37,2.78,38.28,3.52s25.52,2.17,36.61,7.52L895,451l-1.31,0a8.94,8.94,0,0,1-1.59,5.18,16.43,16.43,0,0,1-4.29,4.27,25.53,25.53,0,0,1-4.28,2.42,53.09,53.09,0,0,1-21.41,4.25,98.94,98.94,0,0,1-22.35-2.71,168.68,168.68,0,0,1-68.66-33.18l-2-1.65-.1,2.62q-.91,25.4-1.84,50.8a57.5,57.5,0,0,0,.48,12.67,39.41,39.41,0,0,0,7,15.46A123.24,123.24,0,0,0,784,522.34a135.89,135.89,0,0,0,9.45,9.78,41.22,41.22,0,0,0,26.17,11.58,125,125,0,0,0,15.34.29c18.85-.5,38.26-1.58,55.94-8.89,9-3.72,17.18-8.92,25-14.49,2.18-1.54,4.34-3.11,6.48-4.69l.35-.25.12-.4a239.89,239.89,0,0,0,7.71-31l-1.29-.23-1.28-.23a236.7,236.7,0,0,1-7.63,30.68l1.25.4-.78-1c-2.13,1.57-4.28,3.13-6.44,4.65-7.8,5.52-15.83,10.61-24.54,14.21-17.12,7.1-36.21,8.21-55,8.69a119.19,119.19,0,0,1-15-.28,42.64,42.64,0,0,1-14-3.56,43.19,43.19,0,0,1-10.62-7.34,131.87,131.87,0,0,1-9.27-9.61,120.58,120.58,0,0,1-9.09-11,36.84,36.84,0,0,1-6.59-14.43,55.69,55.69,0,0,1-.44-12.09q.93-25.41,1.85-50.81l-1.31-.05-.82,1A171.33,171.33,0,0,0,839.22,467a102.68,102.68,0,0,0,22.94,2.77,55.71,55.71,0,0,0,22.47-4.48,28.06,28.06,0,0,0,4.72-2.67,18.94,18.94,0,0,0,5-5,11.65,11.65,0,0,0,2-6.68l0-.81-.72-.34c-7.76-3.74-16.12-5.62-24.67-6.68-12.82-1.59-26.12-1.35-38.61-2.65a90,90,0,0,1-18-3.47,50.27,50.27,0,0,1-15.86-8.13,58.44,58.44,0,0,1-11.76-12.72c-2.4-3.39-4.58-7-6.68-10.59-1.47-2.53-2.83-5-3.21-7.63a14,14,0,0,1,.12-4.56,36.49,36.49,0,0,1,1.23-4.72,103.58,103.58,0,0,1,10.05-22.06l-1.12-.68-1,.82c7.67,9.49,17,17.25,27,24.08s20.74,12.76,31.29,18.54a88,88,0,0,0,12.53,6,29.55,29.55,0,0,0,13.74,1.85,18.85,18.85,0,0,0,14.47-11.06,13,13,0,0,0,1-4.83,11.3,11.3,0,0,0-1.09-5l0-.05,0,0,0,0-.05-.08a1.33,1.33,0,0,0-.37-.36,1.66,1.66,0,0,0-.43-.2,4,4,0,0,0-.56-.12c-.36-.05-.8-.09-1.32-.13-1.81-.12-4.66-.2-7.2-.26L871.6,395l-1.19,0-.61,0a90.33,90.33,0,0,1-13.68-2.94,94.22,94.22,0,0,1-25.34-11.89,93,93,0,0,1-21.17-19.35c-1.68-2.11-3.7-4.65-5.64-7.39a57.1,57.1,0,0,1-5-8.23,20.61,20.61,0,0,1-2.24-7.92,12.1,12.1,0,0,1,.7-4.39,21,21,0,0,1,3.55-6.13,61.78,61.78,0,0,1,5.17-5.58q8.16-8,16.32-16c.72-.7,1.28-1.32,1.75-1.81a7.8,7.8,0,0,1,1.08-1,1,1,0,0,1,.34-.18.31.31,0,0,1,.17,0,1.51,1.51,0,0,1,.63.21,8.81,8.81,0,0,1,1.23.78,21.94,21.94,0,0,1,3.59,3.66c1.17,1.45,2.32,3,3.52,4.33l30.5,34.06a43.73,43.73,0,0,0,6.78,6.44,17.78,17.78,0,0,0,4.12,2.26,12.76,12.76,0,0,0,4.72.86,13.91,13.91,0,0,0,7.94-2.79,38.87,38.87,0,0,0,8-8.35,15.08,15.08,0,0,0,1.14-1.64,6.08,6.08,0,0,0,.79-2.13,4.94,4.94,0,0,0-.09-2.07,5.24,5.24,0,0,0-.83-1.77,9.68,9.68,0,0,0-3.46-2.81,24.22,24.22,0,0,0-4.08-1.6l-.37,1.26,1-.84a4,4,0,0,0-1-.82,11.82,11.82,0,0,0-2.15-1c-1.18-.42-2.5-.77-3.67-1.1-.59-.17-1.14-.32-1.61-.47a8.62,8.62,0,0,1-1.08-.39,71.43,71.43,0,0,1-9-4.92,75,75,0,0,1-15-12.8,76.48,76.48,0,0,1-5.65-7.05,75.12,75.12,0,0,1-5.91-9.91,22.21,22.21,0,0,1-2.5-9.06,64.81,64.81,0,0,1,.57-9.87,29.71,29.71,0,0,1,.89-5.44A18,18,0,0,1,849,262a43,43,0,0,1,6.81-5.75c.75-.53,1.52-1.05,2.28-1.57,2.54-1.7,5.15-3.65,7.82-5.39a38.18,38.18,0,0,1,8.06-4.24l-.43-1.23-1.31.09a25.49,25.49,0,0,1-.49,5.62,33.06,33.06,0,0,0-.62,6.36,42.61,42.61,0,0,0,7.72,22.89,38.61,38.61,0,0,0,9.85,9.73,31.48,31.48,0,0,0,8.21,4,21.37,21.37,0,0,0,9.14.86,16.77,16.77,0,0,0,7.34-2.91,15.22,15.22,0,0,0,3.87-3.93,12.67,12.67,0,0,0,2-5.17,13.64,13.64,0,0,0-.62-6.35,21.42,21.42,0,0,0-2.95-5.59,87.76,87.76,0,0,0-7.74-8.83,52.07,52.07,0,0,1-4.29-5.35c-2.43-3.44-4.59-7.12-7.11-10.67-.61-.87-1.24-1.72-1.89-2.56-.9-1.14-1.92-2.35-2.81-3.6a11.75,11.75,0,0,1-2.07-4.21,5.08,5.08,0,0,1,0-2,5.31,5.31,0,0,1,.9-2,7.45,7.45,0,0,1,1.88-1.76l.81-.55c10.87-7.14,23.39-11.4,35.59-16.45,3-1.26,6.1-2.56,9.11-4,.3-.14.68-.34,1.16-.6,1.65-.89,4.4-2.43,6.81-3.59a24.62,24.62,0,0,1,3.1-1.3,3.62,3.62,0,0,1,.8-.18h0v-.22l0,.22h0v-.22l0,.22.13-.68-.34.6a1,1,0,0,0,.21.08l.13-.68-.34.6.46-.81-.76.54a1,1,0,0,0,.3.27l.46-.81-.76.54.7-.5h-.87a1,1,0,0,0,.17.51l.7-.5h-.87l1.31,0-1.12-.66c-12.36,20.89-18.53,43.86-21.31,67.59s-2.17,48.24-1,72.28c2.44,48.1,9.13,96.52.81,143.6Zm-21.57-92.88-.31-1.27a6.13,6.13,0,0,1-2.07.11,19.54,19.54,0,0,1-2.35-.43c-1.22-.28-3.14-.68-5.41-1.2a92,92,0,0,1-11.25-3.26,31.36,31.36,0,0,1-4.88-2.28,9.52,9.52,0,0,1-3-2.52,2.92,2.92,0,0,1-.62-1.7,2.06,2.06,0,0,1,.39-1.16,5.36,5.36,0,0,1,1.34-1.29,21.28,21.28,0,0,1,5.73-2.53A92.76,92.76,0,0,1,896.94,371c1.91-.32,3.7-.59,5.24-.83s2.81-.45,3.73-.66a10.53,10.53,0,0,1,1.48-.26,2.6,2.6,0,0,1,1.09.11,2.52,2.52,0,0,1,.77.49,10.64,10.64,0,0,1,.88.89l7.21,7.94c.18.2.34.37.44.51a1.09,1.09,0,0,1,.16.33.71.71,0,0,1-.08.42,4.69,4.69,0,0,1-.48.81,34.58,34.58,0,0,1-6.75,7.23c-.31.25-.62.49-.93.71a6.67,6.67,0,0,1-2.3,1.14l.31,1.27.31,1.28a9.58,9.58,0,0,0,3.19-1.55c.37-.26.72-.54,1.06-.81a37.44,37.44,0,0,0,7.26-7.77,7.19,7.19,0,0,0,.75-1.31,3.32,3.32,0,0,0,.23-1.89,3.39,3.39,0,0,0-.6-1.37,9.42,9.42,0,0,0-.63-.76L912.07,369a12.89,12.89,0,0,0-1.11-1.11,5,5,0,0,0-1.58-1,5.16,5.16,0,0,0-2.19-.27,13.28,13.28,0,0,0-1.86.32c-1.05.24-2.92.53-5.17.88-3.39.53-7.68,1.21-11.72,2.17a53,53,0,0,0-5.76,1.67A19.68,19.68,0,0,0,878,374a7.7,7.7,0,0,0-2,2,4.62,4.62,0,0,0-.82,2.62,5.53,5.53,0,0,0,1.09,3.2,10.06,10.06,0,0,0,2.32,2.28,26.42,26.42,0,0,0,5.83,3.08,78.18,78.18,0,0,0,10.27,3.19c3.27.82,6.14,1.4,7.67,1.75a21.3,21.3,0,0,0,2.68.48,9,9,0,0,0,2.95-.16ZM857.13,500.72l.21-1.29c-4.56-.76-9.17-1.91-14-2.28a31.61,31.61,0,0,1-6.83-.83,12,12,0,0,1-5.93-4.5,8.58,8.58,0,0,1-1.72-4.51,4,4,0,0,1,.35-1.82,3.75,3.75,0,0,1,1.27-1.46,7.8,7.8,0,0,1,3.22-1.2,71.44,71.44,0,0,1,16.75-.33c5.83.41,11.72,1.1,17.2,1.29,7.13.25,14.44.5,21.63-1,2.87-.58,5.63-1.42,8.35-2.18a50.14,50.14,0,0,1,8.11-1.72,4.91,4.91,0,0,1,1,0,.84.84,0,0,1,.47.16l.08.09a1.59,1.59,0,0,1,.2.49,5.53,5.53,0,0,1,.13.84q.51,4.67.69,9.35a11.63,11.63,0,0,1,0,1.79,3.21,3.21,0,0,1-.42,1.32,2.84,2.84,0,0,1-.77.78,9.46,9.46,0,0,1-2,1,91.86,91.86,0,0,1-47.72,4.72l-.21,1.29-.22,1.29A94.49,94.49,0,0,0,906,497.16a11.6,11.6,0,0,0,2.62-1.3,5.37,5.37,0,0,0,1.48-1.52,5.89,5.89,0,0,0,.8-2.39,13.82,13.82,0,0,0,0-2.21c-.12-3.19-.35-6.36-.7-9.53a8.81,8.81,0,0,0-.2-1.2,3.8,3.8,0,0,0-.59-1.36,3.15,3.15,0,0,0-.53-.57,3.45,3.45,0,0,0-1.84-.77,7.65,7.65,0,0,0-1.6,0,52.92,52.92,0,0,0-8.53,1.8c-2.76.77-5.46,1.59-8.17,2.14-6.78,1.38-13.89,1.16-21,.91-5.32-.19-11.2-.87-17.11-1.29a74.24,74.24,0,0,0-17.36.36,10.32,10.32,0,0,0-4.3,1.64,6.25,6.25,0,0,0-2.12,2.48,7.06,7.06,0,0,0-.42,4.55,12.11,12.11,0,0,0,2,4.41,14.58,14.58,0,0,0,7.29,5.48,32.94,32.94,0,0,0,7.4.95c4.54.34,9.08,1.46,13.77,2.25Zm25.17,27.91-.35-1.26a22.75,22.75,0,0,1-6.46.67,11.67,11.67,0,0,1-3.31-.56,5.07,5.07,0,0,1-1.19-.57,2.85,2.85,0,0,1-.77-.73,2.33,2.33,0,0,1-.41-1.08,4.41,4.41,0,0,1,.15-1.73,3.9,3.9,0,0,1,.9-1.54,11.93,11.93,0,0,1,2-1.75,46,46,0,0,1,7.58-4c1.34-.59,2.65-1.15,3.82-1.65s2.18-1,3-1.39c2-1.06,4-2.11,6-3a22.43,22.43,0,0,1,6.1-1.71,6.52,6.52,0,0,1,1.65,0,2,2,0,0,1,1.07.46,1.62,1.62,0,0,1,.27.3,6.68,6.68,0,0,1,.61,1.23,16.56,16.56,0,0,1,1,2.94,6.12,6.12,0,0,1,.13,1.31,4,4,0,0,1-.22,1.16,4.28,4.28,0,0,1-.81,1.28,12.18,12.18,0,0,1-1.32,1.23c-.61.49-1.23,1-1.87,1.42-5.22,3.7-11.53,5.93-17.91,7.7l.35,1.26.35,1.26c6.49-1.81,13.09-4.11,18.72-8.09.69-.48,1.36-1,2-1.53a12.78,12.78,0,0,0,1.62-1.53,6.42,6.42,0,0,0,1.29-2.08,5.92,5.92,0,0,0,.39-2,9.1,9.1,0,0,0-.41-2.83,25.29,25.29,0,0,0-.92-2.51,9,9,0,0,0-.9-1.73,4.06,4.06,0,0,0-.65-.74,4.65,4.65,0,0,0-2.42-1.09,8.4,8.4,0,0,0-2.35,0,25,25,0,0,0-6.82,1.89c-2.15.91-4.2,2-6.19,3.06-.66.36-1.64.8-2.79,1.3-1.72.75-3.82,1.62-5.92,2.61a39.28,39.28,0,0,0-5.94,3.33,14.21,14.21,0,0,0-2.48,2.15,6.47,6.47,0,0,0-1.48,2.62,7.21,7.21,0,0,0-.21,2.73,5,5,0,0,0,.87,2.24,5.63,5.63,0,0,0,1.45,1.39,9,9,0,0,0,3.27,1.27,20.43,20.43,0,0,0,5.4.26,24.45,24.45,0,0,0,4.45-.72Z"/><path class="cls-4" d="M949.46,200.32l1.12.66-1.24-.41c-16.44,49.29-14.14,101.55-11.48,153.78s5.68,104.42-9,153.6c-.71,2.38-1.48,4.74-2.27,7.1-9.42,28.2-24.1,54.51-38.74,80.64l-47.34,84.5,2.29,1.28c3.37-6,4.77-12.67,5.8-19.33s1.69-13.37,3.46-19.62a62.38,62.38,0,0,1,8.41-17.34c3.62-5.46,7.83-10.68,11.88-15.95,21.76-28.29,39.71-60,50.51-94a239.89,239.89,0,0,0,7.71-31c8.4-47.63,1.65-96.24-.76-144.2-1.22-24-1.81-48.35.94-71.84s8.83-46.07,21-66.56l-1.13-.67-1.24-.41,1.24.41-1.12-.66c-12.36,20.89-18.53,43.86-21.31,67.59s-2.17,48.24-1,72.28c2.44,48.1,9.13,96.52.81,143.6a236.7,236.7,0,0,1-7.63,30.68c-10.69,33.63-28.48,65.07-50.1,93.17-4,5.23-8.27,10.5-12,16.09a64.71,64.71,0,0,0-8.74,18.07c-1.86,6.56-2.52,13.37-3.54,19.94s-2.37,12.87-5.5,18.45l2.29,1.28q23.66-42.26,47.33-84.51c14.64-26.12,29.41-52.57,38.94-81.08.8-2.38,1.57-4.77,2.29-7.18,14.85-49.78,11.76-102.28,9.11-154.49s-4.9-104.14,11.35-152.81"/><path class="cls-8" d="M957.34,914.05c-17.67,12.46-43.14,16.19-66.52,18.62q-24.18,3.84-48.87,6.5c-37.2,4.08-75.07,6.44-113,8.05-43.8,1.88-87.65,2.77-130.56,4.18-63.88,2.11-146.12,15.08-212.87,3.33a214.63,214.63,0,0,1-24.95-5.83c-17.18-5.18-31.46-14.11-45.75-23.41-5.67-3.69-11.35-7.44-17.2-11C272.5,899,220,883.58,202.94,862.36c-33.47-41.6,31.57-172.29,45.21-220.41q26.25-92.37,52.43-184.74,7.13-2.16,14.27-4.24a1514,1514,0,0,1,242.76-49.55l2.61-.31.68-.08q17.94-2.11,36-3.82c20.4-1.91,41.31-3.41,61.43,1.12,12.25,2.77,23.75,7.67,34.93,13.14.77.38,1.54.75,2.3,1.14,3.65,1.81,7.28,3.68,10.89,5.54l56,28.88,60.51,31.23c6.41,3.3,12.88,6.64,19,10.37a97.11,97.11,0,0,1,20,15.31c11.24,11.62,17.41,26.28,23.35,40.56C916,620.58,947,695.42,958.41,773.26A458.94,458.94,0,0,1,957.34,914.05Z"/><path class="cls-9" d="M918.94,877.4c-17.67,12.46-43.14,16.19-66.52,18.62q-24.18,3.84-48.87,6.5c-37.2,4.08-75.07,6.44-113,8.05-43.8,1.88-87.65,2.77-130.56,4.18-63.88,2.11-146.12,15.08-212.87,3.33a214.63,214.63,0,0,1-24.95-5.83c-17.18-5.18-31.46-14.11-45.75-23.41-5.67-3.69-11.35-7.44-17.2-11-25.15-15.47-77.64-30.87-94.71-52.09-33.47-41.6,31.57-172.29,45.21-220.41Q236,512.93,262.18,420.56q7.13-2.16,14.27-4.24a1514,1514,0,0,1,242.76-49.55l2.61-.31.68-.08q17.94-2.11,36-3.82c20.4-1.91,41.31-3.41,61.43,1.12,12.25,2.77,23.75,7.67,34.93,13.14.77.38,1.54.75,2.3,1.14,3.65,1.81,7.28,3.68,10.89,5.54l56,28.88,60.51,31.23c6.41,3.3,12.88,6.64,19,10.37a97.11,97.11,0,0,1,20,15.31c11.24,11.62,17.41,26.28,23.35,40.56C877.59,583.93,908.6,658.77,920,736.61A458.94,458.94,0,0,1,918.94,877.4Z"/><path class="cls-10" d="M650.94,283.81a72.06,72.06,0,0,1-6.49,8.69,72.82,72.82,0,0,1-16.39,13.95,53.19,53.19,0,0,0-14.54-7.15,61.93,61.93,0,0,0-15-2.46,77.88,77.88,0,0,0-12.57,0c-9.82,1.19-17.11,8.7-31.29,23.66-12.23,12.9-9.22,12.4-18,20.7-5.06,4.79-8.7,7.46-10.38,12.91-.73,2.37-1.28,5.92-3.68,10.88a43.61,43.61,0,0,1-2.69,4.8c-3.25-13.32-1.08-21.45,1.72-26.5,3-5.48,7.71-10.86,7.4-16.63-.18-3.29-1.32-4.66-1-8.63.4-4.84,2.3-5.21,4.44-11.58,2.59-7.75,6.76-15.34,7.76-15.56,2.65-.59,4.31.19,7.51-1.44,5.85-3,4-7.47,9.3-9.92,4.69-2.16,7.3.81,13-1.32s4.47-5.52,9.7-7.44c5.48-2,8.14,1.23,16.46.14,7.29-1,6.82-3.65,13.17-4.34,7.16-.78,8.54,2.56,20.25,4.49,10.31,1.7,14.34-.05,18,3C650.82,276.68,651.15,280.78,650.94,283.81Z"/><path class="cls-11" d="M569.93,310.36c-5.79,5.22-10.53,9.87-14.1,13.53-12.45,12.73-11.52,14-22,25A53.27,53.27,0,0,0,526,359.19a32.28,32.28,0,0,0-3.39,7c-2.26,6.76-9,33.83-9,42.29s3.39,28.2,6.21,37.78,10.15,11.85,22,15.23c16.55,4.73,15.54,8.08,22.69,8.09,1.89,0,4.76-.2,20.14-7.5,14.78-7,22.29-10.63,28.15-15.77,5.63-5,2.85-4.27,14.32-17.48,12.12-14,16.9-16.65,20.87-26.2.26-.65,1.47-5.21,3.88-14.32,5.85-22.13,6-22.84,6.06-24.27.53-10.54-5.13-18.25-14.6-31.13-8.46-11.5-16.12-25.69-32.71-29.32C592.48,299.64,580.08,296.26,569.93,310.36Z"/><path class="cls-12" d="M690.58,910.57c-43.8,1.88-87.65,2.77-130.56,4.18-63.88,2.11-146.12,15.08-212.87,3.33q4.11-19.7,9.22-40.39c7.4-29.76,15.64-57.56,24.25-83.28,10.88,2.89,24.8,6.28,41.11,9.49a632.75,632.75,0,0,0,68.79,9.75c61.19,5,118.05-1,118.05-1s17,23.65,43.47,23.65a45.1,45.1,0,0,0,6.36-.45,395.8,395.8,0,0,1,25,54C686.11,896.93,688.47,903.86,690.58,910.57Z"/><path class="cls-11" d="M514.94,428.2c-2-.45-3.9,17.61-11.34,28.34-21.37,30.85-85.18-3.64-121.66,27.15-21.24,17.91-22.2,48.63-22.67,64.57-1.66,56.51,41.31,95.47,51.13,103.83a136.34,136.34,0,0,0,12.91,9.75,246,246,0,0,0,59.83,17.93c20.28,3.32,41.86,6.86,57.19,1.58,3.21-1.11,8.28-3.34,15.55-3.17,9.12.22,12.77,4,18.45,2.38,6.41-1.85,9.51-8.94,11.33-12.92,14.73-32.22,22.11-29,33.21-60.61a254,254,0,0,0,10.8-44.28c1.05-6.28,1.71-11.5,2.11-15C621.22,535,611.05,530.16,603.92,528c-15.76-4.72-28.57.35-37.47-8.39-4.57-4.48-5.93-10.45-6.41-14.29a40.42,40.42,0,0,1,4.43-14c2.26-4.17,6.2-5.81,7.15-10.85.41-2.18,0-3,.74-5.42,1.44-4.67,4.46-6.63,3.94-7.39-.74-1.09-6.48,3.72-13.55,3.7-4.68,0-6-2.14-13.31-5.67-13.92-6.75-18.5-3.58-24.89-9.86-4.19-4.11-5.95-9.13-6.9-11.83C514.53,435.09,516.17,428.48,514.94,428.2Z"/><path class="cls-11" d="M342.67,727.73c1.41,13.62,6.05,36.36,23.77,51.92,12.15,10.67,24.28,12.55,57.4,16.87,75.42,9.83,113.7,14.73,142,13.78,9.1-.31,49.47-1.91,49.48-1.77s-.7.17-.7.17,17.54,21.3,29.51,22.9,15.53-1.33,19.48-9.78,4.41-.4,7.34-7.17,1.87-9.1,1.87-9.1,5.48-3.42,5.69-9.14a24.23,24.23,0,0,0-1.72-10,7.6,7.6,0,0,0,4.45-6.52c.17-4.46-2.63-8.15-8.06-14.06L656.82,748a145,145,0,0,1-9.49,13.45c-7.21,9.08-12.06,15.19-20.56,20.55a52.38,52.38,0,0,1-25.37,8.6,56.24,56.24,0,0,1-10.6-.6c-12.39-1.55-23.88-6.23-54.87-15.8-29.69-9.17-30.92-8.51-46.15-14.27-21.31-8.05-41.66-18.3-41.66-18.3-12.18-6.16-31.46-15-62.49-26.57q-10,2.79-20.3,5.8Q353.83,724.26,342.67,727.73Z"/><path class="cls-12" d="M584.68,496.46c-17,25.72-38.95,41.37-56.68,41.41-12.44,0-20.46-4.93-20.46-4.93-8-5-9.13-10.81-14.17-15.32-11.71-10.5-33.49-3.75-43.5-1.19-18.69,4.76-46.58,7.66-86.38-1.12a220.31,220.31,0,0,0-6.85,22.14c-3.57,13.94-2.71,15.94-6.85,40.59-3.73,22.14-5.31,25.78-2.38,31.36,4,7.57,10.54,7.85,21.88,15.28C384,634.3,388.42,644,395.91,652.09c5.33,5.8,11.83,10.43,73.26,25a612,612,0,0,0,86.71,14c13.3,1.21,20.87,1.46,29-2.64a19.43,19.43,0,0,0,3.64-2.3c12.86-10.4,19.26-36.61,26.93-59.89,5.78-17.56,9.63-24.11,13.81-35.71,2-5.49,3.1-9.86,5.43-17.79,3.12-10.64,6.66-23.09,10.38-37.12A131.76,131.76,0,0,0,634,524.56,139.73,139.73,0,0,0,584.68,496.46Z"/><path class="cls-13" d="M426,589.63a269.41,269.41,0,0,0-16.08,66.42c-.81,7.38-1.27,14.49-1.47,21.26l8.78,2.44A293.4,293.4,0,0,1,426,589.63Z"/><path class="cls-14" d="M564,438.09a19.1,19.1,0,0,1-4.81-1.28,17.59,17.59,0,0,1-1.8-.82,77.4,77.4,0,0,1-7.54-4.75c-4.77-3.28-5.81-3.81-7-5.51a13.91,13.91,0,0,1-1.73-3.2,13.34,13.34,0,0,1-.74-3.45,25,25,0,0,1,1.48-9.61,26.2,26.2,0,0,0,4.44,4.19,55.3,55.3,0,0,0,4.94,3.11c1.55.91,2,1.17,3.37,2,1.62,1,2.74,1.85,3.19,2.18,4.59,3.32,6.26,3.74,8.25,5.16a16.93,16.93,0,0,1,1.77,1.46,32.58,32.58,0,0,0,8.54,5.06,12.22,12.22,0,0,1-5.09,4.33,14,14,0,0,1-2.79.85A16.18,16.18,0,0,1,564,438.09Z"/><path class="cls-14" d="M572.48,432.6c-1.83-1-2.14-2-4.59-4.69s-5.16-5.76-8.07-7.66c-2.4-1.57-4.57-2.14-8.5-3.7-1.49-.6-3.23-1.33-5.34-2.32a8.53,8.53,0,0,1-3.44-2.39c-.11-.14-1.5-1.89-1-2.62.34-.48,1.37-.3,1.73-.25,5.38.86,10.91-2.4,16.48.65a13.06,13.06,0,0,1,5.17,5.52,10.12,10.12,0,0,1,5.32,1.42l.24.16c2.9,2.11,4.62,8.67,4.62,8.67.78,3.05.46,3.21,1.1,4.25C577.87,432.31,576.06,434.46,572.48,432.6Z"/><path class="cls-11" d="M363.37,512.48a359.78,359.78,0,0,0,40.18,4.15c14.23.66,24.08,1.12,37.59,0,14.9-1.2,39.25-4.7,40-1.47.15.6-.44,1.65,0,2,.68.49,3.11-1.11,3-1.73-.35-1.49-15.69,1.85-35.49,3.94a324.26,324.26,0,0,1-46.82,1.73,265.71,265.71,0,0,1-39.19-4.68C362.88,515.11,363.12,513.8,363.37,512.48Z"/><path class="cls-15" d="M442.06,469.66a243.1,243.1,0,0,0-13.38,56.13q4.94,22.68,9.86,45.35a64.85,64.85,0,0,0,11.58,24.4,69.45,69.45,0,0,0,11.34,11.33c9.4,7.72,24.37,21.2,43.87,21.2,6.65,0,30.8-4.19,30.8-4.19L561,611.8l14.54-20,17.75-36.23,7.15-20.7L565,514.21c-2.29,1.83-5.57,4.41-9.61,7.39-12.38,9.15-18.7,13.74-24.9,14.79-10.6,1.8-19.69-3.88-20.94-4.68-14.86-9.57-16.89-30.26-18.62-47.83a127.27,127.27,0,0,1-.52-17.06c-8,.86-16.33,1.57-25.06,2.07C457.27,469.35,449.51,469.59,442.06,469.66Z"/><path class="cls-16" d="M489.09,467.08c-.2,7.39-.68,39.37,10.32,58.22,3.53,6.06,7.11,8.79,9.12,10.1,9.67,6.3,21,4.18,24.15,3.45,0,0,7.65-1.76,30.32-22.18l11.09,11.59L580,532.2s-13.06,27.11-25.14,36.23-35.73,15-48.3,12.07c-25.59-6-34.89-32.71-36.72-37.7-4.46-12.1-4-23.07-3.21-43.87a244.44,244.44,0,0,1,2.82-28.75q4.44-.57,9.05-1.29C482.12,468.32,485.66,467.72,489.09,467.08Z"/><path class="cls-17" d="M462.73,470.44c-.57,5.36-1.24,13-1.55,22.22-.55,16.86-.88,27,1.51,38.61a89.68,89.68,0,0,0,20.7,41c4.44,5,24.15,14.77,33.77,14.77s28.58-8.76,28.58-8.76l18.73-14.27,20-31.78,6.65,2.67s-18.48,31.37-24.15,36.87-20.21,16.52-32.29,19.27-29.57.5-39.18-2.5-30.81-33.29-30.81-33.29l-7.39-31.53-1-37.29q.78-8.54,1.54-17.06Z"/><path class="cls-18" d="M603.41,539.35a254,254,0,0,1-14,28.58c-11.28,19.72-18.15,31.73-30.56,41.27-3.29,2.53-29.24,22.66-61.37,14.67-18-4.48-44.61-23.12-52.74-43.75,0,0-18.12-31.62-12.08-68.35.49-3,2.32-12.68,5.56-24.53,2-7.44,4-13.5,5.43-17.58l11.63.26q-.71,15.87-1.42,31.72,3.07,21.81,6.16,43.62a61.85,61.85,0,0,0,17.74,31.55,36.09,36.09,0,0,0,31.06,18.48l31.05-1.75,20-11.18q6.86-8.39,13.8-17.63c7.34-9.8,14-19.39,20-28.67Z"/><path class="cls-10" d="M657.88,350.07a51.33,51.33,0,0,1,1,18.24c-.67,6-1.57,8.62-3.94,19-3,13.35-2.37,12.53-3.54,15.49-3,7.53-7.31,12.74-10.75,16.79-5.79,6.81-7.4,6.42-11.34,12.08,0,0-3.12,4.36-10.94,13.17-8,9.05-20.34,14.27-26.52,16.89-8.35,3.55-13.87,4.49-17,10.11-1.64,2.95-.72,3.76-2.46,8.62-3.05,8.53-7.59,9.85-10.1,16-.2.49-4.27,10.91,0,21.2s14.59,15,23.16,19c11.19,5.15,13.38,2.7,18,7.14,8.32,8,2.76,17.41,11.09,25.14,6.34,5.88,11.7,2.43,17.25,9.12,5,6,2,10.3,6.91,15,5.22,5,9.74,1.26,18.23,6.16,8.27,4.78,7.27,10.24,14.05,12.08a17.86,17.86,0,0,0,17-5.18c3.58-4,1.51-6.53,5.17-11.09,4.78-5.94,9.63-3.32,14-8.87,4.11-5.17,1.32-9.23,6.16-14.29,3.21-3.36,5.29-1.81,7.89-4.93,3.85-4.64.22-8.59,3.69-14.54,3-5.21,7.41-4.9,8.38-9.61.65-3.12-1.14-3.88-.91-7.54.34-5.62,4.68-6.23,6.58-11.69,2.45-7-3.43-9.86-2-20,.79-5.46,2.55-4.94,3.45-11.09.84-5.74-.57-7-1-16.26-.44-9.85,1.11-9.62,0-14.55-1.58-7.06-4.75-7.46-7.14-15-2.14-6.75.15-7.16-1.48-15.53-2-10.33-5.75-10.91-7.15-20.7-1-6.87.77-7.15-.49-13.55-1.78-9-5.29-8.53-6.9-16.27-2.08-9.92,2.37-17-.5-22.67a24.14,24.14,0,0,1-2.69-7,16.16,16.16,0,0,0-.59-3c-1.07-3-3.28-4.22-5.41-11.62-2.24-7.82-.55-9.11-2.9-15-2.5-6.23-4.65-5.36-8.34-12.43-4.05-7.77-2.06-10-6-16.51a17.07,17.07,0,0,0-2-2.8,25.23,25.23,0,0,0-3.69-3.45c-1.22-.92-11.68-8.22-23.29-5.13-1.87.49-6.6,4.71-16,13.06-8.8,7.8-11.66,10.54-12.08,15a16.34,16.34,0,0,0,2,8.63c2.09,4.22,4.58,5.38,8.63,9.12C644.93,328.38,654.83,337.73,657.88,350.07Z"/><path class="cls-19" d="M276.45,144.68V935.32h527.1V144.68Zm421,790.46H343.72q1.62-8.43,3.43-17.06c66.75,11.75,149-1.22,212.87-3.33,42.91-1.41,86.76-2.3,130.56-4.18C693.26,919.15,695.51,927.37,697.4,935.14Z"/><path class="cls-4" d="M277.67,633.25a10.76,10.76,0,0,0,3.81,1.3c11.76,2.26,25.63,2.26,36.1-5.35a29.57,29.57,0,0,0,9.32-11.31c-.29-1.08-.56-2.16-.81-3.25-10.37-45.07,11.87-94.89,0-139.53-2.52,4.48-8.46,10.34-10.47,12.41-3.39,3.47-6.06,7.72-10.39,9.85-1.18.58-2.54,1.27-2.87,2.53a3.81,3.81,0,0,0,.15,2c1.5,5.33,5.05,9.63,9,13.25,2,1.85,4.19,3.55,6.36,5.22.72.55,2.86,1.61,3.16,2.45s-1,2.31-1.56,3a11,11,0,0,1-4.79,3.9c-4.78,1.61-7-3.08-9.54-5.82a87.58,87.58,0,0,1-6-7.06c-1.18-1.55-2.42-4.06-4.56-4.46-4.16-.77-10,7-12.4,9.78-3,3.47-5.85,7.44-6.48,11.92a16.79,16.79,0,0,0,.21,5.48c2.52,13,16.95,20.11,27.93,24.89,2.68,1.17,5.47,2.25,7.61,4.21,4.08,3.73,4.9,10.56,1.86,15.52-.83,1.35-13.36-3.75-14.74-4.37a58.74,58.74,0,0,1-13.58-8.45,55.36,55.36,0,0,1-5.65-5.39c-1.41-1.54-3.07-5-5-5.74-3.56-1.44-7.22,10.54-8.34,13.17-1.21,2.83-2.44,5.75-2.54,8.77-.11,3.28,1.11,6.37,2.32,9.35a44.54,44.54,0,0,0,4.74,9.49c7.78,10.81,24.21,8,36.17,7.81,2.07,0,4.71.4,5,2.44.22,1.4-.9,2.72-2,3.69A28.21,28.21,0,0,1,289,621.28a35.25,35.25,0,0,1-15-5c-1.82-1.09-4.38-4.35-5.11-1.08a12.61,12.61,0,0,0,.91,7.14,35.3,35.3,0,0,0,5.09,8.14A11.72,11.72,0,0,0,277.67,633.25Zm34-71.83a39.51,39.51,0,0,1-12.47-10.74,5.4,5.4,0,0,1-1.12-2.08c-.45-2.08,1.28-4.07,2.86-5.62a1.8,1.8,0,0,1,1.22-.67,1.59,1.59,0,0,1,.76.34c5.08,3.49,12,7,15.91,11.82C322.52,558.93,316.16,563.86,311.71,561.42Zm-11.64,33.91q-11.16-1.43-22.15-3.71a10,10,0,0,1-4.55-1.76c-2.36-2-5.38-11.85.32-12.46,2.55-.27,5.62,3.59,7.33,5.07a48.56,48.56,0,0,0,8.29,6.25c4.21,2.31,9.11,3.4,13,6.19A2.62,2.62,0,0,1,300.07,595.33Z"/><path class="cls-4" d="M329.73,617.66c4.25,3.36,8.6,6.63,13.57,8.83,7.66,3.38,16.34,4,24.84,4.34,4.55.18,9.29.26,13.54-1.62,3.78-1.66,6.8-4.72,9.72-7.69,3.36-3.44,6.86-7.12,8-11.71a25.83,25.83,0,0,0,.59-5.61q.35-11.52.7-23.05a81.79,81.79,0,0,1-32.33,14.73c-6.78,1.41-14.06,1.86-20.13-1-2.42-1.15-4.79-3.27-4.55-6,14.16-6.44,32,.23,44.7-8.94,3.82-2.77,6.65-6.68,9.21-10.63a11.26,11.26,0,0,0,1.78-3.65,9.86,9.86,0,0,0-.34-4.48,44.87,44.87,0,0,0-3.93-10.2c-7.41,8.39-17.57,13.7-27.47,18.81-3.72,1.92-7.75,3.9-11.77,3.33s-7.46-5-5.47-8.7c.12-.22,5.79-.16,6.45-.24a41.24,41.24,0,0,0,6.37-1.26,46.4,46.4,0,0,0,22.31-14.07c2.41-2.77,6.31-7.24,6.67-10.94.3-3.07-1.88-5.63-3.92-7.81-2.3-2.45-4.61-4.9-6.9-7.35-1.33-1.41-1.42-2.14-3.05-1a27.94,27.94,0,0,0-3.56,3.65l-14.84,15.26c-1.93,2-4.21,4.12-6.89,4-2.87-.08-4.84-2.61-6.42-4.92a3.11,3.11,0,0,1-.67-1.45c-.15-1.67,2-2.58,3.62-3,.62-.68,3.28-1.09,4.2-1.48a35,35,0,0,0,4.3-2.22,36.91,36.91,0,0,0,7.32-5.81,37.35,37.35,0,0,0,5.84-7.75c1.81-3.2,1.65-5.36,1.53-8.89a14,14,0,0,0-.25-2.59c-.68-3-3.3-5.14-5.8-6.95-2.16-1.55-4.51-3.6-7-4.54-.23,1.7.32,3.65.14,5.47a19.31,19.31,0,0,1-1.5,5.69,19,19,0,0,1-7.15,8.52,11.39,11.39,0,0,1-7.58,2c-2.59-.4-5-2.4-5.15-5-.28-3.51,3-6.32,5.56-8.87s4.28-5.66,6.62-8.38c1.38-1.61,3.64-3.79,2.23-6a4.46,4.46,0,0,0-1.29-1.23c-4.79-3.36-10.37-5.38-15.71-7.74-1.34-.59-2.67-1.19-4-1.85-.93-.47-5.71-3.52-5.76-2.5,9.83,18.93,8.34,41.48,5.78,63.25s-7.06,43.73-4.71,65.26A104.75,104.75,0,0,0,329.73,617.66Zm8.42-57a15.45,15.45,0,0,1-2.95-3.45,1.33,1.33,0,0,1-.28-1,1.68,1.68,0,0,1,.46-.67l3.5-3.55a2.88,2.88,0,0,1,1-.77,2.61,2.61,0,0,1,1.49.06c2.51.61,13.09,1.67,12.86,4.87s-9.72,4.85-12.21,5.38a4.92,4.92,0,0,1-2.28.11A4.17,4.17,0,0,1,338.15,560.66Zm-.56,48.52a2.84,2.84,0,0,1-1.5-1.07,3,3,0,0,1-.17-1.75c.15-1.43.35-2.85.6-4.27a1.59,1.59,0,0,1,.46-1,1.5,1.5,0,0,1,1.12-.19c2.54.31,4.9,1.34,7.39,1.89a41.13,41.13,0,0,0,9.62.56c4.9-.11,10.74-1.1,15.52-.22s1.85,6.22-1.68,7.26a14.77,14.77,0,0,1-3.25.35c-2.13.14-4.23.62-6.35.94A41.44,41.44,0,0,1,337.59,609.18Zm.63,10.59a3.19,3.19,0,0,1-1-1.4,4.09,4.09,0,0,1,.61-2.88,2.7,2.7,0,0,1,.61-.91,2.2,2.2,0,0,1,1.72-.32,15.37,15.37,0,0,1,5.53,2.26c1.79,1,7.37,2.93,7.79,5.19.65,3.46-4.55,3-6.33,2.44A22.94,22.94,0,0,1,338.22,619.77Z"/><path class="cls-5" d="M326.13,475.11c9.83,18.93,8.34,41.48,5.78,63.25s-7.06,43.73-4.71,65.26a104.75,104.75,0,0,0,2.53,14c3.84,15.4,11,29.83,19.93,42.76,3.34,4.81,7,9.62,8.26,15.43s.38,12.28,3,17.59q-9.43-19.31-18.86-38.63c-5.83-11.94-11.7-24-15.13-36.92-.29-1.08-.56-2.16-.81-3.25C315.72,569.57,338,519.75,326.13,475.11Z"/><g class="cls-6"><path class="cls-3" d="M303.23,651.77a7.09,7.09,0,0,0,2.71-.13c7.92-1.51,16.59-5,21.25-12.32a20,20,0,0,0,3-9.39c-.45-.61-.89-1.22-1.32-1.84-17.69-25.61-16.17-62.31-34.67-87.29-.46,3.42-2.72,8.57-3.47,10.36-1.25,3-1.87,6.35-4.05,8.75a3.24,3.24,0,0,0-1.16,2.3,2.52,2.52,0,0,0,.58,1.18,19.45,19.45,0,0,0,8.95,6c1.73.65,3.5,1.18,5.28,1.69.58.16,2.18.29,2.58.74s-.05,1.7-.22,2.28a7.47,7.47,0,0,1-2,3.63c-2.59,2.19-5.12-.2-7.41-1.27a56.92,56.92,0,0,1-5.51-2.93c-1.12-.67-2.52-1.93-4-1.65-2.79.55-4.5,6.87-5.32,9.2-1,2.93-1.82,6.11-1.09,9.07a11.08,11.08,0,0,0,1.49,3.37c4.81,7.5,15.61,8.37,23.66,8.63a17.91,17.91,0,0,1,5.81.74,8.5,8.5,0,0,1,5,9.24c-.18,1.06-9.29,1-10.31.94a39.56,39.56,0,0,1-10.59-1.91,38.83,38.83,0,0,1-4.88-2c-1.26-.62-3.15-2.34-4.57-2.35-2.59,0-1.9,8.39-1.95,10.32a16.84,16.84,0,0,0,.59,6.11,15.67,15.67,0,0,0,3.78,5.28,29.92,29.92,0,0,0,5.32,4.75c7.56,4.84,17.15-1,24.57-4.11,1.29-.54,3.05-.91,3.76.28a3.05,3.05,0,0,1-.35,2.81,18.93,18.93,0,0,1-11.37,9.13,23.73,23.73,0,0,1-10.62.57c-1.42-.23-3.82-1.64-3.47.59a8.58,8.58,0,0,0,2.35,4.24,24,24,0,0,0,5.21,3.83A7.59,7.59,0,0,0,303.23,651.77Zm3.43-53.39a26.74,26.74,0,0,1-10.47-3.62,3.74,3.74,0,0,1-1.22-1c-.8-1.19-.21-2.86.4-4.23.13-.29.29-.62.59-.72a1.07,1.07,0,0,1,.56,0c4.05.92,9.24,1.42,12.89,3.44C312.81,594.13,310.05,598.8,306.66,598.38Zm1.15,24.1q-7.33,1.89-14.78,3.19a6.63,6.63,0,0,1-3.28,0c-2-.66-6.31-6.08-2.9-7.87,1.53-.81,4.41.85,5.85,1.35a32.19,32.19,0,0,0,6.74,1.84c3.2.4,6.54-.14,9.67.65A1.77,1.77,0,0,1,307.81,622.48Z"/><path class="cls-3" d="M331.92,629.08a43,43,0,0,0,10.69,2.14c5.63.21,11.21-1.56,16.61-3.46,2.89-1,5.88-2.14,8.07-4.37,1.95-2,3.08-4.65,4.17-7.23,1.24-3,2.52-6.16,2.11-9.32a17.77,17.77,0,0,0-1-3.66q-2.66-7.29-5.3-14.6a55,55,0,0,1-16.56,17.26c-3.89,2.57-8.33,4.66-12.84,4.36-1.8-.11-3.82-.85-4.34-2.62,7.26-7.55,20.09-7.82,25.73-16.71a26,26,0,0,0,3.12-8.94,7.85,7.85,0,0,0,.21-2.72,6.66,6.66,0,0,0-1.33-2.72,29.83,29.83,0,0,0-5-5.41c-2.55,7.09-7.59,12.95-12.51,18.61-1.85,2.12-3.88,4.36-6.53,5s-5.92-1.29-5.59-4.08c0-.17,3.58-1.54,4-1.75a29.16,29.16,0,0,0,3.68-2.37,31.38,31.38,0,0,0,10.45-14.35c.82-2.34,2.15-6.11,1.46-8.51-.58-2-2.58-3-4.4-3.91l-6.15-2.88c-1.17-.55-1.42-1-2.16.13a19.73,19.73,0,0,0-1.31,3.17l-5.49,13.23c-.71,1.72-1.61,3.62-3.31,4.25s-3.67-.43-5.23-1.48a2.22,2.22,0,0,1-.78-.74c-.51-1,.6-2.11,1.51-2.8.22-.58,1.78-1.5,2.26-2a23.87,23.87,0,0,0,2.14-2.46,25.37,25.37,0,0,0,4.86-11.75c.33-2.45-.3-3.76-1.26-5.95a9.82,9.82,0,0,0-.79-1.55c-1.19-1.74-3.35-2.4-5.37-2.9a22.25,22.25,0,0,0-5.52-1.1c.28,1.12,1.11,2.2,1.45,3.39a13.09,13.09,0,0,1-1.88,11,7.63,7.63,0,0,1-4.24,3.14,4,4,0,0,1-4.47-1.85c-1-2.13.29-4.69,1.27-6.93s1.27-4.61,2.06-6.89c.46-1.35,1.34-3.28-.1-4.34a3,3,0,0,0-1.12-.44c-3.83-.91-7.82-.79-11.75-.94-1,0-2-.08-2.95-.17-.69-.06-4.44-.78-4.22-.13,10.86,9.39,15.53,23.87,19.35,38.13s6.45,29.11,13.27,42A71.7,71.7,0,0,0,331.92,629.08ZM323,591.33a10.29,10.29,0,0,1-2.7-1.43,1,1,0,0,1-.43-.56,1,1,0,0,1,.13-.53l1.3-3.1a2,2,0,0,1,.46-.74,1.87,1.87,0,0,1,1-.33c1.72-.24,8.6-2.21,9.26-.15s-4.88,5.45-6.31,6.4a3.3,3.3,0,0,1-1.4.64A2.86,2.86,0,0,1,323,591.33Zm11.72,30.49a1.9,1.9,0,0,1-1.2-.3,2,2,0,0,1-.55-1q-.39-1.4-.69-2.82a1.1,1.1,0,0,1,0-.76,1,1,0,0,1,.66-.4c1.66-.43,3.39-.38,5.08-.66a26.83,26.83,0,0,0,6.16-2c3-1.28,6.45-3.36,9.65-4s2.71,3.43.76,5a10.67,10.67,0,0,1-1.95,1c-1.29.61-2.49,1.44-3.73,2.17A28.08,28.08,0,0,1,334.73,621.82Zm3,6.47a2.26,2.26,0,0,1-1-.62,2.77,2.77,0,0,1-.34-2,1.75,1.75,0,0,1,.16-.71,1.45,1.45,0,0,1,1-.63,10.32,10.32,0,0,1,4,0c1.37.19,5.33,0,6.16,1.3,1.27,2-2.11,3-3.35,3.11A15.65,15.65,0,0,1,337.76,628.29Z"/><path class="cls-3" d="M294.22,540.8c10.86,9.39,15.53,23.87,19.35,38.13s6.45,29.11,13.27,42a71.7,71.7,0,0,0,5.08,8.15A88.52,88.52,0,0,0,355,650.87c3.29,2.18,6.78,4.27,9,7.59s3.29,7.6,6.23,10.27l-21.41-19.47c-6.61-6-13.28-12.1-18.64-19.33-.45-.61-.89-1.22-1.32-1.84C311.2,602.48,312.72,565.78,294.22,540.8Z"/></g><path class="cls-11" d="M587.51,700.59c-41.74-3.94-75.67-9.09-100.59-13.5-43.36-7.67-20.14-6.13-60.44-15,0,0-15.86-3.47-36.46-15.2a33.5,33.5,0,0,1-7.71-6.17c-3.33-3.65-2.88-5-6.36-9.86-3-4.22-6-6.87-11.23-11.59-3.28-2.95-5-4.44-6.84-5.43-3.33-1.76-4-1.07-11.16-3.46-4.38-1.47-5.35-2.15-7.11-1.65-3.47,1-4.94,5.1-5.17,5.77-1.07,3,1.45,6.39,1.22,9.66-.14,1.9,4.12,3.93,5.81,4.43s-2.67,2.49-5.63,3.81-11.17,3.6-16.17,6.69-5.16,7.86-4,12.73,3.19,6.36,3.19,6.36a11.27,11.27,0,0,0-5.07,6.52,11.47,11.47,0,0,0,3.44,11,1.71,1.71,0,0,1,.57.9c.51,1.92-2.91,2.92-3.73,5.76-1,3.64,2.69,8.45,4.87,9.54a1,1,0,0,1,.38.26c1.15,1.23-1.92,4.21-2.11,7.84-.19,3.8,2.86,6.8,3.9,7.83a13.89,13.89,0,0,0,7,3.67c22.77-.35,31.93-3.93,36.61-6.19,7.93-3.84,11.88-5.47,17.92-4.28s31.05,12.75,47.82,19.11S478.91,751,478.91,751s88.26,38.55,125.7,36.91S678,694,683.53,681c4.9-11.54,23-106.45,21.21-106.86a67.9,67.9,0,0,1-12.07-3.95C682.86,566,682.53,563,672.94,558c0,0-3.89-2-28-9.48a738.49,738.49,0,0,1-22,70.78A743.2,743.2,0,0,1,587.51,700.59Z"/></g></g></svg>