<svg xmlns="http://www.w3.org/2000/svg" viewBox="0 0 1080 1080"><defs><style>.cls-1{isolation:isolate;}.cls-2{fill:#f2d1b9;}.cls-3{mix-blend-mode:multiply;}.cls-4{fill:#ffd2b3;}.cls-5{fill:#5a5d4a;}.cls-6{fill:#515443;}.cls-7{fill:#bf6e16;}.cls-8{fill:none;}.cls-9{fill:#31210f;}.cls-10{fill:#944536;}.cls-11{fill:#fee7d5;}.cls-12{fill:#682b23;}.cls-13{fill:#ff8b00;}</style></defs><g class="cls-1"><g id="Layer_1" data-name="Layer 1"><path class="cls-2" d="M862.11,471.28A1704.11,1704.11,0,0,1,748.2,806.84l-52.74,7.82-72.1,10.64q-24.09,3.59-48.2,7.14-46.87,6.91-93.76,13.87c-20.26,3-53.7,12-90.07,20.13C327.66,880.7,255,892.35,228.55,864.7c-21.22-22.17-30.78-83.07-44.4-113.42-11.14-24.86-24.72-47.49-29.31-75.35-13.34-81.52,18.7-185.88,31.86-266.11,17.62-107.29,32.92-220.25,63.56-324,6.13-25.77,14-53.67,30.5-71.6A57.81,57.81,0,0,1,294,3.4c13.41-8.07,29.1-9.42,44.26-9.95a518.78,518.78,0,0,1,158.7,19.3c85.26,24.08,164.4,69.63,242.7,114.81,15.09,8.71,30.57,17.75,41.91,32,10.72,13.46,17,30.57,23,47.31q25.11,69.51,50.18,138.95c6.62,18.35,13.3,37,15.12,56.67C872,425.58,867.25,448.77,862.11,471.28Z"/><g class="cls-3"><rect class="cls-4" x="-253.63" y="-65" width="1522.22" height="1210"/></g><path class="cls-5" d="M576,583.54c.92,4.3,3.32,8.17,5.83,11.86,22.07,32.58,54.27,64.79,96.26,71.44a97.33,97.33,0,0,0,47.93-4.62c1.84-3.17,3.72-6.33,5.67-9.45,80.61-128.77,248-192.83,324.22-324-16.25,4.54-43.67,4.36-53.15,4.48-15.94.21-32,3.87-47-1.24-4.08-1.39-8.83-2.93-12.53-.78a12.27,12.27,0,0,0-4.17,4.86c-8.91,15.87-10.63,34.1-9.79,51.79.42,9,1.49,18,2.65,26.91.38,2.94,2.9,10.36,1.66,13-1.33,2.85-7.7,3.05-10.64,3.39-6.83.81-14.11,1-20.2-2.06-14.83-7.37-9-23.32-8.63-35.68a287.71,287.71,0,0,1,2.48-30.32c.85-6.32,3.82-15-.24-20.95-7.85-11.44-39.46-6.87-51.51-6.08-15.12,1-30.88,3.68-42.75,12.64A54.72,54.72,0,0,0,789.88,362c-24.31,36-7.36,86.1,7,122.71,3.51,8.92,7.48,17.92,7.9,27.44.8,18.15-13.16,35.92-31.72,40.38-5.08,1.22-22.33-39.75-24.11-44.41a193,193,0,0,1-11.92-51.17,189.06,189.06,0,0,1-.61-25.63c.3-6.86,4.38-18.64,1.66-25-4.94-11.6-41.26,7.7-50,11.21-9.38,3.77-19,7.68-26.26,14.46C654,439.28,649.65,449.3,645.52,459c-4.56,10.74-9.15,21.6-11,33.05-7,43.19,37.59,74.91,65.89,102.16,4.91,4.73,10,11.9,6,17.35-2.77,3.78-8.43,4.23-13.27,3.88-24.63-1.78-47.51-15-62.89-33.31-11.36-13.55-18.85-29.73-23-46.51-1.69-6.78-.05-20.28-9.34-14.39-6.69,4.24-11.51,11.81-14.5,18.71-4.21,9.73-5.66,20.3-7.07,30.73C575.72,575,575.14,579.32,576,583.54Zm245.9-87.77a129.88,129.88,0,0,1-4-53.92,18,18,0,0,1,2.23-7.43c3.79-5.9,12.42-6.49,19.71-6.41,1.57,0,3.36.13,4.38,1.27a5,5,0,0,1,1,2.54c3.71,19.91,11.49,44.17,9.5,64.43C852.86,515.09,826.62,511.76,821.94,495.77ZM716.16,547.49q-22.62-29.25-42.86-60.07c-3-4.54-6-9.33-6.45-14.66-.85-10.13,15-40,29.67-28.21,6.57,5.3,4.71,21.42,5.24,28.82.8,11.34,1.54,22.76,4.75,33.76,4.41,15.14,13.27,29.06,15.81,44.58C719.69,551.72,717.72,549.51,716.16,547.49Z"/><path class="cls-5" d="M733.17,668.26c2.08,17.66,4.57,35.38,11,52,9.93,25.64,28.66,47.23,47.62,67.79,10.13,11,20.95,22.18,35.2,27.7,12.66,4.91,26.76,4.84,40.43,4.69,15.79-.17,32.48-.58,45.84-8.55,5.36-3.19,9.9-7.45,14.39-11.68l55.2-51.91a268.39,268.39,0,0,1-109.32-40.88c-19-12.47-37-28.33-44.38-49.13-2.95-8.29-3.54-18.74,3.38-24.53,47.84,18,73.86,74.94,124.59,83.06,15.29,2.45,31-.08,46.09-3.28,4.38-.93,8.86-2,12.58-4.35,4.25-2.73,7.12-7,9.65-11.21A147.71,147.71,0,0,0,1040,665.19c-36.7,2.27-72.67-9-107.53-20.11-13.08-4.18-27-9-35-19.61s-5.67-29,7.49-32.92c.79-.24,13.8,13.08,15.51,14.43a139.24,139.24,0,0,0,17.74,11.88,152.51,152.51,0,0,0,84.5,19.12c12-.82,31.5-2.15,40.93-9.91,7.82-6.43,8.7-17.44,9-27.25q.52-16.56,1-33.11c.21-6.35,1.67-8.27-4.73-9.44-5.1-.93-11.55.16-16.76.24l-69.9,1c-9.08.12-19.35-.22-25.42-6.62-6.48-6.82-5.19-17.28-3.5-26.32a10.39,10.39,0,0,1,1.84-4.92c3.52-4.23,10.57-1.39,15.45,1.37,3-.14,10.14,5.09,13.18,6.31A115.45,115.45,0,0,0,999,534.14a123.53,123.53,0,0,0,62.07-.92c11.63-3.24,16.28-8.63,24.21-17.12a46,46,0,0,0,5.43-6.58c5.49-8.68,4.28-19.62,2.66-29.63-1.4-8.63-2.12-18.84-5.78-26.86-4.49,3.41-7.72,9.21-12.37,13a63.35,63.35,0,0,1-16.7,9.74,62.65,62.65,0,0,1-36.4,3.18c-8.68-1.94-17.2-6-22.3-12.94s-5.92-17.06-.3-23.62c7.52-8.79,21.57-7.75,33.5-7.67s23.12-3.21,34.84-4.1c7-.52,17.28-.33,19.25-8.84a15,15,0,0,0-.18-5.86c-3.31-18.93-11.57-36.57-18.51-54.46-1.74-4.48-3.42-9-4.92-13.54-1.06-3.24-5.06-21.42-7.55-19.16-21.14,66.79-77,115.7-133.5,160.34s-118,85.16-162.55,140.64A345,345,0,0,0,733.17,668.26Zm152-112.87a49.81,49.81,0,0,1,1.17-14.85,4.45,4.45,0,0,1,1.69-3,5.25,5.25,0,0,1,2.62-.48L907,537a9.43,9.43,0,0,1,4.2.61,8.68,8.68,0,0,1,3.31,3.63c4.4,7.23,26.52,34.27,18.57,41.17S899.25,571,892.23,566.49c-2.14-1.39-4.32-2.89-5.58-5A13.92,13.92,0,0,1,885.14,555.39Zm-114,111.41c-.8-1.89-1.57-4-1-5.93s2.12-3.24,3.66-4.49q5.51-4.46,11.33-8.53a5.31,5.31,0,0,1,3.46-1.32,4.89,4.89,0,0,1,3,2.19c5.18,6.61,8.29,14.47,12.78,21.52,5.65,8.85,13.39,16.3,21.06,23.65C837.08,705,853,716.29,862,729.44c9.13,13.31-10.15,18.74-20.74,12.94-3.18-1.73-5.69-4.35-8.37-6.71-5.26-4.63-11.27-8.4-16.94-12.56A136.12,136.12,0,0,1,771.14,666.8ZM748,692.9a10.73,10.73,0,0,1,.82-5.7c1.51-2.86,5-4.18,8.13-5.27a8.53,8.53,0,0,1,3.5-.68c2,.17,3.57,1.69,4.76,3.24,4,5.28,5.86,11.77,7.59,18.1,1.78,6.53,10.31,23.92,6.05,30.14-6.54,9.55-17.49-3.66-20.38-9C753.24,714,748.66,703.75,748,692.9Z"/><path class="cls-6" d="M1056,328.78c-21.14,66.79-77,115.7-133.5,160.34s-118,85.16-162.55,140.64a345,345,0,0,0-26.73,38.5c-26.84,44.69-43.81,94.78-53,145.62-3.43,18.93-6.07,38.65-16.65,55s-27.66,29.43-34,47.77l45.91-133.54c14.2-41.29,28.58-82.93,50.62-120.91,1.84-3.17,3.72-6.33,5.67-9.45C812.34,524,979.73,459.94,1056,328.78Z"/><path class="cls-5" d="M557.29,314.12c-1.41-10.43-2.86-21-7.07-30.73-3-6.91-7.81-14.48-14.5-18.72-9.28-5.89-7.64,7.62-9.34,14.4-4.2,16.78-11.68,33-23.05,46.51-15.38,18.33-38.26,31.52-62.89,33.31-4.84.35-10.5-.1-13.26-3.88-4-5.45,1.1-12.62,6-17.35,28.3-27.25,72.94-59,65.89-102.16-1.86-11.45-6.46-22.31-11-33.05-4.13-9.73-8.46-19.76-16.34-27.12-7.26-6.78-16.88-10.69-26.26-14.46-8.74-3.51-45-22.81-50-11.21-2.72,6.39,1.36,18.17,1.66,25a185.87,185.87,0,0,1-.61,25.63,192.61,192.61,0,0,1-11.92,51.17c-1.78,4.66-19,45.63-24.11,44.41-18.56-4.46-32.52-22.23-31.72-40.38.42-9.52,4.39-18.52,7.9-27.45,14.4-36.6,31.35-86.68,7-122.7a55.2,55.2,0,0,0-12.22-13.22c-11.87-9-27.63-11.64-42.75-12.63-12.05-.8-43.66-5.36-51.51,6.08-4,5.9-1.09,14.62-.24,20.94a287.91,287.91,0,0,1,2.49,30.33c.35,12.36,6.19,28.31-8.63,35.67-6.1,3-13.38,2.87-20.21,2.07-2.94-.34-9.31-.54-10.63-3.39-1.24-2.65,1.27-10.08,1.65-13,1.16-8.95,2.23-17.91,2.66-26.92.84-17.68-.89-35.91-9.8-51.78a12.18,12.18,0,0,0-4.16-4.86c-3.71-2.15-8.45-.62-12.54.78-15,5.11-31.1,1.45-47,1.24-9.49-.13-36.9.06-53.16-4.48,76.22,131.15,243.61,195.22,324.22,324,2,3.12,3.83,6.28,5.67,9.45a97.33,97.33,0,0,0,47.93,4.62c42-6.65,74.19-38.86,96.27-71.44,2.5-3.69,4.9-7.56,5.82-11.87S557.86,318.38,557.29,314.12ZM278.87,239.67c-2-20.26,5.78-44.52,9.49-64.43a5,5,0,0,1,1-2.54c1-1.14,2.81-1.25,4.39-1.27,7.28-.08,15.91.51,19.7,6.41a18,18,0,0,1,2.23,7.43,129.66,129.66,0,0,1-4,53.91C307,255.18,280.72,258.5,278.87,239.67Zm132.39,55.46c2.54-15.52,11.4-29.44,15.81-44.58,3.21-11,3.95-22.42,4.75-33.76.53-7.4-1.32-23.52,5.24-28.82,14.64-11.81,30.53,18.08,29.67,28.21-.44,5.33-3.47,10.12-6.45,14.66q-20.22,30.79-42.86,60.07C415.86,292.92,413.9,295.14,411.26,295.13Z"/><path class="cls-5" d="M373.68,373.18c-44.56-55.48-106-96-162.55-140.65S98.77,139,77.63,72.2c-2.49-2.26-6.49,15.92-7.55,19.16-1.5,4.56-3.18,9.06-4.92,13.54-6.94,17.89-15.2,35.53-18.5,54.46a14.67,14.67,0,0,0-.18,5.86c2,8.51,12.29,8.31,19.24,8.84,11.72.89,22.86,4.18,34.84,4.1s26-1.12,33.5,7.67c5.62,6.56,4.8,16.69-.3,23.62s-13.62,11-22.29,12.94a64.08,64.08,0,0,1-53.11-12.92c-4.65-3.81-7.88-9.61-12.37-13-3.66,8-4.38,18.23-5.77,26.86-1.63,10-2.84,20.95,2.65,29.63a46.52,46.52,0,0,0,5.43,6.58c7.93,8.48,12.58,13.88,24.21,17.11a123.38,123.38,0,0,0,62.07.93,115,115,0,0,0,15.14-4.84c3-1.22,10.19-6.45,13.18-6.31,4.89-2.77,11.93-5.6,15.46-1.37a10.37,10.37,0,0,1,1.83,4.92c1.69,9,3,19.5-3.49,26.32-6.08,6.4-16.35,6.74-25.43,6.61l-69.9-1c-5.2-.07-11.66-1.16-16.76-.23-6.4,1.17-4.93,3.09-4.73,9.44q.54,16.56,1,33.11c.31,9.81,1.19,20.82,9,27.25,9.43,7.75,28.9,9.09,40.93,9.91a152.63,152.63,0,0,0,84.5-19.13,139.17,139.17,0,0,0,17.74-11.87c1.71-1.35,14.73-14.67,15.51-14.44,13.17,3.93,15.49,22.26,7.49,32.93s-22,15.43-35,19.6c-34.86,11.12-70.83,22.38-107.53,20.12a147.91,147.91,0,0,0,14.57,32.81c2.53,4.24,5.4,8.48,9.65,11.21C121.48,455,126,456,130.34,457c15.14,3.21,30.8,5.73,46.09,3.29,50.73-8.12,76.75-65.1,124.59-83.06,6.92,5.78,6.34,16.23,3.38,24.53-7.4,20.79-25.34,36.66-44.38,49.13A268.39,268.39,0,0,1,150.7,491.74l55.2,51.91c4.49,4.23,9,8.49,14.39,11.68,13.36,8,30.06,8.38,45.84,8.55,13.67.14,27.78.22,40.44-4.69,14.24-5.52,25.06-16.72,35.19-27.71,19-20.55,37.69-42.14,47.63-67.78,6.45-16.64,8.94-34.36,11-52A345,345,0,0,0,373.68,373.18ZM246.93,304.86c-1.26,2.15-3.43,3.66-5.57,5.05-7,4.55-32.79,22.89-40.87,15.87s14.17-33.94,18.57-41.17a8.63,8.63,0,0,1,3.32-3.63,9.36,9.36,0,0,1,4.19-.61l16.39.11a5.25,5.25,0,0,1,2.62.48,4.4,4.4,0,0,1,1.69,3,49.81,49.81,0,0,1,1.17,14.85A13.74,13.74,0,0,1,246.93,304.86Zm70.72,161.66c-5.67,4.17-11.68,7.94-16.94,12.57-2.68,2.36-5.19,5-8.37,6.71-10.59,5.8-29.87.37-20.74-12.94,9-13.15,24.9-24.4,36.53-35.55,7.66-7.36,15.4-14.8,21.05-23.65,4.5-7.06,7.6-14.91,12.78-21.52a4.89,4.89,0,0,1,3-2.19,5.24,5.24,0,0,1,3.46,1.32q5.82,4.07,11.33,8.53c1.54,1.25,3.13,2.63,3.66,4.48s-.2,4-1,5.94A136.19,136.19,0,0,1,317.65,466.52Zm57.47.6c-2.9,5.37-13.85,18.58-20.39,9-4.25-6.22,4.27-23.62,6.06-30.15,1.72-6.32,3.53-12.81,7.58-18.09,1.19-1.55,2.75-3.07,4.76-3.25a8.59,8.59,0,0,1,3.51.69c3.16,1.09,6.61,2.41,8.12,5.27a10.71,10.71,0,0,1,.83,5.69C384.92,447.17,380.34,457.45,375.12,467.12Z"/><path class="cls-6" d="M77.63,72.2c21.14,66.79,77,115.7,133.5,160.33s118,85.17,162.55,140.65a345,345,0,0,1,26.73,38.5c26.84,44.69,43.81,94.78,53,145.62,3.42,18.93,6.06,38.64,16.64,55s27.67,29.43,34,47.77L458.14,526.55c-14.19-41.29-28.58-82.93-50.62-120.91-1.84-3.17-3.71-6.33-5.67-9.45C321.24,267.42,153.85,203.35,77.63,72.2Z"/><path class="cls-7" d="M208.42,471.15a1706.1,1706.1,0,0,0,52.47,336.1q102.89,33.51,205.73,67c53.59,17.44,197.93,96.33,246.21,60.45,24.64-18.3,44.25-76.73,62.77-104.39,15.14-22.64,32.32-42.67,41.51-69.38,26.8-78.14,12.68-186.38,13.13-267.67.59-108.73,4.42-222.66-8.43-330-1.72-26.43-4.82-55.26-18.08-75.7a517.26,517.26,0,0,0-158.48-7.31c-88.13,9.48-173.75,41.15-258.49,72.54-16.34,6.07-33.11,12.39-46.69,24.54-12.81,11.46-21.86,27.29-30.6,42.79Q273.1,284.43,236.74,348.7c-9.59,17-19.31,34.23-24.4,53.33C206.36,424.49,207.15,448.1,208.42,471.15Z"/><path class="cls-8" d="M320.54,180.16c5.18-21.82,12.24-45.85,29.91-56.44,9.18-5.5,19.91-6.43,30.3-6.79a354,354,0,0,1,108.6,13.2c58.35,16.49,112.5,47.65,166.07,78.56,10.34,6,20.93,12.14,28.7,21.89,7.32,9.2,11.6,20.92,15.74,32.38Q717,310.5,734.2,358c4.53,12.54,9.1,25.3,10.35,38.77,1.45,15.83-1.78,31.68-5.29,47.1a1166.11,1166.11,0,0,1-78,229.64l-182.58,27c-38.16,5.64-144.56,42.32-173,12.59-14.53-15.17-21.07-56.85-30.39-77.63-7.62-17-16.92-32.49-20.05-51.57-9.14-55.78,12.78-127.19,21.79-182.09C289.11,328.44,299.6,251.13,320.54,180.16Z"/><g class="cls-3"><path class="cls-2" d="M1012.49,12.5c-8.58-34.23-27.49-65-47.44-93.67S921.29-136,895.56-159.83c-51.85-47.94-111.36-86.33-171.11-123.53C691-304.21,654.71-319.09,619-335.64A165.32,165.32,0,0,0,595.1-344c-9-2.58-17.57-5.84-26.36-8.89-15.54-5.38-30.68-2.23-46.07,2.25A236.7,236.7,0,0,0,493.61-340c-13.34,1.84-25.2,9.26-35.73,17.43A225.24,225.24,0,0,0,424.29-291c-21.27,25.08-34.85,56-44.11,87.33a252,252,0,0,0-6.72,113c6.14,36.18,21.88,69.35,34.91,103.35,14,36.55,21.95,74.51,28.08,113.07,5.85,36.78,9.57,74.59,21,110.19,9.67,30,25.74,59.84,52.18,78.16,24.43,16.93,56.21,22.78,85.09,26.88,39.5,5.6,79.33,2.67,118.55-3.69a415,415,0,0,0,90.39-25.06c57-23.28,107.94-60,147.29-107.52C994.84,151.74,1030.11,82.76,1012.49,12.5Zm-6.92,50.19c-2.76,35.17-17.5,68.67-36.33,98.09A363.63,363.63,0,0,1,840.51,282.09C785.09,313,722,328.68,658.83,332.16A333.42,333.42,0,0,1,554.5,321.34c-28.39-7.55-51.1-22.18-67.1-47.2-18.1-28.31-25.6-61.38-31.12-94.09-6.21-36.79-10.58-73.91-18.83-110.33-8-35.21-21.61-67.86-34.69-101.35-13.14-33.66-22.07-67.88-21.54-104.26.51-35.18,9.11-69.75,23.38-101.84,12.65-28.41,30.95-51.53,54.63-71.56A122.63,122.63,0,0,1,478-322.88a5.24,5.24,0,0,0,5.5.19C487.69-325,492-327,496.39-329c.67-.06,1.32-.2,2-.22a5.18,5.18,0,0,0,4.43-2.55,222.91,222.91,0,0,1,25.07-8.66c7.07-2,14.62-4.05,22-4.44,8.64-.45,16.45,3.06,24.36,6s15.88,5,23.87,7.45c9.53,2.88,18.15,7.07,27.1,11.34,16.69,8,34,14.64,50.69,22.52,32.08,15.11,61.71,35.66,91.48,54.8,28.2,18.13,55.82,37.28,82,58.2,52.18,41.62,98.54,90.35,131.17,149C997.42-5.34,1008.31,27.71,1005.57,62.69Z"/><path class="cls-2" d="M911.87,4.73a171.25,171.25,0,0,0-23-72.08c-14.48-24.56-34.7-45.1-56.26-63.51-22.73-19.39-47.15-36.64-70.64-55.06-24.42-19.17-48.94-37.93-74.2-56-48.65-34.78-94.62-76.85-156.26-85.18-10.39-1.4-19.2.06-28.54,2.16a5.62,5.62,0,0,0-4-.74c-19.5,3.66-31.78,21.6-39.66,38.4-8.74,18.65-14.73,39.07-19.34,59.12-13,56.41-8.79,116.14-.2,172.88,8.29,54.7,20.47,109.78,44.54,159.91,22.83,47.51,58.09,94.66,108.42,114.75,47.51,19,101.35,12.54,149-2.56,46.14-14.65,91.57-37.82,124.51-74C900.3,105.27,916.26,55.18,911.87,4.73ZM878.19,108.05c-23.7,39.49-63.17,66.82-104.74,85-43.86,19.13-94.34,32-142.35,25A147.19,147.19,0,0,1,566,192c-21.48-15.55-39-37.31-53.25-59.48C484.2,88.09,468.71,37,458.37-14.41c-10.75-53.4-17.83-108.43-14.27-163A327.19,327.19,0,0,1,457.3-249c5.35-18.18,11.53-37.9,23.89-52.66a40.21,40.21,0,0,1,12.06-9.94,6,6,0,0,0,2.45-.07c6.06-1.39,12-3.51,18.13-4.56,7.78-1.32,15.83,0,23.5,1.42a186.43,186.43,0,0,1,41.5,13.14c24.92,11.24,46.66,27.6,68.34,44,24,18.2,49,35.12,73.13,53.2,22.76,17,44.78,35.09,67.44,52.28,42.21,32,86.8,67.33,104.75,119.2C908.28,12.62,903.05,66.6,878.19,108.05Z"/><path class="cls-2" d="M818.93-88.77a5.86,5.86,0,0,0-1.21-2.6c-.66-.8-1.27-1.64-1.91-2.47-.8-1.23-1.58-2.48-2.43-3.7A6.1,6.1,0,0,0,812-98.91c-8.29-11.48-15.78-23.7-26.69-32.89-15.8-13.31-37-20.59-55.48-29.33-38-17.93-74.69-43.89-117.62-47.85-34.91-3.21-66.76,11.28-90.13,36.84-24.37,26.65-32.53,63-27.61,98.23,2.87,20.51,11.2,39,18.51,58.17,7.66,20.07,13,40.88,21.13,60.81,14.23,34.92,33.94,66.49,63.22,90.77,26.66,22.12,61.5,39.63,97,37.06,35.17-2.55,67.65-22.57,89.5-49.68C808.41,92.76,826,53.29,833.4,15,840.21-20.54,837.15-57.5,818.93-88.77ZM789.32,95.41c-17.42,28.82-42.49,53.18-75.57,62.66-32.83,9.4-66-1-93.69-19.28-28.21-18.63-50.68-45.38-65.57-75.6-8.74-17.75-15.68-36.29-21.75-55.11s-13.39-36.71-20-55.2c-11.31-31.81-12.51-68.65,4.15-98.91,15.47-28.11,45.58-49.67,77.91-51.91,45-3.11,83.38,24.48,122,43.07,9.71,4.67,19.52,9.16,29.26,13.78s20.34,8.91,29,15.48c13,9.86,21.3,24.5,31,37.51C842.82-31.46,821.86,41.59,789.32,95.41Z"/><path class="cls-2" d="M776.92-30.64c-14.27-24-37.39-42.92-63.19-53.27-29.19-11.71-59.05-8.34-86.81,4.39a5,5,0,0,0-1.6.28C589.37-65,574-26.92,573.41,9.66A133.59,133.59,0,0,0,583.8,64.15c8.82,20.51,25.31,38.52,41.86,53.11,10,8.8,21.18,16.84,34.08,20.63,12.1,3.55,24.67,2.25,36.69-.92a118.35,118.35,0,0,0,59.36-36.67A144.67,144.67,0,0,0,787,38.59C792.73,14.36,789.73-9.11,776.92-30.64Zm1.38,55.35a135.56,135.56,0,0,1-22.3,57c-11.54,16.89-27.58,30.9-46.45,39-10.67,4.58-22.85,8.19-34.53,8.11-12.47-.09-23.63-5.77-33.46-13C611,93.18,588.19,61,585.11,22.6c-2.65-32.93,6.94-73.07,38.65-88.85a5.64,5.64,0,0,0,2.77-.6c24.16-12.39,50.42-17.4,76.74-8.91,21.7,7,41.4,21.19,55.66,38.9C772.82-19.61,781.45,2.36,778.3,24.71Z"/></g><g class="cls-3"><path class="cls-2" d="M557.86,1209.43c-13.48-66-36.23-129.81-65.72-190.31-56.1-115-138-221.59-243.81-295-25.35-17.59-52.28-33.86-80.91-45.51-32.27-13.12-66.61-19.73-101.13-23.5C.84,648-70.81,645-134.63,663.54a440.56,440.56,0,0,0-45.09,16.12c-2.38,1-4.76,1.91-7.14,2.86-54.37,14.82-94.35,64.33-129.63,105.17-47.51,55-88.35,114.58-125.79,176.81C-507.58,1073-574.1,1186-601.3,1311.09c-12.48,57.4-16.31,117.63-2.8,175.21,14.48,61.74,49.4,109.78,93,154.47,54,55.34,113.38,105.06,168,159.78,49.31,49.42,94.39,103.18,147.15,149.08,49.52,43.09,105.43,78.39,169.09,96.07,58.94,16.37,121.11,18,181.26,7.69,126.94-21.7,237.63-97.91,316.68-197.9,20.55-26,38.88-53.75,52.65-84,15-32.92,24.35-68.38,32.32-103.58,17-75.08,19.58-151.93,20.45-228.65C577.35,1362.32,573.28,1285,557.86,1209.43Zm-9.79,352.1A679.47,679.47,0,0,1,531,1669.59c-8,33.61-17,67.55-32.23,98.67-28.64,58.39-73.27,107.48-121.39,150.52a465,465,0,0,1-153.34,91.5C110.41,2050.74-16,2044-118.76,1978.14c-55.91-35.81-102.22-83.75-147.42-131.84-47.68-50.73-97.1-99-148.26-146.17-26.36-24.32-52.63-48.76-77.74-74.38-22.56-23-44.53-46.41-60.74-74.46-28-48.51-37.94-104.37-35.29-159.9,5.45-114,56.28-223.14,112-320.76,35-61.34,70.11-122.82,110.43-180.87C-330.07,838.32-289.48,786.4-243,744.07c10.36-9.44,21.39-18.27,33.33-25.41a12,12,0,0,0,8.67-2.79A58.14,58.14,0,0,1-190.06,709a107.51,107.51,0,0,1,19.36-5.63,10,10,0,0,0,7-4.64c2.27-.79,4.49-1.57,6.57-2.35a359.67,359.67,0,0,1,44.19-13.73c30.71-7.24,61.77-8,93.18-7.72,66,.53,135.82,3.68,195.89,33.9C285.32,763.77,371.78,859.6,434.25,963c69.72,115.4,108.29,243.34,116.2,377.87C554.75,1414.07,553.34,1488.42,548.07,1561.53Z"/><path class="cls-2" d="M479.79,1199.86c-5.79-46.43-22.69-89-43.1-130.84A662.53,662.53,0,0,0,365.5,954.27c-54.77-70.75-125.21-129.14-206.6-166.78C82,751.92-9.55,749.34-90.81,772.18c-14.4,4.05-29.54,9.44-40.38,20.18a12,12,0,0,0-1.39,2.08C-201,824.93-254.13,888.61-293.74,949.79c-52,80.32-96.4,182.1-87.64,279.77,4.79,53.41,23.83,103.83,45.74,152.34,22.72,50.29,50,98.26,79.65,144.76,50.65,79.42,107.26,168.45,201.23,200.23,97.61,33,203.33,1.85,293.76-38.09,45.15-19.94,92.36-41.35,132.7-70.06,40.6-28.9,66.53-66.2,79.37-114.43,13-48.73,18.2-100.66,24.55-150.63C482.09,1302.8,486.16,1251,479.79,1199.86ZM442.06,1420c-7,46.91-12.11,98.87-41,138.36-26.68,36.51-68.64,57.78-107.91,77.89-83.91,43-177,84.42-273.34,80-46.43-2.11-90.15-16.64-127.48-44.48-36.08-26.91-64.31-62.85-89.52-99.73-57.23-83.74-112.86-172.46-144.31-269.58-15.74-48.63-21.19-97.81-11.8-148.29,9-48.3,26.66-94.89,49.09-138.49,36.61-71.12,87.85-143.53,156.92-186.22a198.19,198.19,0,0,1,54.46-23.7,10.74,10.74,0,0,0,8.45-10.61c3.72-.95,7.39-1.78,10.85-2.58a435.32,435.32,0,0,1,50.13-8.09C18,779.93,59.08,781,99.57,791.38c81.06,20.84,155.72,76.3,212.17,136.58s100.39,133.26,129.05,210.48C474,1227.94,455.8,1328.43,442.06,1420Z"/><path class="cls-2" d="M227.12,919.1c-35.84-39.52-79.16-64.6-127-87-26.38-12.33-54.75-24.61-84.46-24-25.29.49-47.12,11.08-65.8,26.63-21.87,17.14-44.05,34.19-62.52,55-20.43,23.07-34.31,49.74-43.65,79-19.05,59.69-19.15,126.86.28,186.47,18.57,57,58.82,105,106.65,140.11,51,37.46,110.7,54.07,173.44,42,94.07-18.13,174.75-88.72,186.62-186C321,1066.88,283.05,980.77,227.12,919.1Zm-58.32,379c-56.29,25.09-120.39,26.94-175-3.41-47.26-26.25-88.44-66.59-113.53-114.63-29.45-56.4-33.57-126.69-18.26-187.78,7.87-31.4,20.71-61.1,42.33-85.51,12.56-14.18,26.89-26.54,41.62-38.43A10.71,10.71,0,0,0-47.44,865c18.17-19.09,39.64-33.45,66.89-32.87,24,.52,47.18,10.77,68.53,20.76,38.37,17.94,74.55,36.69,105.49,66.13,53.83,51.21,92.73,124,94.75,199.27C290.41,1200.12,242.36,1265.3,168.8,1298.08Z"/><path class="cls-2" d="M121,1111.45c-12.8-23.56-27.88-45-49.49-61.34-22.21-16.75-48.62-26-76-29.53-47.29-6.15-110.16,30.57-96.39,81.22a12.28,12.28,0,0,0,1.25,5.58c12.44,25.49,18.41,53.5,29.34,79.61,11.46,27.33,28.31,49.48,53.29,65.76s54.38,27.89,84.39,29.21c27.31,1.21,59.32-8.1,76-31.19C172.64,1210.12,141.38,1149,121,1111.45Zm5.35,121.22c-10.4,20.77-39.69,26.43-60.63,25.2-24.7-1.45-48.69-11.8-69.3-25-44.5-28.49-51.08-79.76-69.75-125a12.24,12.24,0,0,0-1.15-3.72c-22.39-41,38.44-64.2,69.89-59.54C18,1048,40,1056,58.21,1070c17.61,13.49,29.81,31.39,40.38,50.6,9.74,17.7,18.79,35.93,25,55.2C129.26,1193.11,135,1215.32,126.34,1232.67Z"/></g><path class="cls-9" d="M462.09,423.74c-9.19,4.52-17.2-1.32-25.12-4.72-3.54-1.52-7.42-6.82-8.13-11.06-1-5.93-2.53-9.7-7-13-5.22-3.88-6.58-10.35-4.12-17,1.56-4.22,1.67-7-1-11.18-5.64-8.64-2.55-20.08,7.52-30.56-4.36-8.75-1.85-16.6,3.46-23.75-8.82-14.31-7.2-23.74,6-35.24-2.81-14.88.78-23.22,12.71-30.56,1.67-1,2.76-3.63,3.7-5.75s.73-5.67,2.09-6.64c11.07-7.91,16.28-25.46,32-25.82,1.44,0,3.43-1.63,4.18-3.15,3.92-7.9,10.33-10.19,17.51-11.37,2-.33,4.74-1.38,5.52-3.09,4.36-9.46,11.37-10.9,19.6-9.85,1.6.2,3.88.1,4.84-1,7.71-9,15.39-9.18,25.88-1.81,12.1-15,22.2-14.82,34.88.72,16.27-6.4,28-.75,34.64,16.65,15.69,1,21,7,21.85,23.92,5.06,1.4,9.82,2.89,14.64,4a8.67,8.67,0,0,0,5.12-.52C685,217.6,690,220,694.3,233.52c12.88.66,22.35,7.58,18.67,24.11l11.27,16.9c-.5.46-1,.91-1.52,1.36,13.71,7.11,15.54,13.14,9.62,29.22l5.44,20c10.5,9.66,11.48,16.24,2.42,29.59,4.7,10.95,3.56,15.62-5.05,24-1.65,1.62-2.13,4.84-3.12,7.34-.09.21.13.65,0,.78-6.72,8.36-3.94,20.66-9.31,29.57a3.31,3.31,0,0,1-.4.66c-5.19,5-8.67,12-13.15,17.32-5.36,6.33-12.46,11-18.1,17.74-3.68,4.41-9.64,6.42-14.74,9.12-2,1.07-4.78,2.13-6.67,1.39-9-3.5-19.58-1-27.05-9.75v-33.1c-2.3-1.77-6.42-3.53-8.65-6.93-4.38-6.71-10.28-7.79-16.6-7.94-3.91-.09-7.88,1.38-11.75,1.05-2.62-.22-5.12-2.34-7.67-3.62,2.41-1.34,4.84-3.88,7.21-3.81,8.5.27,17,1.43,25.47,2.25,2.11-4.48,4.61-9.76,7.42-15.71-13.36-7.19-14.86-19.13-10.1-30.78-4.51-7.93-11-14.18-11-20.43,0-11-3.84-17.12-10-24.74-5-6.22-8-12.45-16.37-11.18-1.68.25-3.87-1.77-5.45-3.28-4.06-3.86-7.6-5.16-12-.15-2,2.22-5.84,4.34-8.16,3.62-9.91-3.1-16.64,3.95-24.9,7.33s-13.29,8.5-19,15.36c-5.93,7.1-14.15,11.09-17.42,21.76-1.21,3.93-7.25,6-11.17,8.71-1.14.78-3.26.5-3.79,1.5-4.87,9.19-12.16,9.42-21.11,6.9,0,4.12.21,7.53-.05,10.9-.44,5.78-.19,12-2,17.18-2.33,6.56-2.55,11.95.43,18.22C469.66,413.73,468.3,418.49,462.09,423.74Z"/><path class="cls-10" d="M668,617.37a198.37,198.37,0,0,1-8.75,43.35c-4.16,12.61-10.68,24.17-21.71,32-10.87,7.68-24.35,11-37.55,10.87-14.54-.18-29.17-4.16-42.26-10.34a83.29,83.29,0,0,1-30.64-25c-17-22.14-24.07-49.52-34.75-74.84-5.43-12.84-12.08-25.15-20.76-36.1a137.59,137.59,0,0,0-28.85-27.19,1.89,1.89,0,0,1,.94-3.48,187.42,187.42,0,0,0,21.5-3c11.67-2.45,23.25-6.78,32.09-15a42.58,42.58,0,0,0,11.58-17.37c1,1,1.94,2,2.92,3,8.91,8.81,18.64,16.84,29.64,22.91a89.42,89.42,0,0,0,22,8.73c8.2,2,16.73,2.38,25.14,2.58h1.22a108.16,108.16,0,0,0,24.83-3.32c.89,3.42,1.85,6.84,2.91,10.22h0c13.18,11.83,30.21,18,46.65,23.88a1.87,1.87,0,0,1,1,.88,1.55,1.55,0,0,1,.67,1.11c.61,3.65,1.13,7.3,1.57,11A212.29,212.29,0,0,1,668,617.37Z"/><path class="cls-10" d="M683.46,906.59c-2.36,8.36-8.06,14.51-15.24,19.12a169.49,169.49,0,0,1-24.5,12,40.26,40.26,0,0,1-27,0c-9.25-3.24-17.57-8.7-25.82-13.88q-26.22-16.49-51.55-34.34c-34-23.81-66.9-49-99.73-74.31-16-12.34-32.45-24.37-46.54-39-13.54-14-25.16-29.78-36.35-45.71-21.38-30.41-46.07-63-46.6-101.88A98.47,98.47,0,0,1,314,599.62c2.54-8.7,6.11-17.73,12.28-24.53,6.34-7,15.63-10.5,24-14.31q14.21-6.46,28.69-12.28t29.14-10.89c4.39-1.51,9-3.36,13.55-1.59,4,1.54,7,4.89,10.08,7.75,13.42,12.63,26.93,25.87,35.56,42.39,15.4,29.39,13.95,63.24,18.37,95.44a190.65,190.65,0,0,1-19.19-22.68,52.68,52.68,0,0,0-5.17-6.52,1.19,1.19,0,0,0-1.92,1.33c6.72,14.08,17.17,26.24,27.85,37.67q7.72,8.43,15.48,16.86c22.14,24.13,44.3,48.26,67.54,71.33,1.21-12.86,2.8-25.67,4.86-38.42,2.16-13.47,4.94-26.83,7.87-40.15s5.74-26.73,6.72-40.38.4-27.56-.39-41.31c-.76-13.2-1.57-26.39-2.36-39.58-5.45-7.93-13.62-13.75-22.52-17.36-11.06-4.49-23.1-5.85-34.93-6.41-5.36-.25-10.81-.17-16.06-1.38a22.25,22.25,0,0,1-12.85-8.11c-3.47-4.46-6-9.71-8.58-14.71q-4.2-8.07-7.92-16.39c-4.25-9.53-10.41-21.39-5.17-31.66-1.85-5.62-1.62-11.76-1.06-17.66.72-7.56,1.54-15.12,2.31-22.68l1.2-11.65c.31-3.12.27-6.85,2.7-9.2,5.05-4.89,10.9,2.72,13.09,6.85a40.11,40.11,0,0,1,3.54,10.26c2.43-3.27,5.75-5.32,10.07-3.43,3.05,1.32,4.92,4.18,6.25,7.1a71.51,71.51,0,0,1,3.82,10.49c1,3.48,1.43,7.26,3.23,10.43s5.11,5.95,7.76,8.65a110.68,110.68,0,0,0,8,7.9c2.92,2.43,6.38,3.74,9.85,5.17a95.62,95.62,0,0,1,15.14,7.84,1.68,1.68,0,0,1,1.15-.33c5.26.34,10.55.55,15.8,1.06A61.8,61.8,0,0,1,596.67,498c4.32,1.54,8.59,3.24,12.81,5a90,90,0,0,1,11.39,5.42c7,4.25,12.1,11.63,16,18.68,7.47,13.7,10.41,29.17,11.46,44.61a2,2,0,0,1,.38.74q4.17,14.49,7.69,29.16c9.63,40.1,15.71,81,19.75,122s6.09,82.52,7.63,123.86c.39,10.45.73,20.92,1.09,31.37C685.12,888.06,686,897.64,683.46,906.59Z"/><path class="cls-10" d="M697,408.07c-3.3,6.73-8.26,12.18-12.56,17.81-2.46,3.2-4.8,6.78-7.63,9.46-2,1.89-4.39,3.09-6.74,2.4-1,5-2,9.92-3.09,14.84a173.9,173.9,0,0,1-6.13,22.59,60.31,60.31,0,0,1-11.1,18.58c-9.41,10.84-19.55,21.08-31.15,27.71a83.56,83.56,0,0,1-79,0c-11.6-6.63-21.74-16.87-31.14-27.71a59.73,59.73,0,0,1-11.1-18.58c-2.69-7.22-4.44-14.93-6.15-22.59-1.09-4.92-2.11-9.88-3.08-14.84-2.36.69-4.74-.51-6.74-2.4-2.83-2.68-5.17-6.26-7.64-9.46-4.3-5.63-9.24-11.08-12.55-17.81-3.49-7.09-3.49-15.17-2.5-23.22a115.91,115.91,0,0,1,2.19-12.37c.78-3.4,1.65-7,3.62-9.63,3.57-4.74,9-4,13.64-2.53-.12-1.71-.2-3.44-.3-5.16a1.77,1.77,0,0,1-.08-.46c-.06-1.25-.12-2.49-.16-3.74,0-.43-.05-.85-.07-1.28a2.3,2.3,0,0,1,.05-.66c0-.58,0-1.18,0-1.76.2-4.76,1.26-9.47,4.11-13.38,2.6-3.55,6.05-6.27,9-9.47,3.34-3.57,4.88-7.67,5.92-12.4s1.87-9.39,4.41-13.52c5-8.18,13.95-12.62,22.75-15.59,5.08-1.72,10.27-3.09,15.32-4.86a142,142,0,0,0,15.36-6.38c4.69-2.27,9.32-4.66,14.59-5.09s10.88,1,16,2.59a98,98,0,0,1,14.75,6c4.52,2.29,8.72,5.18,13.3,7.37a24.34,24.34,0,0,0,7,2.28,28.29,28.29,0,0,0,8.06-.26c4.85-.66,9.72-1.31,14.41.49,7.73,3,12.77,9.9,18.63,15.37,6.39,6,15.81,8.82,19.12,17.59,1.8,4.75,1.88,10.17,1.81,15.18a88.91,88.91,0,0,1-1.64,15.44,2.49,2.49,0,0,1,.15,1c-.17,3.55-.38,7.1-.61,10.64,4.61-1.42,10.06-2.21,13.63,2.53,2,2.6,2.84,6.23,3.64,9.63a118.45,118.45,0,0,1,2.18,12.37C700.48,392.9,700.48,401,697,408.07Z"/><path class="cls-10" d="M768.21,708.91c-2.59,32.76-7.29,65.39-11.3,98-2,16-3.77,32.11-6.18,48.1-2.32,15.3-5.15,30.85-10.4,45.46-2.18,6.07-5,12-9.4,16.83-4.65,5.12-10.9,8.13-17.42,10.19-14.85,4.66-30.71,6.82-46.24,7.29a1.88,1.88,0,0,1-.95-3.47,28.1,28.1,0,0,0,6.25-4.51c8.09-7.79,11.33-19.15,12.27-30,.56-6.54.45-13.11.42-19.68,0-6.21-.31-12.85,2.07-18.71,2.14-5.28,5.94-9.75,8.73-14.69A93.46,93.46,0,0,0,703,828a122.08,122.08,0,0,0,6.11-33.87c1.14-25.15-4.29-49.88-10.51-74.1-6.52-25.36-13.35-50.52-16.58-76.58-2.85-23.13,1.76-77.87,1.81-78.15a1.66,1.66,0,0,1,.37-.79,1.85,1.85,0,0,1,2.19-1.07c3.65,1,7.25,2.21,10.84,3.46A213.27,213.27,0,0,1,737.89,586c10.86,6.62,21.67,15,26.86,27,3,7,3.8,14.54,4.25,22q.72,12.27.87,24.58Q770.19,684.3,768.21,708.91Z"/><path class="cls-11" d="M500.24,441.71c1.48,7.1.63,14.41.6,21.48a47.55,47.55,0,0,0,.8,10.44,25.78,25.78,0,0,0,4,9.35,63.14,63.14,0,0,0,6.7,8q3.66,3.92,7.07,8.06a200.37,200.37,0,0,1,12.86,17.27l-.28.25a200.82,200.82,0,0,1-15.39-15.06q-3.65-3.93-7.05-8.09a75.71,75.71,0,0,1-6.44-8.9,28.61,28.61,0,0,1-3.84-10.49,49.67,49.67,0,0,1-.28-10.95c.55-7.19,1.78-14.24.9-21.35Z"/><path class="cls-11" d="M511.85,535.79c1.19,0,2.35.15,3.52.23s2.31.23,3.44.4,2.37,0,3.39.58a7,7,0,0,1,1.38.89,8.76,8.76,0,0,0,1.45,1l.13.35a2.85,2.85,0,0,1-1.94,1.25,6.18,6.18,0,0,1-2,.11c-1.19,0-2.17-.84-3.24-1.31s-2.12-1-3.17-1.48-2.08-1.06-3.1-1.66Z"/><path class="cls-11" d="M523,527.46a61.85,61.85,0,0,0-10.87-10.7c-3.95-3.21-8-6.38-11.94-9.77a129.73,129.73,0,0,1-11.37-10.47c-1.74-1.91-3.44-3.8-5.07-5.85a26.51,26.51,0,0,1-4.12-6.73l.31-.2c1.83,1.84,3.74,3.46,5.69,5.1s3.92,3.32,5.82,5c3.82,3.42,7.13,7.33,10.77,10.92s7.39,7,11.15,10.58a58.91,58.91,0,0,1,9.94,11.88Z"/><path class="cls-11" d="M481.31,489c1.81,3.59,3.65,7.15,5.66,10.61s4,6.91,6.21,10.24,4.72,6.42,6.74,9.84a102.75,102.75,0,0,1,5.81,10.61l-.3.23a47.15,47.15,0,0,1-8.58-8.71c-2.53-3.19-4.32-6.89-6.24-10.45s-3.67-7.23-5.31-10.93-3.07-7.47-4.33-11.3Z"/><path class="cls-11" d="M673.62,405.22c.24,2.71.32,5.42.41,8.14s0,5.45-.1,8.17,0,5.48-.61,8.15a26.27,26.27,0,0,1-3,7.76l-.36-.06a34.73,34.73,0,0,1-.38-8.22c.1-2.69.9-5.28,1.34-7.93s.82-5.31,1.2-8,.73-5.35,1.08-8Z"/><path class="cls-11" d="M479.17,433.84l3.41-10.35.85-2.59c.15-.43.27-.84.45-1.31a2.57,2.57,0,0,1,1-1.33,2.41,2.41,0,0,1,1.72-.2,6.67,6.67,0,0,1,1.39.46,22.6,22.6,0,0,1,2.53,1.21,23.6,23.6,0,0,1,8.1,7.67,23,23,0,0,1,3.61,10.67l-1.95-.51a7.32,7.32,0,0,1,5.13-3.29,10,10,0,0,1,5.93.86,11.81,11.81,0,0,1,4.41,4,19.87,19.87,0,0,1,2.43,5.18c1.12,3.61,1.43,7.23,2.2,10.56a21.57,21.57,0,0,0,1.59,4.71,22.84,22.84,0,0,0,2.69,4.18c2.11,2.63,4.7,5.11,7.16,7.7l7.42,7.65a18.79,18.79,0,0,0,3.73,3,24.38,24.38,0,0,0,4.5,1.93l10.13,3.33,10.13,3.22c3.38,1,6.77,2,10.15,3,6.77,2,13.61,3.51,20.59,5.26s14,3.95,20.44,7.42,12.3,8.27,16,14.49l-.4.29a43.89,43.89,0,0,0-16.94-12c-6.38-2.76-13.2-4.35-20.12-5.77L587,501.17c-3.51-.77-7-1.59-10.49-2.57s-6.9-2.05-10.3-3.18-6.78-2.31-10.14-3.55l-10-3.72a28.25,28.25,0,0,1-5.22-2.46,23,23,0,0,1-4.42-3.81l-7.24-7.9c-2.38-2.65-4.89-5.16-7.16-8.16a26.2,26.2,0,0,1-3-4.87,25.61,25.61,0,0,1-1.67-5.44c-.72-3.63-.93-7.17-1.86-10.4a16.8,16.8,0,0,0-1.95-4.52,9.2,9.2,0,0,0-3.32-3.22,7.74,7.74,0,0,0-4.46-.81,5.07,5.07,0,0,0-3.68,2.12l-1.83,2.78-.13-3.28a21.16,21.16,0,0,0-3-9.88,22.13,22.13,0,0,0-7.3-7.45,19.9,19.9,0,0,0-2.34-1.21c-.79-.4-1.63-.68-2.1-.42s-.75,1.18-1.08,2l-.95,2.55L479.64,434Z"/><path class="cls-11" d="M484.57,518.67,501,545.36a24,24,0,0,0,4.68,5.9,16.35,16.35,0,0,0,6.65,3.14,42.15,42.15,0,0,0,7.58,1c2.58.15,5.16.21,7.76.19,5.19,0,10.43-.18,15.72,0,2.65.07,5.3.29,8,.62a52.93,52.93,0,0,1,7.9,1.68,47.7,47.7,0,0,1,14.38,7.38c2.18,1.56,4.25,3.23,6.27,4.93l3,2.58c1,.89,1.94,1.66,3,2.69a11.4,11.4,0,0,1,1.53,1.83,8,8,0,0,1,1,2.37,31.2,31.2,0,0,1,.63,4.17l.87,7.81c.58,5.22,1.07,10.44,1.5,15.68s.67,10.48.87,15.74c0,2.63.11,5.25.12,7.88s0,5.27-.1,7.9c-.58,21-3.26,42.08-9.12,62.23l-.49-.11c1.59-10.34,2.75-20.7,3.54-31.06s1.14-20.75,1.1-31.13c0-5.19-.11-10.37-.23-15.56l-.24-7.79c-.13-2.6-.22-5.19-.37-7.79-.26-5.19-.56-10.39-1-15.58l-.65-7.79a32.53,32.53,0,0,0-.42-3.58,3.68,3.68,0,0,0-.49-1.22,6.91,6.91,0,0,0-1-1.2c-7.43-6.93-15.21-14.24-24.8-17.29a50.7,50.7,0,0,0-7.37-1.76c-2.52-.37-5.07-.64-7.65-.78-5.15-.29-10.37-.23-15.62-.36-2.63-.07-5.27-.21-7.9-.45a45.13,45.13,0,0,1-7.91-1.29,18.09,18.09,0,0,1-7.28-3.75,25.08,25.08,0,0,1-4.83-6.46l-15.61-27.19Z"/><path class="cls-11" d="M664.47,641.84l-4.36-19-4.4-18.94c-1.48-6.3-3.43-12.51-4.43-18.91-.52-3.2-1-6.4-1.37-9.64a96.15,96.15,0,0,1-.69-9.81l.49-.11a85,85,0,0,1,3.62,9.16c.55,1.54,1,3.1,1.49,4.65l1.32,4.7c1.73,6.28,2.42,12.77,3.48,19.18s2,12.83,2.94,19.27,1.72,12.88,2.4,19.34Z"/><path class="cls-12" d="M622.94,459.37c-2.45,3-4.89,6.11-7.34,9.17a88.2,88.2,0,0,1-6.5,7.7,19.36,19.36,0,0,1-6.75,4.55c-3.13,1.17-6.54,1-9.81.7a57.48,57.48,0,0,0-10-.21c-3.24.25-6.46.68-9.7.63a24,24,0,0,1-8.35-1.51,20.74,20.74,0,0,1-7.13-5.26A87.39,87.39,0,0,0,543,462.92a1.87,1.87,0,0,1-.62-2.47c-.17-.85,9.78-3.05,13.37-5.34,3.28-2.09,5.73-5.21,9-7.26,6.28-3.88,13.93-2.27,19.61,1.87a20.16,20.16,0,0,1,7.76-5,11.84,11.84,0,0,1,9.86,1.56c3.2,2,6,4.36,9.41,6.09a44.08,44.08,0,0,0,10.7,3.83C623.61,456.58,623.75,458.34,622.94,459.37Z"/><path class="cls-10" d="M553.59,463.53c5.06-.44,9.83-1.82,15.13-1.9a32.65,32.65,0,0,1,7.79,1,37,37,0,0,0,7.07,1.18,13,13,0,0,0,3.27-.22,10.5,10.5,0,0,0,3-1.13,32.1,32.1,0,0,1,3.6-1.72,12.42,12.42,0,0,1,4.17-.68c5.26-.06,10,1,15.1.32a23.73,23.73,0,0,1-7.43,1.91c-2.54.28-5.08.4-7.46.68a12.12,12.12,0,0,0-3.19.81,33,33,0,0,0-3.08,1.77,13.17,13.17,0,0,1-4,1.64,16.5,16.5,0,0,1-4.23.35c-5.6-.34-10.11-2.63-14.81-3S558.6,464.64,553.59,463.53Z"/><path class="cls-13" d="M693,469c-.82,6.53-2.21,15.13-9.53,17.37a7.53,7.53,0,0,1-8.3-2.38c-2.18-2.78-2.78-6.65-3.34-10-2-11.66-1-23.42.84-35,.28-2.75.61-5.51,1-8.26.25-1.77.47-3.57.85-5.33a7.68,7.68,0,0,1,2.05-4,.64.64,0,0,1,1,.27,14,14,0,0,1,.6,5.73c-.09,1.9-.23,3.82-.4,5.75-1.35,14.73-4.63,30.18,1.69,44.06a6.26,6.26,0,0,0,1.39,2.24,2,2,0,0,0,2.51-.05c1.53-1.09,1.88-3.44,2.27-5.15a61.5,61.5,0,0,0,1.55-12.68,83.59,83.59,0,0,0-.8-12.83c-.58-4.17-1.56-8.22-2.44-12.34a7,7,0,0,1-.15-2.65,3.4,3.4,0,0,1,1.23-2.19,2.54,2.54,0,0,1,3.71.49,16,16,0,0,1,2.23,5.2,49.94,49.94,0,0,1,1.37,6A87.19,87.19,0,0,1,693,469Z"/></g></g></svg>