<svg xmlns="http://www.w3.org/2000/svg" viewBox="0 0 1080 1080"><defs><style>.cls-1{isolation:isolate;}.cls-11,.cls-13,.cls-17,.cls-18,.cls-2,.cls-21,.cls-9{mix-blend-mode:multiply;}.cls-3{fill:#ffd2b3;}.cls-4,.cls-9{fill:#f2d1b9;}.cls-5{fill:#5a5d4a;}.cls-6{fill:#515443;}.cls-7{fill:none;}.cls-8{fill:#bf6e16;}.cls-10,.cls-11{fill:#9e5d45;}.cls-11{opacity:0.46;}.cls-12,.cls-18{fill:#e58e1a;}.cls-13{fill:#834d2a;opacity:0.47;}.cls-14{fill:#f1a63c;}.cls-15,.cls-16,.cls-17{fill:#322f36;}.cls-16{mix-blend-mode:screen;}.cls-17{opacity:0.43;}.cls-18{opacity:0.39;}.cls-19{fill:#e69026;}.cls-20,.cls-21{fill:#bb6b27;}.cls-21{opacity:0.49;}.cls-22{fill:#f8aa36;}.cls-23{fill:#793533;}.cls-24{fill:#9a413a;}.cls-25{fill:#60262c;}</style></defs><g class="cls-1"><g id="Layer_1" data-name="Layer 1"><g class="cls-2"><rect class="cls-3" x="-230.07" y="-63.69" width="1522.22" height="1210"/></g><path class="cls-4" d="M866.74,505.76A1704.11,1704.11,0,0,1,752.83,841.32l-52.74,7.82L628,859.78q-24.09,3.59-48.2,7.14-46.87,6.92-93.76,13.87c-20.26,3-53.7,12-90.07,20.13-63.67,14.26-136.3,25.92-162.78-1.74C212,877,202.4,816.12,188.78,785.76c-11.14-24.86-24.72-47.49-29.31-75.35-13.34-81.52,18.7-185.88,31.86-266.11C209,337,224.25,224.05,254.89,120.34c6.13-25.78,14-53.68,30.5-71.61a57.81,57.81,0,0,1,13.2-10.85c13.41-8.07,29.1-9.42,44.26-10a519.4,519.4,0,0,1,158.7,19.3C586.81,71.31,666,116.87,744.25,162c15.09,8.71,30.57,17.75,41.91,32,10.72,13.46,17,30.57,23,47.31q25.11,69.51,50.18,139c6.62,18.36,13.3,37,15.12,56.67C876.61,460.06,871.88,483.25,866.74,505.76Z"/><path class="cls-5" d="M537.81,407.7c.92,4.3,3.32,8.17,5.82,11.87,22.08,32.58,54.28,64.79,96.27,71.43a97.44,97.44,0,0,0,47.93-4.61c1.84-3.18,3.71-6.33,5.67-9.45,80.61-128.78,248-192.84,324.22-324-16.26,4.54-43.67,4.36-53.15,4.48-15.94.21-32,3.88-47-1.24-4.09-1.39-8.83-2.93-12.54-.77a12.19,12.19,0,0,0-4.16,4.86c-8.91,15.86-10.63,34.1-9.8,51.78.43,9,1.5,18,2.66,26.91.38,2.94,2.9,10.36,1.66,13-1.33,2.85-7.7,3-10.64,3.39-6.83.8-14.11,1-20.2-2.07-14.83-7.36-9-23.32-8.64-35.67a290.61,290.61,0,0,1,2.49-30.33c.85-6.32,3.82-15-.24-20.94-7.85-11.45-39.46-6.88-51.51-6.09-15.12,1-30.88,3.69-42.75,12.64a55,55,0,0,0-12.22,13.22c-24.3,36-7.35,86.09,7.05,122.7,3.51,8.93,7.48,17.93,7.9,27.45.8,18.14-13.16,35.92-31.72,40.37-5.08,1.22-22.33-39.75-24.11-44.41a193,193,0,0,1-11.92-51.17,189,189,0,0,1-.61-25.63c.3-6.86,4.38-18.64,1.66-25-4.94-11.61-41.26,7.7-50,11.21-9.38,3.76-19,7.68-26.26,14.46-7.88,7.36-12.21,17.38-16.34,27.11-4.56,10.75-9.15,21.61-11,33.05-7,43.2,37.59,74.91,65.89,102.17,4.91,4.72,10,11.89,6,17.34-2.76,3.79-8.42,4.24-13.26,3.89-24.63-1.79-47.51-15-62.89-33.32-11.36-13.55-18.85-29.73-23-46.51-1.7-6.78-.05-20.28-9.34-14.39-6.69,4.24-11.51,11.81-14.5,18.71-4.21,9.73-5.66,20.3-7.07,30.73C537.49,399.13,536.91,403.49,537.81,407.7Zm245.9-87.77a129.86,129.86,0,0,1-4-53.92,18,18,0,0,1,2.23-7.42c3.79-5.91,12.42-6.49,19.71-6.41,1.57,0,3.36.12,4.38,1.27a5,5,0,0,1,1,2.54c3.71,19.91,11.49,44.16,9.49,64.42C814.63,339.25,788.39,335.93,783.71,319.93ZM677.93,371.65q-22.62-29.25-42.86-60.06c-3-4.55-6-9.33-6.45-14.67-.86-10.13,15-40,29.67-28.2,6.56,5.29,4.71,21.42,5.24,28.82.8,11.34,1.54,22.75,4.75,33.76,4.41,15.14,13.27,29.06,15.81,44.58C681.46,375.88,679.49,373.67,677.93,371.65Z"/><path class="cls-5" d="M694.94,492.43c2.08,17.65,4.57,35.37,11,52,9.94,25.63,28.66,47.23,47.63,67.78,10.13,11,20.95,22.18,35.19,27.71,12.66,4.9,26.77,4.83,40.44,4.68,15.79-.17,32.48-.58,45.84-8.54,5.36-3.2,9.9-7.46,14.39-11.68l55.2-51.92a268.38,268.38,0,0,1-109.32-40.87c-19-12.48-37-28.34-44.38-49.14-3-8.29-3.54-18.74,3.38-24.53,47.84,18,73.86,74.95,124.59,83.06,15.29,2.45,31-.07,46.09-3.28,4.38-.93,8.86-2,12.58-4.35,4.25-2.72,7.12-7,9.65-11.2a148,148,0,0,0,14.57-32.82c-36.7,2.27-72.67-9-107.53-20.11-13.08-4.17-27-8.94-35-19.61s-5.68-29,7.49-32.92c.79-.23,13.8,13.09,15.51,14.43A138.19,138.19,0,0,0,900,443a152.63,152.63,0,0,0,84.5,19.13c12-.83,31.5-2.16,40.93-9.92,7.82-6.43,8.7-17.44,9-27.25q.52-16.55,1-33.11c.21-6.35,1.67-8.26-4.73-9.44-5.1-.93-11.55.17-16.76.24l-69.9,1c-9.08.13-19.35-.22-25.42-6.61-6.48-6.82-5.19-17.29-3.5-26.32a10.28,10.28,0,0,1,1.84-4.93c3.52-4.22,10.57-1.39,15.45,1.37,3-.13,10.14,5.1,13.18,6.31a115,115,0,0,0,15.14,4.84,123.53,123.53,0,0,0,62.07-.92c11.63-3.24,16.28-8.63,24.21-17.11a46.52,46.52,0,0,0,5.43-6.58c5.49-8.68,4.28-19.62,2.66-29.63-1.4-8.63-2.12-18.84-5.78-26.86-4.49,3.41-7.72,9.21-12.37,13a64.08,64.08,0,0,1-53.11,12.93c-8.67-1.94-17.19-6-22.29-12.94s-5.92-17.06-.3-23.63c7.51-8.78,21.57-7.74,33.5-7.67s23.12-3.2,34.84-4.09c6.95-.53,17.28-.34,19.25-8.85a14.81,14.81,0,0,0-.19-5.85c-3.3-18.93-11.56-36.57-18.5-54.46-1.74-4.48-3.42-9-4.92-13.54-1.06-3.24-5.06-21.42-7.55-19.17-21.14,66.8-77,115.71-133.5,160.34s-118,85.17-162.55,140.64A344.2,344.2,0,0,0,694.94,492.43Zm152-112.87a49.79,49.79,0,0,1,1.17-14.85,4.4,4.4,0,0,1,1.69-3,5,5,0,0,1,2.62-.48l16.39-.12a9.57,9.57,0,0,1,4.2.61,8.68,8.68,0,0,1,3.31,3.63c4.4,7.24,26.52,34.27,18.57,41.17S861,395.21,854,390.65c-2.13-1.38-4.31-2.89-5.57-5A13.91,13.91,0,0,1,846.91,379.56ZM732.91,491c-.8-1.9-1.57-4-1-5.94s2.12-3.24,3.66-4.48q5.51-4.46,11.33-8.54a5.24,5.24,0,0,1,3.46-1.31,4.92,4.92,0,0,1,3,2.18c5.18,6.62,8.29,14.47,12.78,21.52,5.65,8.85,13.39,16.3,21.06,23.66,11.62,11.15,27.5,22.39,36.52,35.54,9.13,13.32-10.15,18.75-20.74,12.95-3.18-1.74-5.69-4.35-8.37-6.72-5.26-4.63-11.27-8.4-16.94-12.56A136.15,136.15,0,0,1,732.91,491Zm-23.14,26.09a10.65,10.65,0,0,1,.82-5.7c1.51-2.85,5-4.18,8.13-5.27a8.53,8.53,0,0,1,3.5-.68c2,.18,3.57,1.7,4.76,3.24,4,5.28,5.86,11.78,7.59,18.1,1.78,6.53,10.3,23.92,6,30.14-6.54,9.55-17.49-3.66-20.39-9C715,538.2,710.43,527.91,709.77,517.06Z"/><path class="cls-6" d="M1017.72,152.94c-21.14,66.8-77,115.71-133.5,160.34s-118,85.17-162.55,140.64a344.2,344.2,0,0,0-26.73,38.51c-26.84,44.69-43.81,94.78-53,145.62-3.43,18.93-6.07,38.64-16.65,55s-27.67,29.42-34,47.77q23-66.78,45.91-133.55c14.2-41.29,28.58-82.92,50.62-120.9,1.84-3.18,3.71-6.33,5.67-9.45C774.11,348.16,941.5,284.1,1017.72,152.94Z"/><path class="cls-7" d="M293.75,191.07c5.18-21.81,12.24-45.84,29.91-56.43,9.18-5.51,19.91-6.44,30.3-6.8A354.37,354.37,0,0,1,462.56,141c58.35,16.49,112.5,47.65,166.07,78.56,10.34,6,20.93,12.15,28.69,21.9,7.33,9.2,11.61,20.91,15.75,32.37q17.16,47.55,34.34,95.08c4.53,12.55,9.1,25.3,10.34,38.78,1.46,15.82-1.77,31.68-5.28,47.09a1166.43,1166.43,0,0,1-78,229.65l-182.58,27c-38.16,5.64-144.56,42.32-173,12.6-14.53-15.17-21.07-56.85-30.39-77.64-7.63-17-16.92-32.49-20.05-51.56-9.14-55.79,12.78-127.19,21.79-182.1C262.31,339.36,272.81,262.05,293.75,191.07Z"/><g class="cls-2"><path class="cls-4" d="M584-27.66c-13.47-66-36.22-129.81-65.72-190.31-56.1-115-138-221.59-243.81-295-25.34-17.58-52.27-33.86-80.91-45.5-32.26-13.12-66.61-19.73-101.12-23.5C27-589.08-44.63-592.06-108.45-573.55a442.9,442.9,0,0,0-45.09,16.11c-2.37,1-4.76,1.92-7.14,2.87C-215-539.75-255-490.24-290.31-449.4c-47.51,55-88.35,114.58-125.79,176.81C-481.4-164.06-547.92-51.12-575.12,74c-12.48,57.4-16.31,117.63-2.8,175.21,14.48,61.74,49.4,109.78,93,154.47,54,55.33,113.37,105.06,168,159.78,49.32,49.42,94.39,103.17,147.15,149.08C-120.27,755.63-64.36,790.93-.7,808.61c59,16.37,121.12,18,181.26,7.68,127-21.69,237.63-97.9,316.68-197.89,20.55-26,38.88-53.75,52.65-84,15-32.92,24.35-68.38,32.33-103.58,17-75.08,19.57-151.93,20.44-228.65C603.53,125.23,599.47,47.92,584-27.66Zm-9.79,352.1A679.47,679.47,0,0,1,557.19,432.5c-8,33.61-17,67.55-32.23,98.67-28.63,58.39-73.26,107.48-121.38,150.52a465.11,465.11,0,0,1-153.35,91.5c-113.64,40.46-240,33.67-342.81-32.14C-148.49,705.24-194.8,657.3-240,609.21c-47.68-50.73-97.1-99-148.26-146.17-26.36-24.32-52.62-48.76-77.74-74.38-22.56-23-44.53-46.41-60.74-74.46-28-48.51-37.94-104.37-35.29-159.9,5.45-114,56.28-223.14,112-320.76,35-61.34,70.11-122.82,110.43-180.87,35.72-51.44,76.31-103.36,122.78-145.7,10.36-9.43,21.39-18.26,33.33-25.4a12.05,12.05,0,0,0,8.68-2.79,57.73,57.73,0,0,1,10.94-6.86,107.38,107.38,0,0,1,19.37-5.63,10,10,0,0,0,7-4.64c2.27-.79,4.49-1.57,6.58-2.35a359,359,0,0,1,44.18-13.73c30.72-7.24,61.77-8,93.18-7.72,66,.53,135.82,3.68,195.89,33.9C311.5-473.32,398-377.49,460.43-274.08c69.72,115.4,108.3,243.34,116.2,377.87C580.93,177,579.52,251.32,574.25,324.44Z"/><path class="cls-4" d="M506-37.23c-5.79-46.43-22.68-89.05-43.1-130.84a662.53,662.53,0,0,0-71.19-114.75C336.92-353.57,266.47-412,185.09-449.6c-76.93-35.57-168.46-38.15-249.72-15.31-14.4,4.05-29.54,9.44-40.38,20.18a12,12,0,0,0-1.39,2.08c-68.44,30.49-121.55,94.17-161.16,155.35C-319.57-207-364-105.2-355.2-7.53c4.79,53.41,23.83,103.83,45.75,152.34,22.71,50.29,50,98.26,79.64,144.76C-179.15,369-122.55,458-28.58,489.8c97.61,33,203.33,1.85,293.77-38.09,45.14-19.94,92.36-41.35,132.69-70.06,40.6-28.9,66.53-66.2,79.37-114.43,13-48.73,18.2-100.66,24.55-150.63C508.27,65.71,512.34,13.87,506-37.23ZM468.24,182.88c-7,46.91-12.11,98.87-41,138.36-26.68,36.51-68.64,57.78-107.91,77.89-83.91,43-177,84.42-273.34,80-46.43-2.11-90.14-16.64-127.48-44.48C-117.54,407.77-145.77,371.82-171,335c-57.24-83.74-112.87-172.46-144.31-269.58C-331,16.74-336.47-32.44-327.09-82.92c9-48.3,26.66-94.89,49.09-138.49,36.61-71.12,87.85-143.53,156.92-186.23a198.6,198.6,0,0,1,54.46-23.69,10.73,10.73,0,0,0,8.45-10.61c3.72-.95,7.39-1.78,10.86-2.58a432.64,432.64,0,0,1,50.12-8.09c41.36-4.55,82.45-3.52,122.94,6.9,81.06,20.84,155.72,76.3,212.17,136.58S438.31-175.87,467-98.65C500.2-9.15,482,91.34,468.24,182.88Z"/><path class="cls-4" d="M253.31-318c-35.85-39.52-79.17-64.6-127-87C99.91-417.28,71.54-429.56,41.83-429c-25.29.49-47.11,11.08-65.8,26.63-21.86,17.14-44,34.19-62.52,55.05-20.43,23.07-34.31,49.74-43.65,79-19.05,59.69-19.15,126.86.28,186.47,18.58,57,58.82,105,106.65,140.11,51,37.46,110.7,54.07,173.45,42C244.3,82.12,325,11.53,336.85-85.79,347.15-170.21,309.23-256.32,253.31-318ZM195,61C138.69,86.08,74.59,87.92,20,57.58-27.29,31.33-68.48-9-93.57-57.06c-29.45-56.39-33.57-126.69-18.26-187.77,7.88-31.4,20.71-61.1,42.33-85.51,12.56-14.18,26.9-26.54,41.62-38.43a10.76,10.76,0,0,0,6.63-3.33C-3.09-391.19,18.38-405.56,45.63-405c24,.52,47.18,10.77,68.54,20.76,38.36,17.94,74.54,36.69,105.49,66.13,53.82,51.21,92.72,124,94.74,199.27C316.6-37,268.54,28.21,195,61Z"/><path class="cls-4" d="M147.17-125.64c-12.79-23.56-27.88-45-49.49-61.35-22.21-16.75-48.62-26-76-29.52-47.29-6.15-110.15,30.57-96.38,81.22a12.29,12.29,0,0,0,1.24,5.58c12.44,25.49,18.41,53.5,29.35,79.6C-32.7-22.77-15.84-.62,9.13,15.66S63.51,43.54,93.52,44.87c27.31,1.21,59.32-8.1,76-31.19C198.82-27,167.56-88.07,147.17-125.64ZM152.53-4.42C142.12,16.34,112.83,22,91.9,20.78,67.2,19.33,43.21,9,22.6-4.22-21.91-32.71-28.49-84-47.16-129.21a12,12,0,0,0-1.15-3.72c-22.39-41,38.44-64.2,69.9-59.54,22.57,3.35,44.58,11.37,62.8,25.33,17.61,13.49,29.81,31.39,40.38,50.6,9.74,17.7,18.79,35.93,25,55.2C155.45-44,161.22-21.77,152.53-4.42Z"/></g><path class="cls-8" d="M963.07,927.49C945,939.25,920.23,943,896.43,944.91q-4.57.38-9.07.66c-107.38,12.85-221.31,9-330,8.43-81.29-.45-189.53,13.67-267.67-13.13a131.58,131.58,0,0,1-16-6.77c-19.2-9.56-35.45-22.78-53.34-34.74-27.65-18.52-86.08-38.13-104.38-62.77C80,788.31,158.89,644,176.33,590.38q33.57-102.87,67-205.73,77.79-20.32,158-33.24h0q5.83-.95,11.68-1.84,25.95-4,52.09-7.2c.84-.11,1.68-.22,2.52-.31,1.79-.23,3.57-.44,5.36-.65q6.45-.77,12.92-1.47,8.94-1,17.9-1.89,6.57-.66,13.17-1.26,31.15-2.87,62.47-4.61c23-1.27,46.66-2.06,69.12,3.92l1.29.35a142.2,142.2,0,0,1,16.83,5.93,263.35,263.35,0,0,1,25,12.38c3.34,1.84,6.66,3.72,10,5.59l.27.15q13.19,7.46,26.36,14.91l24.28,13.72,5.47,3.09,15,8.47,57.5,32.54C846,442,861.84,451,873.3,463.83c12.15,13.57,18.47,30.35,24.54,46.68,31.39,84.75,63.06,170.37,72.53,258.5A517.26,517.26,0,0,1,963.07,927.49Z"/><path class="cls-9" d="M694.28,537.25a1706.83,1706.83,0,0,0-52.46-336.1q-102.9-33.51-205.74-67C382.5,116.66,238.16,37.77,189.87,73.65,165.24,92,145.62,150.39,127.11,178,112,200.69,94.79,220.71,85.6,247.42,58.8,325.56,72.92,433.8,72.47,515.1c-.6,108.72-4.42,222.65,8.42,330,1.73,26.43,4.82,55.27,18.08,75.7a517,517,0,0,0,158.49,7.31C345.59,918.68,431.2,887,516,855.61c16.34-6.07,33.11-12.38,46.68-24.53,12.81-11.47,21.86-27.3,30.6-42.79Q629.62,724,666,659.7c9.6-17,19.31-34.23,24.4-53.32C696.34,583.91,695.55,560.3,694.28,537.25Z"/><path class="cls-10" d="M583.18,948c114.3,0,165.18-58.77,183.93-89.38-51.25-11.68-99.49-23.18-102.9-31C650,797.12,651,716,651,716H515.67s1,81.1-13.19,111.62c-3.55,8.1-55.64,20.22-109.15,32.38C407.37,883.69,457.09,948,583.18,948Z"/><path class="cls-11" d="M513.16,776.09A185,185,0,0,0,546.52,789c20.4,5.6,42,7.09,62.67,2.21,16-3.77,30.66-11.82,43.77-21.65C650.71,741.66,651,716,651,716H515.67S516,745.82,513.16,776.09Z"/><path class="cls-12" d="M896.43,944.91q-4.57.38-9.07.66c-107.38,12.85-221.31,9-330,8.43-81.29-.45-189.53,13.67-267.67-13.13a131.58,131.58,0,0,1-16-6.77c10.66-33.39,13.09-43.62,53.07-58.52,19.91-5,43.42-10.27,66.67-15.56,14,23.67,63.76,88,189.84,88,114.3,0,165.18-58.77,183.93-89.38,25.25,5.76,51.22,11.56,72.91,17,40.41,15.06,42.46,25.34,53.42,59.58C894.51,938.5,895.5,941.76,896.43,944.91Z"/><path class="cls-10" d="M394.27,581.16A72.26,72.26,0,0,0,415.42,599c6.48,3.49,18.53,9.27,25.45,5.3,7.1-4.07,6.86-17.05,6.66-24.14a81.29,81.29,0,0,0-7-29.94A58.69,58.69,0,0,0,435,534.73c-4.51-8.37-11.94-16.79-21.35-19.94-16.46-5.5-32.67,3-35.93,19C374.29,550.76,383.18,567.76,394.27,581.16Z"/><path class="cls-13" d="M433.29,605.58c-1.33-3.54-2.61-7.08-3.84-10.65A275.49,275.49,0,0,1,418,551.45c-2-11.85-3-23.94-2.05-35.76,8.34,3.65,14.94,11.36,19.08,19a58.69,58.69,0,0,1,5.53,15.53,81.29,81.29,0,0,1,7,29.94c.2,7.09.44,20.07-6.66,24.14A12.58,12.58,0,0,1,433.29,605.58Z"/><path class="cls-13" d="M385.35,534.08a10.3,10.3,0,0,1,7.79-5.46c7.54-1.25,15.88,4,21.22,9.45,11.87,12.06,15.48,29.93,17.52,45.79.12.93-1.26.32-1.42-.32-.61-2.55-1.23-5.14-1.89-7.74a52.66,52.66,0,0,1-.7,5.39c-.58,3.25-2.28,6.18-5.75,6.48-8.38.71-15.14-9.4-19.74-15.17-.43-.54.41-.73.76-.36,4.2,4.36,8.66,10.11,14.51,12.09,4.71,1.58,6.43-1.86,7.32-5.75.73-3.2,2-6.92,1-10.27-.14-.47,0-.72.29-.81-2.31-7.69-5.27-15.23-9.73-21.85-3.87-5.74-9.43-10.92-16.08-12.82-4.53-1.29-9.26-.39-11.6,3.83-2.19,3.94-.95,9-1.16,13.45,0,.53-.89,0-.94-.31C386,544.51,382.93,539.09,385.35,534.08Z"/><path class="cls-14" d="M434.36,605.66a20.17,20.17,0,0,1-2.06-.15,5.08,5.08,0,0,1-.88-.25c-.3,14.64-5.52,31.54-8.05,34.58-1.77-14.22,4.87-42.9,4.94-43.19a2.06,2.06,0,0,0-4-.94c-.28,1.21-6.91,29.81-5,44.73a.5.5,0,0,0,0,.12c.66,3.51,2.57,4,3.6,4h.26c5.46-.47,11.87-22.82,12.33-38.89C435.11,605.66,434.76,605.69,434.36,605.66Z"/><path class="cls-10" d="M788.81,533.81c-3.25-16-19.46-24.52-35.92-19-9.41,3.15-16.84,11.57-21.36,19.94A59,59,0,0,0,726,550.26a80.9,80.9,0,0,0-7,29.94c-.2,7.09-.45,20.07,6.65,24.14,6.93,4,19-1.81,25.46-5.3a72.39,72.39,0,0,0,21.15-17.88C783.37,567.76,792.25,550.76,788.81,533.81Z"/><path class="cls-13" d="M733.25,605.58c1.33-3.54,2.62-7.08,3.84-10.65a275.53,275.53,0,0,0,11.48-43.48,145.35,145.35,0,0,0,2-35.76c-8.33,3.65-14.93,11.36-19.08,19A59,59,0,0,0,726,550.26a80.9,80.9,0,0,0-7,29.94c-.2,7.09-.45,20.07,6.65,24.14A12.61,12.61,0,0,0,733.25,605.58Z"/><path class="cls-13" d="M781.2,534.08a10.3,10.3,0,0,0-7.79-5.46c-7.54-1.25-15.89,4-21.22,9.45-11.87,12.06-15.48,29.93-17.53,45.79-.12.93,1.27.32,1.42-.32.62-2.55,1.24-5.14,1.89-7.74a52.58,52.58,0,0,0,.71,5.39c.57,3.25,2.28,6.18,5.75,6.48,8.37.71,15.13-9.4,19.73-15.17.44-.54-.4-.73-.75-.36-4.2,4.36-8.66,10.11-14.51,12.09-4.71,1.58-6.43-1.86-7.32-5.75-.74-3.2-2-6.92-1-10.27.13-.47,0-.72-.29-.81,2.31-7.69,5.27-15.23,9.73-21.85,3.87-5.74,9.42-10.92,16.08-12.82,4.53-1.29,9.26-.39,11.6,3.83,2.18,3.94.94,9,1.16,13.45,0,.53.89,0,.94-.31C780.52,544.51,783.61,539.09,781.2,534.08Z"/><path class="cls-14" d="M732.19,605.66a20.38,20.38,0,0,0,2.06-.15,5,5,0,0,0,.87-.25c.31,14.64,5.52,31.54,8,34.58,1.78-14.22-4.87-42.9-4.93-43.19a2.06,2.06,0,0,1,4-.94c.28,1.21,6.91,29.81,5,44.73,0,0,0,.08,0,.12-.66,3.51-2.57,4-3.6,4h-.26c-5.46-.47-11.87-22.82-12.33-38.89C731.43,605.66,731.79,605.69,732.19,605.66Z"/><path class="cls-10" d="M741.65,533.5s-10.12,104.54-37.33,142-79.74,71.62-122.88,71.62a120.25,120.25,0,0,1-12-1.27C530,738.4,485.79,708,462.15,675.46c-27.21-37.42-37.34-142-37.34-142-2.27-61.95,17.3-176.36,119.62-190C636.88,331.17,757.4,346.92,741.65,533.5Z"/><path class="cls-15" d="M402.74,309.73c-21.94-4.24-40.81-20.26-49-42-8.6-22.84-3.8-49.86,10.26-69.19,8.36-11.49,20.39-21.65,34.87-21.17.41,0,1.37-1.14.8-1.27-12.77-2.8-25.25,7.08-33.29,16.37a81.9,81.9,0,0,0-17.44,34.08,75.68,75.68,0,0,0,.22,37.67A69.74,69.74,0,0,0,367,294.86c9.3,9.33,21.3,16,34.22,17.36C402.18,312.32,403.91,310,402.74,309.73Z"/><path class="cls-15" d="M539.92,117.73c-13.23-23.11-39.3-36.58-65.76-35.29-14.33.69-27.76,6-40,13.18-11.06,6.52-21.38,15-28,26.11-7.09,11.87-10,28-3.05,40.54.4.72,1.81-.72,1.54-1.35-5-11.58-3.89-24.85,1.92-35.92,5.67-10.82,15.38-19,25.66-25.32,11.39-7,24-12.35,37.38-13.54a71.46,71.46,0,0,1,38.31,7.23c11.91,6,25.37,15.73,32.53,26.94C541.29,121.72,540.62,118.94,539.92,117.73Z"/><path class="cls-15" d="M746.23,240.07a107.32,107.32,0,0,0-15.81-41.85A100.13,100.13,0,0,0,722.91,188a49.31,49.31,0,0,0-9.16-9c-.38-.26-1.16.67-.89,1,2.21,2.9,4.71,5.55,7,8.38s4.59,6,6.67,9.1a109.81,109.81,0,0,1,10.18,19.38c5.52,13.7,8.53,28.73,7.68,43.52-.49,8.55-2.47,17.21-6.74,24.69-.24.42-.58,1.26.08,1.49s1.4-.6,1.68-1C747.86,272.05,748.54,255.38,746.23,240.07Z"/><path class="cls-15" d="M407.88,313.39s-32.61-12.06-42.44-51.83c-4-24.57,3.57-31.27,15.64-52.27s13.4-30.38,21.89-66.58,66.52-53.55,129.71-26.89c45.29-36.89,80.94-64,126-34.33,39.13,25.75,46.44,40.32,56.94,50.41,11.87,11.41,24,42.45-2.06,73.95,0,0,29.45,15.07,15.76,65.74C729.33,271.59,557.58,213.44,407.88,313.39Z"/><path class="cls-16" d="M401.67,170.17c8.28-14,15.14-29.11,27.26-40.37,11.48-10.68,26.11-16.8,41.59-18.7A72.81,72.81,0,0,1,498.28,113c9.42,2.49,18.37,7,27.93,9,7,1.4,13-.18,18.75-4.29,7.06-5,13.25-11.16,20.25-16.28,13.57-10,29.07-16.87,45.8-19.16,8.77-1.21,18.25-1.73,26.94.17,7.7,1.69,14.5,5.57,20.6,10.48,6.41,5.16,12.39,11,18.35,16.64a59.85,59.85,0,0,0,23,14.09c3.65,1.16,7.32,2.24,11,3.27-8.75-9.84-19.09-23.61-52.16-45.37-45.07-29.67-80.72-2.56-126,34.33-63.19-26.66-121.22-9.3-129.71,26.89-4.62,19.68-7.12,31.43-10.38,41.43C395.83,179.66,398.84,175,401.67,170.17Z"/><path class="cls-17" d="M696,227.23a70.07,70.07,0,0,1,9.75-7.11c4.88-3,10-5.65,14.95-8.51a29.37,29.37,0,0,0-7.1-5.76A72.76,72.76,0,0,0,723.71,190c-6.81,2.57-13.68,5-20.58,7.27-7.48,2.49-15,4.89-22.49,7.29-.57.18-.51-1-.2-1.21,3.07-2.31,6.16-4.58,9.23-6.9,10.18-7.69,20.75-16.26,26.26-28.06a54.83,54.83,0,0,1-9.4,7.71,99,99,0,0,1-23.42,10.62c-8.05,2.61-16.27,4.58-24.5,6.47-.53.12-.18-.88.18-1a143.92,143.92,0,0,0,19.29-6.41,119,119,0,0,0,30.54-18.23A107.27,107.27,0,0,0,726.1,149a52.09,52.09,0,0,0-2.83-6.58A113.11,113.11,0,0,1,706,157.13c-4.6,3.19-9.39,6.15-14.2,9a173.83,173.83,0,0,1-17.26,9c-10.58,4.74-22.88,9-34.6,6.66-.37-.07-.43-.78-.31-1.05,3.52-8.12,8.86-15.18,14.45-22a54.92,54.92,0,0,1-5.16,3.22c-11.88,6.55-25.44,9.91-36.21,18.44-.39.31-.68-.92-.31-1.21,3.15-2.52,6.26-5.08,9.28-7.74,9.47-8.33,18.62-17.8,24.37-29.14a84.88,84.88,0,0,1-7.59,8.49,109.57,109.57,0,0,1-22.79,17.08,85.48,85.48,0,0,1-24.95,9.77h0l-.09,0c-.49.1-.33-1-.07-1.22,4.68-3.1,9.4-6.13,14.06-9.25,8.37-5.59,16.66-11.46,24-18.43,6.66-6.35,12.55-13.73,16-22.34L642.94,128a208.48,208.48,0,0,1-30.89,24.5c-11.59,7.52-24.47,14.3-38.24,16.56a40.84,40.84,0,0,1-17.87-.67c-5.14-1.48-10.42-4.35-13.85-8.54s-5.36-9.63-6.54-14.91a86.7,86.7,0,0,1-1.81-19.62q.06-5.44.59-10.88l-1.65,1.34c-5.19-2.19-10.34-4.07-15.43-5.68A171.94,171.94,0,0,0,506.71,136c-1.7,5.11-3.29,10.26-4.92,15.4-1.57,5-3,10-5.06,14.8a52.76,52.76,0,0,1-18.25,22.66c-8.17,5.73-17.78,9.56-27.28,12.47a195.58,195.58,0,0,1-38,7.8,172.46,172.46,0,0,1-32.13.16c-2.91,5.06-5.55,9.28-7.83,13.12a55.12,55.12,0,0,0,7.45,3.47,100.89,100.89,0,0,0,22.72,5.44,161,161,0,0,0,25.21,1.31,146.3,146.3,0,0,0,23.81-2.35c6-1.13,12.31-2.66,17.71-5.7.55-.31.28.61.07.8a56.53,56.53,0,0,1-14.91,9.87c-18,8.31-38.05,8.72-57.45,11.24,4.48.05,9,0,13.44-.26,22.95-1.22,45.08-7,67-13.63.51-.16.49,1,.24,1.24q-2.38,2.13-4.86,4.17a267.15,267.15,0,0,1-21.71,15.85c-7.22,4.81-14.52,9.55-21.92,14.09-13.28,8.17-28.06,13.56-43.25,16.88-3.42.74-6.87,1.37-10.32,1.93,13.3,19.91,31.43,26.62,31.43,26.62,149.7-99.95,321.45-41.8,321.45-41.8A96.54,96.54,0,0,0,733,247a211.74,211.74,0,0,1-37-18.65A.82.82,0,0,1,696,227.23Z"/><path class="cls-15" d="M424.38,521.07s2.94-61.16,35.55-113.16c28.16-44.91,48.62-45.26,75.6-40.45,38.35,6.85,64.37,4.8,93.82-1.37,24.83-5.19,45.19-6.84,69.84,26.71s43.83,89,43.15,127.37c0,0,21.22-7.53,20.54-58.89S678.65,275,584.15,270.91C504.13,267.43,352.94,439.79,424.38,521.07Z"/><path class="cls-17" d="M421.86,498a103.72,103.72,0,0,1,3.29-30.17c3.28-12.7,8.77-24.58,13.74-36.68s9.88-24.4,16.27-35.9a98.66,98.66,0,0,1,21.77-26.12c8.64-7.55,18.06-14.12,27-21.3,17.27-13.89,33.2-30.3,53.45-40,9-4.29,18.81-6.93,28.83-6.27A51.26,51.26,0,0,1,601.26,305a82,82,0,0,1,14.86,8.17c19.56,12.75,38.79,26.17,56.52,41.39a235.9,235.9,0,0,1,24.44,23.92,163.1,163.1,0,0,1,19.73,29.09,250.51,250.51,0,0,1,24.57,66.14,347.39,347.39,0,0,1,6.53,42.54c6.23-6.09,15.42-20.87,15-55-.69-51.36-84.23-186.26-178.73-190.37-80-3.48-231.21,168.88-159.77,250.16,0,0,0-.53.09-1.53A156.57,156.57,0,0,1,421.86,498Z"/><path class="cls-15" d="M528.38,359.55a96.85,96.85,0,0,1-23.65,34.67A121.4,121.4,0,0,1,467.6,417.8a170.22,170.22,0,0,1-24.57,8,1.83,1.83,0,0,0-1.22,1.08c-.12.29-.21,1,.35.87a144.28,144.28,0,0,0,43.39-17.26,109.89,109.89,0,0,0,32.51-29.94,89.09,89.09,0,0,0,11.17-21.27C529.45,358.66,528.5,359.25,528.38,359.55Z"/><path class="cls-15" d="M716.81,409.81a99,99,0,0,1-49-39.19,92.14,92.14,0,0,1-8.11-15.77c-.23-.57-1.43.56-1.23,1.08a95.27,95.27,0,0,0,40.77,48.34,87.78,87.78,0,0,0,16.38,7.41C716.32,411.93,717.67,410.12,716.81,409.81Z"/><path class="cls-15" d="M513.14,350.32a119.07,119.07,0,0,1-50.38,52.57,117,117,0,0,1-19.13,8.3c-.83.28-1.91,2.51-.47,2.05a118.65,118.65,0,0,0,71-63.09C514.58,349.22,513.38,349.83,513.14,350.32Z"/><path class="cls-15" d="M710.83,400a113,113,0,0,1-32-28.75,99.76,99.76,0,0,1-6.79-10.48c-.26-.45-1.22.52-1,.9a97.7,97.7,0,0,0,27.82,33,85.86,85.86,0,0,0,10.7,6.79C710.16,401.77,711.36,400.32,710.83,400Z"/><path class="cls-12" d="M461.57,261.32C404.05,286.66,401.31,312,401.31,338c.69,28.76-2.05,44.51-8.22,63s-9.77,65.3,18.06,102.84c0,0-19.67-109.16,174.56-223.24L543.06,253.1S519.09,236,461.57,261.32Z"/><path class="cls-18" d="M585.71,280.62,543.06,253.1s-24-17.12-81.49,8.22S401.31,312,401.31,338c.21,8.71.1,16.23-.32,23,2.09-2.11,4.22-4.17,6.36-6.2,11.43-10.79,23.72-20.62,36-30.45,5.72-4.59,11.45-9.19,17-13.93,2.51-2.13,5-4.28,7.61-6.22s5.64-3.95,8.57-5.77a216.54,216.54,0,0,1,41.84-19.62c13.89-4.92,28.28-8.88,42.94-10.6.5-.06.29.83.11,1-1.82,2.13-3.69,4.2-5.63,6.22C540,292.07,520.87,305,501.92,317.78s-37.84,25.37-53.82,41.59c-8,8.07-15,17.07-21.78,26.11s-13.46,18.48-20,27.87c-5.79,8.34-11.56,16.71-17.44,25,.89,20.31,6.59,44.38,22.26,65.52C411.15,503.86,391.48,394.7,585.71,280.62Z"/><path class="cls-19" d="M768.36,375c-5.48-20.55-.69-29.45-2.06-50.68s-14.38-54.1-88.33-83.54c0,0-26.71-45.2-74-41.09s-58.21,41.77-61,53.41l42.65,27.52S773.15,396.23,754.66,505.11C788.9,476.35,771.6,387.16,768.36,375Z"/><path class="cls-20" d="M748.82,412.16c-8.65-12-18.75-22.83-29-33.5Q703.39,361.52,686,345.39c-22.72-21.14-46.41-41.2-70.27-61-11.9-9.9-23.85-19.73-35.75-29.63-9.44-7.86-18.92-15.67-28.09-23.82a73,73,0,0,0-4.11,8c20.85,16,42.69,30.72,64,46.08,12,8.6,23.74,17.46,35,26.93,11.61,9.74,22.44,20.38,33.2,31q16.68,16.53,32.56,33.87c9.4,10.32,18.4,20.85,26.2,32.44,13.76,20.45,24.2,42.88,32.71,66a125,125,0,0,0,3.23-18.74C767.17,441.11,758.86,426.11,748.82,412.16Z"/><path class="cls-20" d="M644.64,243.47s72.59,37.34,106.25,116.24C756.15,299.75,721.44,266.08,644.64,243.47Z"/><path class="cls-21" d="M422.63,332.61s60.64-81.35,136.6-69.29l-8.75-5.27s-26.25-3.58-61.86,17C470.47,281.87,429.22,288.85,422.63,332.61Z"/><path class="cls-20" d="M625.34,222.63c24.8,5.9,52.63,18.15,52.63,18.15a92.73,92.73,0,0,0-11.49-14.67C648.66,223.27,617.77,220.42,625.34,222.63Z"/><path class="cls-22" d="M569.46,232.67s110.72,38.46,188.81,165.5C758.27,327.07,653.37,208.19,569.46,232.67Z"/><path class="cls-21" d="M392.66,461.45s47.23-109.71,182.37-186C527.8,278.36,410.83,386.62,392.66,461.45Z"/><path class="cls-23" d="M601,675.16c-9.26,5-18.49,8.68-30.81,1.83-12-6.64-23.06-3.2-34.18-2,1.45,3.25,10.29,23.1,47.46,25.81s49.27-26.35,49.27-26.35C624.11,676.27,607,672,601,675.16Z"/><path class="cls-24" d="M555.27,689.32s14.49,11.39,37.76,8,27.18-11.88,21.32-16.44-18.07-10.25-31.09-10.42C571.52,670.3,544,681.67,555.27,689.32Z"/><path class="cls-25" d="M606.61,656.6c-11-6.68-18.23,2.52-24.18-.18-9.57-4.52-20.75-2.71-33.93,8.12s-22.91,5.05-22.91,5.05,1.44,5.95,10.46,5.41c11.12-1.21,22.22-4.65,34.18,2,12.32,6.85,21.55,3.16,30.81-1.83,5.94-3.19,23.07,1.11,31.74-.7,4.15-.72,7.94-4.33,7.94-4.33C627.72,676.27,617.87,663.42,606.61,656.6Z"/><g class="cls-2"><path class="cls-4" d="M1053.55,719.05c-3.75-14.94-12-28.36-20.71-40.88a212,212,0,0,0-30.32-34.33c-22.63-20.92-48.6-37.67-74.68-53.91-14.62-9.1-30.44-15.59-46-22.81a72.49,72.49,0,0,0-10.43-3.67c-3.92-1.13-7.67-2.55-11.51-3.88-6.78-2.35-13.39-1-20.11,1a105.18,105.18,0,0,0-12.68,4.64c-5.82.8-11,4-15.59,7.61a98.09,98.09,0,0,0-14.66,13.78c-9.28,10.95-15.21,24.44-19.25,38.12a109.9,109.9,0,0,0-2.93,49.3c2.68,15.79,9.55,30.27,15.23,45.11,6.11,15.95,9.58,32.51,12.26,49.34,2.55,16,4.17,32.56,9.18,48.09,4.22,13.09,11.23,26.12,22.77,34.11,10.66,7.39,24.54,9.94,37.14,11.73,17.24,2.45,34.62,1.17,51.74-1.61a180.91,180.91,0,0,0,39.44-10.93,164,164,0,0,0,64.29-46.93C1045.84,779.82,1061.23,749.72,1053.55,719.05Zm-3,21.91c-1.2,15.35-7.63,30-15.85,42.81a158.8,158.8,0,0,1-56.18,52.94C954.3,850.2,926.76,857,899.2,858.56a145.36,145.36,0,0,1-45.53-4.72c-12.39-3.3-22.3-9.68-29.29-20.6-7.9-12.35-11.17-26.79-13.58-41.07-2.71-16-4.62-32.25-8.22-48.15-3.48-15.36-9.43-29.61-15.14-44.23s-9.63-29.62-9.4-45.5a113.67,113.67,0,0,1,10.21-44.44,86.18,86.18,0,0,1,23.84-31.23,53.07,53.07,0,0,1,8.18-5.94,2.28,2.28,0,0,0,2.4.09c1.84-1,3.73-1.9,5.64-2.76.29,0,.57-.09.86-.1a2.28,2.28,0,0,0,1.94-1.11A96.15,96.15,0,0,1,842.05,565a45.67,45.67,0,0,1,9.6-1.94c3.77-.2,7.18,1.34,10.63,2.63s6.93,2.19,10.42,3.25a83.11,83.11,0,0,1,11.82,4.94c7.29,3.48,14.83,6.39,22.13,9.83,14,6.6,26.93,15.57,39.92,23.92a428.91,428.91,0,0,1,35.8,25.4c22.78,18.16,43,39.43,57.25,65C1047,711.27,1051.72,725.69,1050.52,741Z"/><path class="cls-4" d="M1009.63,715.66a74.69,74.69,0,0,0-10-31.45c-6.32-10.73-15.15-19.69-24.56-27.72-9.91-8.47-20.57-16-30.82-24-10.66-8.36-21.36-16.55-32.39-24.43-21.23-15.18-41.29-33.54-68.19-37.18a33.65,33.65,0,0,0-12.46.95,2.37,2.37,0,0,0-1.75-.33c-8.51,1.6-13.87,9.43-17.3,16.76a129.63,129.63,0,0,0-8.45,25.8c-5.67,24.62-3.83,50.69-.08,75.45,3.62,23.87,8.93,47.91,19.44,69.79,10,20.74,25.35,41.31,47.31,50.08,20.74,8.28,44.23,5.47,65-1.12,20.14-6.39,40-16.5,54.34-32.31A79,79,0,0,0,1009.63,715.66Zm-14.7,45.09c-10.34,17.24-27.57,29.17-45.71,37.08-19.14,8.34-41.17,14-62.12,10.9a64.16,64.16,0,0,1-28.43-11.35c-9.38-6.78-17-16.28-23.24-26-12.44-19.38-19.2-41.7-23.72-64.11C807,684,803.93,660,805.49,636.19a142.57,142.57,0,0,1,5.76-31.27c2.33-7.93,5-16.54,10.42-23a17.44,17.44,0,0,1,5.27-4.34,2.6,2.6,0,0,0,1.07,0c2.64-.6,5.23-1.53,7.91-2,3.39-.58,6.91,0,10.25.62a81,81,0,0,1,18.11,5.74c10.88,4.9,20.37,12,29.83,19.2,10.49,7.94,21.39,15.33,31.92,23.22,9.93,7.44,19.54,15.31,29.43,22.81,18.42,14,37.88,29.39,45.72,52C1008.07,719.1,1005.79,742.66,994.93,760.75Z"/><path class="cls-4" d="M969.07,674.86a2.42,2.42,0,0,0-.53-1.14c-.28-.35-.55-.72-.83-1.08-.35-.54-.69-1.08-1.06-1.61a2.63,2.63,0,0,0-.6-.6c-3.61-5-6.88-10.34-11.64-14.35-6.9-5.82-16.14-9-24.21-12.8-16.59-7.83-32.6-19.16-51.34-20.89-15.23-1.4-29.13,4.93-39.33,16.08-10.64,11.63-14.2,27.49-12,42.87,1.25,8.95,4.88,17,8.08,25.39,3.34,8.75,5.68,17.84,9.22,26.54,6.21,15.24,14.81,29,27.59,39.61,11.63,9.65,26.84,17.3,42.33,16.17s29.53-9.84,39.06-21.68a110.52,110.52,0,0,0,21.63-47.25C978.36,704.63,977,688.5,969.07,674.86Zm-12.92,80.38c-7.6,12.57-18.54,23.2-33,27.34s-28.79-.42-40.89-8.41a84,84,0,0,1-28.62-33,177.75,177.75,0,0,1-9.49-24c-2.63-8.16-5.84-16-8.71-24.09-4.94-13.88-5.46-30,1.81-43.16,6.75-12.27,19.89-21.68,34-22.66,19.63-1.36,36.39,10.68,53.26,18.8,4.24,2,8.52,4,12.77,6s8.87,3.89,12.67,6.76c5.68,4.3,9.29,10.69,13.51,16.37C979.5,699.87,970.35,731.75,956.15,755.24Z"/><path class="cls-4" d="M950.74,700.23A57.08,57.08,0,0,0,923.16,677c-12.74-5.11-25.77-3.64-37.89,1.91a2.23,2.23,0,0,0-.69.12c-15.69,6.23-22.43,22.84-22.66,38.8a58.19,58.19,0,0,0,4.54,23.78c3.84,8.95,11,16.81,18.26,23.18,4.35,3.84,9.25,7.35,14.88,9,5.28,1.55,10.77,1,16-.41a51.59,51.59,0,0,0,25.9-16,63.17,63.17,0,0,0,13.64-26.93A39.58,39.58,0,0,0,950.74,700.23Zm.6,24.15a59.18,59.18,0,0,1-9.73,24.88,47.68,47.68,0,0,1-20.28,17c-4.65,2-10,3.58-15.07,3.54-5.44,0-10.31-2.52-14.6-5.69-13.33-9.87-23.29-23.92-24.64-40.67-1.15-14.37,3-31.89,16.87-38.78a2.48,2.48,0,0,0,1.21-.26c10.55-5.4,22-7.59,33.5-3.89a52.58,52.58,0,0,1,24.29,17C949,705,952.72,714.63,951.34,724.38Z"/></g><g class="cls-2"><path class="cls-4" d="M887,1914.14c38.46-30.15,66.7-71.42,91.76-112.84s44.74-86.29,60.33-132.25c31.42-92.62,46.42-189.55,59.8-286.12,7.49-54.12,5.89-108.37,6.69-162.86.18-11.75-1.24-23.37-2.85-35-1.78-12.8-2.51-25.52-3.62-38.36-2-22.7-14.47-40.07-28.82-57a326.86,326.86,0,0,0-29.83-30.77c-9.85-15.83-25.92-26.65-42.19-35.36-18.63-10-38.6-18.76-58.9-24.69-43.72-12.78-90.49-12.52-135.35-6.57a348.92,348.92,0,0,0-146.71,55.19c-42.3,28.16-75.4,66.78-111.07,102.43-38.34,38.33-81.88,69.78-127.21,99.28-43.23,28.14-89,54.15-127.53,88.74-32.51,29.15-61.2,66.3-69.47,110.08-7.64,40.45,2.87,84,14,122.8,15.19,53.13,41.35,101.87,71.51,147.91A574.39,574.39,0,0,0,390.21,1819c61.61,59,136.82,102.7,219.07,125.71C700.94,1970.3,808.09,1976,887,1914.14Zm-67.4,19.53c-46,16.35-96.73,16.59-144.58,9.36a504,504,0,0,1-226-94.46c-70.33-52.7-125.76-123.7-165.77-201.62a462,462,0,0,1-45.13-138.09c-6.45-40.18-.75-77.15,21.88-111.5,25.61-38.86,63.22-67,101.49-92.43,43-28.59,87.53-55,129-86,40.05-29.93,73.67-65.6,108.66-101,35.17-35.61,73.43-66.19,119.75-86,44.8-19.2,93.38-27.81,142-27.84,43.08,0,82.65,10.1,121.33,28.76,9.19,4.44,19.08,9.59,27.76,16a7.27,7.27,0,0,0,2.86,7.07c5.26,4.06,10.32,8.36,15.28,12.78.45.81,1,1.55,1.4,2.39a7.21,7.21,0,0,0,5.73,4.17,308.61,308.61,0,0,1,25.09,26.82c6.49,7.84,13.37,16.22,18,25.33,5.45,10.67,5.41,22.53,6.13,34.21s2.59,22.93,4,34.4c1.73,13.67,1.29,26.93.93,40.67-.66,25.61.63,51.22.1,76.82-1,49.11-10.33,98.18-17.76,146.63-7,45.9-15.69,91.63-27.37,136.6-23.24,89.48-58.75,175.6-114.51,249.94C901.11,1885,865.44,1917.43,819.64,1933.67Z"/><path class="cls-4" d="M840.13,1782.46a237,237,0,0,0,78.23-69.72c22.91-32.16,37.5-69.33,48.62-107,11.73-39.68,19.78-80.3,29.85-120.41,10.47-41.71,20.39-83.3,29-125.45,16.58-81.15,43.88-163,19.67-245.7-4.09-13.93-10.9-24.26-18.83-34.89a7.66,7.66,0,0,0-1.33-5.49c-15.62-22.61-45.24-28-70.93-28.52-28.53-.54-57.74,3.39-85.7,8.85-78.69,15.37-151.89,54.37-218.82,97.23-64.53,41.33-127.35,87.78-177.19,146.51-47.24,55.66-87,126.85-84.05,201.85,2.79,70.8,41.27,135.29,87.23,187,44.54,50.12,99.47,94.53,163.88,115.78C706.43,1824.51,778.79,1816.47,840.13,1782.46ZM690.44,1798.1c-63.33-7.71-120.16-42.24-166.52-84.6-48.92-44.71-93.72-101.29-111.86-166-8.86-31.6-10.61-64.88-3.84-97.06,7.56-36,25.21-70.39,45.23-100.9C493.56,1288.42,549.53,1240,608.68,1198c61.48-43.7,127.11-83.69,198.11-109.93,31.91-11.79,64.42-19.2,98.07-23.7,26-3.47,54.44-6.77,80.09.54a55.9,55.9,0,0,1,19.38,9.65,8,8,0,0,0,1.46,3.06c5.17,6.89,11.21,13.2,16,20.37,6.06,9.1,9,20,11.45,30.53a257,257,0,0,1,6.77,59.91c-.16,37.87-8.6,74.59-17.13,111.26-9.47,40.67-16.8,81.8-26.06,122.51-8.75,38.41-19.15,76.44-28.13,114.81C952,1608.4,932.44,1684.72,877,1736.67,828.14,1782.38,756.9,1806.19,690.44,1798.1Z"/></g></g></g></svg>