<svg xmlns="http://www.w3.org/2000/svg" viewBox="0 0 1080 1080"><defs><style>.cls-1{isolation:isolate;}.cls-2{mix-blend-mode:multiply;}.cls-3{fill:#ffd2b3;}.cls-4{fill:#5a5d4a;}.cls-5{fill:#515443;}.cls-6,.cls-8{mix-blend-mode:overlay;}.cls-7{fill:#f2d1b9;}.cls-8{fill:#2d130e;}.cls-9{fill:#bf6e16;}.cls-10{fill:#210f0f;}.cls-11{fill:#44261f;}.cls-12{fill:#7c4639;}.cls-13{fill:#d1a882;}.cls-14{fill:#160e0d;}.cls-15{fill:#663930;}.cls-16{fill:#f2a74d;}.cls-17{fill:#111010;}.cls-18{fill:#fca14f;}.cls-19{fill:#fff;}</style></defs><g class="cls-1"><g id="Layer_1" data-name="Layer 1"><g class="cls-2"><rect class="cls-3" x="-206.94" y="-74.82" width="1522.22" height="1210"/></g><path class="cls-4" d="M389.15-61.55C388-67,385-71.86,381.8-76.52c-27.84-41.09-68.45-81.71-121.42-90.1a122.76,122.76,0,0,0-60.44,5.83c-2.32,4-4.69,8-7.15,11.91C91.11,13.54-120,94.34-216.14,259.77c20.5-5.73,55.07-5.5,67-5.66,20.1-.26,40.4-4.88,59.32,1.57,5.16,1.76,11.14,3.7,15.81,1,2.4-1.39,3.93-3.78,5.25-6.13,11.25-20,13.42-43,12.36-65.31-.54-11.36-1.89-22.67-3.35-33.94-.48-3.71-3.65-13.07-2.09-16.42,1.68-3.59,9.71-3.85,13.41-4.28,8.62-1,17.8-1.21,25.49,2.61,18.7,9.29,11.34,29.41,10.89,45a363,363,0,0,1-3.14,38.25c-1.08,8-4.81,19,.3,26.42,9.91,14.43,49.77,8.67,65,7.67,19.07-1.25,38.95-4.64,53.92-15.94a69.14,69.14,0,0,0,15.41-16.67c30.66-45.43,9.27-108.58-8.89-154.76-4.43-11.26-9.43-22.61-10-34.62-1-22.88,16.6-45.3,40-50.92,6.41-1.54,28.16,50.14,30.41,56a243.59,243.59,0,0,1,15,64.54,237.38,237.38,0,0,1,.77,32.33c-.39,8.65-5.53,23.51-2.09,31.58,6.23,14.63,52-9.72,63.06-14.14,11.83-4.75,24-9.69,33.12-18.24,9.93-9.29,15.4-21.93,20.61-34.2,5.75-13.56,11.54-27.25,13.9-41.69C324.31-.68,268-40.68,232.31-75c-6.19-6-12.61-15-7.58-21.88,3.48-4.78,10.63-5.34,16.73-4.9,31.07,2.25,59.92,18.89,79.32,42,14.33,17.09,23.77,37.49,29.07,58.66C352,7.4,349.92,24.43,361.63,17c8.44-5.35,14.52-14.89,18.29-23.6,5.31-12.27,7.13-25.6,8.91-38.76C389.56-50.74,390.28-56.23,389.15-61.55ZM79,49.15a163.78,163.78,0,0,1,5.07,68c-.45,3.24-1,6.57-2.82,9.36-4.78,7.45-15.67,8.19-24.85,8.08-2,0-4.25-.15-5.53-1.6a6.42,6.42,0,0,1-1.23-3.2c-4.67-25.11-14.49-55.7-12-81.26C40,24.78,73.1,29,79,49.15ZM212.42-16.09Q241,20.81,266.48,59.68c3.76,5.72,7.57,11.76,8.14,18.49,1.07,12.78-19,50.48-37.43,35.57-8.28-6.68-5.94-27-6.6-36.35-1-14.3-2-28.69-6-42.58C219,15.72,207.85-1.84,204.65-21.41,208-21.42,210.46-18.63,212.42-16.09Z"/><path class="cls-4" d="M191-168.41C188.35-190.68,185.2-213,177.06-234c-12.53-32.33-36.14-59.56-60.06-85.49-12.79-13.85-26.42-28-44.4-34.94-16-6.19-33.75-6.1-51-5.91-19.9.21-41,.73-57.81,10.78-6.76,4-12.49,9.4-18.15,14.73L-124-269.38A338.35,338.35,0,0,1,13.89-217.83c24,15.74,46.65,35.74,56,62,3.72,10.46,4.46,23.64-4.27,30.94C5.27-147.57-27.55-219.44-91.53-229.68c-19.28-3.09-39,.1-58.13,4.14-5.53,1.17-11.18,2.47-15.87,5.48-5.36,3.44-9,8.79-12.17,14.13a186.79,186.79,0,0,0-18.38,41.39c46.29-2.86,91.65,11.35,135.63,25.37,16.5,5.26,34.1,11.28,44.19,24.73s7.16,36.58-9.45,41.53c-1,.29-17.41-16.51-19.56-18.21a176.58,176.58,0,0,0-22.37-15,190.64,190.64,0,0,0-50.68-19.59,191.26,191.26,0,0,0-55.9-4.53c-15.18,1-39.73,2.72-51.63,12.5-9.86,8.11-11,22-11.36,34.37q-.66,20.88-1.32,41.76c-.26,8-2.11,10.43,6,11.91,6.42,1.17,14.57-.21,21.13-.3l88.17-1.22c11.45-.16,24.4.27,32.06,8.34,8.17,8.6,6.54,21.8,4.41,33.2-.41,2.18-.86,4.46-2.31,6.2-4.45,5.34-13.33,1.76-19.49-1.72-3.78.17-12.8-6.43-16.63-8A145.39,145.39,0,0,0-144.32.75a154.86,154.86,0,0,0-38.45-4.42A154.22,154.22,0,0,0-222.6,1.92C-237.27,6-243.13,12.8-253.14,23.5A57.46,57.46,0,0,0-260,31.8c-6.93,11-5.4,24.75-3.35,37.37,1.76,10.89,2.66,23.77,7.28,33.88,5.66-4.3,9.74-11.62,15.6-16.42a79.63,79.63,0,0,1,21.07-12.28,79.09,79.09,0,0,1,45.91-4c10.94,2.45,21.68,7.58,28.12,16.32s7.46,21.52.38,29.8c-9.48,11.08-27.21,9.77-42.25,9.67s-29.16,4-43.95,5.17c-8.76.66-21.8.42-24.27,11.15a18.62,18.62,0,0,0,.23,7.39c4.17,23.87,14.58,46.12,23.34,68.69,2.19,5.65,4.32,11.32,6.2,17.07,1.34,4.09,6.39,27,9.53,24.18C-189.48,175.52-119,113.83-47.77,57.54s148.82-107.42,205-177.39A434.49,434.49,0,0,0,191-168.41ZM-.7-26A62.73,62.73,0,0,1-2.18-7.33c-.34,1.44-.82,3-2.13,3.79a6.58,6.58,0,0,1-3.31.61l-20.67.14a11.88,11.88,0,0,1-5.29-.77c-1.93-.93-3.11-2.8-4.19-4.58-5.54-9.12-33.44-43.22-23.42-51.93C-51-68.92-18.5-45.79-9.64-40c2.7,1.75,5.44,3.65,7,6.36A17.42,17.42,0,0,1-.7-26ZM143.08-166.57c1,2.39,2,5,1.27,7.49s-2.68,4.08-4.62,5.65q-6.94,5.63-14.29,10.77c-1.29.9-2.76,1.84-4.36,1.65s-2.85-1.49-3.83-2.75c-6.54-8.34-10.45-18.25-16.13-27.15C94-182.07,84.24-191.46,74.57-200.74,59.91-214.8,39.88-229,28.51-245.57,17-262.36,41.3-269.21,54.67-261.9c4,2.19,7.17,5.49,10.55,8.47,6.63,5.84,14.22,10.59,21.37,15.85A171.72,171.72,0,0,1,143.08-166.57Zm29.19-32.91a13.5,13.5,0,0,1-1,7.18c-1.9,3.6-6.26,5.28-10.25,6.65a10.78,10.78,0,0,1-4.42.86c-2.53-.22-4.5-2.14-6-4.09-5.11-6.66-7.39-14.85-9.57-22.82-2.25-8.24-13-30.17-7.63-38,8.24-12,22,4.61,25.7,11.38C165.66-226.14,171.44-213.17,172.27-199.48Z"/><path class="cls-5" d="M-216.14,259.77C-189.48,175.52-119,113.83-47.77,57.54s148.82-107.42,205-177.39A434.49,434.49,0,0,0,191-168.41c33.85-56.37,55.25-119.55,66.86-183.67,4.33-23.88,7.65-48.74,21-69.39s34.89-37.12,42.86-60.25q-29,84.21-57.91,168.43c-17.9,52.08-36,104.59-63.84,152.5-2.32,4-4.69,8-7.15,11.91C91.11,13.54-120,94.34-216.14,259.77Z"/><g class="cls-6"><path class="cls-4" d="M540.8-192.33c-4.23-3.58-9.62-5.59-15-7.34-47.17-15.46-104.15-22.73-151.17,3.06A122.7,122.7,0,0,0,330.43-155c.61,4.58,1.18,9.18,1.64,13.8,19,190.67-98.51,383.79-73.3,573.45,12.71-17.08,40.2-38.06,49.56-45.51,15.74-12.5,29-28.58,47.88-35.06,5.15-1.77,11.07-3.9,13.1-8.91,1-2.56.79-5.39.4-8.06-3.35-22.7-15.71-42.22-30.2-59.21-7.38-8.65-15.36-16.77-23.42-24.8-2.65-2.63-10.89-8.1-11.7-11.7-.87-3.87,5.32-9,8-11.59,6.19-6.07,13.33-11.85,21.75-13.54,20.47-4.1,27,16.32,36.15,28.92A364.54,364.54,0,0,1,391.21,275c4,7,7.8,17.95,16.4,20.71,16.67,5.35,44.67-23.61,56.07-33.69,14.33-12.67,28-27.52,32.89-45.61a69.16,69.16,0,0,0,2-22.62C495,139.05,439.43,102.19,396.81,76.79c-10.39-6.19-21.3-12.11-29.07-21.28-14.81-17.48-14.6-46,.48-64.76,4.13-5.14,52.95,22.42,58.33,25.69a243.65,243.65,0,0,1,51.39,41.84,238.12,238.12,0,0,1,20.39,25.09c5,7.08,10,22,17.67,26.26,13.89,7.76,35.21-39.53,41.22-49.78,6.45-11,13-22.33,15-34.69,2.17-13.43-1.25-26.77-4.64-39.67C563.87-28.74,560.07-43.12,553.1-56c-26.31-48.53-95.33-45.7-144.59-51-8.54-.93-19.16-4.15-19.39-12.66-.16-5.91,5.14-10.73,10.24-14.11,25.94-17.24,58.95-21.74,88.44-15.32,21.8,4.74,41.75,15.1,58.89,28.6,6.93,5.45,15.71,20.19,20.43,7.14,3.4-9.39,2.37-20.66,0-29.85-3.31-13-10-24.62-16.67-36.11C547.75-184,545-188.82,540.8-192.33ZM363.28,85a163.67,163.67,0,0,1,45.63,50.68c1.63,2.84,3.21,5.82,3.5,9.13.78,8.81-7.38,16.06-14.7,21.6-1.59,1.2-3.46,2.48-5.36,2.12a6.52,6.52,0,0,1-2.93-1.78c-19.06-17-45.55-35.19-59.2-56.94C317.53,89.63,346.27,72.69,363.28,85ZM428.87-48.21Q474-36.49,518-21.38c6.48,2.22,13.19,4.67,17.76,9.64,8.66,9.45,15.89,51.52-7.83,51-10.64-.21-21.24-17.73-27.47-24.7-9.55-10.69-19.11-21.51-30.8-30C453.57-27.11,434-34.14,419.46-47.67,422.09-49.71,425.76-49,428.87-48.21Z"/><path class="cls-4" d="M318.67-155.55c-15.7-16-31.86-31.76-51.15-43.38-29.7-17.89-65-25-99.82-30.84-18.59-3.14-38-6-56.5-.47-16.41,4.88-30.42,15.84-43.95,26.54C51.64-191.35,35.31-178,28.12-159.79,25.24-152.47,24-144.72,22.79-137q-7.5,47.19-15,94.39A338.27,338.27,0,0,1,148.39-86.25c28.63-2.26,58.77-.29,82.2,14.74,9.35,6,18,16,15.57,27.08-61.58,19-131.53-17.74-188.39,13.33C40.63-21.74,27-7.13,14.33,7.75,10.68,12.06,7,16.55,5.13,21.8c-2.13,6-1.72,12.45-1,18.62A187,187,0,0,0,15,84.4C49.82,53.81,94.38,37.28,137.74,21.46,154,15.52,171.61,9.5,187.83,14s28,24.54,17.94,38.62c-.6.84-23.87-2.4-26.62-2.43A175.59,175.59,0,0,0,152.29,52a192.61,192.61,0,0,0-99,46.15c-11.36,10.11-29.75,26.46-33.17,41.49-2.84,12.44,4.78,24.11,12,34.13q12.26,16.92,24.51,33.83c4.7,6.5,4.72,9.54,12,5.77,5.8-3,11.39-9.08,16.53-13.17l69-54.93c8.95-7.13,19.46-14.72,30.46-13,11.72,1.81,18.51,13.24,23.8,23.56,1,2,2.06,4.06,2,6.32-.25,7-9.47,9.55-16.47,10.57-2.88,2.45-14,2.74-18,3.88a145.4,145.4,0,0,0-18.84,6.86,155.9,155.9,0,0,0-61.2,48.83c-9.1,12.21-9.57,21.17-10.93,35.76a57.81,57.81,0,0,0-.34,10.75c1.22,12.9,10.88,22.88,20.22,31.61,8.06,7.53,16.66,17.16,26.49,22.33,1.85-6.86.6-15.14,2.3-22.53a80.77,80.77,0,0,1,43-53.88c10.15-4.76,21.79-7.28,32.23-4.31s19.07,12.45,18.54,23.33c-.72,14.57-15.54,24.38-27.5,33.52s-20.58,21-31.59,31c-6.52,5.89-17,13.68-12.37,23.68a18.66,18.66,0,0,0,4.7,5.7c17.91,16.33,39.77,27.55,60.5,40,5.19,3.13,10.35,6.32,15.36,9.71,3.56,2.41,21.58,17.46,22.32,13.29-30.47-82.95-12.51-174.85,9.39-263s51.95-176,53.58-265.77A436.35,436.35,0,0,0,318.67-155.55ZM254.22,74.34a62.66,62.66,0,0,1,10.29,15.72c.62,1.34,1.19,2.87.64,4.3a6.54,6.54,0,0,1-2.24,2.5q-8.15,6.38-16.27,12.77a12,12,0,0,1-4.65,2.63c-2.1.44-4.17-.32-6.11-1.06-10-3.83-52.91-13.72-50.31-26.74,2.65-13.24,42.49-14.83,53-15.71,3.2-.27,6.54-.45,9.45.73A17.49,17.49,0,0,1,254.22,74.34Zm27.71-199.12c2.26,1.27,4.63,2.74,5.59,5.14s.38,4.87-.2,7.3q-2,8.7-4.71,17.26c-.46,1.5-1.05,3.15-2.43,4s-3.17.56-4.72.17c-10.28-2.6-19.43-8-29.36-11.6-12.46-4.47-25.93-5.93-39.26-7.34C186.64-112,162.11-111,143-117.14c-19.38-6.23-4.35-26.53,10.7-28.92,4.5-.72,9-.05,13.53.24,8.81.56,17.72-.33,26.59-.55A171.7,171.7,0,0,1,281.93-124.78Zm2.94-43.89c1.61,1.84,3.15,3.88,3.58,6.31.7,4-1.72,8-4,11.54a10.86,10.86,0,0,1-3,3.38c-2.14,1.37-4.87,1.06-7.25.44-8.12-2.14-14.93-7.22-21.54-12.2-6.82-5.13-28.74-15.9-29.3-25.39-.85-14.57,20.26-9.85,27.3-6.74C263.33-185.71,275.84-179,284.87-168.67Z"/><path class="cls-5" d="M258.77,432.24c-30.47-82.95-12.51-174.85,9.39-263s51.95-176,53.58-265.77a436.35,436.35,0,0,0-3.07-59C311-220.84,289.21-283.9,259.14-341.72c-11.19-21.53-23.78-43.23-25.86-67.73s4.88-50.71-3-73.88Q258.93-399,287.59-314.68C305.3-262.54,323.1-209.91,330.43-155c.61,4.58,1.18,9.18,1.64,13.8C351.06,49.46,233.56,242.58,258.77,432.24Z"/></g><g class="cls-2"><path class="cls-7" d="M656.11,624c-24.88,16.75-44,40.75-61.17,65s-31.22,50.83-42.8,78.26c-23.34,55.28-36.83,113.93-49.31,172.44-7,32.78-8.42,66.06-11.33,99.37a140.83,140.83,0,0,0,.19,21.54c.52,7.91.4,15.73.51,23.64.18,14,7.08,25.16,15.1,36.17a200.2,200.2,0,0,0,16.89,20.15c5.32,10.13,14.68,17.47,24.25,23.52a191,191,0,0,0,34.95,17.73c26.19,9.76,54.82,11.68,82.54,10a213.92,213.92,0,0,0,92.23-27.26c27.14-15.35,49.11-37.51,72.53-57.74,25.16-21.75,53.21-39.07,82.26-55.11,27.71-15.29,56.85-29.19,82-48.64,21.19-16.39,40.4-37.85,47.4-64.28,6.48-24.41,2-51.51-3.09-75.77-6.93-33.19-20.78-64.18-37.19-93.69a352.33,352.33,0,0,0-46.13-65,319.06,319.06,0,0,0-128.48-86.67C772.49,597.94,707.18,589.67,656.11,624Zm42.11-8.95c28.91-8,59.94-5.86,88.89.7a309.13,309.13,0,0,1,134.15,67.85c40.7,35.37,71.46,81.28,92.48,130.75a283.28,283.28,0,0,1,21.49,86.52c2.16,24.87-3,47.24-18.35,67.26-17.39,22.64-41.66,38.19-66.21,52.05-27.61,15.59-56,29.8-82.75,46.91-25.83,16.54-48,36.87-71,57s-47.87,37.24-77.1,47.33c-28.27,9.75-58.38,12.86-88.15,10.72-26.37-1.9-50.13-9.85-73-23a103.69,103.69,0,0,1-16.28-11.06,4.44,4.44,0,0,0-1.44-4.45c-3-2.72-5.94-5.58-8.78-8.5-.24-.51-.54-1-.75-1.52a4.4,4.4,0,0,0-3.32-2.81A188.68,188.68,0,0,1,514,1113.32c-3.62-5.09-7.46-10.52-9.9-16.3-2.86-6.77-2.3-14-2.23-21.21s-.56-14.15-.94-21.23c-.45-8.44.4-16.54,1.23-24.93,1.55-15.64,1.89-31.37,3.36-47,2.81-30,10.68-59.62,17.38-88.94a841.33,841.33,0,0,1,22.82-82.38c18.2-53.73,43.76-104.86,81.19-147.87C646.2,641.24,669.47,623,698.22,615.09Z"/><path class="cls-7" d="M679,706.71a145.59,145.59,0,0,0-51,39.2c-15.45,18.66-26,40.76-34.51,63.31-8.94,23.76-15.67,48.26-23.61,72.36-8.27,25.06-16.18,50.07-23.33,75.48-13.75,48.92-34.1,97.82-22.95,149.49,1.88,8.71,5.59,15.33,10,22.19a4.75,4.75,0,0,0,.57,3.42c8.55,14.53,26.44,19.16,42.14,20.6,17.44,1.6,35.48.49,52.84-1.61,48.84-5.91,95.37-26.52,138.23-49.77,41.33-22.43,81.84-48.07,114.95-81.79,31.38-32,58.88-73.76,60.41-119.8,1.44-43.45-19.25-84.62-45.08-118.31-25-32.65-56.67-62.27-95.14-78.14C762.65,686.92,718,688.63,679,706.71Zm92.31-2.91c38.41,7.53,71.65,31.18,98.14,59.17,28,29.53,52.86,66.15,61.08,106.56a125.19,125.19,0,0,1-2,59.57c-6.23,21.67-18.55,42-32.17,59.74-27.26,35.62-63.66,62.77-101.72,85.87-39.57,24-81.52,45.57-126.13,58.47a278.58,278.58,0,0,1-61.07,10.14c-16.07,1-33.62,1.73-49-3.88a34.51,34.51,0,0,1-11.43-6.77,5,5,0,0,0-.76-1.94c-2.86-4.45-6.27-8.58-8.88-13.18-3.31-5.83-4.6-12.63-5.65-19.19a157.68,157.68,0,0,1-1.48-37c1.78-23.17,8.58-45.27,15.43-67.33,7.6-24.47,13.91-49.31,21.39-73.82,7.06-23.11,15.11-45.93,22.31-69,13.41-43,28.75-88.82,65-118.15C686.3,707.3,731,695.89,771.27,703.8Z"/><path class="cls-7" d="M631.07,808a4.9,4.9,0,0,0-1.73,1.72c-.45.76-.94,1.49-1.42,2.24-.76,1-1.53,2-2.25,3a4.94,4.94,0,0,0-.71,1.49c-6.78,9.94-14.39,19.45-18.58,30.82-6.08,16.48-5.78,35.5-7.42,52.82-3.36,35.54-13.5,72.37-4.27,107.83,7.51,28.83,28.3,50.1,55.48,61.4,28.34,11.77,59.73,7.81,86.48-6.31,15.57-8.21,27.93-20.21,41.15-31.59,13.83-11.92,28.91-22.21,42.5-34.46,23.8-21.45,43.34-46.32,54.29-76.74,10-27.69,13.92-60.6,1.6-88.23-12.2-27.38-37.57-47.55-65.55-57.19-31.44-10.83-68.08-13.52-100.85-8.33C679.46,771.28,650.8,784.41,631.07,808Zm155.76-29.53c28.06,5.6,54.78,18.6,71.91,42.31,17,23.52,18.28,53,11.65,80.45-6.74,27.93-21.63,53.61-41.49,74.24a346.16,346.16,0,0,1-37.76,33.3c-13.21,10.21-25.48,21.3-38.36,31.9-22.15,18.22-51.25,29.83-80.25,25.25-26.93-4.25-52.87-22.09-64-47.28-15.48-35-4.52-73.72-.82-110,.93-9.12,1.68-18.25,2.56-27.37s1.25-18.83,4-27.67c4.12-13.26,13.43-24.1,21-35.59C670,772.36,734.41,768,786.83,778.47Z"/><path class="cls-7" d="M689.67,824.79c-15,18.33-23.51,42.28-24.33,65.89-.93,26.71,10.39,49.6,28.58,68.12a4.37,4.37,0,0,0,.68,1.19c21.79,24.62,56.66,26,86,15.82a113.54,113.54,0,0,0,40.55-24c13.84-13,23.48-31.35,30.36-48.79,4.15-10.51,7.35-21.79,6.65-33.2-.66-10.69-5.33-20.37-11.33-29.06a100.61,100.61,0,0,0-46.46-36.85,122.84,122.84,0,0,0-58.34-7.14C721.07,799.15,703.17,808.33,689.67,824.79ZM733.5,807.7a115.37,115.37,0,0,1,52,1.35c16.83,4.36,32.66,13.13,44.59,25.87,6.74,7.2,13.15,15.9,16.45,25.26,3.53,10,2.22,20.55-.76,30.51-9.24,30.94-28.39,58.49-58.17,72-25.56,11.63-60.41,15.56-82.18-5.23a4.82,4.82,0,0,0-1.28-2c-16.88-15.73-28.47-35.27-29.29-58.76-.67-19.37,5-39.21,15-55.72C699.67,824.88,714.73,811.64,733.5,807.7Z"/></g><path class="cls-8" d="M996.13,442.6c-3.34,22.6-19,44.81-34.24,64.49-57.58,83.53-130.95,161.34-198.82,237.48-5.55,6.23-11.18,12.79-16.89,19.59-35,41.65-73,92.22-115.3,129.26q-21.69,3.45-43.49,6.05c.08.42.16.83.24,1.22l.23,1.15-1.15.28A503.29,503.29,0,0,1,491,916q-11.93.56-23.9.56a501.61,501.61,0,0,1-72.65-5.27l-1.11-.16.06-1.12c.08-1.44.14-2.89.18-4.33q-33-1.8-65.88-5.54c-23.56-42.56-43.45-90.23-56.9-113Q266.09,779,261.32,771q-46.81-79.37-93.67-158.68,28.59-56.68,61.94-111.36h0A1613.16,1613.16,0,0,1,339.24,343.23l.19-.24,1.05-1.33c.34-.44.69-.87,1-1.31,8.59-10.84,17.54-21.59,27.71-30.94l.56-.52.58-.52A126.93,126.93,0,0,1,384.88,297c15.43-10.28,33-16.39,50.25-22.39q65.47-22.71,131-45.36c15.77-5.48,31.95-11,48.08-11.13,13.52-.1,26.18,3.61,38.44,8.06,3.24,1.18,6.44,2.41,9.63,3.63,79.12,30.49,159,61.31,226.91,109.32A484.87,484.87,0,0,1,996.13,442.6Z"/><path class="cls-9" d="M954.24,452.6c-3.34,22.6-19,44.81-34.24,64.49-57.58,83.53-131,161.34-198.82,237.48-5.55,6.23-11.18,12.79-16.89,19.59-35,41.65-73,92.22-115.3,129.26q-21.69,3.45-43.49,6.05c.08.42.16.83.24,1.22l.23,1.15-1.15.28A503.29,503.29,0,0,1,449.15,926q-11.92.56-23.9.56a501.61,501.61,0,0,1-72.65-5.27l-1.11-.16.06-1.12c.08-1.44.14-2.89.18-4.33q-33-1.8-65.88-5.54c-23.56-42.56-43.45-90.23-56.9-113Q224.2,789,219.43,781q-46.81-79.37-93.67-158.68,28.59-56.68,61.94-111.36h0A1613.16,1613.16,0,0,1,297.35,353.23l.19-.24,1-1.33c.34-.44.69-.87,1-1.31,8.59-10.84,17.54-21.59,27.71-30.94l.56-.52.58-.52A126.93,126.93,0,0,1,343,307c15.43-10.28,33-16.39,50.25-22.39q65.47-22.71,131-45.36c15.77-5.48,31.95-11,48.08-11.13,13.52-.1,26.18,3.61,38.44,8.06,3.24,1.18,6.44,2.41,9.63,3.63,79.12,30.49,159,61.31,226.91,109.32A484.87,484.87,0,0,1,954.24,452.6Z"/><path class="cls-10" d="M206.75,532.46c-9.39,1.7-18-7.52-19-17s3.59-18.67,8.74-26.71c-17.86-4.66-24.76-31.34-11.41-44.08-10.94-8.49-14.55-25.13-8.1-37.39,1.31-2.5,3-5.18,2.38-7.92-.48-2-2.14-3.47-3.51-5-10.31-11.57-3-33.39,12.25-36.36-10.87-12.37-4.75-21.9-.46-35,3.4-10.36.64-21.71,4.63-31.44,6.86-16.7,15.54-.71,23.89-1.83,9.44-1.27,19.78-15.45,24.54-22.68,9.62-14.61,27.43-31.15,41.7-21,1.07-28.16,24.74-49.51,46.56-67.35,8.6-7,17.33-14.14,27.48-18.65,19.48-8.66,41.81-6.82,63-4.82,6,.57,12.2,1.19,17.48,4.1,3.53,1.94,6.45,4.81,9.65,7.27C462,178.35,483.75,181.68,502.33,185c8.34,1.51,18.38-.29,22.5-7.68a32.18,32.18,0,0,1,7.34,20.32c11.9-6.06,28.54,3.49,29.32,16.82,7.22-3.61,15.56-6.21,23.31-3.94s13.9,11.09,10.8,18.54c5.14-4.06,13.33.64,15.07,7s-.8,12.93-3.39,18.94c4.06-9.43,19.78,33.32,20.18,34.11,9.91,19.31,23.07,37.14,33.25,56.41,5.12,9.7,10,21.06,6,31.27-2.53,6.46-8.34,11.41-10,18.15-2.3,9.52,4.31,18.58,8.4,27.48,8.59,18.72,5.74,42.16-7.08,58.28-8.35,10.5-17.62,16.44-20,29.59-2.55,14.38.08,28.72-4.65,43.59-2.56,8.08-9.84,17.54-17.49,13.87-4.47,22.75-33,37-53.9,27-5.21,14.7-20.38,25.26-36,25-2.09,11.24-12.83,19.3-24,21.69s-22.8.25-34-2.16c-14.66,14.28-40,15.81-56.22,3.39-14.28,6.44-30.6,5.84-46.24,5.12l-16.05-.74c-12.91-.6-27.92-2.37-34.65-13.4a33.41,33.41,0,0,1-23.86-28.35c.63,6.68-31.13-12.18-32.89-13.8-8.89-8.17-15.83-23.09-28.27-26.21-4.36-1.1-9-.52-13.38-1.51C203.69,560.88,197.84,542.23,206.75,532.46Z"/><path class="cls-10" d="M307.92,485.12a19.61,19.61,0,0,0-2.3,5.71,74.69,74.69,0,0,0,.41,40.34c1.33,4.53,4.14,9.71,8.86,9.74,4.24,0,7.16-4.17,11-6,4.15-2,9.71-1.33,12.76-4.79a10.45,10.45,0,0,0,2.15-6.2c1-12.77-7.25-24-11.57-35.41-2.11-5.57-1.33-9.16-7.51-10.3C317.25,477.39,310.25,481.59,307.92,485.12Z"/><path class="cls-11" d="M328.35,519.1c-3.31-1.13-6.64,1.52-9,4.13s-5,5.66-8.48,5.55c-.84-3.71,3.22-6.51,6.67-8.12s7.53-4.35,6.76-8.07c-2.9-1.11-4.68,3.58-7.65,4.5-1.25.38-2.58,0-3.89,0s-2.83.44-3.22,1.69a36.52,36.52,0,0,1,4.75-11.66,5.26,5.26,0,0,1,2.57-2.45c2.74-.87,4.8,2.49,5.71,5.22,3.7-4.86,2.86-11.7,1.43-17.64-1-3.94-.6-9.73-1.57-13.88l-.76-.16c-3.27-.6-7.89,1.49-11,4a18.1,18.1,0,0,1,7.36,9.86,4.44,4.44,0,0,1,.22,2.25,5.56,5.56,0,0,1-1.71,2.47c-4,4.16-6.56,9.47-8.63,14.84-1.79,4.65-3.26,9.57-3.14,14.53.36,1.67.79,3.33,1.27,5a18.73,18.73,0,0,0,3.8,7.31,12.53,12.53,0,0,0,2.75,2,6,6,0,0,0,1.12.34c2-4.43,4.22-9,8-12,1.65-1.33,3.58-2.33,5-3.85S329.21,521,328.35,519.1Z"/><path class="cls-10" d="M535.27,485.12a19.63,19.63,0,0,1,2.31,5.71,74.79,74.79,0,0,1-.41,40.34c-1.33,4.53-4.15,9.71-8.87,9.74-4.24,0-7.16-4.17-11-6-4.16-2-9.71-1.33-12.76-4.79a10.45,10.45,0,0,1-2.15-6.2c-1-12.77,7.24-24,11.57-35.41,2.11-5.57,1.32-9.16,7.51-10.3C526,477.39,533,481.59,535.27,485.12Z"/><path class="cls-11" d="M514.85,519.1c3.3-1.13,6.64,1.52,9,4.13s5,5.66,8.47,5.55c.85-3.71-3.22-6.51-6.66-8.12s-7.53-4.35-6.76-8.07c2.9-1.11,4.68,3.58,7.65,4.5,1.24.38,2.58,0,3.88,0s2.83.44,3.23,1.69a36.75,36.75,0,0,0-4.75-11.66,5.24,5.24,0,0,0-2.58-2.45c-2.74-.87-4.79,2.49-5.71,5.22-3.7-4.86-2.86-11.7-1.42-17.64,1-3.94.6-9.73,1.56-13.88l.77-.16c3.26-.6,7.89,1.49,11,4a18.16,18.16,0,0,0-7.37,9.86,4.67,4.67,0,0,0-.22,2.25,5.73,5.73,0,0,0,1.71,2.47c4,4.16,6.56,9.47,8.63,14.84,1.79,4.65,3.27,9.57,3.15,14.53q-.56,2.5-1.27,5a18.73,18.73,0,0,1-3.8,7.31,13,13,0,0,1-2.75,2,6,6,0,0,1-1.12.34c-2-4.43-4.23-9-8-12-1.66-1.33-3.58-2.33-5.06-3.85S514,521,514.85,519.1Z"/><path class="cls-12" d="M704.29,774.16c-35,41.65-73,92.22-115.3,129.26q-21.69,3.45-43.49,6.05l-1.22.14-1.23.14a1123,1123,0,0,1-188.85,6l-1.23-.06-1.24-.07q-33-1.8-65.88-5.54c-23.56-42.56-43.45-90.23-56.9-113Q224.2,789,219.43,781c12.31-1.38,24.93-2.53,37.13-6.67a63.92,63.92,0,0,0,12.51-5.91c.43-.25.86-.52,1.28-.79s.84-.52,1.26-.8c8.11-5.29,15.45-12,22.61-18.61l35.57-32.82q3.24-3,6-5.92c1-1.08,2-2.15,2.94-3.23.36-.4.7-.79,1-1.19q1.46-1.69,2.74-3.39L343,701c.61-.8,1.18-1.6,1.74-2.4l.49-.73c.2-.28.38-.55.56-.83h0c.37-.57.74-1.14,1.09-1.71s.57-.92.84-1.39c.4-.68.79-1.36,1.15-2s.61-1.14.9-1.72c.54-1.08,1.05-2.17,1.52-3.26.18-.41.36-.82.52-1.23s.34-.83.49-1.25.28-.72.41-1.08.28-.78.41-1.17c.07-.19.14-.39.2-.59s.13-.39.19-.59h0c.3-1,.59-1.92.85-2.89.05-.18.1-.36.14-.54l.12-.45.09-.37a2.68,2.68,0,0,0,.07-.27c.06-.25.12-.49.17-.74l.09-.37.09-.41c0-.11.05-.21.07-.31.09-.42.18-.84.26-1.27,0-.14.05-.27.08-.4s0-.27.07-.4.1-.51.14-.77.07-.37.09-.55a.29.29,0,0,0,0-.09c.07-.39.13-.77.19-1.15a1.36,1.36,0,0,1,0-.2s0-.05,0-.08c.07-.48.13-1,.19-1.44,0-.29.08-.59.11-.88l.12-1c.05-.49.1-1,.14-1.47s.07-.69.09-1,.08-1,.11-1.51l.09-1.49v0c0-.12,0-.23,0-.35,0-.33,0-.67,0-1,0-.1,0-.2,0-.31l0-.95c0-.27,0-.55,0-.83s0-.28,0-.42v-.17c0-.21,0-.42,0-.63v-.44c0-2.68,0-5.45-.15-8.32-.09-2-.2-4.06-.35-6.17,0-.53-.07-1.06-.11-1.59-.12-1.6-.25-3.23-.4-4.9q-2.29-26.25-4.61-52.48c-.74-8.52-1.54-17.25-5.14-25-.23-.5-.47-1-.71-1.47-.14-.29-.28-.57-.43-.84-.05-.1-.1-.2-.16-.3-.22-.43-.45-.84-.68-1.25-.35-.64-.72-1.27-1.1-1.88l-.51-.83a.18.18,0,0,0-.05-.07l-.1-.17c-.17-.27-.34-.54-.52-.8v0l-.34-.52-.49-.73c-.5-.74-1-1.47-1.53-2.18q-.49-.71-1-1.41c-2.15-2.92-4.35-5.71-6.41-8.68-.41-.58-.81-1.18-1.21-1.78a0,0,0,0,1,0,0h0c-.18-.26-.35-.52-.51-.79a52.67,52.67,0,0,1-3.37-6l-.42-.89-.51-1.18q-.32-.74-.6-1.5t-.51-1.41c-.33-1-.64-1.94-.92-3l0-.12c-.27-1-.53-2-.78-3s-.41-1.75-.61-2.64c-.09-.38-.17-.77-.25-1.17,0,0,0,0,0,0a.37.37,0,0,1,0-.12c-.17-.77-.33-1.55-.48-2.32-.06-.3-.11-.6-.16-.9-.11-.59-.22-1.17-.32-1.76a0,0,0,0,1,0,0c-.12-.62-.22-1.25-.32-1.87l-.27-1.74c-.16-1.05-.3-2.09-.44-3.13a.15.15,0,0,1,0-.07c-.07-.49-.13-1-.19-1.47-.27-2.07-.5-4.16-.69-6.25-.11-1.14-.22-2.28-.32-3.42a2.28,2.28,0,0,1,0-.26c-.1-1.21-.2-2.42-.29-3.63-.07-1-.14-1.92-.2-2.88q-.06-.63-.09-1.26c-.06-.85-.11-1.7-.16-2.55,0-.2,0-.41,0-.62-.13-1.89-.24-3.79-.35-5.68s-.21-3.7-.31-5.53c-.07-1.17-.13-2.33-.19-3.49,0-.44-.05-.87-.07-1.3-.1-2-.2-4-.28-6,0-.4,0-.79-.05-1.18C317,448,316.83,441,316.93,434q0-3.27.17-6.52t.33-6.48c.1-1.44.21-2.87.33-4.3.06-.73.13-1.45.2-2.18s.14-1.41.22-2.11q.36-3.43.87-6.85c.07-.57.16-1.13.25-1.69q.68-4.37,1.59-8.7l.42-1.93c.11-.5.22-1,.34-1.48l.42-1.75c.15-.6.3-1.2.46-1.81,0,0,0,0,0,0,.09-.35.18-.71.28-1.06.32-1.18.65-2.36,1-3.54.16-.55.33-1.1.5-1.65.89-2.91,1.88-5.82,3-8.73.21-.58.44-1.17.67-1.75s.4-1,.61-1.55q2.42-6,5.47-11.94a130.29,130.29,0,0,1,20.35-29.27c.4-.44.82-.88,1.24-1.32s.85-.89,1.28-1.32c16.18-16.33,36.9-27.38,60.8-27.95,11.48-.28,22.91,1.53,34.1,4.09,15.46,3.55,27.83,12.35,37.73,23.88.39.45.77.91,1.16,1.37s.75.91,1.12,1.38c13.1,16.43,21.63,37.63,27.2,57,0,0,0,0,0,0v0h0c.17.59.33,1.18.5,1.76.25.91.5,1.81.74,2.73.18.7.37,1.41.54,2.12.14.53.27,1.06.4,1.59s.25,1,.36,1.52c.17.73.34,1.46.5,2.19.11.49.21,1,.31,1.47.39,1.79.74,3.58,1.07,5.39a.08.08,0,0,1,0,.07,1.65,1.65,0,0,1,.06.32s0,0,0,0q.23,1.2.42,2.4c.07.33.12.66.17,1,.16.93.3,1.86.44,2.79s.29,1.94.42,2.91c.06.4.12.8.16,1.21q.14.93.24,1.86c.05.34.09.69.12,1,.12,1,.23,1.89.33,2.84.13,1.22.25,2.44.35,3.67.07.73.14,1.46.19,2.2a1.94,1.94,0,0,1,0,.24c.05.64.1,1.27.14,1.91.08,1.15.16,2.29.22,3.44,0,.61.07,1.23.09,1.84a.91.91,0,0,1,0,.17l.06,1.18c.26,6,.29,12.11.13,18.17,0,.74,0,1.48-.08,2.22-.05,1.32-.1,2.64-.17,4,0,.5,0,1-.08,1.49q-.32,5.54-.84,11c-.08.92-.18,1.84-.28,2.77s-.22,2.1-.34,3.15h0c-.12,1-.25,2.11-.39,3.16s-.27,2.1-.42,3.15l-.3,2.14-.24,1.55c-.09.63-.19,1.24-.29,1.87,0,.21-.07.43-.1.64-.15.92-.3,1.84-.47,2.76,0,.36-.12.73-.19,1.09q-.25,1.5-.54,3c-.33,1.85-.69,3.68-1.07,5.51s-.73,3.82-1.09,6q-.25,1.51-.51,3.12c-.15,1-.31,1.93-.47,2.92h0c-.21,1.27-.43,2.56-.65,3.87-.37,2.14-.77,4.32-1.21,6.5l-.09.44c-.14.67-.28,1.34-.43,2l0,.13c-.11.52-.23,1-.35,1.54-.16.69-.32,1.37-.49,2s-.35,1.36-.54,2l-.06.23-.06.2c-.16.58-.32,1.17-.5,1.74,0,.13-.07.25-.11.37-.1.33-.2.65-.31,1-.16.51-.33,1-.5,1.52s-.39,1.13-.6,1.68c-.5,1.36-1,2.67-1.62,4l-.48,1c-.18.38-.37.74-.56,1.11s-.39.74-.59,1.1l-.05.09c-.22.38-.43.75-.66,1.12s-.43.71-.67,1.05v0c-.13.21-.27.42-.42.62s-.25.37-.38.54a27.81,27.81,0,0,1-1.84,2.31c-.12.12-.23.25-.35.38a21.26,21.26,0,0,1-1.59,1.56c-.2.19-.4.36-.61.53a21.11,21.11,0,0,1-2.82,2c-2.1,1.23-4.48,2.16-6.06,4-2.22,2.6-2.34,6.34-2.34,9.76,0,1.61,0,3.19-.1,4.75l0,.75c-.07,1.79-.19,3.55-.34,5.29-.09,1.16-.2,2.31-.32,3.45a.3.3,0,0,1,0,.1c-.07.78-.16,1.56-.25,2.33s-.15,1.26-.23,1.88c-.56,4.48-1.25,8.9-1.94,13.47l-.24,1.52a.22.22,0,0,1,0,.11q-.42,2.88-.83,5.86c-.2,1.51-.36,3-.47,4.56-.05.64-.08,1.28-.11,1.93-.13,2.38-.15,4.8-.09,7.23,0,.3,0,.6,0,.9,0,.49,0,1,.06,1.46a.43.43,0,0,0,0,.16c.2,4.93.7,9.91,1.31,14.87,0,0,0,0,0,0,.12,1,.26,2.11.41,3.15q.38,2.94.8,5.84c.32,2.24.65,4.45,1,6.64.25,1.78.5,3.54.73,5.27l.09.66s0,0,0,0c.09.64.17,1.28.25,1.91s.14,1.1.23,1.64c0,.27.08.55.13.82a.59.59,0,0,0,0,.13l0,.19c0,.08,0,.16,0,.23l.06.31a.41.41,0,0,0,0,.16c0,.13,0,.26.07.38a6.38,6.38,0,0,0,.12.63v0h0a.11.11,0,0,0,0,.08c0,.25.09.49.15.73s.09.45.14.67c.1.45.21.9.33,1.34l.06.26a1.21,1.21,0,0,0,.05.18,1.16,1.16,0,0,0,0,.18l.24.87c.08.29.16.59.25.88,0,.11.06.22.1.34.12.4.24.81.37,1.21,0,.1.07.2.11.31.09.29.19.59.29.88s.15.42.23.64.19.53.29.79.19.51.29.76.15.37.22.56l.15.37c.21.52.43,1,.65,1.54.12.26.23.51.35.76l.16.36c.08.16.16.33.23.49s.2.42.31.63l.38.76a.76.76,0,0,0,.09.18l.15.3.71,1.33a.33.33,0,0,0,.06.1l.15.28c.1.19.21.38.32.57.44.77.9,1.54,1.37,2.3l.16.25.3.46a1.37,1.37,0,0,0,.13.2c.2.32.41.63.62.94s.26.4.4.59.22.32.33.48l0,0c.11.17.22.33.34.49l.22.31c.24.34.49.67.74,1l.3.4c.31.42.63.83,1,1.24.87,1.1,1.76,2.16,2.7,3.21.28.32.56.63.85.94l.86.93c.35.37.7.74,1.07,1.1s.58.6.88.89c.47.47,1,.93,1.44,1.39,1,1,2,1.88,3.09,2.78s2.14,1.8,3.23,2.68l0,0c17.57,13.85,41.13,23,64,28.41,1.6.39,3.19.75,4.77,1.09l1.56.33A235.4,235.4,0,0,0,625.3,746c19.06,1,47.46-2.81,64,9C696.24,759.92,700.83,766.61,704.29,774.16Z"/><path class="cls-12" d="M491.86,666c-2.18-17.37-6.33-37.16-4-54.65,1.84-13.64,4.3-25.28,4.31-39.51,0-3.42.12-7.16,2.34-9.77,1.58-1.85,4-2.78,6.06-4,15.72-9.21,17.39-38.9,20.65-54.7,7.67-37.24,8.64-78.93-1.7-115.75-.17-.6-.34-1.21-.52-1.81v0c2.66,16.93,5.87,31.31-14.28,36.79-5.78,1.57-11.65,3.33-16.51,6.83-10.48,7.56-9.15,22-11.21,33.49-1.94,10.74-10.92,10.14-14.4.55-4.15-11.45-6.7-27.92-16.16-36-5.58-4.8-9.37-3.27-16.06-1.67a18.35,18.35,0,0,1-6.6.75c-5.1-.69-8-3.64-13.32-2.27a21.62,21.62,0,0,0-12.2,8c-4.05,5.09-15.89,40.3-23.2,38.54-1.59-.39-2.65-1.88-3.41-3.33-3.33-6.39-3.49-13.88-4.88-20.94s-4.76-14.61-11.48-17.19c-15.06-5.77-27.28-1.77-31.32-21.66-2.47-12.2,0-26.54,4.57-37.74C315,403.37,316,436.43,318.16,472.66c.93,15.69,1.87,31.65,6,46.88,4.5,16.41,15.47,23.33,22.12,37.72,3.6,7.77,4.4,16.5,5.14,25q2.31,26.24,4.61,52.47c2.84,32.38.82,52.53-20.26,74.7.44.5.9,1,1.39,1.45,3.64,3.46,8.29,5.67,12.91,7.65A212.52,212.52,0,0,0,481.32,730c12-2.83,24.47-7.16,32.31-16.7a25.26,25.26,0,0,0,2.86-4.27C503.32,697.72,494,683.54,491.86,666Z"/><path class="cls-10" d="M463,482a29.06,29.06,0,0,1-3.25,1.13c-10.42,3.06-21.33,4.05-31.95,6.22a43,43,0,0,1-16,.25c-8.9-1.53-18.31-4.13-27-6.57a12.9,12.9,0,0,1-5.37-2.51c-7.23-6.49,8.26-23.35,10.91-29.78,1.63-4,2.93-8.06,4.49-12.05.48-1.21,1.23-4.58,2.61-5s3.53,1.48,4.58,2.07c1.8,1,2.86,2.2,5,3a42.53,42.53,0,0,0,6.65,1.93,43.24,43.24,0,0,0,12.69.64,56.2,56.2,0,0,0,13.78-3.24c2.3-.83,4.54-1.79,6.76-2.81,1.43-.65,3.92-.76,4.76-2.18a74.06,74.06,0,0,0,3.07,9.5q2.79,7.06,5.56,14.12a62.2,62.2,0,0,0,3.48,7.77c2.53,4.47,7.75,9.88,3,15A10.62,10.62,0,0,1,463,482Z"/><path class="cls-11" d="M393.94,367.92a24.44,24.44,0,0,1,4.79,6,8.29,8.29,0,0,1,.32,7.43c-14.57,6.35-29.63,12.82-45.53,13.06-4.94.07-10.33-.67-13.75-4.23a13.17,13.17,0,0,1-3-11.37,23.19,23.19,0,0,1,5.54-10.73c2.72-3.18,6.15-6,10.24-6.86l-1.74,15.46c-.24,2.07-.4,4.41.95,6s3.61,1.83,5.66,1.89a76.48,76.48,0,0,0,24.19-3.17c2.19-.66,4.47-1.49,5.89-3.29a8.85,8.85,0,0,0,1.65-4.93c.24-3.22-2.24-7.51-.06-9.92A61.06,61.06,0,0,1,393.94,367.92Z"/><path class="cls-13" d="M409.48,451.43c4.46-3.1,9.8-5.23,15.22-4.92,8.41.48,15.36,6.55,21.19,12.64,1.2,1.25,2.47,3,1.67,4.56a58.09,58.09,0,0,0-32-2.28c-2.81.6-5.58,1.41-8.41,1.9C393,465.78,403.87,455.35,409.48,451.43Z"/><path class="cls-10" d="M369.84,336.32c8.67-.86,17.51.61,26,2,3.59.6,7.33,1.25,10.3,3.36,9.95,7.07-.92,13.24-8.32,13.72-16.3,1.06-30.38-15.09-46-3.75a46.85,46.85,0,0,0-5.41,4.85c-5,5-8.53,10.79-13.08,16.08,4.32-8.25,7-17.37,14.07-23.87,5.82-5.38,11.4-10.69,19.35-12C367.8,336.56,368.82,336.42,369.84,336.32Z"/><path class="cls-12" d="M400.83,459.55a52,52,0,0,1,29-5.2C445,456,455,469.43,470.53,470.83c.07,1.54-.85,1.88-2.32,1.9-20.75.34-41.39-6.62-62-3.94-6.09.79-12.15,2.65-18.3,2.85-4.38.14-7.28-2.24-11.07-2.7a22.45,22.45,0,0,0,16.41-4.58A46.09,46.09,0,0,1,400.83,459.55Z"/><path class="cls-14" d="M346.91,389.46c-2.66,2-5.19,4.36-8.32,5.56,3-1.14,10.71,1.25,14.21,1.22a78.61,78.61,0,0,0,15.37-1.67c8.06-1.7,21.83-5.12,26.93-11.91-4-5.69-18-4.19-24-3.3A52.74,52.74,0,0,0,346.91,389.46Z"/><path class="cls-14" d="M382.72,375.53c-.5,1.31-1,2.63-1.52,3.94-.46-.93-.92-1.85-1.39-2.77a22.14,22.14,0,0,1-2.57,3.81,2,2,0,0,1-1.09.79c-.89.14-1.5-.85-1.84-1.69-1.08-2.62-2.15-5.24-3.23-7.87a27.4,27.4,0,0,1-.5,7.61c-.13.62-.48,1.4-1.12,1.34a1.21,1.21,0,0,1-.76-.48,9.84,9.84,0,0,1-1.92-3,14.61,14.61,0,0,0-.95,4.08,22.16,22.16,0,0,1-3.59-3,8.9,8.9,0,0,1-2.11,5.28c-.77-.2-.9-1.22-1.06-2s-1-1.69-1.6-1.2a1.37,1.37,0,0,0-.39.73l-1,3.57a6.92,6.92,0,0,0-3.65-1.22l.64,4.12-5.61-1.33,1.2,4.06-5.67-.93c2.48,2.12,6.08,2.21,9.33,1.89,8.17-.79,16-3.45,23.75-5.91,3.44-1.08,17.88-3.6,10.49-9.56-.2,1.45-1.37,2.72-1.65,3.87C384.37,379.08,382.34,376.53,382.72,375.53Z"/><path class="cls-11" d="M454.2,369.33a24.34,24.34,0,0,0-4.8,6,8.27,8.27,0,0,0-.31,7.42c14.57,6.36,29.63,12.82,45.53,13.06,4.93.08,10.32-.66,13.75-4.22a13.21,13.21,0,0,0,3-11.37,23.24,23.24,0,0,0-5.54-10.73c-2.72-3.18-6.15-6-10.24-6.86l1.74,15.45c.23,2.08.39,4.41-1,6s-3.61,1.82-5.66,1.89a76.41,76.41,0,0,1-24.19-3.18c-2.19-.65-4.48-1.49-5.9-3.29A8.93,8.93,0,0,1,459,374.6c-.23-3.22,2.24-7.51.06-9.92A60.8,60.8,0,0,0,454.2,369.33Z"/><path class="cls-10" d="M478.3,337.74c-8.68-.86-17.51.6-26,2-3.6.6-7.33,1.26-10.3,3.37-9.95,7.06.91,13.23,8.32,13.71,16.29,1.06,30.38-15.08,46-3.75a46.76,46.76,0,0,1,5.4,4.85c5,5,8.53,10.79,13.08,16.08-4.31-8.25-7-17.37-14.06-23.86-5.83-5.38-11.41-10.69-19.35-12C480.34,338,479.32,337.84,478.3,337.74Z"/><path class="cls-14" d="M501.23,390.87c2.66,2,5.19,4.36,8.31,5.56-3-1.14-10.71,1.25-14.21,1.22A77.76,77.76,0,0,1,480,396c-8.06-1.69-21.83-5.12-26.93-11.91,3.95-5.69,17.95-4.18,23.95-3.3A52.79,52.79,0,0,1,501.23,390.87Z"/><path class="cls-14" d="M465.41,376.94c.51,1.32,1,2.63,1.52,3.94l1.39-2.77a23.34,23.34,0,0,0,2.57,3.81,2,2,0,0,0,1.1.79c.89.15,1.5-.85,1.84-1.69l3.23-7.86a27.3,27.3,0,0,0,.5,7.6c.13.63.48,1.4,1.12,1.35a1.33,1.33,0,0,0,.76-.48,10.08,10.08,0,0,0,1.92-3,14.4,14.4,0,0,1,.94,4.09,22.21,22.21,0,0,0,3.6-3A8.9,8.9,0,0,0,488,385c.78-.2.91-1.21,1.06-2s1-1.69,1.6-1.19a1.25,1.25,0,0,1,.39.73l1,3.56a7,7,0,0,1,3.64-1.22l-.63,4.13,5.61-1.34-1.2,4.07,5.66-.94c-2.47,2.13-6.07,2.21-9.32,1.9-8.18-.8-16-3.45-23.75-5.91-3.44-1.09-17.88-3.61-10.5-9.56.21,1.44,1.38,2.72,1.66,3.86C463.77,380.5,465.8,377.94,465.41,376.94Z"/><path class="cls-12" d="M393.49,493.22a28,28,0,0,1,18.36-.42c3.49,1.05,6.87,2.67,10.51,2.92,6.26.41,12.06-3.29,18.29-4,10.83-1.29,21.71,8.11,22,19a4.59,4.59,0,0,1-.36,2.18c-1,1.79-3.5,1.7-5.5,1.38-18-2.94-36.41-5.18-54.34-2-4.66.84-9.28,2.05-14,2.24C371.92,515.2,386.14,496.17,393.49,493.22Z"/><path class="cls-10" d="M351.52,756.48c11-2.9,22.18-8.38,33.3-5.85,12.28,2.8,22,15,34.53,14,9.26-.73,16.28-8.48,24.85-12.07,5.48-2.3,11.52-2.85,17.44-3.37l41.56-3.66a77.27,77.27,0,0,0-68.45,2.52c-5.16,2.85-10.06,6.33-15.71,8a26.83,26.83,0,0,1-26.4-7.12c-2.18-2.3-4.06-5.08-6.95-6.35-3.39-1.5-7.3-.57-10.87.44-25.11,7.06-49.8,16.83-75.82,18.76-5.3.39-15.08-.55-16.54,5.5C305,759.55,328.69,762.47,351.52,756.48Z"/><path class="cls-11" d="M592.27,752.29c-28.07-3.75-56.08,5.5-82.9,14.63,15.4-2.72,30.46,6.24,46.07,7,7.27.34,14.49-1.12,21.62-2.58,17.62-3.59,36.41-5.81,53.52-11.16C627,754.6,599.63,753.28,592.27,752.29Z"/><path class="cls-15" d="M491.86,666c-3.4-27.16-5.93-51.89-.61-79.08,1.28-6.5,2.07-13.71,5.25-19.45a82.44,82.44,0,0,1,11.07-15.36c5.49-6-12-7-14.72-6.93-11.72.09-24.55-3.19-34.2-10.06-7.45-5.3-11.17-12.44-20.66-14.61-9-2.07-18.54-3.22-27.41-.63-11.45,3.35-20.3,12.09-31.39,16.27-10.19,3.82-21.3,7.27-31.86,10.63-2.21.7-4.25,1.22-6.11,1.62a61.39,61.39,0,0,1,5.1,8.88c3.6,7.77,4.4,16.5,5.14,25q2.31,26.24,4.61,52.47c1.51,17.19,1.65,30.93-1.71,43.36,9.44,10.28,22,17.84,35.2,22.66,18.23,6.65,37.8,8.6,57.16,9.85,11.14.72,22.56,1.19,33.22-2.15,8.73-2.74,16.3-7.82,23.22-13.86A61.92,61.92,0,0,1,491.86,666Z"/><path class="cls-16" d="M331.09,818A201.15,201.15,0,0,1,352.78,920a502.39,502.39,0,0,0,191.75-9.1c-12-60.65-4.55-132.4,44.27-170.32C567,732.26,545,723.74,526.24,709.9s-34.11-33.9-37.08-57a365.93,365.93,0,0,1-134.11,3.78c-.6-.09-34.9,53.44-39.29,58.54-16,18.56-35.89,32.24-53,49.12C292.92,777.32,314.69,785.92,331.09,818Z"/><path class="cls-17" d="M474.84,655.68c-1.9.34-3.81.65-5.72,1a365.8,365.8,0,0,1-96,2.43c-2-.21-3.91-.43-5.87-.68-.17.4-.34.8-.52,1.19q2.94.36,5.9.68a366.74,366.74,0,0,0,96.89-2.45q2.88-.43,5.75-.95C475.14,656.46,475,656.07,474.84,655.68Zm114.4,83.78c-15.39-5.91-31.16-12-45.77-20.05a149.25,149.25,0,0,1-16.5-10.5l-1-.73h0c-20.06-15.13-33-35.29-35.61-55.43l-.17-1.34-.08,0-.3.06-.93.21q-7.25,1.56-14.51,2.83-2.85.5-5.71,1a361.39,361.39,0,0,1-95,2.42c-2-.2-3.91-.43-5.86-.67q-5.36-.66-10.7-1.48l-1.84-.28c-.78-.13-1.2.43-1.57.93-.24.31-.55.76-1,1.37-.76,1.1-1.84,2.7-3.29,4.9-2.73,4.1-6.45,9.76-10.38,15.75-6.4,9.74-13.82,21.06-18.82,28.44-2.6,3.83-4.55,6.6-5.37,7.55l-1.05,1.2c-9.21,10.45-19.79,19.5-30,28.27-7.3,6.24-14.84,12.7-21.81,19.59l-1.3,1.28,4.35,1.88,4.09,1.77c26.52,11.45,46,20.92,60.93,50.12a198.91,198.91,0,0,1,21.73,97.13c0,1.44-.1,2.89-.18,4.33l-.06,1.12,1.11.16a501.61,501.61,0,0,0,72.65,5.27q12,0,23.9-.56a503.29,503.29,0,0,0,95.67-13.84l1.15-.28-.23-1.15c-.08-.39-.16-.8-.24-1.22-4.45-23.25-12.82-86.9,15.87-135.67a113.79,113.79,0,0,1,17.09-22.35,110.26,110.26,0,0,1,11.09-9.87l.32-.25,1.41-1.09Zm-2.9,1.53A111.28,111.28,0,0,0,575,751.52a118.19,118.19,0,0,0-16.41,22.4l-.1.17A150.74,150.74,0,0,0,542.67,817a211.56,211.56,0,0,0-4.36,47.09,262.16,262.16,0,0,0,4.74,45.67c0,.09,0,.17.05.26a504.45,504.45,0,0,1-189,9c.05-1.07.1-2.14.13-3.21a202.37,202.37,0,0,0-22-98.38c-7.43-14.51-16.45-25.22-28.39-33.69-9.48-6.73-20.11-11.66-32.19-16.9L266,764.35l-1-.42c6.54-6.35,13.56-12.36,20.37-18.19,10.71-9.16,21.78-18.63,31.35-29.73.36-.42.92-1.15,1.63-2.14,1.51-2.09,3.72-5.33,6.35-9.25,4.72-7,10.78-16.27,16.41-24.86,6.31-9.61,12.81-19.52,14.46-21.76l1.5.23c3.23.49,6.48.93,9.73,1.34q2.94.36,5.9.68a366.74,366.74,0,0,0,96.89-2.45q2.88-.43,5.75-.95,6.44-1.12,12.81-2.48a69.28,69.28,0,0,0,4.48,16.13h0v0a82.21,82.21,0,0,0,8.16,15,101.67,101.67,0,0,0,15.71,17.91,110.29,110.29,0,0,0,9,7.42q4.71,3.48,9.68,6.53c15.19,9.4,31.9,16.14,48.35,22.48Z"/><path class="cls-18" d="M374.93,621.18a94.71,94.71,0,0,0-44.53-80.13c-1.82-1.82-5-3.11-7.4-3.9-.09,0-.19-.07-.22-.16s.1-.26.23-.33c1.06-.63,1.9-1.58,3-2.17,4.46-2.4,11,2.91,14.28,5.54a141.8,141.8,0,0,1,11,10.38A100.18,100.18,0,1,1,280.5,521.1c8.74,0,20.13-.3,28.16,3.54,1.63.78,7.61,4.66,4.28,6.63a7.19,7.19,0,0,1-2.93,1.08c-1.81.17-4.81-1.17-6.53-1.78-2.52-.9-5-2.13-7.61-2.56a94.43,94.43,0,1,0,79.06,93.17Z"/><path class="cls-18" d="M562.73,715.61A94.43,94.43,0,1,0,547.36,528c-2.65.43-5.09,1.66-7.6,2.56-1.73.61-4.72,1.95-6.53,1.78a7.18,7.18,0,0,1-2.94-1.08c-3.33-2,2.65-5.85,4.28-6.63,8-3.84,19.42-3.54,28.17-3.54A100.14,100.14,0,1,1,492,550.41,141.8,141.8,0,0,1,503,540c3.27-2.63,9.82-7.94,14.28-5.54,1.09.59,1.93,1.54,3,2.17.12.07.27.19.23.33a.35.35,0,0,1-.23.16c-2.4.79-5.58,2.08-7.4,3.9a94.41,94.41,0,0,0,49.9,174.56Z"/><path class="cls-16" d="M304.52,315.3c-4.13-.35-8.65-.46-12,2-6.79,5-3.72,15.64.21,23.09,13.6,25.75,44.23,92,83.59,71.71,4.51-2.32,8.38-5.69,12.21-9,7.27-6.34,14.8-13.05,18.28-22.05,7.42-19.23-2.44-26.28-17.13-36A184.25,184.25,0,0,0,304.52,315.3Z"/><path class="cls-17" d="M304.51,315.51a33.17,33.17,0,0,0-5.27-.13,13.29,13.29,0,0,0-5,1.23,8.87,8.87,0,0,0-3.74,3.41,10.28,10.28,0,0,0-1.39,4.85,19.14,19.14,0,0,0,.52,5.1,31.4,31.4,0,0,0,1.63,4.91,42.79,42.79,0,0,0,2.29,4.66c.87,1.52,1.77,3.07,2.63,4.61,7,12.33,13.63,24.73,21.26,36.51a147.2,147.2,0,0,0,12.48,16.89,75.12,75.12,0,0,0,7.4,7.42,50.82,50.82,0,0,0,8.53,6,38.41,38.41,0,0,0,4.73,2.21,33.14,33.14,0,0,0,5,1.45,28.2,28.2,0,0,0,10.32.2l1.28-.24,1.26-.3c.42-.09.83-.23,1.24-.36s.83-.23,1.24-.39l1.21-.46c.41-.14.8-.34,1.19-.51.8-.33,1.57-.74,2.34-1.13a44,44,0,0,0,8.43-6.05c1.32-1.15,2.62-2.34,3.92-3.53s2.59-2.4,3.86-3.61a86.06,86.06,0,0,0,7.13-7.58c1.07-1.34,2.09-2.71,3-4.13a35.15,35.15,0,0,0,2.4-4.43c.18-.37.32-.77.48-1.15l.24-.58.21-.6.42-1.21.38-1.21a32.7,32.7,0,0,0,1.08-4.89,17.7,17.7,0,0,0-1-9.39,21.89,21.89,0,0,0-5.81-7.66,78.25,78.25,0,0,0-8.23-6.19c-1.45-1-2.92-2-4.39-2.91s-2.94-1.89-4.42-2.82a197.51,197.51,0,0,0-18.4-10.07c-.78-.4-1.58-.76-2.37-1.13l-2.39-1.1-1.18-.57-1.21-.52-2.41-1c-1.6-.73-3.24-1.35-4.86-2-.81-.33-1.62-.68-2.44-1l-2.47-.92-2.47-.93-2.49-.86-2.5-.85c-.83-.28-1.68-.53-2.52-.79-1.68-.51-3.36-1.05-5.07-1.49l-2.55-.68c-.85-.24-1.71-.44-2.57-.64A143.05,143.05,0,0,0,304.51,315.51Zm0-.41q10.59.91,21.08,2.75c1.76.27,3.49.66,5.24,1s3.48.73,5.21,1.11c.87.2,1.74.39,2.6.6l2.59.66,2.59.66,2.57.75,2.57.75c.85.25,1.69.54,2.54.82,1.7.55,3.4,1.1,5.07,1.74l2.51.93,1.26.47,1.24.5,2.47,1c.83.34,1.66.67,2.47,1.06a166.54,166.54,0,0,1,19,9.94c.78.45,1.52.95,2.28,1.42l2.26,1.44c.77.48,1.5,1,2.24,1.46l2.22,1.49a73.89,73.89,0,0,1,8.64,6.67,32.41,32.41,0,0,1,3.82,4.18,22,22,0,0,1,2.89,5.07,19.33,19.33,0,0,1,1.32,5.73,24.94,24.94,0,0,1-.25,5.74,37.56,37.56,0,0,1-1.33,5.44l-.43,1.31-.49,1.29-.24.64-.28.64c-.2.43-.37.87-.58,1.28a39,39,0,0,1-2.79,4.82,47.52,47.52,0,0,1-3.39,4.33c-1.21,1.36-2.47,2.66-3.76,3.92s-2.64,2.44-4,3.6-2.72,2.31-4.08,3.44-2.74,2.26-4.14,3.37a48.8,48.8,0,0,1-9.08,5.87,35.58,35.58,0,0,1-10.32,3.21,12,12,0,0,1-1.34.16c-.46,0-.9.1-1.36.11l-1.35.05-1.36,0a31.37,31.37,0,0,1-5.37-.64,38.86,38.86,0,0,1-5.18-1.51,46,46,0,0,1-4.91-2.21c-1.58-.85-3.14-1.74-4.63-2.74s-2.94-2.05-4.34-3.17a86.21,86.21,0,0,1-8-7.18c-2.51-2.55-4.89-5.23-7.16-8s-4.42-5.62-6.47-8.54a194.32,194.32,0,0,1-11.22-18.18c-3.42-6.23-6.51-12.63-9.54-19l-2.27-4.79a45.66,45.66,0,0,1-2-5,32.74,32.74,0,0,1-1.31-5.27,20.3,20.3,0,0,1-.21-5.45,11.8,11.8,0,0,1,1.79-5.17,9.91,9.91,0,0,1,4.13-3.49,14.27,14.27,0,0,1,5.24-1.18A37.84,37.84,0,0,1,304.54,315.1Z"/><path class="cls-16" d="M542,315.3c4.13-.35,8.65-.46,12,2,6.79,5,3.72,15.64-.21,23.09-13.6,25.75-44.23,92-83.59,71.71-4.51-2.32-8.38-5.69-12.21-9-7.27-6.34-14.8-13.05-18.28-22.05-7.42-19.23,2.44-26.28,17.13-36A184.25,184.25,0,0,1,542,315.3Z"/><path class="cls-17" d="M542,315.1a37.84,37.84,0,0,1,5.33-.16,14.27,14.27,0,0,1,5.24,1.18,9.91,9.91,0,0,1,4.13,3.49,11.8,11.8,0,0,1,1.79,5.17,20.3,20.3,0,0,1-.21,5.45A32.74,32.74,0,0,1,557,335.5a45.66,45.66,0,0,1-2,5l-2.27,4.79c-3,6.4-6.12,12.8-9.54,19a194.32,194.32,0,0,1-11.22,18.18q-3.09,4.38-6.47,8.54c-2.27,2.76-4.65,5.44-7.16,8a86.21,86.21,0,0,1-8,7.18c-1.4,1.12-2.85,2.17-4.34,3.17s-3,1.89-4.63,2.74a46,46,0,0,1-4.91,2.21,38.86,38.86,0,0,1-5.18,1.51,31.37,31.37,0,0,1-5.37.64l-1.36,0-1.35-.05c-.46,0-.91-.07-1.36-.11a12,12,0,0,1-1.34-.16A35.58,35.58,0,0,1,470.14,413a48.8,48.8,0,0,1-9.08-5.87c-1.4-1.11-2.77-2.24-4.14-3.37s-2.72-2.27-4.08-3.44-2.68-2.36-4-3.6-2.55-2.56-3.76-3.92a47.52,47.52,0,0,1-3.39-4.33,39,39,0,0,1-2.79-4.82c-.21-.41-.38-.85-.58-1.28l-.28-.64c-.09-.22-.16-.43-.24-.64l-.49-1.29-.43-1.31a37.56,37.56,0,0,1-1.33-5.44,24.94,24.94,0,0,1-.25-5.74,19.33,19.33,0,0,1,1.32-5.73,22,22,0,0,1,2.89-5.07,32.41,32.41,0,0,1,3.82-4.18,73.89,73.89,0,0,1,8.64-6.67l2.22-1.49c.74-.49,1.47-1,2.24-1.46l2.26-1.44c.76-.47,1.5-1,2.28-1.42a166.54,166.54,0,0,1,19-9.94c.81-.39,1.64-.72,2.47-1.06l2.47-1,1.24-.5,1.26-.47,2.51-.93c1.67-.64,3.37-1.19,5.07-1.74.85-.28,1.69-.57,2.54-.82l2.57-.75,2.57-.75,2.59-.66,2.59-.66c.86-.21,1.73-.4,2.6-.6,1.73-.38,3.46-.79,5.21-1.11s3.48-.72,5.24-1Q531.4,316,542,315.1Zm0,.41a143.05,143.05,0,0,0-20.89,3.42c-.86.2-1.72.4-2.57.64l-2.55.68c-1.71.44-3.39,1-5.07,1.49-.84.26-1.69.51-2.52.79l-2.5.85-2.5.86-2.46.93-2.47.92c-.82.31-1.63.66-2.44,1-1.62.67-3.26,1.29-4.86,2l-2.41,1-1.21.52-1.18.57-2.39,1.1c-.79.37-1.59.73-2.37,1.13a197.51,197.51,0,0,0-18.4,10.07c-1.48.93-3,1.88-4.42,2.82s-2.94,1.94-4.39,2.91a78.25,78.25,0,0,0-8.23,6.19,21.89,21.89,0,0,0-5.81,7.66,17.7,17.7,0,0,0-1,9.39,32.7,32.7,0,0,0,1.08,4.89l.37,1.21.43,1.21.21.6.24.58c.16.38.3.78.48,1.15a33.91,33.91,0,0,0,2.4,4.43c.92,1.42,1.94,2.79,3,4.13a86.06,86.06,0,0,0,7.13,7.58q1.91,1.81,3.86,3.61c1.3,1.19,2.6,2.38,3.92,3.53a44,44,0,0,0,8.43,6.05c.77.39,1.54.8,2.34,1.13.39.17.78.37,1.19.51l1.21.46c.4.16.82.26,1.24.39s.82.27,1.24.36l1.26.3,1.28.24a28.2,28.2,0,0,0,10.32-.2,33.14,33.14,0,0,0,5-1.45,38.41,38.41,0,0,0,4.73-2.21,50.82,50.82,0,0,0,8.53-6,75.12,75.12,0,0,0,7.4-7.42,147.2,147.2,0,0,0,12.48-16.89c7.63-11.78,14.29-24.18,21.26-36.51.86-1.54,1.76-3.09,2.63-4.61a44.69,44.69,0,0,0,2.29-4.66,31.4,31.4,0,0,0,1.63-4.91,19.14,19.14,0,0,0,.52-5.1,10.28,10.28,0,0,0-1.39-4.85,8.87,8.87,0,0,0-3.74-3.41,13.29,13.29,0,0,0-5-1.23A33.17,33.17,0,0,0,542,315.51Z"/><path class="cls-17" d="M554.48,313.36c2.81,1.21,5.81,4.49,5.75,7.71a4.45,4.45,0,0,1-5.16,4.54c-2.7-.3-5.15-3.42-7-5.26a5.37,5.37,0,0,1-1.81-3.1C546,313.51,551.85,312.23,554.48,313.36Z"/><path class="cls-19" d="M555.75,318.38a1.51,1.51,0,0,0-.27-2,6.57,6.57,0,0,0-3.66-1.24,1.45,1.45,0,0,0-1.39,1.12,1.42,1.42,0,0,0,.68,1.28C552,318.2,554.88,319.41,555.75,318.38Z"/><path class="cls-19" d="M550.68,318.38a1.51,1.51,0,0,1,.27-2,6.58,6.58,0,0,1,3.67-1.24,1.46,1.46,0,0,1,1.39,1.12,1.43,1.43,0,0,1-.69,1.28C554.39,318.2,551.56,319.41,550.68,318.38Z"/><path class="cls-17" d="M291.59,313.36c-2.81,1.21-5.81,4.49-5.75,7.71a4.46,4.46,0,0,0,5.16,4.54c2.7-.3,5.15-3.42,7-5.26a5.47,5.47,0,0,0,1.81-3.1C300.11,313.51,294.23,312.23,291.59,313.36Z"/><path class="cls-19" d="M295.39,318.38a1.51,1.51,0,0,0-.27-2,6.58,6.58,0,0,0-3.67-1.24,1.45,1.45,0,0,0-1.38,1.12,1.4,1.4,0,0,0,.68,1.28C291.68,318.2,294.52,319.41,295.39,318.38Z"/><path class="cls-17" d="M402.21,365.51a26,26,0,0,1,2.63-.94c.88-.27,1.76-.49,2.63-.71,1.76-.42,3.51-.75,5.27-1a77.82,77.82,0,0,1,21.05,0c1.76.25,3.51.58,5.27,1,.87.22,1.75.45,2.63.72a26,26,0,0,1,2.63.94,26,26,0,0,1-2.63.94c-.88.27-1.76.5-2.63.71-1.76.42-3.51.75-5.27,1a76.76,76.76,0,0,1-21.05,0c-1.76-.25-3.51-.58-5.27-1-.87-.22-1.75-.45-2.63-.72A25.86,25.86,0,0,1,402.21,365.51Z"/></g></g></svg>