<svg width="330" height="115" viewBox="0 0 330 115" fill="none" xmlns="http://www.w3.org/2000/svg">
<path d="M196.298 13.263C197.507 13.6679 198.899 15.066 199.338 16.5033C199.796 17.8041 199.216 18.5784 197.989 18.311C187.671 15.1464 167.621 11.5208 144.424 11.3253C173.548 31.0563 163.171 57.3895 142.349 79.5856C120.025 103.42 83.0143 114.308 55.3813 114.206C46.0602 114.207 37.5459 112.901 30.6568 110.093C23.0065 107.067 17.0175 102.266 13.6239 95.7882C9.26004 87.1211 10.3449 75.5429 19.6607 61.4846C37.2126 34.3677 63.0273 19.8054 89.7517 12.5756C101.734 9.23335 113.389 7.28635 125.176 6.56908C114.432 2.96777 81.1472 3.04819 59.5848 17.7779C74.4353 0.0276196 109.709 -4.90162 135.475 6.21559C161.762 5.75923 184.735 9.96746 196.299 13.263H196.298ZM24.8588 60.8431C25.6486 60.2679 26.5084 59.3206 27.0614 58.436C27.8947 57.0865 27.6442 55.4126 26.5976 53.4553C25.4161 54.7308 24.2899 56.012 23.8133 57.2258C23.4078 58.2994 23.515 59.5825 24.8588 60.8431ZM134.238 11.4113C120.132 11.7471 108.109 13.5173 93.1931 17.5273C66.9368 24.8057 41.4692 39.1267 23.9735 65.8312C15.4083 78.9945 14.0612 89.0139 17.6926 96.0734C19.6861 100.039 23.8536 103.119 29.3968 105.368C35.7 107.836 43.7462 109.094 52.5811 109.181C79.7661 109.097 114.358 97.3995 136.316 73.9437C153.386 55.6725 166.999 25.4313 135.723 12.1221C135.292 11.7985 134.844 11.6133 134.239 11.4104L134.238 11.4113Z" fill="#003F36"/>
<path d="M173.07 54.3744C173.583 53.6216 175.291 54.0733 176.658 55.2778C178.196 56.4822 178.88 58.1375 178.367 58.8903L172.045 67.7715C178.025 65.212 186.226 62.8039 189.644 66.567C191.183 68.0717 190.67 71.5346 192.891 71.6852C196.137 71.8357 200.921 71.2335 205.534 70.0299C206.56 69.7288 207.585 68.976 208.61 70.331C209.807 71.8367 209.123 72.2883 208.098 72.4389C203.143 73.794 194.941 75.2986 191.352 74.9984C186.91 74.6973 185.543 73.6434 181.784 69.7297C179.222 67.0206 164.014 78.9121 164.014 78.9121C163.673 79.0627 154.788 92.3092 153.933 93.6633C153.421 94.4161 151.712 93.9645 150.346 92.76C148.807 91.5555 148.124 89.8993 148.636 89.1474L173.07 54.3753V54.3744ZM215.444 57.3847C216.128 56.7824 217.837 57.3847 219.203 58.5892C220.57 59.9442 221.082 61.4489 220.57 62.2017C207.585 75.2977 206.56 84.3295 207.756 85.2329C209.806 86.7385 222.963 79.3619 232.19 65.6646L232.702 65.0623C233.386 64.4601 235.095 64.9118 236.461 66.2659C237.828 67.4704 238.512 69.1256 237.828 69.7279C237.828 69.7279 237.486 70.1796 236.633 70.7818C234.411 73.1898 221.597 89.1456 234.411 83.7272C241.075 80.8675 250.012 74.1484 254.455 69.0312C255.138 68.2784 255.822 66.7728 257.359 68.1278C258.726 69.3314 256.794 71.384 256.111 71.9863C251.497 77.255 245.004 84.3295 238.169 87.1901C232.188 89.7487 224.671 88.5443 223.646 82.072C206.73 94.866 192.889 92.4579 202.287 74.0941C205.363 68.0726 211.001 61.6004 215.443 57.3856L215.444 57.3847ZM308.566 67.7715C309.249 69.2771 308.737 70.1796 307.369 69.8784C306.002 69.5773 304.293 68.2232 303.611 66.8682C300.194 64.0084 291.821 67.4704 288.745 69.7288C282.423 74.2447 278.835 79.664 276.956 86.5879C282.936 85.0832 298.485 69.1266 298.485 69.1266C299.168 68.5243 300.706 68.976 302.243 70.331C303.44 71.5355 304.122 72.8906 303.611 73.6425C303.269 74.3953 301.218 78.3089 302.243 82.5237C302.927 86.1362 325.139 69.7288 325.481 69.5782C326.164 68.976 327.532 68.2232 328.899 69.4277C330.265 70.7827 330.095 71.9863 329.412 72.5885C318.134 81.4698 311.471 86.7385 306.858 88.8454C298.998 92.4579 293.018 90.3501 293.189 82.9744C287.037 88.0926 280.716 92.759 276.957 91.2534C275.59 90.8017 274.565 89.8984 273.54 88.995C271.831 87.0377 271.148 84.9308 271.49 82.6733C271.66 80.8675 272.344 78.9102 273.368 76.9529C275.59 72.7382 279.52 68.0717 283.962 64.9109C291.652 59.341 305.663 59.0399 308.567 67.7706L308.566 67.7715Z" fill="#003F36"/>
<path d="M251.119 95.1672C250.291 94.9091 249.575 94.6164 248.986 94.2966C247.969 93.6887 247.103 92.8031 246.347 91.6435C245.602 90.5054 245.179 89.3823 245.081 88.2751C245.079 87.8468 245.111 87.4297 245.199 87.064C245.294 86.6834 245.49 86.1466 245.778 85.4331C246.37 83.9602 247.255 82.5781 248.462 81.3137C249.646 80.0587 251.489 78.5148 254.01 76.6865L256.558 74.8835L255.775 71.1859C254.956 67.2891 255.034 64.1002 256.023 61.6407C256.39 60.7289 256.876 59.9069 257.459 59.1822C258.686 57.7701 260.134 56.5815 261.849 55.6463C263.107 54.9786 264.376 54.5718 265.686 54.4503C266.986 54.3081 268.18 54.425 269.249 54.7589C270.163 55.0441 270.957 55.4799 271.621 56.0971C272.501 56.9013 272.949 57.8617 272.948 58.9727C272.969 59.3047 272.782 59.964 272.392 60.9356C271.91 62.1354 271.376 63.0285 270.795 63.6513C268.816 65.632 267.403 66.4895 266.524 66.2155C266.317 66.151 266.141 66.0107 266.025 65.7695C265.891 65.5226 265.873 65.2776 265.984 65.0036C266.106 64.6996 266.456 64.262 267.03 63.6551C267.621 63.0528 268.112 62.2664 268.509 61.2788L268.881 60.3521C268.981 60.007 268.93 59.7003 268.717 59.4113C268.497 59.1373 268.299 58.9559 268.092 58.8913C267.868 58.8212 267.503 58.8614 267.008 58.9802C266.525 59.1205 265.923 59.4104 265.219 59.8583C264.499 60.2997 263.886 60.8094 263.348 61.377C262.629 62.2467 262.029 63.2557 261.578 64.3798C261.255 65.185 261.054 65.9256 260.946 66.627C260.888 67.1563 260.881 67.8025 260.933 68.589C260.986 69.3745 261.045 70.0937 261.147 70.7586C261.232 71.4178 261.329 71.7554 261.432 71.7872C261.535 71.82 263.267 71.1803 266.615 69.8496C269.975 68.5394 272.55 67.6847 274.357 67.291C276.163 66.8982 286.493 64.8006 287.027 64.9671C287.303 65.0531 287.508 65.2093 287.683 65.4113C287.852 65.6067 287.9 65.7872 287.845 65.9228C287.76 66.136 277.634 68.6329 275.675 69.1725C273.7 69.7158 271.486 70.3265 269.122 71.2813C266.736 72.2455 264.949 73.0721 263.754 73.7763C262.683 74.3655 262.113 74.7685 262.046 74.9359L262.732 77.7657C264.189 83.5534 264.37 87.8318 263.259 90.5961C262.557 92.343 261.093 93.7149 258.861 94.7286C257.717 95.2093 256.745 95.5039 255.939 95.6282C254.515 95.8854 252.911 95.7264 251.118 95.1672H251.119ZM252.186 90.3895C252.876 90.6045 253.476 90.655 254.046 90.5419C254.593 90.439 255.017 90.2978 255.275 90.1388C255.556 89.9705 255.799 89.704 256.01 89.3252C256.215 88.9615 256.458 88.4051 256.757 87.6607C257.105 86.7947 257.333 86.1317 257.447 85.6538C257.567 85.1619 257.65 84.5718 257.682 83.8639C257.731 83.1616 257.741 82.4125 257.735 81.6074C257.746 80.8069 257.703 80.0933 257.641 79.4752C257.562 78.8514 257.489 78.4531 257.435 78.2997C257.358 78.1557 257.278 78.0631 257.209 78.0416C257.123 78.0145 256.883 78.1286 256.496 78.4175C255.34 79.219 254.201 80.2654 253.08 81.5569C251.634 83.1738 250.644 84.6251 250.13 85.9016C249.464 87.5569 249.727 88.8352 250.91 89.7517C251.269 90.0173 251.686 90.2333 252.186 90.3895Z" fill="#003F36"/>
<path fill-rule="evenodd" clip-rule="evenodd" d="M26.6369 53.3327C27.7769 55.8557 28.987 57.6915 24.827 61.0188C22.0809 58.7342 23.844 55.8829 26.6369 53.3327ZM16.0282 55.3096C15.1344 52.8978 17.1884 51.1444 20.996 49.7828C21.4164 53.0512 19.3401 54.6054 16.0282 55.3096ZM27.6432 26.5048C29.9986 24.7588 36.2796 25.0515 37.7338 28.3012C35.2096 29.1756 29.1378 29.7591 27.6432 26.5048ZM60.1687 47.5048C56.8993 45.8056 52.5864 37.9006 54.3007 34.3218C58.9777 36.9655 62.7821 44.501 60.1687 47.5048ZM23.2974 24.6148L25.1773 25.2021C24.8822 25.5051 24.1848 25.8969 23.5383 25.9932C19.2785 26.0288 13.143 24.5793 8.9915 26.3785C2.95897 28.9923 2.83265 35.0232 0.971837 38.8349C1.19157 38.8489 1.46968 38.8826 1.62997 38.8891C1.77858 38.8957 2.09491 38.9116 2.24139 38.9162C2.40593 38.9218 3.03858 38.8947 3.26787 38.8629C9.28872 34.693 28.4011 33.1098 32.6375 36.8056C29.5242 39.7775 16.9782 37.752 11.0742 38.5889C0.0663771 40.1488 -1.16285 47.4608 2.19257 53.5627C6.79949 47.7909 15.576 45.1547 22.4683 45.9842L24.1699 46.7005L22.3972 47.444C17.4973 49.4134 10.2749 48.3492 6.34092 52.0038C0.553607 57.3801 7.92468 60.5231 8.83015 66.337L20.3984 68.9059C41.7951 74.8264 29.6526 49.852 37.703 46.7005C43.6973 51.5886 34.1958 66.1117 34.1491 69.9496C61.2822 69.5082 43.4628 43.866 46.7141 39.9617C50.7054 41.5104 51.9155 56.3056 52.01 60.2417C52.0853 63.3707 51.1693 64.5191 51.1714 67.3377C59.139 62.4122 63.2173 60.8561 69.2106 52.2367C74.6688 44.386 71.6276 41.6142 65.2989 35.0671C70.0078 35.4561 71.7783 38.3935 73.6657 41.8423C79.2959 30.9056 73.7453 10.1507 59.1539 20.0119L53.8028 23.1111C57.1455 18.4511 61.2589 13.1413 59.8099 8.3514C56.9778 -1.01238 30.4455 -5.79386 19.5343 12.0967C24.6412 11.6619 31.9147 12.3408 36.1002 15.9328L37.2848 17.5412C34.9102 17.978 31.2088 16.1871 28.8989 15.569C16.2426 12.1846 12.4 14.7984 7.44276 24.915C11.4436 24.208 15.5558 21.3492 23.2974 24.6157V24.6148Z" fill="#003F36"/>
</svg>
