<svg width="381" height="174" viewBox="0 0 381 174" fill="none" xmlns="http://www.w3.org/2000/svg">
<path d="M226.553 18.0855C227.95 18.6167 229.559 20.4509 230.067 22.3366C230.595 24.0431 229.926 25.059 228.507 24.7081C216.582 20.5564 193.409 15.7999 166.599 15.5435C200.259 41.4289 188.265 75.976 164.201 105.095C138.399 136.364 95.6231 150.649 63.6857 150.515C52.9127 150.516 43.0721 148.802 35.1098 145.119C26.2679 141.149 19.346 134.85 15.4237 126.352C10.3801 114.981 11.634 99.7917 22.4009 81.3484C42.6869 45.7732 72.5227 26.6686 103.41 17.1838C117.259 12.799 130.73 10.2447 144.353 9.30366C131.934 4.57904 93.4651 4.68455 68.544 24.0088C85.7077 0.721802 126.476 -5.74496 156.255 8.83991C186.637 8.24121 213.189 13.7621 226.554 18.0855H226.553ZM28.4088 80.5067C29.3215 79.7522 30.3153 78.5094 30.9545 77.3488C31.9176 75.5785 31.628 73.3824 30.4183 70.8146C29.0529 72.488 27.7512 74.1688 27.2003 75.7612C26.7316 77.1697 26.8556 78.8529 28.4088 80.5067ZM154.826 15.6563C138.523 16.0968 124.627 18.4192 107.387 23.68C77.0412 33.2286 47.6066 52.0167 27.3856 87.0508C17.4861 104.32 15.9292 117.465 20.1263 126.726C22.4303 131.929 27.2469 135.969 33.6536 138.92C40.9386 142.157 50.2382 143.808 60.4493 143.922C91.869 143.813 131.85 128.466 157.227 97.6938C176.956 73.7234 192.691 34.0494 156.543 16.5887C156.044 16.1642 155.527 15.9213 154.827 15.6551L154.826 15.6563Z" fill="#FEFEFE"/>
<path d="M199.707 72.0207C200.3 71.0331 202.274 71.6256 203.854 73.2058C205.631 74.786 206.422 76.9575 205.829 77.9452L198.522 89.5966C205.434 86.2387 214.913 83.0796 218.863 88.0164C220.641 89.9904 220.048 94.5335 222.615 94.731C226.366 94.9285 231.896 94.1384 237.228 92.5595C238.413 92.1644 239.598 91.1768 240.783 92.9545C242.166 94.9298 241.376 95.5223 240.191 95.7199C234.464 97.4976 224.985 99.4716 220.837 99.0778C215.703 98.6827 214.122 97.3001 209.778 92.1657C206.817 88.6115 189.241 104.212 189.241 104.212C188.846 104.41 178.577 121.788 177.589 123.565C176.997 124.552 175.021 123.96 173.442 122.379C171.665 120.799 170.875 118.627 171.467 117.64L199.707 72.0219V72.0207ZM248.682 75.9699C249.472 75.1798 251.447 75.9699 253.026 77.5501C254.606 79.3278 255.198 81.3018 254.606 82.2895C239.598 99.4704 238.413 111.319 239.796 112.504C242.165 114.48 257.372 104.802 268.035 86.8325L268.628 86.0424C269.418 85.2523 271.393 85.8449 272.972 87.6214C274.552 89.2016 275.342 91.3731 274.552 92.1632C274.552 92.1632 274.157 92.7558 273.171 93.5459C270.603 96.705 255.793 117.638 270.603 110.529C278.305 106.778 288.634 97.9626 293.769 91.2492C294.559 90.2616 295.349 88.2863 297.125 90.0641C298.705 91.643 296.473 94.336 295.682 95.1261C290.351 102.038 282.846 111.319 274.946 115.072C268.034 118.429 259.346 116.849 258.16 108.358C238.61 125.142 222.614 121.983 233.475 97.8914C237.03 89.9917 243.546 81.5006 248.68 75.9712L248.682 75.9699ZM356.309 89.5966C357.099 91.5719 356.506 92.7558 354.926 92.3607C353.346 91.9657 351.371 90.1892 350.582 88.4115C346.632 84.6598 336.955 89.2016 333.401 92.1644C326.094 98.0889 321.947 105.199 319.775 114.282C326.686 112.308 344.657 91.3743 344.657 91.3743C345.447 90.5842 347.225 91.1768 349.002 92.9545C350.384 94.5347 351.173 96.3124 350.582 97.2988C350.187 98.2864 347.816 103.421 349.002 108.95C349.792 113.69 375.463 92.1644 375.859 91.9669C376.649 91.1768 378.229 90.1892 379.809 91.7694C381.388 93.5471 381.192 95.1261 380.402 95.9162C367.367 107.568 359.667 114.48 354.335 117.244C345.251 121.983 338.339 119.218 338.536 109.542C331.427 116.256 324.121 122.378 319.777 120.403C318.196 119.81 317.011 118.625 315.827 117.44C313.852 114.872 313.062 112.108 313.457 109.147C313.655 106.778 314.445 104.21 315.629 101.642C318.196 96.1125 322.738 89.9904 327.873 85.8437C336.76 78.5365 352.953 78.1415 356.31 89.5954L356.309 89.5966Z" fill="#FEFEFE"/>
<path d="M289.914 125.537C288.957 125.199 288.129 124.815 287.448 124.395C286.272 123.598 285.271 122.436 284.398 120.914C283.537 119.421 283.048 117.948 282.935 116.495C282.933 115.933 282.97 115.386 283.072 114.907C283.181 114.407 283.408 113.703 283.74 112.767C284.425 110.835 285.448 109.021 286.843 107.363C288.211 105.716 290.341 103.691 293.254 101.292L296.2 98.9267L295.295 94.0757C294.348 88.9634 294.438 84.7799 295.582 81.5532C296.005 80.357 296.567 79.2786 297.241 78.3278C298.659 76.4753 300.332 74.9159 302.315 73.6891C303.769 72.8131 305.236 72.2794 306.75 72.1199C308.252 71.9334 309.632 72.0868 310.867 72.5248C311.924 72.899 312.841 73.4707 313.609 74.2804C314.626 75.3355 315.144 76.5955 315.143 78.053C315.167 78.4885 314.951 79.3535 314.5 80.6282C313.943 82.2022 313.326 83.3739 312.655 84.191C310.367 86.7894 308.734 87.9145 307.718 87.555C307.479 87.4703 307.275 87.2863 307.141 86.9698C306.987 86.6459 306.966 86.3245 307.093 85.965C307.234 85.5663 307.639 84.9921 308.303 84.1959C308.986 83.4058 309.553 82.374 310.012 81.0784L310.443 79.8626C310.558 79.4099 310.499 79.0075 310.253 78.6284C309.999 78.2689 309.769 78.0309 309.53 77.9463C309.271 77.8542 308.849 77.907 308.277 78.0628C307.719 78.2468 307.023 78.6272 306.21 79.2148C305.377 79.7939 304.669 80.4625 304.047 81.2072C303.217 82.3482 302.523 83.672 302.002 85.1467C301.628 86.203 301.396 87.1747 301.271 88.0948C301.204 88.7892 301.196 89.637 301.256 90.6688C301.317 91.6993 301.386 92.6428 301.504 93.5151C301.602 94.38 301.714 94.8229 301.833 94.8646C301.952 94.9076 303.954 94.0684 307.823 92.3226C311.706 90.6037 314.683 89.4824 316.771 88.9659C318.859 88.4506 330.797 85.6988 331.415 85.9171C331.734 86.03 331.97 86.2349 332.173 86.4999C332.368 86.7563 332.424 86.9931 332.36 87.171C332.262 87.4507 320.558 90.7264 318.295 91.4343C316.011 92.1471 313.453 92.9483 310.721 94.2009C307.963 95.4658 305.897 96.5503 304.517 97.4741C303.279 98.2471 302.62 98.7758 302.543 98.9954L303.336 102.708C305.019 110.301 305.229 115.914 303.944 119.54C303.133 121.832 301.441 123.632 298.861 124.962C297.539 125.592 296.416 125.979 295.484 126.142C293.838 126.479 291.985 126.271 289.913 125.537H289.914ZM291.147 119.269C291.944 119.551 292.637 119.618 293.296 119.469C293.928 119.334 294.419 119.149 294.717 118.94C295.042 118.72 295.323 118.37 295.566 117.873C295.803 117.396 296.084 116.666 296.43 115.689C296.832 114.553 297.096 113.683 297.227 113.056C297.366 112.411 297.461 111.637 297.498 110.708C297.556 109.787 297.567 108.804 297.56 107.748C297.573 106.698 297.523 105.762 297.452 104.951C297.36 104.132 297.276 103.61 297.214 103.408C297.124 103.22 297.032 103.098 296.952 103.07C296.853 103.034 296.576 103.184 296.128 103.563C294.792 104.614 293.475 105.987 292.18 107.682C290.509 109.803 289.364 111.707 288.77 113.382C288.001 115.553 288.304 117.23 289.672 118.433C290.087 118.781 290.569 119.064 291.147 119.269Z" fill="#FEFEFE"/>
<path fill-rule="evenodd" clip-rule="evenodd" d="M30.4637 70.654C31.7814 73.964 33.18 76.3723 28.372 80.7375C25.1981 77.7403 27.2359 73.9996 30.4637 70.654ZM18.2026 73.2475C17.1696 70.0835 19.5435 67.7831 23.9442 65.9968C24.4301 70.2847 22.0304 72.3237 18.2026 73.2475ZM31.6268 35.4579C34.3492 33.1673 41.6085 33.5514 43.2893 37.8147C40.3718 38.9618 33.3542 39.7273 31.6268 35.4579ZM69.2188 63.0082C65.4401 60.779 60.4554 50.4084 62.4368 45.7132C67.8423 49.1815 72.2393 59.0675 69.2188 63.0082ZM26.6041 32.9784L28.7768 33.7489C28.4358 34.1464 27.6297 34.6604 26.8826 34.7868C21.9592 34.8334 14.868 32.9318 10.0698 35.2923C3.09756 38.7213 2.95156 46.6333 0.800889 51.634C1.05485 51.6524 1.37628 51.6966 1.56154 51.7051C1.7333 51.7137 2.0989 51.7346 2.2682 51.7407C2.45837 51.7481 3.18957 51.7125 3.45457 51.6708C10.4133 46.2002 32.5028 44.1232 37.3992 48.9717C33.8008 52.8707 19.3006 50.2133 12.4769 51.3113C-0.245615 53.3577 -1.66631 62.9505 2.21177 70.9558C7.53631 63.3836 17.6799 59.9251 25.6459 61.0133L27.6125 61.9531L25.5637 62.9284C19.9005 65.5122 11.553 64.116 7.00631 68.9106C0.317511 75.9638 8.83678 80.0873 9.88328 87.7146L23.2535 91.0848C47.9832 98.852 33.9492 66.0876 43.2537 61.9531C50.1817 68.3659 39.2002 87.4189 39.1462 92.454C70.5058 91.8749 49.9106 58.2345 53.6685 53.1124C58.2814 55.144 59.68 74.5541 59.7892 79.718C59.8763 83.823 58.8176 85.3296 58.82 89.0273C68.0288 82.5655 72.7423 80.524 79.6692 69.2161C85.9776 58.9166 82.4627 55.2802 75.1482 46.691C80.5905 47.2014 82.6369 51.0549 84.8183 55.5796C91.3255 41.2315 84.9103 14.0026 68.0459 26.9398L61.8614 31.0056C65.7247 24.8922 70.4788 17.9261 68.8041 11.6422C65.5309 -0.642363 34.8657 -6.91528 22.2549 16.5557C28.1573 15.9852 36.5637 16.8759 41.4011 21.5883L42.7703 23.6985C40.0258 24.2714 35.7478 21.922 33.0782 21.111C18.4504 16.671 14.0092 20.1001 8.27979 33.3722C12.9038 32.4447 17.6566 28.6942 26.6041 32.9796V32.9784Z" fill="#FEFEFE"/>
<path d="M326.773 155.513C325.864 155.513 325.049 155.342 324.329 154.999C323.626 154.638 323.068 154.158 322.656 153.558C322.262 152.957 322.065 152.28 322.065 151.525C322.065 150.599 322.305 149.87 322.785 149.338C323.265 148.789 324.046 148.394 325.126 148.154C326.207 147.914 327.657 147.794 329.475 147.794H330.762V149.647H329.501C328.437 149.647 327.588 149.698 326.953 149.801C326.319 149.904 325.864 150.084 325.59 150.341C325.332 150.581 325.204 150.924 325.204 151.37C325.204 151.937 325.401 152.4 325.795 152.76C326.19 153.12 326.739 153.3 327.442 153.3C328.008 153.3 328.506 153.172 328.935 152.914C329.381 152.64 329.732 152.271 329.99 151.808C330.247 151.345 330.376 150.813 330.376 150.213V147.254C330.376 146.396 330.187 145.778 329.81 145.401C329.432 145.024 328.797 144.835 327.905 144.835C327.408 144.835 326.868 144.895 326.284 145.015C325.718 145.135 325.118 145.341 324.483 145.633C324.157 145.787 323.866 145.83 323.608 145.761C323.368 145.693 323.18 145.555 323.042 145.349C322.905 145.126 322.836 144.886 322.836 144.629C322.836 144.372 322.905 144.123 323.042 143.883C323.18 143.626 323.411 143.437 323.737 143.317C324.526 142.991 325.281 142.759 326.001 142.622C326.739 142.485 327.408 142.416 328.008 142.416C329.243 142.416 330.256 142.605 331.045 142.982C331.851 143.36 332.451 143.934 332.846 144.706C333.24 145.461 333.438 146.439 333.438 147.64V153.815C333.438 154.347 333.309 154.758 333.052 155.05C332.794 155.324 332.425 155.462 331.945 155.462C331.465 155.462 331.087 155.324 330.813 155.05C330.556 154.758 330.427 154.347 330.427 153.815V152.58H330.633C330.513 153.18 330.273 153.703 329.912 154.149C329.569 154.578 329.132 154.913 328.6 155.153C328.068 155.393 327.459 155.513 326.773 155.513ZM338.297 160.093C337.783 160.093 337.388 159.956 337.114 159.682C336.839 159.407 336.702 159.004 336.702 158.472V144.089C336.702 143.557 336.839 143.154 337.114 142.879C337.388 142.605 337.774 142.468 338.272 142.468C338.786 142.468 339.181 142.605 339.455 142.879C339.73 143.154 339.867 143.557 339.867 144.089V146.096L339.584 145.324C339.841 144.449 340.365 143.746 341.154 143.214C341.96 142.682 342.895 142.416 343.958 142.416C345.056 142.416 346.017 142.682 346.84 143.214C347.681 143.746 348.333 144.5 348.796 145.478C349.259 146.439 349.49 147.597 349.49 148.952C349.49 150.29 349.259 151.456 348.796 152.451C348.333 153.429 347.689 154.184 346.866 154.716C346.042 155.247 345.073 155.513 343.958 155.513C342.912 155.513 341.994 155.256 341.205 154.741C340.416 154.209 339.884 153.523 339.61 152.683H339.919V158.472C339.919 159.004 339.773 159.407 339.481 159.682C339.207 159.956 338.812 160.093 338.297 160.093ZM343.058 153.069C343.692 153.069 344.25 152.914 344.73 152.606C345.211 152.297 345.579 151.842 345.837 151.242C346.111 150.624 346.248 149.861 346.248 148.952C346.248 147.579 345.957 146.559 345.373 145.89C344.79 145.204 344.018 144.861 343.058 144.861C342.423 144.861 341.865 145.015 341.385 145.324C340.905 145.615 340.527 146.07 340.253 146.687C339.996 147.288 339.867 148.043 339.867 148.952C339.867 150.307 340.159 151.336 340.742 152.039C341.325 152.726 342.097 153.069 343.058 153.069ZM353.726 160.093C353.211 160.093 352.817 159.956 352.542 159.682C352.268 159.407 352.131 159.004 352.131 158.472V144.089C352.131 143.557 352.268 143.154 352.542 142.879C352.817 142.605 353.203 142.468 353.7 142.468C354.215 142.468 354.609 142.605 354.884 142.879C355.158 143.154 355.296 143.557 355.296 144.089V146.096L355.013 145.324C355.27 144.449 355.793 143.746 356.582 143.214C357.388 142.682 358.323 142.416 359.387 142.416C360.485 142.416 361.445 142.682 362.269 143.214C363.109 143.746 363.761 144.5 364.224 145.478C364.687 146.439 364.919 147.597 364.919 148.952C364.919 150.29 364.687 151.456 364.224 152.451C363.761 153.429 363.118 154.184 362.294 154.716C361.471 155.247 360.502 155.513 359.387 155.513C358.34 155.513 357.423 155.256 356.634 154.741C355.844 154.209 355.313 153.523 355.038 152.683H355.347V158.472C355.347 159.004 355.201 159.407 354.91 159.682C354.635 159.956 354.241 160.093 353.726 160.093ZM358.486 153.069C359.121 153.069 359.678 152.914 360.159 152.606C360.639 152.297 361.008 151.842 361.265 151.242C361.54 150.624 361.677 149.861 361.677 148.952C361.677 147.579 361.385 146.559 360.802 145.89C360.219 145.204 359.447 144.861 358.486 144.861C357.851 144.861 357.294 145.015 356.814 145.324C356.333 145.615 355.956 146.07 355.682 146.687C355.424 147.288 355.296 148.043 355.296 148.952C355.296 150.307 355.587 151.336 356.17 152.039C356.754 152.726 357.526 153.069 358.486 153.069Z" fill="#FEFEFE"/>
</svg>
